G75*
%MOIN*%
%OFA0B0*%
%FSLAX25Y25*%
%IPPOS*%
%LPD*%
%AMOC8*
5,1,8,0,0,1.08239X$1,22.5*
%
%ADD10C,0.00000*%
%ADD11C,0.00600*%
%ADD12R,0.00295X0.00059*%
%ADD13R,0.02421X0.00059*%
%ADD14R,0.03366X0.00059*%
%ADD15R,0.04075X0.00059*%
%ADD16R,0.04724X0.00059*%
%ADD17R,0.05197X0.00059*%
%ADD18R,0.05669X0.00059*%
%ADD19R,0.06142X0.00059*%
%ADD20R,0.00059X0.00059*%
%ADD21R,0.06555X0.00059*%
%ADD22R,0.00118X0.00059*%
%ADD23R,0.06969X0.00059*%
%ADD24R,0.00236X0.00059*%
%ADD25R,0.07323X0.00059*%
%ADD26R,0.07677X0.00059*%
%ADD27R,0.00413X0.00059*%
%ADD28R,0.08031X0.00059*%
%ADD29R,0.00472X0.00059*%
%ADD30R,0.08327X0.00059*%
%ADD31R,0.00591X0.00059*%
%ADD32R,0.08622X0.00059*%
%ADD33R,0.00650X0.00059*%
%ADD34R,0.08917X0.00059*%
%ADD35R,0.00768X0.00059*%
%ADD36R,0.09213X0.00059*%
%ADD37R,0.00827X0.00059*%
%ADD38R,0.09449X0.00059*%
%ADD39R,0.00945X0.00059*%
%ADD40R,0.09685X0.00059*%
%ADD41R,0.01004X0.00059*%
%ADD42R,0.09980X0.00059*%
%ADD43R,0.01122X0.00059*%
%ADD44R,0.10217X0.00059*%
%ADD45R,0.01181X0.00059*%
%ADD46R,0.10453X0.00059*%
%ADD47R,0.01299X0.00059*%
%ADD48R,0.10748X0.00059*%
%ADD49R,0.01358X0.00059*%
%ADD50R,0.10984X0.00059*%
%ADD51R,0.01476X0.00059*%
%ADD52R,0.11102X0.00059*%
%ADD53R,0.01535X0.00059*%
%ADD54R,0.11339X0.00059*%
%ADD55R,0.01654X0.00059*%
%ADD56R,0.11575X0.00059*%
%ADD57R,0.01713X0.00059*%
%ADD58R,0.11752X0.00059*%
%ADD59R,0.01831X0.00059*%
%ADD60R,0.11988X0.00059*%
%ADD61R,0.01890X0.00059*%
%ADD62R,0.12165X0.00059*%
%ADD63R,0.02008X0.00059*%
%ADD64R,0.12402X0.00059*%
%ADD65R,0.02067X0.00059*%
%ADD66R,0.12520X0.00059*%
%ADD67R,0.02185X0.00059*%
%ADD68R,0.12756X0.00059*%
%ADD69R,0.02244X0.00059*%
%ADD70R,0.12874X0.00059*%
%ADD71R,0.02303X0.00059*%
%ADD72R,0.13110X0.00059*%
%ADD73R,0.02362X0.00059*%
%ADD74R,0.13228X0.00059*%
%ADD75R,0.13406X0.00059*%
%ADD76R,0.13583X0.00059*%
%ADD77R,0.13760X0.00059*%
%ADD78R,0.13937X0.00059*%
%ADD79R,0.06673X0.00059*%
%ADD80R,0.06024X0.00059*%
%ADD81R,0.05728X0.00059*%
%ADD82R,0.05433X0.00059*%
%ADD83R,0.05256X0.00059*%
%ADD84R,0.05079X0.00059*%
%ADD85R,0.05020X0.00059*%
%ADD86R,0.04961X0.00059*%
%ADD87R,0.04902X0.00059*%
%ADD88R,0.04783X0.00059*%
%ADD89R,0.04843X0.00059*%
%ADD90R,0.04665X0.00059*%
%ADD91R,0.04547X0.00059*%
%ADD92R,0.04488X0.00059*%
%ADD93R,0.04370X0.00059*%
%ADD94R,0.04311X0.00059*%
%ADD95R,0.04252X0.00059*%
%ADD96R,0.04193X0.00059*%
%ADD97R,0.04134X0.00059*%
%ADD98R,0.04016X0.00059*%
%ADD99R,0.03957X0.00059*%
%ADD100R,0.03898X0.00059*%
%ADD101R,0.03839X0.00059*%
%ADD102R,0.03780X0.00059*%
%ADD103R,0.03720X0.00059*%
%ADD104R,0.03661X0.00059*%
%ADD105R,0.03602X0.00059*%
%ADD106R,0.03543X0.00059*%
%ADD107R,0.03484X0.00059*%
%ADD108R,0.03425X0.00059*%
%ADD109R,0.03307X0.00059*%
%ADD110R,0.03248X0.00059*%
%ADD111R,0.03189X0.00059*%
%ADD112R,0.03130X0.00059*%
%ADD113R,0.03071X0.00059*%
%ADD114R,0.03012X0.00059*%
%ADD115R,0.02835X0.00059*%
%ADD116R,0.02717X0.00059*%
%ADD117R,0.02539X0.00059*%
%ADD118R,0.02953X0.00059*%
%ADD119R,0.02126X0.00059*%
%ADD120R,0.02894X0.00059*%
%ADD121R,0.05315X0.00059*%
%ADD122R,0.05551X0.00059*%
%ADD123R,0.01594X0.00059*%
%ADD124R,0.05787X0.00059*%
%ADD125R,0.06260X0.00059*%
%ADD126R,0.06496X0.00059*%
%ADD127R,0.01063X0.00059*%
%ADD128R,0.06732X0.00059*%
%ADD129R,0.06909X0.00059*%
%ADD130R,0.07087X0.00059*%
%ADD131R,0.02776X0.00059*%
%ADD132R,0.00531X0.00059*%
%ADD133R,0.07441X0.00059*%
%ADD134R,0.07618X0.00059*%
%ADD135R,0.07795X0.00059*%
%ADD136R,0.00177X0.00059*%
%ADD137R,0.07913X0.00059*%
%ADD138R,0.08150X0.00059*%
%ADD139R,0.08268X0.00059*%
%ADD140R,0.08386X0.00059*%
%ADD141R,0.02657X0.00059*%
%ADD142R,0.08563X0.00059*%
%ADD143R,0.08681X0.00059*%
%ADD144R,0.08858X0.00059*%
%ADD145R,0.08976X0.00059*%
%ADD146R,0.09094X0.00059*%
%ADD147R,0.09331X0.00059*%
%ADD148R,0.09567X0.00059*%
%ADD149R,0.02598X0.00059*%
%ADD150R,0.09803X0.00059*%
%ADD151R,0.09921X0.00059*%
%ADD152R,0.10098X0.00059*%
%ADD153R,0.04606X0.00059*%
%ADD154R,0.02480X0.00059*%
%ADD155R,0.00886X0.00059*%
%ADD156R,0.00709X0.00059*%
%ADD157R,0.00354X0.00059*%
%ADD158R,0.09390X0.00059*%
%ADD159R,0.01240X0.00059*%
%ADD160R,0.01417X0.00059*%
%ADD161R,0.01949X0.00059*%
%ADD162R,0.10157X0.00059*%
%ADD163R,0.10039X0.00059*%
%ADD164R,0.08740X0.00059*%
%ADD165R,0.07972X0.00059*%
%ADD166R,0.06319X0.00059*%
%ADD167R,0.06083X0.00059*%
%ADD168R,0.05846X0.00059*%
%ADD169R,0.01772X0.00059*%
%ADD170R,0.04429X0.00059*%
%ADD171R,0.05138X0.00059*%
%ADD172R,0.05374X0.00059*%
%ADD173R,0.08209X0.00059*%
%ADD174R,0.05610X0.00059*%
%ADD175R,0.05965X0.00059*%
%ADD176R,0.13819X0.00059*%
%ADD177R,0.08445X0.00059*%
%ADD178R,0.13465X0.00059*%
%ADD179R,0.08504X0.00059*%
%ADD180R,0.12933X0.00059*%
%ADD181R,0.12579X0.00059*%
%ADD182R,0.08799X0.00059*%
%ADD183R,0.12047X0.00059*%
%ADD184R,0.11811X0.00059*%
%ADD185R,0.11161X0.00059*%
%ADD186R,0.09035X0.00059*%
%ADD187R,0.09154X0.00059*%
%ADD188R,0.10512X0.00059*%
%ADD189R,0.10276X0.00059*%
%ADD190R,0.09272X0.00059*%
%ADD191R,0.09744X0.00059*%
%ADD192R,0.09508X0.00059*%
%ADD193R,0.07736X0.00059*%
%ADD194R,0.09626X0.00059*%
%ADD195R,0.07382X0.00059*%
%ADD196R,0.06614X0.00059*%
%ADD197R,0.06201X0.00059*%
%ADD198R,0.09862X0.00059*%
%ADD199R,0.00040X0.00040*%
%ADD200R,0.01200X0.00040*%
%ADD201R,0.00040X0.00040*%
%ADD202R,0.01240X0.00040*%
%ADD203R,0.02360X0.00040*%
%ADD204R,0.02800X0.00040*%
%ADD205R,0.02720X0.00040*%
%ADD206R,0.03120X0.00040*%
%ADD207R,0.03040X0.00040*%
%ADD208R,0.03360X0.00040*%
%ADD209R,0.03280X0.00040*%
%ADD210R,0.03600X0.00040*%
%ADD211R,0.03480X0.00040*%
%ADD212R,0.03760X0.00040*%
%ADD213R,0.03680X0.00040*%
%ADD214R,0.03960X0.00040*%
%ADD215R,0.03880X0.00040*%
%ADD216R,0.04120X0.00040*%
%ADD217R,0.04040X0.00040*%
%ADD218R,0.04280X0.00040*%
%ADD219R,0.04200X0.00040*%
%ADD220R,0.04440X0.00040*%
%ADD221R,0.04360X0.00040*%
%ADD222R,0.04600X0.00040*%
%ADD223R,0.04520X0.00040*%
%ADD224R,0.04720X0.00040*%
%ADD225R,0.04640X0.00040*%
%ADD226R,0.04840X0.00040*%
%ADD227R,0.04760X0.00040*%
%ADD228R,0.04960X0.00040*%
%ADD229R,0.04880X0.00040*%
%ADD230R,0.05080X0.00040*%
%ADD231R,0.05000X0.00040*%
%ADD232R,0.05200X0.00040*%
%ADD233R,0.05120X0.00040*%
%ADD234R,0.05320X0.00040*%
%ADD235R,0.05240X0.00040*%
%ADD236R,0.05440X0.00040*%
%ADD237R,0.05360X0.00040*%
%ADD238R,0.05560X0.00040*%
%ADD239R,0.05480X0.00040*%
%ADD240R,0.05640X0.00040*%
%ADD241R,0.05760X0.00040*%
%ADD242R,0.05680X0.00040*%
%ADD243R,0.05840X0.00040*%
%ADD244R,0.05760X0.00040*%
%ADD245R,0.05960X0.00040*%
%ADD246R,0.05880X0.00040*%
%ADD247R,0.06040X0.00040*%
%ADD248R,0.06120X0.00040*%
%ADD249R,0.06040X0.00040*%
%ADD250R,0.06200X0.00040*%
%ADD251R,0.06120X0.00040*%
%ADD252R,0.06320X0.00040*%
%ADD253R,0.06240X0.00040*%
%ADD254R,0.06400X0.00040*%
%ADD255R,0.06320X0.00040*%
%ADD256R,0.06480X0.00040*%
%ADD257R,0.06560X0.00040*%
%ADD258R,0.06640X0.00040*%
%ADD259R,0.06560X0.00040*%
%ADD260R,0.06720X0.00040*%
%ADD261R,0.06640X0.00040*%
%ADD262R,0.06800X0.00040*%
%ADD263R,0.06720X0.00040*%
%ADD264R,0.06880X0.00040*%
%ADD265R,0.06960X0.00040*%
%ADD266R,0.07000X0.00040*%
%ADD267R,0.06960X0.00040*%
%ADD268R,0.07080X0.00040*%
%ADD269R,0.07000X0.00040*%
%ADD270R,0.07160X0.00040*%
%ADD271R,0.07240X0.00040*%
%ADD272R,0.07320X0.00040*%
%ADD273R,0.07240X0.00040*%
%ADD274R,0.07360X0.00040*%
%ADD275R,0.07280X0.00040*%
%ADD276R,0.07440X0.00040*%
%ADD277R,0.07360X0.00040*%
%ADD278R,0.07520X0.00040*%
%ADD279R,0.07440X0.00040*%
%ADD280R,0.07560X0.00040*%
%ADD281R,0.07480X0.00040*%
%ADD282R,0.07640X0.00040*%
%ADD283R,0.07720X0.00040*%
%ADD284R,0.07600X0.00040*%
%ADD285R,0.07760X0.00040*%
%ADD286R,0.07680X0.00040*%
%ADD287R,0.07840X0.00040*%
%ADD288R,0.07880X0.00040*%
%ADD289R,0.07800X0.00040*%
%ADD290R,0.07960X0.00040*%
%ADD291R,0.08000X0.00040*%
%ADD292R,0.07920X0.00040*%
%ADD293R,0.08080X0.00040*%
%ADD294R,0.08000X0.00040*%
%ADD295R,0.08120X0.00040*%
%ADD296R,0.08040X0.00040*%
%ADD297R,0.08160X0.00040*%
%ADD298R,0.08240X0.00040*%
%ADD299R,0.08280X0.00040*%
%ADD300R,0.08200X0.00040*%
%ADD301R,0.08360X0.00040*%
%ADD302R,0.08280X0.00040*%
%ADD303R,0.08400X0.00040*%
%ADD304R,0.08320X0.00040*%
%ADD305R,0.08440X0.00040*%
%ADD306R,0.08520X0.00040*%
%ADD307R,0.08440X0.00040*%
%ADD308R,0.08560X0.00040*%
%ADD309R,0.08480X0.00040*%
%ADD310R,0.08600X0.00040*%
%ADD311R,0.08520X0.00040*%
%ADD312R,0.08680X0.00040*%
%ADD313R,0.08720X0.00040*%
%ADD314R,0.08640X0.00040*%
%ADD315R,0.08760X0.00040*%
%ADD316R,0.08800X0.00040*%
%ADD317R,0.08720X0.00040*%
%ADD318R,0.08880X0.00040*%
%ADD319R,0.08800X0.00040*%
%ADD320R,0.08920X0.00040*%
%ADD321R,0.08840X0.00040*%
%ADD322R,0.08960X0.00040*%
%ADD323R,0.09000X0.00040*%
%ADD324R,0.08920X0.00040*%
%ADD325R,0.09040X0.00040*%
%ADD326R,0.08960X0.00040*%
%ADD327R,0.09120X0.00040*%
%ADD328R,0.09040X0.00040*%
%ADD329R,0.09160X0.00040*%
%ADD330R,0.09080X0.00040*%
%ADD331R,0.09200X0.00040*%
%ADD332R,0.09120X0.00040*%
%ADD333R,0.09240X0.00040*%
%ADD334R,0.09280X0.00040*%
%ADD335R,0.09200X0.00040*%
%ADD336R,0.09320X0.00040*%
%ADD337R,0.09240X0.00040*%
%ADD338R,0.09360X0.00040*%
%ADD339R,0.09280X0.00040*%
%ADD340R,0.09400X0.00040*%
%ADD341R,0.09320X0.00040*%
%ADD342R,0.09440X0.00040*%
%ADD343R,0.09520X0.00040*%
%ADD344R,0.09440X0.00040*%
%ADD345R,0.09560X0.00040*%
%ADD346R,0.09480X0.00040*%
%ADD347R,0.09600X0.00040*%
%ADD348R,0.09520X0.00040*%
%ADD349R,0.09640X0.00040*%
%ADD350R,0.09680X0.00040*%
%ADD351R,0.09720X0.00040*%
%ADD352R,0.09640X0.00040*%
%ADD353R,0.09760X0.00040*%
%ADD354R,0.09800X0.00040*%
%ADD355R,0.09720X0.00040*%
%ADD356R,0.09840X0.00040*%
%ADD357R,0.00640X0.00040*%
%ADD358R,0.00560X0.00040*%
%ADD359R,0.00240X0.00040*%
%ADD360R,0.07640X0.00040*%
%ADD361R,0.00240X0.00040*%
%ADD362R,0.07400X0.00040*%
%ADD363R,0.07200X0.00040*%
%ADD364R,0.07040X0.00040*%
%ADD365R,0.06840X0.00040*%
%ADD366R,0.06720X0.00040*%
%ADD367R,0.06600X0.00040*%
%ADD368R,0.06520X0.00040*%
%ADD369R,0.06240X0.00040*%
%ADD370R,0.06200X0.00040*%
%ADD371R,0.06160X0.00040*%
%ADD372R,0.06120X0.00040*%
%ADD373R,0.05880X0.00040*%
%ADD374R,0.05840X0.00040*%
%ADD375R,0.05800X0.00040*%
%ADD376R,0.05720X0.00040*%
%ADD377R,0.05680X0.00040*%
%ADD378R,0.05600X0.00040*%
%ADD379R,0.05520X0.00040*%
%ADD380R,0.05400X0.00040*%
%ADD381R,0.05200X0.00040*%
%ADD382R,0.05160X0.00040*%
%ADD383R,0.05120X0.00040*%
%ADD384R,0.05080X0.00040*%
%ADD385R,0.04920X0.00040*%
%ADD386R,0.04840X0.00040*%
%ADD387R,0.04800X0.00040*%
%ADD388R,0.04800X0.00040*%
%ADD389R,0.04720X0.00040*%
%ADD390R,0.04680X0.00040*%
%ADD391R,0.04680X0.00040*%
%ADD392R,0.04600X0.00040*%
%ADD393R,0.04560X0.00040*%
%ADD394R,0.04520X0.00040*%
%ADD395R,0.04520X0.00040*%
%ADD396R,0.04480X0.00040*%
%ADD397R,0.04440X0.00040*%
%ADD398R,0.04440X0.00040*%
%ADD399R,0.04400X0.00040*%
%ADD400R,0.04400X0.00040*%
%ADD401R,0.04320X0.00040*%
%ADD402R,0.04320X0.00040*%
%ADD403R,0.04280X0.00040*%
%ADD404R,0.04240X0.00040*%
%ADD405R,0.04240X0.00040*%
%ADD406R,0.04200X0.00040*%
%ADD407R,0.04160X0.00040*%
%ADD408R,0.04120X0.00040*%
%ADD409R,0.04080X0.00040*%
%ADD410R,0.04120X0.00040*%
%ADD411R,0.04040X0.00040*%
%ADD412R,0.04040X0.00040*%
%ADD413R,0.04000X0.00040*%
%ADD414R,0.04000X0.00040*%
%ADD415R,0.03960X0.00040*%
%ADD416R,0.03920X0.00040*%
%ADD417R,0.03880X0.00040*%
%ADD418R,0.03920X0.00040*%
%ADD419R,0.03840X0.00040*%
%ADD420R,0.03840X0.00040*%
%ADD421R,0.03800X0.00040*%
%ADD422R,0.03840X0.00040*%
%ADD423R,0.03800X0.00040*%
%ADD424R,0.03760X0.00040*%
%ADD425R,0.03720X0.00040*%
%ADD426R,0.03720X0.00040*%
%ADD427R,0.03720X0.00040*%
%ADD428R,0.03680X0.00040*%
%ADD429R,0.03640X0.00040*%
%ADD430R,0.10680X0.00040*%
%ADD431R,0.03640X0.00040*%
%ADD432R,0.10680X0.00040*%
%ADD433R,0.10720X0.00040*%
%ADD434R,0.10720X0.00040*%
%ADD435R,0.03640X0.00040*%
%ADD436R,0.03640X0.00040*%
%ADD437R,0.10760X0.00040*%
%ADD438R,0.10760X0.00040*%
%ADD439R,0.03600X0.00040*%
%ADD440R,0.10800X0.00040*%
%ADD441R,0.10800X0.00040*%
%ADD442R,0.03720X0.00040*%
%ADD443R,0.03920X0.00040*%
%ADD444R,0.04040X0.00040*%
%ADD445R,0.04080X0.00040*%
%ADD446R,0.04120X0.00040*%
%ADD447R,0.04160X0.00040*%
%ADD448R,0.04240X0.00040*%
%ADD449R,0.04320X0.00040*%
%ADD450R,0.04480X0.00040*%
%ADD451R,0.04560X0.00040*%
%ADD452R,0.04640X0.00040*%
%ADD453R,0.04760X0.00040*%
%ADD454R,0.04880X0.00040*%
%ADD455R,0.04920X0.00040*%
%ADD456R,0.05000X0.00040*%
%ADD457R,0.05160X0.00040*%
%ADD458R,0.05320X0.00040*%
%ADD459R,0.05400X0.00040*%
%ADD460R,0.05520X0.00040*%
%ADD461R,0.05600X0.00040*%
%ADD462R,0.05800X0.00040*%
%ADD463R,0.06520X0.00040*%
%ADD464R,0.07200X0.00040*%
%ADD465R,0.07160X0.00040*%
%ADD466R,0.07600X0.00040*%
%ADD467R,0.00240X0.00040*%
%ADD468R,0.07640X0.00040*%
%ADD469R,0.00200X0.00040*%
%ADD470R,0.09800X0.00040*%
%ADD471R,0.09720X0.00040*%
%ADD472R,0.09720X0.00040*%
%ADD473R,0.09640X0.00040*%
%ADD474R,0.09600X0.00040*%
%ADD475R,0.09520X0.00040*%
%ADD476R,0.09520X0.00040*%
%ADD477R,0.09440X0.00040*%
%ADD478R,0.09360X0.00040*%
%ADD479R,0.09160X0.00040*%
%ADD480R,0.09080X0.00040*%
%ADD481R,0.09040X0.00040*%
%ADD482R,0.08920X0.00040*%
%ADD483R,0.08840X0.00040*%
%ADD484R,0.08720X0.00040*%
%ADD485R,0.08680X0.00040*%
%ADD486R,0.08600X0.00040*%
%ADD487R,0.08560X0.00040*%
%ADD488R,0.08480X0.00040*%
%ADD489R,0.08400X0.00040*%
%ADD490R,0.08320X0.00040*%
%ADD491R,0.08200X0.00040*%
%ADD492R,0.08120X0.00040*%
%ADD493R,0.08040X0.00040*%
%ADD494R,0.07920X0.00040*%
%ADD495R,0.07840X0.00040*%
%ADD496R,0.07760X0.00040*%
%ADD497R,0.07720X0.00040*%
%ADD498R,0.07520X0.00040*%
%ADD499R,0.07440X0.00040*%
%ADD500R,0.07280X0.00040*%
%ADD501R,0.07080X0.00040*%
%ADD502R,0.06800X0.00040*%
%ADD503R,0.06720X0.00040*%
%ADD504R,0.06640X0.00040*%
%ADD505R,0.06400X0.00040*%
%ADD506R,0.06320X0.00040*%
%ADD507R,0.06240X0.00040*%
%ADD508R,0.05960X0.00040*%
%ADD509R,0.05440X0.00040*%
%ADD510R,0.05360X0.00040*%
%ADD511R,0.04840X0.00040*%
%ADD512R,0.04520X0.00040*%
%ADD513R,0.03120X0.00040*%
%ADD514R,0.03000X0.00040*%
%ADD515R,0.02760X0.00040*%
%ADD516R,0.02480X0.00040*%
%ADD517R,0.02400X0.00040*%
%ADD518R,0.01280X0.00040*%
%ADD519R,0.00080X0.00040*%
%ADD520R,0.00880X0.00020*%
%ADD521R,0.00880X0.00020*%
%ADD522R,0.00860X0.00020*%
%ADD523R,0.00860X0.00020*%
%ADD524R,0.00520X0.00020*%
%ADD525R,0.00380X0.00020*%
%ADD526R,0.00920X0.00020*%
%ADD527R,0.00640X0.00020*%
%ADD528R,0.01160X0.00020*%
%ADD529R,0.00840X0.00020*%
%ADD530R,0.00820X0.00020*%
%ADD531R,0.01360X0.00020*%
%ADD532R,0.01000X0.00020*%
%ADD533R,0.00960X0.00020*%
%ADD534R,0.01520X0.00020*%
%ADD535R,0.01100X0.00020*%
%ADD536R,0.01080X0.00020*%
%ADD537R,0.01680X0.00020*%
%ADD538R,0.01220X0.00020*%
%ADD539R,0.01800X0.00020*%
%ADD540R,0.00820X0.00020*%
%ADD541R,0.01320X0.00020*%
%ADD542R,0.01300X0.00020*%
%ADD543R,0.01920X0.00020*%
%ADD544R,0.01420X0.00020*%
%ADD545R,0.01400X0.00020*%
%ADD546R,0.02040X0.00020*%
%ADD547R,0.00800X0.00020*%
%ADD548R,0.01500X0.00020*%
%ADD549R,0.01480X0.00020*%
%ADD550R,0.02120X0.00020*%
%ADD551R,0.00820X0.00020*%
%ADD552R,0.01580X0.00020*%
%ADD553R,0.01560X0.00020*%
%ADD554R,0.02240X0.00020*%
%ADD555R,0.01660X0.00020*%
%ADD556R,0.01640X0.00020*%
%ADD557R,0.02320X0.00020*%
%ADD558R,0.00820X0.00020*%
%ADD559R,0.01720X0.00020*%
%ADD560R,0.01700X0.00020*%
%ADD561R,0.02400X0.00020*%
%ADD562R,0.01800X0.00020*%
%ADD563R,0.01780X0.00020*%
%ADD564R,0.02480X0.00020*%
%ADD565R,0.01860X0.00020*%
%ADD566R,0.01840X0.00020*%
%ADD567R,0.02560X0.00020*%
%ADD568R,0.01920X0.00020*%
%ADD569R,0.01900X0.00020*%
%ADD570R,0.02620X0.00020*%
%ADD571R,0.01960X0.00020*%
%ADD572R,0.02700X0.00020*%
%ADD573R,0.02040X0.00020*%
%ADD574R,0.02000X0.00020*%
%ADD575R,0.02760X0.00020*%
%ADD576R,0.02100X0.00020*%
%ADD577R,0.02060X0.00020*%
%ADD578R,0.02820X0.00020*%
%ADD579R,0.02140X0.00020*%
%ADD580R,0.02120X0.00020*%
%ADD581R,0.02900X0.00020*%
%ADD582R,0.02200X0.00020*%
%ADD583R,0.02180X0.00020*%
%ADD584R,0.02940X0.00020*%
%ADD585R,0.02220X0.00020*%
%ADD586R,0.03020X0.00020*%
%ADD587R,0.02300X0.00020*%
%ADD588R,0.02280X0.00020*%
%ADD589R,0.03060X0.00020*%
%ADD590R,0.02320X0.00020*%
%ADD591R,0.03100X0.00020*%
%ADD592R,0.02360X0.00020*%
%ADD593R,0.03180X0.00020*%
%ADD594R,0.02420X0.00020*%
%ADD595R,0.02380X0.00020*%
%ADD596R,0.03220X0.00020*%
%ADD597R,0.02460X0.00020*%
%ADD598R,0.02440X0.00020*%
%ADD599R,0.03260X0.00020*%
%ADD600R,0.02500X0.00020*%
%ADD601R,0.03300X0.00020*%
%ADD602R,0.02520X0.00020*%
%ADD603R,0.02520X0.00020*%
%ADD604R,0.03340X0.00020*%
%ADD605R,0.02580X0.00020*%
%ADD606R,0.02560X0.00020*%
%ADD607R,0.03380X0.00020*%
%ADD608R,0.02600X0.00020*%
%ADD609R,0.03420X0.00020*%
%ADD610R,0.02640X0.00020*%
%ADD611R,0.03460X0.00020*%
%ADD612R,0.02680X0.00020*%
%ADD613R,0.03500X0.00020*%
%ADD614R,0.02700X0.00020*%
%ADD615R,0.02720X0.00020*%
%ADD616R,0.03540X0.00020*%
%ADD617R,0.02740X0.00020*%
%ADD618R,0.02760X0.00020*%
%ADD619R,0.01500X0.00020*%
%ADD620R,0.01640X0.00020*%
%ADD621R,0.02780X0.00020*%
%ADD622R,0.02800X0.00020*%
%ADD623R,0.01360X0.00020*%
%ADD624R,0.01540X0.00020*%
%ADD625R,0.02820X0.00020*%
%ADD626R,0.01280X0.00020*%
%ADD627R,0.01440X0.00020*%
%ADD628R,0.00840X0.00020*%
%ADD629R,0.01140X0.00020*%
%ADD630R,0.01120X0.00020*%
%ADD631R,0.01380X0.00020*%
%ADD632R,0.01040X0.00020*%
%ADD633R,0.01260X0.00020*%
%ADD634R,0.01340X0.00020*%
%ADD635R,0.01020X0.00020*%
%ADD636R,0.01160X0.00020*%
%ADD637R,0.01340X0.00020*%
%ADD638R,0.01200X0.00020*%
%ADD639R,0.00940X0.00020*%
%ADD640R,0.01120X0.00020*%
%ADD641R,0.01300X0.00020*%
%ADD642R,0.00920X0.00020*%
%ADD643R,0.01140X0.00020*%
%ADD644R,0.01240X0.00020*%
%ADD645R,0.00900X0.00020*%
%ADD646R,0.01120X0.00020*%
%ADD647R,0.01200X0.00020*%
%ADD648R,0.01080X0.00020*%
%ADD649R,0.01240X0.00020*%
%ADD650R,0.00840X0.00020*%
%ADD651R,0.01180X0.00020*%
%ADD652R,0.01060X0.00020*%
%ADD653R,0.01140X0.00020*%
%ADD654R,0.01020X0.00020*%
%ADD655R,0.00780X0.00020*%
%ADD656R,0.01040X0.00020*%
%ADD657R,0.01120X0.00020*%
%ADD658R,0.01000X0.00020*%
%ADD659R,0.00760X0.00020*%
%ADD660R,0.00980X0.00020*%
%ADD661R,0.00740X0.00020*%
%ADD662R,0.00740X0.00020*%
%ADD663R,0.00720X0.00020*%
%ADD664R,0.00980X0.00020*%
%ADD665R,0.00720X0.00020*%
%ADD666R,0.00960X0.00020*%
%ADD667R,0.00720X0.00020*%
%ADD668R,0.01600X0.00020*%
%ADD669R,0.00940X0.00020*%
%ADD670R,0.00700X0.00020*%
%ADD671R,0.01560X0.00020*%
%ADD672R,0.00940X0.00020*%
%ADD673R,0.00680X0.00020*%
%ADD674R,0.00920X0.00020*%
%ADD675R,0.00660X0.00020*%
%ADD676R,0.01040X0.00020*%
%ADD677R,0.00920X0.00020*%
%ADD678R,0.01060X0.00020*%
%ADD679R,0.00640X0.00020*%
%ADD680R,0.01480X0.00020*%
%ADD681R,0.01460X0.00020*%
%ADD682R,0.00900X0.00020*%
%ADD683R,0.01020X0.00020*%
%ADD684R,0.01420X0.00020*%
%ADD685R,0.01020X0.00020*%
%ADD686R,0.01440X0.00020*%
%ADD687R,0.01420X0.00020*%
%ADD688R,0.01380X0.00020*%
%ADD689R,0.01320X0.00020*%
%ADD690R,0.01340X0.00020*%
%ADD691R,0.01320X0.00020*%
%ADD692R,0.01320X0.00020*%
%ADD693R,0.01280X0.00020*%
%ADD694R,0.01220X0.00020*%
%ADD695R,0.01180X0.00020*%
%ADD696R,0.01100X0.00020*%
%ADD697R,0.00940X0.00020*%
%ADD698R,0.01040X0.00020*%
%ADD699R,0.00540X0.00020*%
%ADD700R,0.00320X0.00020*%
%ADD701R,0.00100X0.00020*%
%ADD702R,0.01240X0.00020*%
%ADD703R,0.01520X0.00020*%
%ADD704R,0.01580X0.00020*%
%ADD705R,0.01620X0.00020*%
%ADD706R,0.01680X0.00020*%
%ADD707R,0.01720X0.00020*%
%ADD708R,0.01740X0.00020*%
%ADD709R,0.01820X0.00020*%
%ADD710R,0.01860X0.00020*%
%ADD711R,0.01880X0.00020*%
%ADD712R,0.01940X0.00020*%
%ADD713R,0.01960X0.00020*%
%ADD714R,0.01980X0.00020*%
%ADD715R,0.01980X0.00020*%
%ADD716R,0.02000X0.00020*%
%ADD717R,0.02020X0.00020*%
%ADD718R,0.00840X0.00020*%
%ADD719R,0.02040X0.00020*%
%ADD720R,0.02060X0.00020*%
%ADD721R,0.02040X0.00020*%
%ADD722R,0.02020X0.00020*%
%ADD723R,0.01940X0.00020*%
%ADD724R,0.01840X0.00020*%
%ADD725R,0.01820X0.00020*%
%ADD726R,0.01760X0.00020*%
%ADD727R,0.01660X0.00020*%
%ADD728R,0.01260X0.00020*%
%ADD729R,0.00100X0.00020*%
%ADD730R,0.00320X0.00020*%
%ADD731R,0.00540X0.00020*%
%ADD732R,0.00800X0.00020*%
%ADD733R,0.01140X0.00020*%
%ADD734R,0.01220X0.00020*%
%ADD735R,0.01240X0.00020*%
%ADD736R,0.01460X0.00020*%
%ADD737R,0.02780X0.00020*%
%ADD738R,0.03300X0.00020*%
%ADD739R,0.02720X0.00020*%
%ADD740R,0.03260X0.00020*%
%ADD741R,0.02680X0.00020*%
%ADD742R,0.03220X0.00020*%
%ADD743R,0.03200X0.00020*%
%ADD744R,0.02620X0.00020*%
%ADD745R,0.03160X0.00020*%
%ADD746R,0.02580X0.00020*%
%ADD747R,0.03120X0.00020*%
%ADD748R,0.02540X0.00020*%
%ADD749R,0.03080X0.00020*%
%ADD750R,0.02480X0.00020*%
%ADD751R,0.03040X0.00020*%
%ADD752R,0.03000X0.00020*%
%ADD753R,0.02400X0.00020*%
%ADD754R,0.02960X0.00020*%
%ADD755R,0.02360X0.00020*%
%ADD756R,0.02920X0.00020*%
%ADD757R,0.02320X0.00020*%
%ADD758R,0.02880X0.00020*%
%ADD759R,0.02280X0.00020*%
%ADD760R,0.02840X0.00020*%
%ADD761R,0.02800X0.00020*%
%ADD762R,0.02180X0.00020*%
%ADD763R,0.02740X0.00020*%
%ADD764R,0.02140X0.00020*%
%ADD765R,0.02100X0.00020*%
%ADD766R,0.02520X0.00020*%
%ADD767R,0.01920X0.00020*%
%ADD768R,0.01880X0.00020*%
%ADD769R,0.02380X0.00020*%
%ADD770R,0.02320X0.00020*%
%ADD771R,0.01760X0.00020*%
%ADD772R,0.02160X0.00020*%
%ADD773R,0.01620X0.00020*%
%ADD774R,0.01640X0.00020*%
%ADD775R,0.01340X0.00020*%
%ADD776R,0.00640X0.00020*%
%ADD777R,0.00520X0.00020*%
%ADD778R,0.00360X0.00020*%
D10*
X0031000Y0001256D02*
X0031000Y0151256D01*
X0306000Y0151256D01*
X0306000Y0001256D01*
X0031000Y0001256D01*
D11*
X0132555Y0116556D02*
X0136825Y0116556D01*
X0136825Y0122961D01*
X0132555Y0122961D01*
X0134690Y0119759D02*
X0136825Y0119759D01*
X0139000Y0120826D02*
X0139000Y0121894D01*
X0140068Y0122961D01*
X0142203Y0122961D01*
X0143270Y0121894D01*
X0145445Y0121894D02*
X0146513Y0122961D01*
X0148648Y0122961D01*
X0149716Y0121894D01*
X0151891Y0121894D02*
X0152959Y0122961D01*
X0155094Y0122961D01*
X0156161Y0121894D01*
X0158336Y0122961D02*
X0162607Y0122961D01*
X0160472Y0122961D02*
X0160472Y0116556D01*
X0164782Y0116556D02*
X0164782Y0122961D01*
X0169052Y0122961D02*
X0164782Y0116556D01*
X0169052Y0116556D02*
X0169052Y0122961D01*
X0171227Y0119759D02*
X0175498Y0119759D01*
X0177673Y0119759D02*
X0180876Y0119759D01*
X0181943Y0120826D01*
X0181943Y0121894D01*
X0180876Y0122961D01*
X0178741Y0122961D01*
X0177673Y0121894D01*
X0177673Y0117623D01*
X0178741Y0116556D01*
X0180876Y0116556D01*
X0181943Y0117623D01*
X0184118Y0117623D02*
X0185186Y0116556D01*
X0187321Y0116556D01*
X0188389Y0117623D01*
X0188389Y0119759D01*
X0185186Y0119759D01*
X0184118Y0118691D01*
X0184118Y0117623D01*
X0186254Y0121894D02*
X0188389Y0119759D01*
X0190564Y0119759D02*
X0190564Y0117623D01*
X0191632Y0116556D01*
X0193767Y0116556D01*
X0194834Y0117623D01*
X0194834Y0119759D02*
X0192699Y0120826D01*
X0191632Y0120826D01*
X0190564Y0119759D01*
X0194834Y0119759D02*
X0194834Y0122961D01*
X0190564Y0122961D01*
X0186254Y0121894D02*
X0184118Y0122961D01*
X0197009Y0122961D02*
X0201280Y0122961D01*
X0201280Y0119759D01*
X0199145Y0120826D01*
X0198077Y0120826D01*
X0197009Y0119759D01*
X0197009Y0117623D01*
X0198077Y0116556D01*
X0200212Y0116556D01*
X0201280Y0117623D01*
X0203455Y0116556D02*
X0203455Y0122961D01*
X0205590Y0120826D01*
X0207725Y0122961D01*
X0207725Y0116556D01*
X0209900Y0117623D02*
X0209900Y0121894D01*
X0210968Y0122961D01*
X0213103Y0122961D01*
X0214171Y0121894D01*
X0214171Y0117623D01*
X0213103Y0116556D01*
X0210968Y0116556D01*
X0209900Y0117623D01*
X0216346Y0116556D02*
X0218481Y0118691D01*
X0217414Y0118691D02*
X0220616Y0118691D01*
X0220616Y0116556D02*
X0220616Y0122961D01*
X0217414Y0122961D01*
X0216346Y0121894D01*
X0216346Y0119759D01*
X0217414Y0118691D01*
X0222791Y0116556D02*
X0222791Y0122961D01*
X0227062Y0122961D02*
X0227062Y0116556D01*
X0224927Y0118691D01*
X0222791Y0116556D01*
X0229237Y0117623D02*
X0230305Y0116556D01*
X0232440Y0116556D01*
X0233507Y0117623D01*
X0233507Y0121894D01*
X0232440Y0122961D01*
X0230305Y0122961D01*
X0229237Y0121894D01*
X0229237Y0117623D01*
X0242108Y0117623D02*
X0242108Y0116556D01*
X0243176Y0116556D01*
X0243176Y0117623D01*
X0242108Y0117623D01*
X0242108Y0119759D02*
X0243176Y0119759D01*
X0243176Y0120826D01*
X0242108Y0120826D01*
X0242108Y0119759D01*
X0245351Y0121894D02*
X0245351Y0117623D01*
X0246418Y0116556D01*
X0249621Y0116556D01*
X0249621Y0122961D01*
X0246418Y0122961D01*
X0245351Y0121894D01*
X0251783Y0122961D02*
X0253918Y0122961D01*
X0252850Y0122961D02*
X0252850Y0116556D01*
X0251783Y0116556D02*
X0253918Y0116556D01*
X0252850Y0112961D02*
X0250715Y0112961D01*
X0249648Y0111894D01*
X0249648Y0110826D01*
X0253918Y0106556D01*
X0249648Y0106556D01*
X0247473Y0106556D02*
X0247473Y0107623D01*
X0246405Y0107623D01*
X0246405Y0106556D01*
X0247473Y0106556D01*
X0244250Y0106556D02*
X0239979Y0106556D01*
X0242115Y0106556D02*
X0242115Y0112961D01*
X0244250Y0110826D01*
X0252850Y0112961D02*
X0253918Y0111894D01*
X0262539Y0110826D02*
X0264674Y0106556D01*
X0266809Y0110826D01*
X0268984Y0109759D02*
X0268984Y0108691D01*
X0273255Y0108691D01*
X0273255Y0107623D02*
X0273255Y0109759D01*
X0272187Y0110826D01*
X0270052Y0110826D01*
X0268984Y0109759D01*
X0270052Y0106556D02*
X0272187Y0106556D01*
X0273255Y0107623D01*
X0275430Y0106556D02*
X0277565Y0108691D01*
X0276497Y0108691D02*
X0279700Y0108691D01*
X0279700Y0106556D02*
X0279700Y0112961D01*
X0276497Y0112961D01*
X0275430Y0111894D01*
X0275430Y0109759D01*
X0276497Y0108691D01*
X0279700Y0116556D02*
X0279700Y0122961D01*
X0275430Y0122961D01*
X0273255Y0121894D02*
X0273255Y0117623D01*
X0272187Y0116556D01*
X0270052Y0116556D01*
X0268984Y0117623D01*
X0266809Y0117623D02*
X0265741Y0116556D01*
X0263606Y0116556D01*
X0262539Y0117623D01*
X0260364Y0119759D02*
X0256093Y0119759D01*
X0262539Y0121894D02*
X0263606Y0122961D01*
X0265741Y0122961D01*
X0266809Y0121894D01*
X0266809Y0117623D01*
X0268984Y0121894D02*
X0270052Y0122961D01*
X0272187Y0122961D01*
X0273255Y0121894D01*
X0277565Y0119759D02*
X0279700Y0119759D01*
X0278632Y0126556D02*
X0276497Y0126556D01*
X0275430Y0127623D01*
X0275430Y0131894D01*
X0276497Y0132961D01*
X0278632Y0132961D01*
X0279700Y0131894D01*
X0279700Y0127623D01*
X0278632Y0126556D01*
X0273255Y0126556D02*
X0273255Y0132961D01*
X0271119Y0130826D01*
X0268984Y0132961D01*
X0268984Y0126556D01*
X0266809Y0127623D02*
X0265741Y0126556D01*
X0263606Y0126556D01*
X0262539Y0127623D01*
X0262539Y0129759D01*
X0263606Y0130826D01*
X0264674Y0130826D01*
X0266809Y0129759D01*
X0266809Y0132961D01*
X0262539Y0132961D01*
X0260364Y0132961D02*
X0260364Y0129759D01*
X0258228Y0130826D01*
X0257161Y0130826D01*
X0256093Y0129759D01*
X0256093Y0127623D01*
X0257161Y0126556D01*
X0259296Y0126556D01*
X0260364Y0127623D01*
X0253918Y0127623D02*
X0252850Y0126556D01*
X0250715Y0126556D01*
X0249648Y0127623D01*
X0249648Y0128691D01*
X0250715Y0129759D01*
X0253918Y0129759D01*
X0253918Y0127623D01*
X0253918Y0129759D02*
X0251783Y0131894D01*
X0249648Y0132961D01*
X0247473Y0131894D02*
X0247473Y0130826D01*
X0246405Y0129759D01*
X0243202Y0129759D01*
X0243202Y0131894D02*
X0243202Y0127623D01*
X0244270Y0126556D01*
X0246405Y0126556D01*
X0247473Y0127623D01*
X0247473Y0131894D02*
X0246405Y0132961D01*
X0244270Y0132961D01*
X0243202Y0131894D01*
X0241027Y0126556D02*
X0236757Y0132961D01*
X0234582Y0132961D02*
X0230311Y0126556D01*
X0230311Y0132961D01*
X0228136Y0132961D02*
X0223866Y0132961D01*
X0226001Y0132961D02*
X0226001Y0126556D01*
X0221691Y0127623D02*
X0220623Y0126556D01*
X0218488Y0126556D01*
X0217420Y0127623D01*
X0217420Y0128691D01*
X0218488Y0129759D01*
X0219555Y0129759D01*
X0218488Y0129759D02*
X0217420Y0130826D01*
X0217420Y0131894D01*
X0218488Y0132961D01*
X0220623Y0132961D01*
X0221691Y0131894D01*
X0215245Y0131894D02*
X0214177Y0132961D01*
X0212042Y0132961D01*
X0210975Y0131894D01*
X0210975Y0130826D01*
X0215245Y0126556D01*
X0210975Y0126556D01*
X0208800Y0126556D02*
X0204529Y0130826D01*
X0204529Y0131894D01*
X0205597Y0132961D01*
X0207732Y0132961D01*
X0208800Y0131894D01*
X0208800Y0126556D02*
X0204529Y0126556D01*
X0202354Y0126556D02*
X0198084Y0126556D01*
X0200219Y0129759D02*
X0202354Y0129759D01*
X0202354Y0132961D02*
X0202354Y0126556D01*
X0202354Y0132961D02*
X0198084Y0132961D01*
X0200206Y0137556D02*
X0200206Y0141826D01*
X0197003Y0141826D01*
X0195935Y0140759D01*
X0195935Y0137556D01*
X0192692Y0138623D02*
X0191625Y0137556D01*
X0192692Y0138623D02*
X0192692Y0142894D01*
X0191625Y0141826D02*
X0193760Y0141826D01*
X0189463Y0140759D02*
X0189463Y0138623D01*
X0188395Y0137556D01*
X0186260Y0137556D01*
X0183018Y0137556D02*
X0183018Y0141826D01*
X0179815Y0141826D01*
X0178747Y0140759D01*
X0178747Y0137556D01*
X0176572Y0137556D02*
X0176572Y0141826D01*
X0173369Y0141826D01*
X0172302Y0140759D01*
X0172302Y0137556D01*
X0170127Y0138623D02*
X0169059Y0137556D01*
X0165856Y0137556D01*
X0165856Y0140759D01*
X0166924Y0141826D01*
X0169059Y0141826D01*
X0169059Y0139691D02*
X0165856Y0139691D01*
X0169059Y0139691D02*
X0170127Y0138623D01*
X0157236Y0137556D02*
X0154033Y0137556D01*
X0152965Y0138623D01*
X0152965Y0139691D01*
X0154033Y0140759D01*
X0157236Y0140759D01*
X0154033Y0140759D02*
X0152965Y0141826D01*
X0152965Y0142894D01*
X0154033Y0143961D01*
X0157236Y0143961D01*
X0157236Y0137556D01*
X0150790Y0138623D02*
X0150790Y0140759D01*
X0149722Y0141826D01*
X0147587Y0141826D01*
X0146520Y0140759D01*
X0146520Y0138623D01*
X0147587Y0137556D01*
X0149722Y0137556D01*
X0150790Y0138623D01*
X0144345Y0138623D02*
X0143277Y0137556D01*
X0140074Y0137556D01*
X0140074Y0140759D01*
X0141142Y0141826D01*
X0143277Y0141826D01*
X0143277Y0139691D02*
X0140074Y0139691D01*
X0137899Y0139691D02*
X0135764Y0141826D01*
X0134696Y0141826D01*
X0132528Y0140759D02*
X0131460Y0141826D01*
X0128258Y0141826D01*
X0128258Y0143961D02*
X0128258Y0137556D01*
X0131460Y0137556D01*
X0132528Y0138623D01*
X0132528Y0140759D01*
X0137899Y0141826D02*
X0137899Y0137556D01*
X0143277Y0139691D02*
X0144345Y0138623D01*
X0145445Y0121894D02*
X0145445Y0120826D01*
X0149716Y0116556D01*
X0145445Y0116556D01*
X0143270Y0116556D02*
X0139000Y0120826D01*
X0139000Y0116556D02*
X0143270Y0116556D01*
X0151891Y0117623D02*
X0152959Y0116556D01*
X0155094Y0116556D01*
X0156161Y0117623D01*
X0154026Y0119759D02*
X0152959Y0119759D01*
X0151891Y0118691D01*
X0151891Y0117623D01*
X0152959Y0119759D02*
X0151891Y0120826D01*
X0151891Y0121894D01*
X0185193Y0139691D02*
X0189463Y0139691D01*
X0189463Y0140759D02*
X0188395Y0141826D01*
X0186260Y0141826D01*
X0185193Y0140759D01*
X0185193Y0139691D01*
X0202381Y0140759D02*
X0206651Y0140759D01*
X0206651Y0141826D02*
X0204516Y0143961D01*
X0202381Y0141826D01*
X0202381Y0137556D01*
X0206651Y0137556D02*
X0206651Y0141826D01*
X0234608Y0142894D02*
X0235676Y0143961D01*
X0237811Y0143961D01*
X0238879Y0142894D01*
X0238879Y0138623D01*
X0237811Y0137556D01*
X0235676Y0137556D01*
X0234608Y0138623D01*
X0241040Y0140759D02*
X0243176Y0140759D01*
X0241040Y0142894D01*
X0241040Y0143961D01*
X0243176Y0143961D01*
X0243176Y0142894D01*
X0245337Y0143961D02*
X0247473Y0143961D01*
X0246405Y0143961D02*
X0246405Y0137556D01*
X0247473Y0137556D02*
X0245337Y0137556D01*
X0256093Y0138623D02*
X0257161Y0137556D01*
X0259296Y0137556D01*
X0260364Y0138623D01*
X0260364Y0142894D01*
X0259296Y0143961D01*
X0257161Y0143961D01*
X0256093Y0142894D01*
X0256093Y0140759D02*
X0258228Y0140759D01*
X0256093Y0140759D02*
X0256093Y0138623D01*
X0262539Y0137556D02*
X0262539Y0141826D01*
X0264674Y0143961D01*
X0266809Y0141826D01*
X0266809Y0137556D01*
X0271119Y0137556D02*
X0271119Y0143961D01*
X0268984Y0143961D02*
X0273255Y0143961D01*
X0275430Y0143961D02*
X0275430Y0137556D01*
X0279700Y0143961D01*
X0279700Y0137556D01*
X0266809Y0140759D02*
X0262539Y0140759D01*
X0260364Y0132961D02*
X0256093Y0132961D01*
X0234582Y0132961D02*
X0234582Y0126556D01*
D12*
X0257309Y0085963D03*
X0253176Y0077873D03*
X0260676Y0071672D03*
X0279337Y0072322D03*
D13*
X0270892Y0080471D03*
X0270951Y0080648D03*
X0270951Y0080707D03*
X0270951Y0080767D03*
X0271010Y0080885D03*
X0271010Y0080944D03*
X0271010Y0081003D03*
X0271069Y0081121D03*
X0271069Y0081180D03*
X0271069Y0081239D03*
X0271069Y0081298D03*
X0271128Y0081416D03*
X0271128Y0081475D03*
X0271128Y0081534D03*
X0271187Y0081830D03*
X0271187Y0081889D03*
X0271187Y0081948D03*
X0271187Y0084723D03*
X0271187Y0084782D03*
X0271128Y0085019D03*
X0271128Y0085078D03*
X0271128Y0085137D03*
X0271128Y0085196D03*
X0271069Y0085373D03*
X0271069Y0085432D03*
X0271069Y0085491D03*
X0271010Y0085609D03*
X0271010Y0085668D03*
X0271010Y0085727D03*
X0271010Y0085786D03*
X0270951Y0085845D03*
X0270951Y0085904D03*
X0270951Y0085963D03*
X0270892Y0086141D03*
X0270833Y0086318D03*
X0266109Y0084664D03*
X0266109Y0084605D03*
X0266168Y0084487D03*
X0266168Y0084428D03*
X0266168Y0084369D03*
X0266227Y0084192D03*
X0266227Y0084133D03*
X0266227Y0084074D03*
X0266227Y0082538D03*
X0266227Y0082479D03*
X0266168Y0082243D03*
X0266168Y0082184D03*
X0266168Y0082125D03*
X0266109Y0082007D03*
X0266109Y0081948D03*
X0266050Y0081770D03*
X0257191Y0086849D03*
X0252880Y0076928D03*
X0260794Y0071731D03*
D14*
X0260853Y0071790D03*
X0268117Y0075924D03*
X0268176Y0075983D03*
X0264632Y0079585D03*
X0253530Y0075924D03*
X0253471Y0075983D03*
X0257250Y0087144D03*
X0253530Y0090688D03*
X0253471Y0090629D03*
X0264632Y0087026D03*
D15*
X0263983Y0087440D03*
X0257664Y0087440D03*
X0257664Y0079172D03*
X0260853Y0076987D03*
X0260794Y0071849D03*
X0254829Y0074920D03*
X0254711Y0074979D03*
X0266935Y0074979D03*
D16*
X0260823Y0077105D03*
X0260823Y0071908D03*
X0260823Y0089507D03*
X0260823Y0094704D03*
D17*
X0256099Y0092341D03*
X0265548Y0074270D03*
X0260823Y0071967D03*
D18*
X0260823Y0072026D03*
X0256453Y0074152D03*
X0256453Y0092459D03*
D19*
X0260823Y0072085D03*
D20*
X0257309Y0080826D03*
X0257369Y0085845D03*
X0253294Y0088798D03*
X0279455Y0072144D03*
D21*
X0260853Y0072144D03*
D22*
X0279426Y0072204D03*
X0257339Y0085904D03*
D23*
X0260823Y0088975D03*
X0260823Y0072204D03*
D24*
X0257280Y0080767D03*
X0279367Y0072263D03*
D25*
X0260823Y0072263D03*
X0260823Y0077755D03*
X0260823Y0088857D03*
D26*
X0260823Y0088739D03*
X0260823Y0072322D03*
D27*
X0253176Y0077814D03*
X0257309Y0086022D03*
X0279278Y0072381D03*
D28*
X0260823Y0072381D03*
X0260823Y0094231D03*
D29*
X0253264Y0088975D03*
X0257221Y0080648D03*
X0279248Y0072440D03*
D30*
X0260853Y0072440D03*
X0275321Y0092637D03*
D31*
X0257221Y0080589D03*
X0279189Y0072499D03*
D32*
X0260823Y0072499D03*
X0260823Y0088385D03*
X0275174Y0092991D03*
X0275174Y0093050D03*
D33*
X0253117Y0077696D03*
X0279160Y0072558D03*
D34*
X0260853Y0072558D03*
X0275026Y0093404D03*
D35*
X0279101Y0072617D03*
D36*
X0260823Y0072617D03*
X0260823Y0078522D03*
X0260823Y0088089D03*
X0260823Y0093995D03*
X0274878Y0093818D03*
D37*
X0260823Y0094940D03*
X0253205Y0089152D03*
X0257280Y0086200D03*
X0253087Y0077637D03*
X0279071Y0072676D03*
D38*
X0274760Y0082184D03*
X0274760Y0082243D03*
X0274760Y0082302D03*
X0274760Y0082361D03*
X0274760Y0084251D03*
X0274760Y0084310D03*
X0274760Y0084369D03*
X0274760Y0084428D03*
X0274760Y0084487D03*
X0260823Y0087971D03*
X0274760Y0094113D03*
X0260823Y0078641D03*
X0260823Y0072676D03*
D39*
X0253087Y0077578D03*
X0279012Y0072735D03*
D40*
X0260823Y0072735D03*
X0260823Y0078759D03*
X0260823Y0087853D03*
X0274642Y0094408D03*
X0274642Y0094467D03*
D41*
X0257250Y0086259D03*
X0253176Y0089211D03*
X0257191Y0080412D03*
X0260853Y0076692D03*
X0278983Y0072794D03*
D42*
X0260853Y0072794D03*
X0260853Y0078936D03*
D43*
X0257250Y0086318D03*
X0253176Y0089270D03*
X0278924Y0072853D03*
D44*
X0260853Y0072853D03*
D45*
X0253028Y0077459D03*
X0257162Y0080353D03*
X0253146Y0089330D03*
X0278894Y0072912D03*
D46*
X0260853Y0072912D03*
D47*
X0253028Y0077400D03*
X0257162Y0080294D03*
X0260823Y0089920D03*
X0278835Y0072971D03*
D48*
X0260823Y0072971D03*
X0260823Y0093641D03*
D49*
X0253117Y0089389D03*
X0278806Y0073030D03*
D50*
X0260823Y0073030D03*
X0260823Y0093581D03*
D51*
X0253117Y0089448D03*
X0257132Y0080235D03*
X0252998Y0077341D03*
X0278746Y0073089D03*
D52*
X0260823Y0073089D03*
D53*
X0278717Y0073148D03*
X0257221Y0086495D03*
D54*
X0260823Y0093463D03*
X0260823Y0073148D03*
D55*
X0278658Y0073207D03*
D56*
X0260823Y0073207D03*
X0260823Y0093404D03*
D57*
X0257191Y0086554D03*
X0257132Y0080117D03*
X0252939Y0077223D03*
X0278628Y0073267D03*
D58*
X0260853Y0073267D03*
D59*
X0252939Y0077164D03*
X0257191Y0086613D03*
X0278569Y0073326D03*
D60*
X0260853Y0073326D03*
D61*
X0257103Y0080058D03*
X0253087Y0089625D03*
X0278540Y0073385D03*
D62*
X0260823Y0073385D03*
X0260823Y0093227D03*
D63*
X0257103Y0079999D03*
X0252910Y0077105D03*
X0278481Y0073444D03*
D64*
X0260823Y0073444D03*
X0260823Y0093168D03*
D65*
X0253057Y0089684D03*
X0260853Y0076751D03*
X0278451Y0073503D03*
D66*
X0260823Y0073503D03*
D67*
X0257073Y0079940D03*
X0257191Y0086731D03*
X0260853Y0089861D03*
X0253057Y0089743D03*
X0278392Y0073562D03*
D68*
X0260823Y0073562D03*
X0260823Y0093050D03*
D69*
X0278363Y0073621D03*
D70*
X0260823Y0073621D03*
D71*
X0252880Y0076987D03*
X0266286Y0083188D03*
X0266286Y0083247D03*
X0257191Y0086790D03*
X0253057Y0089802D03*
X0278333Y0073680D03*
D72*
X0260823Y0073680D03*
X0260823Y0092932D03*
D73*
X0271040Y0085550D03*
X0271099Y0085314D03*
X0271099Y0085255D03*
X0271158Y0084959D03*
X0271158Y0084900D03*
X0271158Y0084841D03*
X0271217Y0084664D03*
X0271217Y0084605D03*
X0271217Y0084546D03*
X0271217Y0082125D03*
X0271217Y0082066D03*
X0271217Y0082007D03*
X0271158Y0081770D03*
X0271158Y0081711D03*
X0271158Y0081652D03*
X0271158Y0081593D03*
X0271099Y0081357D03*
X0271040Y0081062D03*
X0266197Y0082302D03*
X0266197Y0082361D03*
X0266197Y0082420D03*
X0266256Y0082597D03*
X0266256Y0082656D03*
X0266256Y0082715D03*
X0266256Y0082774D03*
X0266256Y0082833D03*
X0266256Y0082893D03*
X0266256Y0082952D03*
X0266256Y0083011D03*
X0266256Y0083070D03*
X0266256Y0083129D03*
X0266315Y0083306D03*
X0266315Y0083365D03*
X0266256Y0083424D03*
X0266256Y0083483D03*
X0266256Y0083542D03*
X0266256Y0083601D03*
X0266256Y0083660D03*
X0266256Y0083719D03*
X0266256Y0083778D03*
X0266256Y0083837D03*
X0266256Y0083896D03*
X0266256Y0083956D03*
X0266256Y0084015D03*
X0266197Y0084251D03*
X0266197Y0084310D03*
X0257103Y0079881D03*
X0278304Y0079881D03*
X0278304Y0079940D03*
X0278304Y0079999D03*
X0278304Y0080058D03*
X0278304Y0080117D03*
X0278304Y0080176D03*
X0278304Y0080235D03*
X0278304Y0080294D03*
X0278304Y0080353D03*
X0278304Y0080412D03*
X0278304Y0080471D03*
X0278304Y0080530D03*
X0278304Y0080589D03*
X0278304Y0080648D03*
X0278304Y0080707D03*
X0278304Y0080767D03*
X0278304Y0080826D03*
X0278304Y0080885D03*
X0278304Y0080944D03*
X0278304Y0081003D03*
X0278304Y0081062D03*
X0278304Y0081121D03*
X0278304Y0081180D03*
X0278304Y0081239D03*
X0278304Y0081298D03*
X0278304Y0081357D03*
X0278304Y0081416D03*
X0278304Y0081475D03*
X0278304Y0081534D03*
X0278304Y0081593D03*
X0278304Y0081652D03*
X0278304Y0081711D03*
X0278304Y0081770D03*
X0278304Y0081830D03*
X0278304Y0081889D03*
X0278304Y0081948D03*
X0278304Y0082007D03*
X0278304Y0082066D03*
X0278304Y0082125D03*
X0278304Y0079822D03*
X0278304Y0079763D03*
X0278304Y0079704D03*
X0278304Y0079644D03*
X0278304Y0079585D03*
X0278304Y0079526D03*
X0278304Y0079467D03*
X0278304Y0079408D03*
X0278304Y0079349D03*
X0278304Y0079290D03*
X0278304Y0079231D03*
X0278304Y0079172D03*
X0278304Y0079113D03*
X0278304Y0079054D03*
X0278304Y0078995D03*
X0278304Y0078936D03*
X0278304Y0078877D03*
X0278304Y0078818D03*
X0278304Y0078759D03*
X0278304Y0078700D03*
X0278304Y0078641D03*
X0278304Y0078581D03*
X0278304Y0078522D03*
X0278304Y0078463D03*
X0278304Y0078404D03*
X0278304Y0078345D03*
X0278304Y0078286D03*
X0278304Y0078227D03*
X0278304Y0078168D03*
X0278304Y0078109D03*
X0278304Y0078050D03*
X0278304Y0077991D03*
X0278304Y0077932D03*
X0278304Y0077873D03*
X0278304Y0077814D03*
X0278304Y0077755D03*
X0278304Y0077696D03*
X0278304Y0077637D03*
X0278304Y0077578D03*
X0278304Y0077519D03*
X0278304Y0077459D03*
X0278304Y0077400D03*
X0278304Y0077341D03*
X0278304Y0077282D03*
X0278304Y0077223D03*
X0278304Y0077164D03*
X0278304Y0077105D03*
X0278304Y0077046D03*
X0278304Y0076987D03*
X0278304Y0076928D03*
X0278304Y0076869D03*
X0278304Y0076810D03*
X0278304Y0076751D03*
X0278304Y0076692D03*
X0278304Y0076633D03*
X0278304Y0076574D03*
X0278304Y0076515D03*
X0278304Y0076456D03*
X0278304Y0076396D03*
X0278304Y0076337D03*
X0278304Y0076278D03*
X0278304Y0076219D03*
X0278304Y0076160D03*
X0278304Y0076101D03*
X0278304Y0076042D03*
X0278304Y0075983D03*
X0278304Y0075924D03*
X0278304Y0075865D03*
X0278304Y0075806D03*
X0278304Y0075747D03*
X0278304Y0075688D03*
X0278304Y0075629D03*
X0278304Y0075570D03*
X0278304Y0075511D03*
X0278304Y0075452D03*
X0278304Y0075393D03*
X0278304Y0075333D03*
X0278304Y0075274D03*
X0278304Y0075215D03*
X0278304Y0075156D03*
X0278304Y0075097D03*
X0278304Y0075038D03*
X0278304Y0074979D03*
X0278304Y0074920D03*
X0278304Y0074861D03*
X0278304Y0074802D03*
X0278304Y0074743D03*
X0278304Y0074684D03*
X0278304Y0074625D03*
X0278304Y0074566D03*
X0278304Y0074507D03*
X0278304Y0074448D03*
X0278304Y0074389D03*
X0278304Y0074330D03*
X0278304Y0074270D03*
X0278304Y0074211D03*
X0278304Y0074152D03*
X0278304Y0074093D03*
X0278304Y0074034D03*
X0278304Y0073975D03*
X0278304Y0073916D03*
X0278304Y0073857D03*
X0278304Y0073798D03*
X0278304Y0073739D03*
X0278304Y0084546D03*
X0278304Y0084605D03*
X0278304Y0084664D03*
X0278304Y0084723D03*
X0278304Y0084782D03*
X0278304Y0084841D03*
X0278304Y0084900D03*
X0278304Y0084959D03*
X0278304Y0085019D03*
X0278304Y0085078D03*
X0278304Y0085137D03*
X0278304Y0085196D03*
X0278304Y0085255D03*
X0278304Y0085314D03*
X0278304Y0085373D03*
X0278304Y0085432D03*
X0278304Y0085491D03*
X0278304Y0085550D03*
X0278304Y0085609D03*
X0278304Y0085668D03*
X0278304Y0085727D03*
X0278304Y0085786D03*
X0278304Y0085845D03*
X0278304Y0085904D03*
X0278304Y0085963D03*
X0278304Y0086022D03*
X0278304Y0086081D03*
X0278304Y0086141D03*
X0278304Y0086200D03*
X0278304Y0086259D03*
X0278304Y0086318D03*
X0278304Y0086377D03*
X0278304Y0086436D03*
X0278304Y0086495D03*
X0278304Y0086554D03*
X0278304Y0086613D03*
X0278304Y0086672D03*
X0278304Y0086731D03*
X0278304Y0086790D03*
X0278304Y0086849D03*
X0278304Y0086908D03*
X0278304Y0086967D03*
X0278304Y0087026D03*
X0278304Y0087085D03*
X0278304Y0087144D03*
X0278304Y0087204D03*
X0278304Y0087263D03*
X0278304Y0087322D03*
X0278304Y0087381D03*
X0278304Y0087440D03*
X0278304Y0087499D03*
X0278304Y0087558D03*
X0278304Y0087617D03*
X0278304Y0087676D03*
X0278304Y0087735D03*
X0278304Y0087794D03*
X0278304Y0087853D03*
X0278304Y0087912D03*
X0278304Y0087971D03*
X0278304Y0088030D03*
X0278304Y0088089D03*
X0278304Y0088148D03*
X0278304Y0088207D03*
X0278304Y0088267D03*
X0278304Y0088326D03*
X0278304Y0088385D03*
X0278304Y0088444D03*
X0278304Y0088503D03*
X0278304Y0088562D03*
X0278304Y0088621D03*
X0278304Y0088680D03*
X0278304Y0088739D03*
X0278304Y0088798D03*
X0278304Y0088857D03*
X0278304Y0088916D03*
X0278304Y0088975D03*
X0278304Y0089034D03*
X0278304Y0089093D03*
X0278304Y0089152D03*
X0278304Y0089211D03*
X0278304Y0089270D03*
X0278304Y0089330D03*
X0278304Y0089389D03*
X0278304Y0089448D03*
X0278304Y0089507D03*
X0278304Y0089566D03*
X0278304Y0089625D03*
X0278304Y0089684D03*
X0278304Y0089743D03*
X0278304Y0089802D03*
X0278304Y0089861D03*
X0278304Y0089920D03*
X0278304Y0089979D03*
X0278304Y0090038D03*
X0278304Y0090097D03*
X0278304Y0090156D03*
X0278304Y0090215D03*
X0278304Y0090274D03*
X0278304Y0090333D03*
X0278304Y0090393D03*
X0278304Y0090452D03*
X0278304Y0090511D03*
X0278304Y0090570D03*
X0278304Y0090629D03*
X0278304Y0090688D03*
X0278304Y0090747D03*
X0278304Y0090806D03*
X0278304Y0090865D03*
X0278304Y0090924D03*
X0278304Y0090983D03*
X0278304Y0091042D03*
X0278304Y0091101D03*
X0278304Y0091160D03*
X0278304Y0091219D03*
X0278304Y0091278D03*
X0278304Y0091337D03*
X0278304Y0091396D03*
X0278304Y0091456D03*
X0278304Y0091515D03*
X0278304Y0091574D03*
X0278304Y0091633D03*
X0278304Y0091692D03*
X0278304Y0091751D03*
X0278304Y0091810D03*
X0278304Y0091869D03*
X0278304Y0091928D03*
X0278304Y0091987D03*
X0278304Y0092046D03*
X0278304Y0092105D03*
X0278304Y0092164D03*
X0278304Y0092223D03*
X0278304Y0092282D03*
X0278304Y0092341D03*
D74*
X0260823Y0092873D03*
X0260823Y0073739D03*
D75*
X0260853Y0073798D03*
D76*
X0260823Y0073857D03*
X0260823Y0092755D03*
D77*
X0260853Y0073916D03*
D78*
X0260823Y0073975D03*
X0260823Y0092637D03*
D79*
X0257132Y0074034D03*
X0264514Y0074034D03*
D80*
X0264898Y0074093D03*
X0260823Y0077400D03*
X0256748Y0074093D03*
X0264957Y0092519D03*
D81*
X0265164Y0074152D03*
D82*
X0265370Y0074211D03*
X0256276Y0074211D03*
X0256276Y0092400D03*
D83*
X0256128Y0074270D03*
D84*
X0265725Y0074330D03*
X0260823Y0089448D03*
X0255922Y0092282D03*
X0265725Y0092282D03*
D85*
X0260853Y0077164D03*
X0255951Y0074330D03*
D86*
X0265843Y0074389D03*
D87*
X0255833Y0074389D03*
X0255774Y0092223D03*
X0265872Y0092223D03*
D88*
X0265991Y0092164D03*
X0255656Y0092164D03*
X0265991Y0074448D03*
D89*
X0255685Y0074448D03*
D90*
X0255538Y0074507D03*
X0258077Y0079054D03*
X0266109Y0074507D03*
X0266109Y0092105D03*
X0255538Y0092105D03*
D91*
X0255420Y0092046D03*
X0258018Y0087558D03*
X0266227Y0092046D03*
X0266227Y0074566D03*
X0255420Y0074566D03*
D92*
X0255331Y0074625D03*
X0266315Y0074625D03*
X0260823Y0089566D03*
D93*
X0255213Y0091928D03*
X0260823Y0077046D03*
X0255213Y0074684D03*
X0266433Y0074684D03*
D94*
X0266522Y0074743D03*
X0263806Y0079113D03*
X0257841Y0079113D03*
X0255124Y0074743D03*
X0266581Y0091869D03*
D95*
X0266670Y0091810D03*
X0263835Y0087499D03*
X0257811Y0087499D03*
X0255095Y0091869D03*
X0254977Y0091810D03*
X0266670Y0074802D03*
D96*
X0266758Y0074861D03*
X0255006Y0074802D03*
X0254888Y0091751D03*
X0266758Y0091751D03*
D97*
X0266847Y0091692D03*
X0260823Y0089625D03*
X0254800Y0091692D03*
X0260823Y0094763D03*
X0263953Y0079172D03*
X0266847Y0074920D03*
X0254918Y0074861D03*
D98*
X0254622Y0075038D03*
X0267024Y0075038D03*
X0266965Y0091633D03*
X0254681Y0091633D03*
D99*
X0254593Y0091574D03*
X0254534Y0091515D03*
X0257546Y0087381D03*
X0267054Y0091574D03*
X0264101Y0079231D03*
X0267113Y0075097D03*
X0257546Y0079231D03*
X0254534Y0075097D03*
D100*
X0254445Y0075156D03*
X0267201Y0075156D03*
X0264130Y0087381D03*
X0267201Y0091456D03*
X0267142Y0091515D03*
X0254445Y0091456D03*
D101*
X0254357Y0091396D03*
X0257428Y0087322D03*
X0264219Y0087322D03*
X0267290Y0091396D03*
X0264219Y0079290D03*
X0267290Y0075215D03*
X0254357Y0075215D03*
X0254298Y0075274D03*
D102*
X0257457Y0079290D03*
X0267378Y0075274D03*
X0267378Y0091337D03*
X0254268Y0091337D03*
D103*
X0254180Y0091278D03*
X0254120Y0091219D03*
X0267467Y0091278D03*
X0267526Y0091219D03*
X0257369Y0079349D03*
X0254239Y0075333D03*
X0267467Y0075333D03*
X0267526Y0075393D03*
D104*
X0260823Y0076928D03*
X0264307Y0079349D03*
X0254150Y0075393D03*
X0257339Y0087263D03*
X0260823Y0089684D03*
X0264307Y0087263D03*
X0267615Y0091160D03*
D105*
X0264396Y0087204D03*
X0257250Y0087204D03*
X0254002Y0091101D03*
X0254061Y0091160D03*
X0257250Y0079408D03*
X0254002Y0075511D03*
X0254061Y0075452D03*
X0264396Y0079408D03*
X0267644Y0075511D03*
X0267585Y0075452D03*
D106*
X0267733Y0075570D03*
X0267792Y0075629D03*
X0264485Y0079467D03*
X0257162Y0079467D03*
X0253796Y0075688D03*
X0253855Y0075629D03*
X0253914Y0075570D03*
X0264485Y0087144D03*
X0267792Y0090983D03*
X0267733Y0091042D03*
X0267674Y0091101D03*
X0260823Y0094822D03*
X0253914Y0091042D03*
X0253855Y0090983D03*
D107*
X0253766Y0090924D03*
X0253707Y0090865D03*
X0264573Y0087085D03*
X0267939Y0090865D03*
X0267880Y0090924D03*
X0267939Y0075747D03*
X0267880Y0075688D03*
X0253707Y0075747D03*
X0253648Y0075806D03*
D108*
X0253559Y0075865D03*
X0257103Y0079526D03*
X0264544Y0079526D03*
X0268087Y0075865D03*
X0268028Y0075806D03*
X0268146Y0090688D03*
X0268087Y0090747D03*
X0268028Y0090806D03*
X0253619Y0090806D03*
X0253559Y0090747D03*
D109*
X0253382Y0090570D03*
X0253323Y0090511D03*
X0253264Y0090452D03*
X0260823Y0089743D03*
X0264721Y0086967D03*
X0264780Y0086908D03*
X0268382Y0090452D03*
X0268323Y0090511D03*
X0268264Y0090570D03*
X0268205Y0090629D03*
X0264780Y0079704D03*
X0264721Y0079644D03*
X0268323Y0076101D03*
X0268264Y0076042D03*
X0268382Y0076160D03*
X0253382Y0076042D03*
X0253323Y0076101D03*
D110*
X0253294Y0076160D03*
X0253235Y0076219D03*
D111*
X0253146Y0076278D03*
X0253087Y0076337D03*
X0257103Y0079585D03*
X0260823Y0076869D03*
X0264839Y0079763D03*
X0264898Y0079822D03*
X0268500Y0076278D03*
X0268441Y0076219D03*
X0268559Y0076337D03*
X0268619Y0076396D03*
X0264898Y0086790D03*
X0264839Y0086849D03*
X0268441Y0090393D03*
X0268500Y0090333D03*
X0268559Y0090274D03*
X0268619Y0090215D03*
X0268678Y0090156D03*
X0257221Y0087085D03*
X0253205Y0090393D03*
X0253146Y0090333D03*
X0253087Y0090274D03*
X0253028Y0090215D03*
D112*
X0252998Y0090156D03*
X0264987Y0086731D03*
X0268707Y0090097D03*
X0268766Y0090038D03*
X0268825Y0089979D03*
X0264928Y0079881D03*
X0268648Y0076456D03*
X0268707Y0076515D03*
X0268766Y0076574D03*
X0253057Y0076396D03*
X0252998Y0076456D03*
X0252939Y0076515D03*
X0252880Y0076574D03*
D113*
X0252851Y0076633D03*
X0257103Y0079644D03*
X0265016Y0079940D03*
X0265075Y0079999D03*
X0268796Y0076633D03*
X0268855Y0076692D03*
X0268914Y0076751D03*
X0268973Y0076810D03*
X0265075Y0086613D03*
X0265016Y0086672D03*
X0268855Y0089920D03*
X0268914Y0089861D03*
X0268973Y0089802D03*
D114*
X0269002Y0089743D03*
X0269061Y0089684D03*
X0269120Y0089625D03*
X0265164Y0086495D03*
X0265105Y0086554D03*
X0257191Y0087026D03*
X0252998Y0090097D03*
X0265105Y0080058D03*
X0265164Y0080117D03*
X0269002Y0076869D03*
X0269061Y0076928D03*
X0269120Y0076987D03*
X0252821Y0076692D03*
D115*
X0252851Y0076751D03*
X0265311Y0080294D03*
X0265370Y0080412D03*
X0265430Y0080471D03*
X0269563Y0077637D03*
X0269563Y0077578D03*
X0269504Y0077519D03*
X0269445Y0077459D03*
X0269622Y0077696D03*
X0265430Y0086141D03*
X0265370Y0086200D03*
X0265370Y0086259D03*
X0265311Y0086318D03*
X0269504Y0089093D03*
X0269563Y0089034D03*
X0269622Y0088916D03*
X0269386Y0089270D03*
D116*
X0269741Y0088739D03*
X0269859Y0088562D03*
X0269918Y0088444D03*
X0269977Y0088385D03*
X0269977Y0088326D03*
X0265607Y0085904D03*
X0265607Y0085845D03*
X0265548Y0085963D03*
X0265607Y0080767D03*
X0265607Y0080707D03*
X0265548Y0080648D03*
X0269859Y0078109D03*
X0269918Y0078168D03*
X0269977Y0078286D03*
X0269800Y0077991D03*
X0260823Y0076810D03*
X0257103Y0079763D03*
X0252851Y0076810D03*
X0253028Y0089979D03*
D117*
X0265872Y0085373D03*
X0265872Y0085314D03*
X0265931Y0085255D03*
X0265931Y0085196D03*
X0270479Y0087263D03*
X0270479Y0087322D03*
X0270420Y0087440D03*
X0270538Y0087204D03*
X0270538Y0087144D03*
X0270597Y0087085D03*
X0270597Y0087026D03*
X0270656Y0086908D03*
X0270656Y0086849D03*
X0270715Y0086731D03*
X0265931Y0081416D03*
X0265931Y0081357D03*
X0265872Y0081298D03*
X0265872Y0081239D03*
X0270479Y0079349D03*
X0270479Y0079290D03*
X0270420Y0079172D03*
X0270361Y0079054D03*
X0270538Y0079408D03*
X0270538Y0079467D03*
X0270597Y0079526D03*
X0270597Y0079585D03*
X0270656Y0079704D03*
X0270656Y0079763D03*
X0270715Y0079940D03*
X0257073Y0079822D03*
X0252880Y0076869D03*
D118*
X0265193Y0080176D03*
X0269150Y0077046D03*
X0269209Y0077105D03*
X0269268Y0077164D03*
X0269268Y0089448D03*
X0269209Y0089507D03*
X0269150Y0089566D03*
D119*
X0252910Y0077046D03*
D120*
X0257073Y0079704D03*
X0265282Y0080235D03*
X0265341Y0080353D03*
X0269357Y0077341D03*
X0269357Y0077282D03*
X0269298Y0077223D03*
X0269416Y0077400D03*
X0265282Y0086377D03*
X0265223Y0086436D03*
X0269416Y0089211D03*
X0269475Y0089152D03*
X0269357Y0089330D03*
X0269298Y0089389D03*
X0252998Y0090038D03*
D121*
X0260823Y0089389D03*
X0260823Y0094644D03*
X0260823Y0077223D03*
D122*
X0260823Y0077282D03*
X0260823Y0089330D03*
D123*
X0253117Y0089507D03*
X0257132Y0080176D03*
X0252998Y0077282D03*
D124*
X0260823Y0077341D03*
X0260823Y0094585D03*
D125*
X0260823Y0077459D03*
D126*
X0260823Y0077519D03*
X0260823Y0089093D03*
X0257044Y0092578D03*
X0264603Y0092578D03*
D127*
X0253028Y0077519D03*
D128*
X0260823Y0077578D03*
X0260823Y0089034D03*
D129*
X0260853Y0077637D03*
D130*
X0260823Y0077696D03*
X0260823Y0088916D03*
X0260823Y0094408D03*
D131*
X0260853Y0089802D03*
X0257191Y0086967D03*
X0265459Y0086081D03*
X0265518Y0086022D03*
X0269652Y0088857D03*
X0269711Y0088798D03*
X0269770Y0088680D03*
X0269829Y0088621D03*
X0269888Y0088503D03*
X0269593Y0088975D03*
X0265518Y0080589D03*
X0265459Y0080530D03*
X0269711Y0077873D03*
X0269711Y0077814D03*
X0269652Y0077755D03*
X0269770Y0077932D03*
X0269829Y0078050D03*
D132*
X0257309Y0086081D03*
X0253235Y0089034D03*
X0253117Y0077755D03*
D133*
X0260823Y0077814D03*
X0260823Y0088798D03*
D134*
X0260853Y0077873D03*
D135*
X0260823Y0077932D03*
X0260823Y0088680D03*
D136*
X0253294Y0088857D03*
X0253176Y0077932D03*
D137*
X0260823Y0077991D03*
D138*
X0260823Y0078050D03*
X0260823Y0088562D03*
X0275410Y0092400D03*
D139*
X0275351Y0092519D03*
X0275351Y0092578D03*
X0260823Y0088503D03*
X0260823Y0078109D03*
D140*
X0260823Y0078168D03*
X0260823Y0088444D03*
X0260823Y0094172D03*
X0275292Y0092696D03*
D141*
X0270065Y0088207D03*
X0270065Y0088148D03*
X0270124Y0088089D03*
X0270124Y0088030D03*
X0270183Y0087971D03*
X0270243Y0087853D03*
X0270302Y0087735D03*
X0270006Y0088267D03*
X0265695Y0085727D03*
X0265636Y0085786D03*
X0265754Y0085609D03*
X0265695Y0080944D03*
X0265695Y0080885D03*
X0265636Y0080826D03*
X0270124Y0078581D03*
X0270124Y0078522D03*
X0270065Y0078463D03*
X0270065Y0078404D03*
X0270006Y0078345D03*
X0269947Y0078227D03*
X0270183Y0078641D03*
X0270183Y0078700D03*
X0270243Y0078759D03*
X0257191Y0086908D03*
D142*
X0260853Y0078227D03*
X0275203Y0092932D03*
D143*
X0275144Y0093109D03*
X0260853Y0094113D03*
X0260853Y0078286D03*
D144*
X0260823Y0078345D03*
X0260823Y0088267D03*
X0275056Y0093345D03*
D145*
X0274996Y0093463D03*
X0274996Y0093522D03*
X0260823Y0094054D03*
X0260823Y0088207D03*
X0260823Y0078404D03*
D146*
X0260823Y0078463D03*
X0260823Y0088148D03*
X0274937Y0093641D03*
D147*
X0274819Y0093936D03*
X0274819Y0093995D03*
X0260823Y0088030D03*
X0260823Y0078581D03*
D148*
X0260823Y0078700D03*
X0260823Y0087912D03*
X0274701Y0094290D03*
D149*
X0270213Y0087912D03*
X0270272Y0087794D03*
X0270331Y0087676D03*
X0270331Y0087617D03*
X0270390Y0087558D03*
X0270390Y0087499D03*
X0270449Y0087381D03*
X0265843Y0085432D03*
X0265784Y0085491D03*
X0265784Y0085550D03*
X0265725Y0085668D03*
X0265843Y0081180D03*
X0265784Y0081121D03*
X0265784Y0081062D03*
X0265725Y0081003D03*
X0270272Y0078877D03*
X0270272Y0078818D03*
X0270331Y0078936D03*
X0270331Y0078995D03*
X0270390Y0079113D03*
X0270449Y0079231D03*
X0253028Y0089920D03*
D150*
X0260823Y0087794D03*
X0274583Y0094585D03*
X0260823Y0078818D03*
D151*
X0260823Y0078877D03*
X0260823Y0087735D03*
D152*
X0260853Y0078995D03*
D153*
X0263599Y0079054D03*
X0263658Y0087558D03*
D154*
X0265961Y0085137D03*
X0265961Y0085078D03*
X0266020Y0085019D03*
X0266020Y0084959D03*
X0266020Y0084900D03*
X0266079Y0084841D03*
X0266079Y0084782D03*
X0266079Y0084723D03*
X0266138Y0084546D03*
X0266138Y0082066D03*
X0266079Y0081889D03*
X0266079Y0081830D03*
X0266020Y0081711D03*
X0266020Y0081652D03*
X0266020Y0081593D03*
X0265961Y0081534D03*
X0265961Y0081475D03*
X0270685Y0079881D03*
X0270685Y0079822D03*
X0270744Y0079999D03*
X0270744Y0080058D03*
X0270804Y0080117D03*
X0270804Y0080176D03*
X0270804Y0080235D03*
X0270863Y0080294D03*
X0270863Y0080353D03*
X0270863Y0080412D03*
X0270922Y0080530D03*
X0270922Y0080589D03*
X0270981Y0080826D03*
X0270626Y0079644D03*
X0270922Y0086022D03*
X0270922Y0086081D03*
X0270863Y0086200D03*
X0270863Y0086259D03*
X0270804Y0086377D03*
X0270804Y0086436D03*
X0270804Y0086495D03*
X0270744Y0086554D03*
X0270744Y0086613D03*
X0270744Y0086672D03*
X0270685Y0086790D03*
X0270626Y0086967D03*
X0260823Y0094881D03*
X0253028Y0089861D03*
D155*
X0257191Y0080471D03*
D156*
X0257221Y0080530D03*
X0257280Y0086141D03*
X0253205Y0089093D03*
D157*
X0253264Y0088916D03*
X0257280Y0080707D03*
D158*
X0274790Y0082420D03*
X0274790Y0082479D03*
X0274790Y0082538D03*
X0274790Y0082597D03*
X0274790Y0082656D03*
X0274790Y0082715D03*
X0274790Y0082774D03*
X0274790Y0082833D03*
X0274790Y0082893D03*
X0274790Y0082952D03*
X0274790Y0083011D03*
X0274790Y0083070D03*
X0274790Y0083129D03*
X0274790Y0083188D03*
X0274790Y0083247D03*
X0274790Y0083306D03*
X0274790Y0083365D03*
X0274790Y0083424D03*
X0274790Y0083483D03*
X0274790Y0083542D03*
X0274790Y0083601D03*
X0274790Y0083660D03*
X0274790Y0083719D03*
X0274790Y0083778D03*
X0274790Y0083837D03*
X0274790Y0083896D03*
X0274790Y0083956D03*
X0274790Y0084015D03*
X0274790Y0084074D03*
X0274790Y0084133D03*
X0274790Y0084192D03*
X0274790Y0094054D03*
D159*
X0257250Y0086377D03*
D160*
X0257221Y0086436D03*
D161*
X0257191Y0086672D03*
D162*
X0260823Y0087617D03*
D163*
X0260823Y0087676D03*
X0260823Y0093818D03*
D164*
X0260823Y0088326D03*
X0275115Y0093168D03*
D165*
X0260853Y0088621D03*
D166*
X0260853Y0089152D03*
D167*
X0260853Y0089211D03*
D168*
X0260853Y0089270D03*
D169*
X0253087Y0089566D03*
D170*
X0255302Y0091987D03*
X0266345Y0091987D03*
X0266463Y0091928D03*
D171*
X0265577Y0092341D03*
D172*
X0265400Y0092400D03*
D173*
X0275380Y0092459D03*
D174*
X0265223Y0092459D03*
D175*
X0256719Y0092519D03*
D176*
X0260823Y0092696D03*
D177*
X0275262Y0092755D03*
X0275262Y0092814D03*
D178*
X0260823Y0092814D03*
D179*
X0275233Y0092873D03*
D180*
X0260853Y0092991D03*
D181*
X0260853Y0093109D03*
D182*
X0275085Y0093227D03*
X0275085Y0093286D03*
D183*
X0260823Y0093286D03*
D184*
X0260823Y0093345D03*
D185*
X0260853Y0093522D03*
D186*
X0274967Y0093581D03*
D187*
X0274908Y0093700D03*
X0274908Y0093759D03*
D188*
X0260823Y0093700D03*
D189*
X0260823Y0093759D03*
D190*
X0274849Y0093877D03*
D191*
X0274613Y0094526D03*
X0260853Y0093877D03*
D192*
X0260853Y0093936D03*
X0274731Y0094172D03*
X0274731Y0094231D03*
D193*
X0260853Y0094290D03*
D194*
X0274672Y0094349D03*
D195*
X0260853Y0094349D03*
D196*
X0260823Y0094467D03*
D197*
X0260853Y0094526D03*
D198*
X0274554Y0094644D03*
D199*
X0232886Y0095283D03*
X0212446Y0095283D03*
X0211086Y0095283D03*
X0211206Y0091683D03*
X0211206Y0074923D03*
X0231646Y0074923D03*
X0231486Y0071323D03*
X0232886Y0071323D03*
D200*
X0232186Y0071323D03*
D201*
X0232726Y0074923D03*
X0212326Y0074923D03*
X0212526Y0071323D03*
X0212326Y0091683D03*
X0212526Y0095283D03*
D202*
X0211766Y0095283D03*
X0211766Y0071323D03*
D203*
X0211766Y0071363D03*
X0232206Y0071363D03*
D204*
X0232306Y0071403D03*
X0232306Y0095203D03*
D205*
X0211946Y0071403D03*
D206*
X0232466Y0071443D03*
D207*
X0212106Y0071443D03*
D208*
X0232586Y0071483D03*
X0232586Y0095123D03*
D209*
X0212226Y0095123D03*
X0212226Y0071483D03*
D210*
X0232706Y0071523D03*
X0242306Y0082003D03*
X0242306Y0082043D03*
X0242306Y0082123D03*
X0242346Y0082283D03*
X0242346Y0082323D03*
X0242346Y0082403D03*
X0242346Y0082443D03*
X0242346Y0082483D03*
X0242346Y0082523D03*
X0242346Y0082603D03*
X0242386Y0082723D03*
X0242386Y0082803D03*
X0242386Y0082843D03*
X0242386Y0082883D03*
X0242386Y0082923D03*
X0242386Y0083003D03*
X0242386Y0083043D03*
X0242386Y0083083D03*
X0242386Y0083123D03*
X0242386Y0083203D03*
X0242386Y0083243D03*
X0242386Y0083283D03*
X0242386Y0083323D03*
X0242386Y0083403D03*
X0242386Y0083443D03*
X0242386Y0083483D03*
X0242386Y0083523D03*
X0242386Y0083603D03*
X0242386Y0083643D03*
X0242386Y0083683D03*
X0242386Y0083723D03*
X0242386Y0083803D03*
X0242386Y0083883D03*
X0242346Y0084003D03*
X0242346Y0084083D03*
X0242346Y0084123D03*
X0242346Y0084203D03*
X0242346Y0084243D03*
X0242346Y0084283D03*
X0242346Y0084323D03*
X0242306Y0084603D03*
X0232706Y0095083D03*
D211*
X0212326Y0095083D03*
X0212326Y0071523D03*
D212*
X0221546Y0080363D03*
X0221626Y0085963D03*
X0221546Y0086163D03*
X0221506Y0086363D03*
X0241906Y0086363D03*
X0241946Y0086163D03*
X0242026Y0085963D03*
X0241946Y0080363D03*
X0232786Y0071563D03*
D213*
X0242106Y0080963D03*
X0242146Y0081163D03*
X0242186Y0081363D03*
X0242266Y0081763D03*
X0242186Y0085363D03*
X0221786Y0085363D03*
X0221786Y0081363D03*
X0221746Y0081163D03*
X0221706Y0080963D03*
X0212426Y0071563D03*
D214*
X0221046Y0079083D03*
X0221046Y0079123D03*
X0221086Y0079203D03*
X0221126Y0079283D03*
X0221126Y0087323D03*
X0221086Y0087403D03*
X0221086Y0087443D03*
X0221046Y0087483D03*
X0221046Y0087523D03*
X0232886Y0095003D03*
X0241446Y0087523D03*
X0241446Y0087483D03*
X0241486Y0087443D03*
X0241486Y0087403D03*
X0241526Y0087323D03*
X0241526Y0079283D03*
X0241486Y0079203D03*
X0241446Y0079123D03*
X0241446Y0079083D03*
X0232886Y0071603D03*
D215*
X0241606Y0079443D03*
X0241606Y0079483D03*
X0241646Y0079523D03*
X0241686Y0079643D03*
X0241726Y0086843D03*
X0241646Y0087043D03*
X0241646Y0087083D03*
X0241606Y0087123D03*
X0241566Y0087243D03*
X0221286Y0086923D03*
X0221246Y0087043D03*
X0221246Y0087083D03*
X0221206Y0087123D03*
X0221166Y0087243D03*
X0221286Y0079683D03*
X0221286Y0079643D03*
X0221246Y0079523D03*
X0221206Y0079483D03*
X0221206Y0079443D03*
X0212526Y0071603D03*
X0212526Y0095003D03*
D216*
X0220686Y0088203D03*
X0220726Y0088123D03*
X0220766Y0088043D03*
X0220726Y0078483D03*
X0220686Y0078443D03*
X0220686Y0078403D03*
X0232966Y0071643D03*
X0241086Y0078403D03*
X0241086Y0078443D03*
X0241126Y0078483D03*
X0241166Y0088043D03*
X0241126Y0088123D03*
X0241086Y0088203D03*
D217*
X0241246Y0087883D03*
X0241286Y0087843D03*
X0241286Y0087803D03*
X0241286Y0078803D03*
X0241246Y0078723D03*
X0220886Y0078803D03*
X0220846Y0078723D03*
X0212606Y0071643D03*
X0220886Y0087803D03*
X0220886Y0087843D03*
X0220846Y0087883D03*
D218*
X0220406Y0088643D03*
X0220366Y0088683D03*
X0233046Y0094923D03*
X0240766Y0088683D03*
X0240806Y0088643D03*
X0240766Y0077923D03*
X0240726Y0077843D03*
X0233046Y0071683D03*
X0220366Y0077923D03*
X0220326Y0077843D03*
D219*
X0220486Y0078083D03*
X0220566Y0078203D03*
X0220606Y0078283D03*
X0212686Y0071683D03*
X0240886Y0078083D03*
X0240966Y0078203D03*
X0240966Y0088403D03*
X0240926Y0088443D03*
X0240886Y0088523D03*
X0220606Y0088323D03*
X0220566Y0088403D03*
X0220526Y0088443D03*
X0220486Y0088523D03*
X0212686Y0094923D03*
D220*
X0233126Y0094883D03*
X0233126Y0071723D03*
D221*
X0240606Y0077683D03*
X0240646Y0077723D03*
X0240646Y0088883D03*
X0240606Y0088923D03*
X0220246Y0088883D03*
X0220206Y0088923D03*
X0212766Y0094883D03*
X0220246Y0077723D03*
X0220206Y0077683D03*
X0212766Y0071723D03*
D222*
X0219806Y0077163D03*
X0233206Y0071763D03*
X0240206Y0077163D03*
D223*
X0212846Y0071763D03*
D224*
X0233266Y0071803D03*
X0233266Y0094803D03*
D225*
X0240066Y0089603D03*
X0240146Y0089523D03*
X0219746Y0089523D03*
X0219666Y0089603D03*
X0212906Y0094803D03*
X0219746Y0077083D03*
X0219706Y0077043D03*
X0219666Y0077003D03*
X0212906Y0071803D03*
X0240066Y0077003D03*
X0240106Y0077043D03*
X0240146Y0077083D03*
D226*
X0233326Y0071843D03*
D227*
X0239886Y0076803D03*
X0239926Y0076843D03*
X0219566Y0076883D03*
X0219526Y0076843D03*
X0219486Y0076803D03*
X0212966Y0071843D03*
X0219486Y0089803D03*
X0239886Y0089803D03*
D228*
X0239626Y0090083D03*
X0239586Y0090123D03*
X0233386Y0094723D03*
X0219226Y0090083D03*
X0219186Y0090123D03*
X0219226Y0076523D03*
X0219186Y0076483D03*
X0233386Y0071883D03*
X0239586Y0076483D03*
X0239626Y0076523D03*
D229*
X0239706Y0076603D03*
X0239746Y0076643D03*
X0219346Y0076643D03*
X0219306Y0076603D03*
X0213026Y0071883D03*
X0219306Y0090003D03*
X0213026Y0094723D03*
X0239706Y0090003D03*
D230*
X0239446Y0090243D03*
X0239406Y0090283D03*
X0233446Y0094683D03*
X0219046Y0090243D03*
X0219006Y0090283D03*
X0219006Y0076323D03*
X0233446Y0071923D03*
X0239406Y0076323D03*
D231*
X0239486Y0076403D03*
X0239526Y0076443D03*
X0219126Y0076443D03*
X0219086Y0076403D03*
X0213086Y0071923D03*
X0219086Y0090203D03*
X0213086Y0094683D03*
X0239486Y0090203D03*
D232*
X0239226Y0076163D03*
X0233506Y0071963D03*
X0218826Y0076163D03*
D233*
X0213146Y0071963D03*
D234*
X0218686Y0076043D03*
X0218726Y0076083D03*
X0233566Y0072003D03*
X0239086Y0076043D03*
X0239126Y0076083D03*
X0239126Y0090523D03*
X0233566Y0094603D03*
X0218726Y0090523D03*
D235*
X0218766Y0090483D03*
X0213206Y0094603D03*
X0239166Y0090483D03*
X0239166Y0076123D03*
X0218766Y0076123D03*
X0213206Y0072003D03*
D236*
X0233626Y0072043D03*
D237*
X0239026Y0076003D03*
X0218626Y0076003D03*
X0213266Y0072043D03*
X0218626Y0090603D03*
X0239026Y0090603D03*
D238*
X0238766Y0090803D03*
X0233686Y0094523D03*
X0218366Y0090803D03*
X0213366Y0094483D03*
X0218366Y0075803D03*
X0213366Y0072123D03*
X0233686Y0072083D03*
X0238766Y0075803D03*
X0238806Y0075843D03*
D239*
X0238886Y0075883D03*
X0238926Y0075923D03*
X0218526Y0075923D03*
X0213326Y0072083D03*
X0218526Y0090683D03*
X0218486Y0090723D03*
X0213326Y0094523D03*
X0238886Y0090723D03*
X0238926Y0090683D03*
D240*
X0233726Y0094483D03*
X0233726Y0072123D03*
D241*
X0233786Y0072163D03*
D242*
X0213426Y0072163D03*
D243*
X0233826Y0072203D03*
X0233826Y0094403D03*
D244*
X0233786Y0094443D03*
X0213466Y0094403D03*
X0218186Y0075683D03*
X0213466Y0072203D03*
D245*
X0213566Y0072283D03*
X0217926Y0075523D03*
X0233886Y0072243D03*
X0238326Y0075523D03*
X0238326Y0091083D03*
X0217926Y0091083D03*
X0213566Y0094323D03*
D246*
X0218006Y0091043D03*
X0238406Y0091043D03*
X0213526Y0072243D03*
D247*
X0233926Y0072283D03*
X0233926Y0094323D03*
D248*
X0233966Y0094283D03*
X0233966Y0072323D03*
D249*
X0238286Y0075483D03*
X0217886Y0075483D03*
X0213606Y0072323D03*
X0217886Y0091123D03*
X0213606Y0094283D03*
X0238286Y0091123D03*
D250*
X0234006Y0072363D03*
D251*
X0213646Y0072363D03*
X0217806Y0091163D03*
X0238206Y0091163D03*
D252*
X0237986Y0091283D03*
X0234066Y0094203D03*
X0217586Y0091283D03*
X0217586Y0075323D03*
X0234066Y0072403D03*
X0237986Y0075323D03*
D253*
X0213706Y0072403D03*
X0217666Y0091243D03*
X0213706Y0094203D03*
X0238066Y0091243D03*
D254*
X0237906Y0091323D03*
X0217506Y0091323D03*
X0213786Y0094123D03*
X0217506Y0075283D03*
X0213786Y0072483D03*
X0234106Y0072443D03*
X0237906Y0075283D03*
D255*
X0213746Y0072443D03*
D256*
X0213826Y0072523D03*
X0234146Y0072483D03*
X0234146Y0094123D03*
X0213826Y0094083D03*
D257*
X0213866Y0094043D03*
X0234186Y0094083D03*
X0234186Y0072523D03*
D258*
X0234226Y0072563D03*
D259*
X0213866Y0072563D03*
D260*
X0234266Y0072603D03*
X0237626Y0091443D03*
X0234266Y0094003D03*
X0217226Y0091443D03*
D261*
X0213906Y0094003D03*
X0213906Y0072603D03*
D262*
X0213986Y0072683D03*
X0234306Y0072643D03*
X0213986Y0093923D03*
D263*
X0213946Y0072643D03*
D264*
X0214026Y0072723D03*
X0234346Y0072683D03*
X0234346Y0093923D03*
X0214026Y0093883D03*
D265*
X0214066Y0093843D03*
X0234386Y0093883D03*
X0234386Y0072723D03*
D266*
X0234406Y0072763D03*
D267*
X0214066Y0072763D03*
D268*
X0214126Y0072843D03*
X0234446Y0072803D03*
X0234446Y0093803D03*
D269*
X0234406Y0093843D03*
X0237446Y0091523D03*
X0217046Y0091523D03*
X0214086Y0093803D03*
X0214086Y0072803D03*
D270*
X0214166Y0072883D03*
X0216926Y0075043D03*
X0234486Y0072843D03*
X0214166Y0093723D03*
D271*
X0234526Y0093723D03*
X0234526Y0072883D03*
D272*
X0234566Y0072923D03*
X0234566Y0093683D03*
D273*
X0214206Y0093683D03*
X0214206Y0072923D03*
D274*
X0234586Y0072963D03*
D275*
X0214226Y0072963D03*
D276*
X0234626Y0073003D03*
X0234626Y0093603D03*
D277*
X0234586Y0093643D03*
X0216786Y0091603D03*
X0214266Y0093603D03*
X0214266Y0073003D03*
D278*
X0234666Y0073043D03*
D279*
X0214306Y0073043D03*
D280*
X0214366Y0073123D03*
X0234686Y0073083D03*
X0234686Y0093523D03*
X0214366Y0093483D03*
D281*
X0214326Y0093523D03*
X0214326Y0073083D03*
D282*
X0234726Y0073123D03*
X0234726Y0093483D03*
D283*
X0234766Y0073163D03*
D284*
X0237026Y0074963D03*
X0214386Y0073163D03*
D285*
X0214466Y0073243D03*
X0234786Y0073203D03*
X0234786Y0093403D03*
D286*
X0214426Y0093403D03*
X0214426Y0073203D03*
D287*
X0234826Y0073243D03*
D288*
X0234846Y0073283D03*
X0214526Y0073323D03*
X0214526Y0093283D03*
X0234846Y0093323D03*
D289*
X0214486Y0093323D03*
X0214486Y0073283D03*
D290*
X0216406Y0074923D03*
X0234886Y0073323D03*
X0236806Y0091683D03*
X0234886Y0093283D03*
X0216406Y0091683D03*
D291*
X0234906Y0073363D03*
D292*
X0214546Y0073363D03*
D293*
X0214626Y0073483D03*
X0234946Y0073403D03*
X0234946Y0093203D03*
X0214626Y0093123D03*
D294*
X0214586Y0093203D03*
X0234906Y0093243D03*
X0236786Y0074923D03*
X0214586Y0073403D03*
D295*
X0234966Y0073443D03*
D296*
X0214606Y0073443D03*
D297*
X0214666Y0073523D03*
X0234986Y0073483D03*
X0234986Y0093123D03*
X0214666Y0093083D03*
D298*
X0235026Y0093083D03*
X0235026Y0073523D03*
D299*
X0235046Y0073563D03*
D300*
X0214686Y0073563D03*
D301*
X0214766Y0073683D03*
X0235086Y0073603D03*
X0235086Y0093003D03*
X0214766Y0092923D03*
D302*
X0214726Y0093003D03*
X0235046Y0093043D03*
X0214726Y0073603D03*
D303*
X0235106Y0073643D03*
D304*
X0214746Y0073643D03*
D305*
X0235126Y0073683D03*
X0235126Y0092923D03*
D306*
X0235166Y0092883D03*
X0235166Y0073723D03*
D307*
X0214806Y0073723D03*
X0214806Y0092883D03*
D308*
X0235186Y0073763D03*
D309*
X0214826Y0073763D03*
D310*
X0214886Y0073843D03*
X0235206Y0073803D03*
X0235206Y0092803D03*
D311*
X0214846Y0092803D03*
X0214846Y0073803D03*
D312*
X0214926Y0073923D03*
X0235246Y0073843D03*
X0214926Y0092683D03*
D313*
X0235266Y0092723D03*
X0235266Y0073883D03*
D314*
X0214906Y0073883D03*
X0214906Y0092723D03*
D315*
X0235286Y0092683D03*
X0235286Y0073923D03*
D316*
X0235306Y0073963D03*
D317*
X0214946Y0073963D03*
D318*
X0215026Y0074083D03*
X0235346Y0074003D03*
X0235346Y0092603D03*
X0215026Y0092523D03*
D319*
X0214986Y0092603D03*
X0235306Y0092643D03*
X0214986Y0074003D03*
D320*
X0235366Y0074043D03*
D321*
X0215006Y0074043D03*
D322*
X0235386Y0074083D03*
X0215066Y0092443D03*
X0235386Y0092523D03*
D323*
X0235406Y0092483D03*
X0235406Y0074123D03*
D324*
X0215046Y0074123D03*
X0215046Y0092483D03*
D325*
X0235426Y0074163D03*
D326*
X0215066Y0074163D03*
D327*
X0235466Y0074203D03*
X0235466Y0092403D03*
D328*
X0215106Y0092403D03*
X0215106Y0074203D03*
D329*
X0215166Y0074323D03*
X0235486Y0074243D03*
X0215166Y0092283D03*
D330*
X0215126Y0074243D03*
D331*
X0235506Y0074283D03*
X0235506Y0092323D03*
X0215186Y0092243D03*
D332*
X0215146Y0092323D03*
X0215146Y0074283D03*
D333*
X0235526Y0074323D03*
X0235526Y0092283D03*
D334*
X0215226Y0092163D03*
X0235546Y0074363D03*
D335*
X0215186Y0074363D03*
D336*
X0235566Y0074403D03*
X0235566Y0092203D03*
D337*
X0215206Y0092203D03*
X0215206Y0074403D03*
D338*
X0215266Y0074523D03*
X0235586Y0074443D03*
X0215266Y0092083D03*
D339*
X0235546Y0092243D03*
X0215226Y0074443D03*
D340*
X0235606Y0074483D03*
X0235606Y0092123D03*
D341*
X0215246Y0092123D03*
X0215246Y0074483D03*
D342*
X0235626Y0074523D03*
X0235626Y0092083D03*
D343*
X0235666Y0074563D03*
D344*
X0215306Y0074563D03*
D345*
X0215366Y0074683D03*
X0235686Y0074603D03*
X0235686Y0092003D03*
X0215366Y0091923D03*
D346*
X0215326Y0092003D03*
X0215326Y0074603D03*
D347*
X0215386Y0074723D03*
X0235706Y0074643D03*
X0215386Y0091883D03*
D348*
X0215346Y0074643D03*
D349*
X0235726Y0074683D03*
X0235726Y0091923D03*
D350*
X0235746Y0091883D03*
X0215426Y0091803D03*
X0215426Y0074803D03*
X0235746Y0074723D03*
D351*
X0235766Y0074763D03*
D352*
X0215406Y0074763D03*
D353*
X0215466Y0074883D03*
X0235786Y0074803D03*
X0235786Y0091803D03*
X0215466Y0091723D03*
D354*
X0235806Y0074843D03*
D355*
X0215446Y0074843D03*
D356*
X0235826Y0074883D03*
X0235826Y0091723D03*
D357*
X0231226Y0091683D03*
X0231226Y0074923D03*
D358*
X0210866Y0074923D03*
X0210866Y0091683D03*
D359*
X0231026Y0074963D03*
D360*
X0216606Y0074963D03*
D361*
X0210706Y0074963D03*
D362*
X0216766Y0075003D03*
X0237166Y0075003D03*
X0237166Y0091603D03*
D363*
X0237306Y0075043D03*
D364*
X0237426Y0075083D03*
X0217026Y0075083D03*
D365*
X0217126Y0075123D03*
X0237526Y0075123D03*
X0237526Y0091483D03*
X0217126Y0091483D03*
D366*
X0217226Y0075163D03*
X0237626Y0075163D03*
D367*
X0237726Y0075203D03*
X0217326Y0075203D03*
X0217326Y0091403D03*
X0237726Y0091403D03*
D368*
X0237806Y0075243D03*
X0217406Y0075243D03*
D369*
X0217666Y0075363D03*
X0238066Y0075363D03*
D370*
X0238126Y0075403D03*
D371*
X0217746Y0075403D03*
X0217746Y0091203D03*
X0213666Y0094243D03*
X0238146Y0091203D03*
D372*
X0238206Y0075443D03*
X0217806Y0075443D03*
D373*
X0218006Y0075563D03*
X0238406Y0075563D03*
X0213526Y0094363D03*
D374*
X0218066Y0091003D03*
X0238466Y0091003D03*
X0238466Y0075603D03*
X0218066Y0075603D03*
D375*
X0218126Y0075643D03*
X0238526Y0075643D03*
D376*
X0238606Y0075683D03*
X0238606Y0090923D03*
X0218206Y0090923D03*
D377*
X0218266Y0090883D03*
X0213426Y0094443D03*
X0238666Y0090883D03*
X0238666Y0075723D03*
X0218266Y0075723D03*
D378*
X0218306Y0075763D03*
X0238706Y0075763D03*
D379*
X0218466Y0075883D03*
X0218426Y0075843D03*
D380*
X0218566Y0075963D03*
X0238966Y0075963D03*
D381*
X0239266Y0076203D03*
X0218866Y0076203D03*
X0218866Y0090403D03*
X0218826Y0090443D03*
X0233506Y0094643D03*
X0239226Y0090443D03*
X0239266Y0090403D03*
D382*
X0239326Y0076243D03*
X0218926Y0076243D03*
D383*
X0218946Y0076283D03*
X0239346Y0076283D03*
X0239346Y0090323D03*
X0218946Y0090323D03*
X0213146Y0094643D03*
D384*
X0219046Y0076363D03*
X0239446Y0076363D03*
D385*
X0239646Y0076563D03*
X0219246Y0076563D03*
D386*
X0219366Y0076683D03*
X0239766Y0076683D03*
X0239766Y0089923D03*
X0219366Y0089923D03*
D387*
X0219426Y0089883D03*
X0219466Y0089843D03*
X0239826Y0089883D03*
X0239866Y0089843D03*
X0239826Y0076723D03*
X0219426Y0076723D03*
D388*
X0219466Y0076763D03*
X0239866Y0076763D03*
D389*
X0239946Y0076883D03*
X0239946Y0089723D03*
X0219546Y0089723D03*
D390*
X0219606Y0089683D03*
X0219646Y0089643D03*
X0240006Y0089683D03*
X0240046Y0089643D03*
X0240006Y0076923D03*
X0219606Y0076923D03*
D391*
X0219646Y0076963D03*
X0240046Y0076963D03*
D392*
X0240166Y0077123D03*
X0219766Y0077123D03*
X0219806Y0089443D03*
X0219766Y0089483D03*
X0233206Y0094843D03*
X0240166Y0089483D03*
X0240206Y0089443D03*
D393*
X0240226Y0089403D03*
X0240306Y0089323D03*
X0219906Y0089323D03*
X0219826Y0089403D03*
X0219906Y0077283D03*
X0219866Y0077243D03*
X0219826Y0077203D03*
X0240226Y0077203D03*
X0240266Y0077243D03*
X0240306Y0077283D03*
D394*
X0240326Y0077323D03*
X0219926Y0077323D03*
X0219966Y0089243D03*
X0219926Y0089283D03*
X0240326Y0089283D03*
X0240366Y0089243D03*
D395*
X0240366Y0077363D03*
X0219966Y0077363D03*
D396*
X0219986Y0077403D03*
X0220026Y0077443D03*
X0219986Y0089203D03*
X0240386Y0089203D03*
X0240426Y0077443D03*
X0240386Y0077403D03*
D397*
X0240446Y0077483D03*
X0240486Y0077523D03*
X0240486Y0089083D03*
X0240446Y0089123D03*
X0220086Y0089083D03*
X0220046Y0089123D03*
X0220086Y0077523D03*
X0220046Y0077483D03*
D398*
X0240526Y0077563D03*
D399*
X0240586Y0088963D03*
X0220186Y0088963D03*
X0220106Y0077563D03*
D400*
X0220146Y0077603D03*
X0220186Y0077643D03*
X0220146Y0089003D03*
X0220106Y0089043D03*
X0240506Y0089043D03*
X0240546Y0089003D03*
X0240586Y0077643D03*
X0240546Y0077603D03*
D401*
X0240666Y0077763D03*
X0220266Y0077763D03*
D402*
X0220306Y0077803D03*
X0220346Y0077883D03*
X0220346Y0088723D03*
X0220306Y0088803D03*
X0240706Y0088803D03*
X0240746Y0088723D03*
X0240746Y0077883D03*
X0240706Y0077803D03*
D403*
X0240806Y0077963D03*
X0240726Y0088763D03*
X0220326Y0088763D03*
X0220406Y0077963D03*
D404*
X0220426Y0078003D03*
X0220426Y0088603D03*
X0240826Y0088603D03*
X0240826Y0078003D03*
D405*
X0240866Y0078043D03*
X0240906Y0078123D03*
X0240906Y0088483D03*
X0220506Y0088483D03*
X0220506Y0078123D03*
X0220466Y0078043D03*
D406*
X0220526Y0078163D03*
X0240926Y0078163D03*
D407*
X0240986Y0078243D03*
X0240986Y0078283D03*
X0241026Y0078323D03*
X0241026Y0088283D03*
X0240986Y0088323D03*
X0220666Y0088243D03*
X0220626Y0088283D03*
X0220626Y0078323D03*
X0220586Y0078243D03*
D408*
X0220646Y0078363D03*
X0241046Y0078363D03*
D409*
X0241146Y0078523D03*
X0241186Y0078603D03*
X0241226Y0078643D03*
X0241226Y0078683D03*
X0241226Y0087923D03*
X0241186Y0088003D03*
X0241146Y0088083D03*
X0220826Y0087923D03*
X0220786Y0088003D03*
X0220746Y0088083D03*
X0220826Y0078683D03*
X0220826Y0078643D03*
X0220786Y0078603D03*
X0220746Y0078523D03*
D410*
X0220766Y0078563D03*
X0220686Y0088163D03*
X0232966Y0094963D03*
X0241086Y0088163D03*
X0241166Y0078563D03*
D411*
X0241286Y0078763D03*
X0220886Y0078763D03*
X0212606Y0094963D03*
D412*
X0220926Y0078843D03*
X0241326Y0078843D03*
D413*
X0241346Y0078883D03*
X0241346Y0078923D03*
X0241386Y0079003D03*
X0241426Y0079043D03*
X0241386Y0087603D03*
X0241386Y0087643D03*
X0241346Y0087683D03*
X0241346Y0087723D03*
X0220986Y0087643D03*
X0220986Y0087603D03*
X0220946Y0087683D03*
X0220946Y0087723D03*
X0221026Y0079043D03*
X0220986Y0079003D03*
X0220946Y0078923D03*
X0220946Y0078883D03*
D414*
X0220986Y0078963D03*
X0221026Y0087563D03*
X0241426Y0087563D03*
X0241386Y0078963D03*
D415*
X0241486Y0079163D03*
X0221086Y0079163D03*
D416*
X0221106Y0079243D03*
X0221146Y0079323D03*
X0221146Y0087283D03*
X0241546Y0087283D03*
X0241546Y0079323D03*
X0241506Y0079243D03*
D417*
X0241566Y0079363D03*
X0241646Y0079563D03*
X0241726Y0079763D03*
X0241686Y0086963D03*
X0241606Y0087163D03*
X0221286Y0086963D03*
X0221206Y0087163D03*
X0221246Y0079563D03*
X0221166Y0079363D03*
D418*
X0221186Y0079403D03*
X0221186Y0087203D03*
X0241586Y0087203D03*
X0241586Y0079403D03*
D419*
X0241666Y0079603D03*
X0241706Y0079683D03*
X0241706Y0079723D03*
X0241746Y0079803D03*
X0241746Y0079843D03*
X0241786Y0079883D03*
X0241786Y0079923D03*
X0241786Y0086683D03*
X0241786Y0086723D03*
X0241746Y0086803D03*
X0241706Y0086883D03*
X0241706Y0086923D03*
X0241666Y0087003D03*
X0221386Y0086723D03*
X0221386Y0086683D03*
X0221346Y0086803D03*
X0221346Y0086843D03*
X0221306Y0086883D03*
X0221266Y0087003D03*
X0221386Y0079923D03*
X0221386Y0079883D03*
X0221346Y0079843D03*
X0221346Y0079803D03*
X0221306Y0079723D03*
X0221266Y0079603D03*
D420*
X0221346Y0079763D03*
X0221346Y0086763D03*
X0241746Y0086763D03*
D421*
X0241846Y0086563D03*
X0241886Y0080163D03*
X0241806Y0079963D03*
X0221486Y0080163D03*
X0221406Y0079963D03*
X0221446Y0086563D03*
D422*
X0241826Y0086603D03*
X0241826Y0080003D03*
D423*
X0241846Y0080043D03*
X0241846Y0080083D03*
X0241846Y0080123D03*
X0241886Y0080203D03*
X0241926Y0080323D03*
X0241926Y0086283D03*
X0241886Y0086403D03*
X0241886Y0086443D03*
X0241846Y0086483D03*
X0241846Y0086523D03*
X0241806Y0086643D03*
X0221526Y0086283D03*
X0221486Y0086403D03*
X0221486Y0086443D03*
X0221446Y0086483D03*
X0221446Y0086523D03*
X0221406Y0086603D03*
X0221406Y0086643D03*
X0221526Y0080323D03*
X0221486Y0080203D03*
X0221446Y0080123D03*
X0221446Y0080083D03*
X0221446Y0080043D03*
X0221406Y0080003D03*
D424*
X0221506Y0080243D03*
X0221506Y0080283D03*
X0221546Y0080403D03*
X0221586Y0080483D03*
X0221586Y0080523D03*
X0221626Y0080643D03*
X0221586Y0086083D03*
X0221586Y0086123D03*
X0221546Y0086203D03*
X0221546Y0086243D03*
X0221506Y0086323D03*
X0232786Y0095043D03*
X0241906Y0086323D03*
X0241946Y0086243D03*
X0241946Y0086203D03*
X0241986Y0086123D03*
X0241986Y0086083D03*
X0242026Y0080643D03*
X0241986Y0080523D03*
X0241986Y0080483D03*
X0241946Y0080403D03*
X0241906Y0080283D03*
X0241906Y0080243D03*
D425*
X0241966Y0080443D03*
X0242086Y0080843D03*
X0242086Y0080883D03*
X0242086Y0080923D03*
X0242126Y0081043D03*
X0242126Y0085603D03*
X0242086Y0085683D03*
X0242086Y0085723D03*
X0242086Y0085803D03*
X0221686Y0085723D03*
X0221686Y0085683D03*
X0221726Y0081043D03*
X0221686Y0080923D03*
X0221686Y0080883D03*
X0221686Y0080843D03*
X0221566Y0080443D03*
D426*
X0221606Y0080563D03*
X0221646Y0080763D03*
X0242006Y0080563D03*
X0242046Y0080763D03*
D427*
X0242046Y0080723D03*
X0242046Y0080683D03*
X0242006Y0080603D03*
X0242046Y0085843D03*
X0242046Y0085883D03*
X0242046Y0085923D03*
X0242006Y0086003D03*
X0242006Y0086043D03*
X0221646Y0085923D03*
X0221646Y0085883D03*
X0221646Y0085843D03*
X0221606Y0086003D03*
X0221606Y0086043D03*
X0221646Y0080723D03*
X0221646Y0080683D03*
X0221606Y0080603D03*
X0212446Y0095043D03*
D428*
X0221666Y0085803D03*
X0221706Y0085643D03*
X0221706Y0085603D03*
X0221746Y0085523D03*
X0221746Y0085483D03*
X0221746Y0085443D03*
X0221746Y0085403D03*
X0221786Y0085323D03*
X0221786Y0085283D03*
X0221786Y0085243D03*
X0221786Y0081323D03*
X0221786Y0081283D03*
X0221786Y0081243D03*
X0221746Y0081203D03*
X0221746Y0081123D03*
X0221746Y0081083D03*
X0221706Y0081003D03*
X0221666Y0080803D03*
X0242066Y0080803D03*
X0242106Y0081003D03*
X0242146Y0081083D03*
X0242146Y0081123D03*
X0242146Y0081203D03*
X0242186Y0081243D03*
X0242186Y0081283D03*
X0242186Y0081323D03*
X0242226Y0081523D03*
X0242226Y0085083D03*
X0242226Y0085123D03*
X0242186Y0085243D03*
X0242186Y0085283D03*
X0242186Y0085323D03*
X0242146Y0085403D03*
X0242146Y0085443D03*
X0242146Y0085483D03*
X0242146Y0085523D03*
X0242106Y0085643D03*
D429*
X0242206Y0085203D03*
X0242246Y0085043D03*
X0242246Y0085003D03*
X0242246Y0084923D03*
X0242246Y0084883D03*
X0242286Y0084843D03*
X0242286Y0084803D03*
X0242286Y0084723D03*
X0242286Y0084683D03*
X0242286Y0084643D03*
X0242366Y0084043D03*
X0242366Y0083923D03*
X0242366Y0083843D03*
X0242366Y0082683D03*
X0242366Y0082643D03*
X0242286Y0081923D03*
X0242286Y0081883D03*
X0242286Y0081843D03*
X0242286Y0081803D03*
X0242246Y0081723D03*
X0242246Y0081683D03*
X0242246Y0081643D03*
X0242246Y0081603D03*
X0242206Y0081483D03*
X0242206Y0081443D03*
X0242206Y0081403D03*
X0221806Y0081403D03*
X0221806Y0081443D03*
X0221806Y0081483D03*
X0221806Y0085123D03*
X0221806Y0085203D03*
D430*
X0218326Y0085083D03*
X0218326Y0085043D03*
X0218326Y0085003D03*
X0218326Y0084923D03*
X0218326Y0084883D03*
X0218326Y0084843D03*
X0218326Y0081723D03*
X0218326Y0081683D03*
X0218326Y0081643D03*
X0218326Y0081603D03*
X0218326Y0081523D03*
D431*
X0221806Y0085163D03*
X0242206Y0085163D03*
X0242246Y0084963D03*
X0242286Y0084763D03*
X0242366Y0083963D03*
X0242366Y0082763D03*
X0242366Y0082563D03*
X0242286Y0081963D03*
X0242246Y0081563D03*
D432*
X0218326Y0081563D03*
X0218326Y0081763D03*
X0218326Y0084963D03*
D433*
X0218346Y0084803D03*
X0218346Y0084723D03*
X0218346Y0084683D03*
X0218346Y0084643D03*
X0218346Y0084603D03*
X0218346Y0084523D03*
X0218346Y0084483D03*
X0218346Y0082123D03*
X0218346Y0082083D03*
X0218346Y0082043D03*
X0218346Y0082003D03*
X0218346Y0081923D03*
X0218346Y0081883D03*
X0218346Y0081843D03*
X0218346Y0081803D03*
D434*
X0218346Y0081963D03*
X0218346Y0084563D03*
X0218346Y0084763D03*
D435*
X0242326Y0084523D03*
X0242326Y0084483D03*
X0242326Y0084443D03*
X0242326Y0084403D03*
X0242326Y0082243D03*
X0242326Y0082203D03*
X0242326Y0082083D03*
D436*
X0242326Y0082163D03*
X0242326Y0084363D03*
D437*
X0218366Y0084363D03*
X0218366Y0084163D03*
X0218366Y0083963D03*
X0218366Y0082363D03*
X0218366Y0082163D03*
D438*
X0218366Y0082203D03*
X0218366Y0082243D03*
X0218366Y0082283D03*
X0218366Y0082323D03*
X0218366Y0082403D03*
X0218366Y0082443D03*
X0218366Y0082483D03*
X0218366Y0082523D03*
X0218366Y0082603D03*
X0218366Y0084003D03*
X0218366Y0084043D03*
X0218366Y0084083D03*
X0218366Y0084123D03*
X0218366Y0084203D03*
X0218366Y0084243D03*
X0218366Y0084283D03*
X0218366Y0084323D03*
X0218366Y0084403D03*
X0218366Y0084443D03*
D439*
X0242306Y0084563D03*
X0242346Y0084163D03*
X0242386Y0083763D03*
X0242386Y0083563D03*
X0242386Y0083363D03*
X0242386Y0083163D03*
X0242386Y0082963D03*
X0242346Y0082363D03*
D440*
X0218386Y0082563D03*
X0218386Y0082763D03*
X0218386Y0082963D03*
X0218386Y0083163D03*
X0218386Y0083363D03*
X0218386Y0083563D03*
X0218386Y0083763D03*
D441*
X0218386Y0083723D03*
X0218386Y0083683D03*
X0218386Y0083643D03*
X0218386Y0083603D03*
X0218386Y0083523D03*
X0218386Y0083483D03*
X0218386Y0083443D03*
X0218386Y0083403D03*
X0218386Y0083323D03*
X0218386Y0083283D03*
X0218386Y0083243D03*
X0218386Y0083203D03*
X0218386Y0083123D03*
X0218386Y0083083D03*
X0218386Y0083043D03*
X0218386Y0083003D03*
X0218386Y0082923D03*
X0218386Y0082883D03*
X0218386Y0082843D03*
X0218386Y0082803D03*
X0218386Y0082723D03*
X0218386Y0082683D03*
X0218386Y0082643D03*
X0218386Y0083803D03*
X0218386Y0083843D03*
X0218386Y0083883D03*
X0218386Y0083923D03*
D442*
X0221726Y0085563D03*
X0221686Y0085763D03*
X0242086Y0085763D03*
X0242126Y0085563D03*
D443*
X0241506Y0087363D03*
X0221106Y0087363D03*
D444*
X0220926Y0087763D03*
X0241326Y0087763D03*
D445*
X0241226Y0087963D03*
X0220826Y0087963D03*
D446*
X0241046Y0088243D03*
D447*
X0240986Y0088363D03*
X0220586Y0088363D03*
D448*
X0220466Y0088563D03*
X0240866Y0088563D03*
D449*
X0240666Y0088843D03*
X0220266Y0088843D03*
D450*
X0220026Y0089163D03*
X0240426Y0089163D03*
D451*
X0240266Y0089363D03*
X0219866Y0089363D03*
D452*
X0219706Y0089563D03*
X0240106Y0089563D03*
D453*
X0239926Y0089763D03*
X0219526Y0089763D03*
X0212966Y0094763D03*
D454*
X0219346Y0089963D03*
X0239746Y0089963D03*
D455*
X0239646Y0090043D03*
X0219246Y0090043D03*
D456*
X0219126Y0090163D03*
X0239526Y0090163D03*
D457*
X0239326Y0090363D03*
X0218926Y0090363D03*
D458*
X0218686Y0090563D03*
X0239086Y0090563D03*
D459*
X0238966Y0090643D03*
X0218566Y0090643D03*
D460*
X0218426Y0090763D03*
X0238826Y0090763D03*
D461*
X0238706Y0090843D03*
X0218306Y0090843D03*
D462*
X0218126Y0090963D03*
X0238526Y0090963D03*
D463*
X0237806Y0091363D03*
X0217406Y0091363D03*
D464*
X0237306Y0091563D03*
D465*
X0234486Y0093763D03*
X0216926Y0091563D03*
D466*
X0237026Y0091643D03*
D467*
X0231026Y0091643D03*
D468*
X0216606Y0091643D03*
X0214406Y0093443D03*
D469*
X0210686Y0091643D03*
D470*
X0235806Y0091763D03*
D471*
X0215446Y0091763D03*
D472*
X0235766Y0091843D03*
D473*
X0215406Y0091843D03*
D474*
X0235706Y0091963D03*
D475*
X0215346Y0091963D03*
D476*
X0235666Y0092043D03*
D477*
X0215306Y0092043D03*
D478*
X0235586Y0092163D03*
D479*
X0235486Y0092363D03*
D480*
X0215126Y0092363D03*
D481*
X0235426Y0092443D03*
D482*
X0235366Y0092563D03*
D483*
X0215006Y0092563D03*
D484*
X0214946Y0092643D03*
D485*
X0235246Y0092763D03*
D486*
X0214886Y0092763D03*
D487*
X0235186Y0092843D03*
D488*
X0214826Y0092843D03*
D489*
X0235106Y0092963D03*
D490*
X0214746Y0092963D03*
D491*
X0214686Y0093043D03*
D492*
X0234966Y0093163D03*
D493*
X0214606Y0093163D03*
D494*
X0214546Y0093243D03*
D495*
X0234826Y0093363D03*
D496*
X0214466Y0093363D03*
D497*
X0234766Y0093443D03*
D498*
X0234666Y0093563D03*
D499*
X0214306Y0093563D03*
D500*
X0214226Y0093643D03*
D501*
X0214126Y0093763D03*
D502*
X0234306Y0093963D03*
D503*
X0213946Y0093963D03*
D504*
X0234226Y0094043D03*
D505*
X0234106Y0094163D03*
D506*
X0213746Y0094163D03*
D507*
X0234026Y0094243D03*
D508*
X0233886Y0094363D03*
D509*
X0233626Y0094563D03*
D510*
X0213266Y0094563D03*
D511*
X0233326Y0094763D03*
D512*
X0212846Y0094843D03*
D513*
X0232466Y0095163D03*
D514*
X0212086Y0095163D03*
D515*
X0211966Y0095203D03*
D516*
X0232186Y0095243D03*
D517*
X0211786Y0095243D03*
D518*
X0232186Y0095283D03*
D519*
X0231466Y0095283D03*
D520*
X0230170Y0135696D03*
X0230150Y0135756D03*
X0230150Y0135796D03*
X0230130Y0135856D03*
X0230130Y0135896D03*
X0230110Y0135956D03*
X0230110Y0135996D03*
X0230090Y0136036D03*
X0230090Y0136056D03*
X0230090Y0136096D03*
X0230070Y0136136D03*
X0230070Y0136156D03*
X0230070Y0136196D03*
X0230050Y0136236D03*
X0230050Y0136256D03*
X0230050Y0136296D03*
X0230030Y0136336D03*
X0230030Y0136356D03*
X0230030Y0136396D03*
X0230010Y0136436D03*
X0230010Y0136456D03*
X0230010Y0136496D03*
X0229990Y0136536D03*
X0229990Y0136556D03*
X0229970Y0136636D03*
X0229970Y0136656D03*
X0229950Y0136736D03*
X0229950Y0136756D03*
X0229930Y0136836D03*
X0229930Y0136856D03*
X0229910Y0136936D03*
X0229910Y0136956D03*
X0229890Y0137036D03*
X0229890Y0137056D03*
X0229870Y0137096D03*
X0229870Y0137136D03*
X0229870Y0137156D03*
X0229850Y0137196D03*
X0229850Y0137236D03*
X0229850Y0137256D03*
X0229830Y0137296D03*
X0229830Y0137336D03*
X0229830Y0137356D03*
X0229810Y0137396D03*
X0229810Y0137436D03*
X0229810Y0137456D03*
X0229790Y0137496D03*
X0229790Y0137536D03*
X0229770Y0137596D03*
X0229770Y0137636D03*
X0229750Y0137696D03*
X0229750Y0137736D03*
X0229730Y0137796D03*
X0229730Y0137836D03*
X0229710Y0137896D03*
X0229710Y0137936D03*
X0229690Y0137996D03*
X0229670Y0138096D03*
X0229650Y0138156D03*
X0229650Y0138196D03*
X0229630Y0138256D03*
X0229630Y0138296D03*
X0229610Y0138356D03*
X0229610Y0138396D03*
X0229590Y0138456D03*
X0228630Y0138356D03*
X0229310Y0139756D03*
X0229310Y0139796D03*
X0229310Y0139836D03*
X0229110Y0140796D03*
X0229090Y0140836D03*
X0229090Y0140856D03*
X0225670Y0141496D03*
X0225650Y0141396D03*
X0225630Y0141356D03*
X0225630Y0141336D03*
X0225630Y0141296D03*
X0225630Y0141256D03*
X0225610Y0141156D03*
X0225610Y0141136D03*
X0225610Y0141096D03*
X0225630Y0140396D03*
X0225650Y0140296D03*
X0225650Y0140256D03*
X0225650Y0140236D03*
X0225670Y0140196D03*
X0225670Y0140156D03*
X0225670Y0140136D03*
X0225690Y0140096D03*
X0225690Y0140056D03*
X0225690Y0140036D03*
X0225710Y0139996D03*
X0225710Y0139956D03*
X0225730Y0139896D03*
X0223890Y0139496D03*
X0223890Y0139456D03*
X0223890Y0139436D03*
X0223910Y0139396D03*
X0223910Y0139356D03*
X0223910Y0139336D03*
X0223930Y0139296D03*
X0223930Y0139256D03*
X0223930Y0139236D03*
X0223950Y0139196D03*
X0223950Y0139156D03*
X0223950Y0139136D03*
X0223970Y0139096D03*
X0223970Y0139056D03*
X0223990Y0138996D03*
X0223990Y0138956D03*
X0224010Y0138896D03*
X0224010Y0138856D03*
X0224030Y0138836D03*
X0224030Y0138796D03*
X0224030Y0138756D03*
X0224050Y0138736D03*
X0224050Y0138696D03*
X0224050Y0138656D03*
X0224070Y0138636D03*
X0224070Y0138596D03*
X0224090Y0138536D03*
X0224090Y0138496D03*
X0224110Y0138436D03*
X0224110Y0138396D03*
X0224130Y0138356D03*
X0224130Y0138336D03*
X0224130Y0138296D03*
X0224150Y0138256D03*
X0224150Y0138236D03*
X0224150Y0138196D03*
X0224170Y0138156D03*
X0224170Y0138136D03*
X0224170Y0138096D03*
X0224190Y0138056D03*
X0224190Y0138036D03*
X0224190Y0137996D03*
X0224210Y0137956D03*
X0224210Y0137936D03*
X0224210Y0137896D03*
X0224230Y0137856D03*
X0224230Y0137836D03*
X0224230Y0137796D03*
X0224250Y0137756D03*
X0224250Y0137736D03*
X0223870Y0139536D03*
X0223870Y0139556D03*
X0223870Y0139596D03*
X0223850Y0139636D03*
X0223850Y0139656D03*
X0223850Y0139696D03*
X0223830Y0139736D03*
X0223830Y0139756D03*
X0223810Y0139836D03*
X0223810Y0139856D03*
X0223790Y0139936D03*
X0223790Y0139956D03*
X0223770Y0140036D03*
X0223770Y0140056D03*
X0223750Y0140096D03*
X0223750Y0140136D03*
X0223750Y0140156D03*
X0223730Y0140196D03*
X0223730Y0140236D03*
X0223730Y0140256D03*
X0223710Y0140296D03*
X0223710Y0140336D03*
X0223710Y0140356D03*
X0223690Y0140396D03*
X0223690Y0140436D03*
X0223690Y0140456D03*
X0223670Y0140496D03*
X0223670Y0140536D03*
X0223670Y0140556D03*
X0223650Y0140596D03*
X0223650Y0140636D03*
X0223650Y0140656D03*
X0223630Y0140696D03*
X0223630Y0140736D03*
X0223610Y0140796D03*
X0223610Y0140836D03*
X0223590Y0140896D03*
X0223590Y0140936D03*
X0223570Y0140956D03*
X0223570Y0140996D03*
X0223570Y0141036D03*
X0223550Y0141056D03*
X0223550Y0141096D03*
X0223550Y0141136D03*
X0223530Y0141156D03*
X0223530Y0141196D03*
X0223510Y0141256D03*
X0223510Y0141296D03*
X0223490Y0141356D03*
X0223490Y0141396D03*
X0223470Y0141436D03*
X0223470Y0141456D03*
X0223470Y0141496D03*
X0223450Y0141536D03*
X0223450Y0141556D03*
X0223450Y0141596D03*
X0223430Y0141636D03*
X0223430Y0141656D03*
X0223430Y0141696D03*
X0223410Y0141736D03*
X0223410Y0141756D03*
X0223410Y0141796D03*
X0223390Y0141836D03*
X0223390Y0141856D03*
X0223390Y0141896D03*
X0223370Y0141936D03*
X0223370Y0141956D03*
X0223370Y0141996D03*
X0223350Y0142036D03*
X0223350Y0142056D03*
X0223330Y0142136D03*
X0223330Y0142156D03*
X0223310Y0142236D03*
X0223310Y0142256D03*
X0223290Y0142336D03*
X0223290Y0142356D03*
X0223270Y0142396D03*
X0223270Y0142436D03*
X0223270Y0142456D03*
X0223250Y0142496D03*
X0223250Y0142536D03*
X0223250Y0142556D03*
X0223230Y0142596D03*
X0223230Y0142636D03*
X0223230Y0142656D03*
X0223210Y0142696D03*
X0223210Y0142736D03*
X0223210Y0142756D03*
X0223190Y0142796D03*
X0223190Y0142836D03*
X0223190Y0142856D03*
X0223170Y0142896D03*
X0223170Y0142936D03*
X0223170Y0142956D03*
X0223150Y0142996D03*
X0223150Y0143036D03*
X0223130Y0143096D03*
X0223130Y0143136D03*
X0223110Y0143196D03*
X0223110Y0143236D03*
X0223090Y0143256D03*
X0223090Y0143296D03*
X0223090Y0143336D03*
X0223070Y0143356D03*
X0223070Y0143396D03*
X0223070Y0143436D03*
X0223050Y0143456D03*
X0223050Y0143496D03*
X0223030Y0143556D03*
X0223030Y0143596D03*
X0223010Y0143656D03*
X0223010Y0143696D03*
X0222990Y0143736D03*
X0222990Y0143756D03*
X0222990Y0143796D03*
X0222970Y0143836D03*
X0222970Y0143856D03*
X0222970Y0143896D03*
X0222950Y0143936D03*
X0222950Y0143956D03*
X0222950Y0143996D03*
X0222930Y0144036D03*
X0222930Y0144056D03*
X0222930Y0144096D03*
X0222910Y0144136D03*
X0222910Y0144156D03*
X0222910Y0144196D03*
X0222890Y0144236D03*
X0222890Y0144256D03*
X0222890Y0144296D03*
X0222870Y0144336D03*
X0222870Y0144356D03*
X0222850Y0144436D03*
X0222850Y0144456D03*
X0222830Y0144536D03*
X0222830Y0144556D03*
X0222810Y0144636D03*
X0222810Y0144656D03*
X0222790Y0144696D03*
X0222790Y0144736D03*
X0222790Y0144756D03*
X0222770Y0144796D03*
X0220830Y0142856D03*
X0220830Y0142836D03*
X0220830Y0142796D03*
X0220850Y0142756D03*
X0220850Y0142736D03*
X0220870Y0142656D03*
X0220870Y0142636D03*
X0220890Y0142596D03*
X0220890Y0142556D03*
X0220890Y0142536D03*
X0220910Y0142496D03*
X0220910Y0142456D03*
X0220910Y0142436D03*
X0220930Y0142396D03*
X0220930Y0142356D03*
X0220950Y0142336D03*
X0220950Y0142296D03*
X0220950Y0142256D03*
X0220970Y0142236D03*
X0220970Y0142196D03*
X0220990Y0142156D03*
X0220990Y0142136D03*
X0220990Y0142096D03*
X0221010Y0142056D03*
X0221010Y0142036D03*
X0221010Y0141996D03*
X0221030Y0141956D03*
X0221030Y0141936D03*
X0221050Y0141856D03*
X0221050Y0141836D03*
X0221070Y0141796D03*
X0221070Y0141756D03*
X0221070Y0141736D03*
X0221090Y0141696D03*
X0221090Y0141656D03*
X0221110Y0141596D03*
X0221110Y0141556D03*
X0221130Y0141496D03*
X0221150Y0141436D03*
X0221150Y0141396D03*
X0221170Y0141336D03*
X0221170Y0141296D03*
X0221190Y0141256D03*
X0221190Y0141236D03*
X0221210Y0141156D03*
X0221210Y0141136D03*
X0221230Y0141056D03*
X0221230Y0141036D03*
X0221250Y0140956D03*
X0221250Y0140936D03*
X0221270Y0140896D03*
X0221270Y0140856D03*
X0221290Y0140796D03*
X0221310Y0140696D03*
X0221330Y0140596D03*
X0221350Y0140536D03*
X0221370Y0140436D03*
X0221390Y0140356D03*
X0221390Y0140336D03*
X0221410Y0140256D03*
X0221410Y0140236D03*
X0221430Y0140156D03*
X0221470Y0139996D03*
X0221490Y0139896D03*
X0221510Y0139796D03*
X0221550Y0139636D03*
X0221570Y0139536D03*
X0221590Y0139456D03*
X0221590Y0139436D03*
X0221610Y0139356D03*
X0221610Y0139336D03*
X0221630Y0139256D03*
X0221630Y0139236D03*
X0221630Y0139196D03*
X0221650Y0139096D03*
X0221650Y0139056D03*
X0221670Y0138956D03*
X0221670Y0138936D03*
X0221670Y0138896D03*
X0219550Y0138356D03*
X0218230Y0139796D03*
X0218190Y0139936D03*
X0218190Y0139956D03*
X0218170Y0140036D03*
X0218170Y0140056D03*
X0218150Y0140096D03*
X0218150Y0140136D03*
X0218130Y0140196D03*
X0218110Y0140256D03*
X0218110Y0140296D03*
X0218090Y0140356D03*
X0218090Y0140396D03*
X0218070Y0140456D03*
X0218050Y0140536D03*
X0218050Y0140556D03*
X0218030Y0140636D03*
X0218030Y0140656D03*
X0218010Y0140736D03*
X0218010Y0140756D03*
X0217990Y0140836D03*
X0217970Y0140896D03*
X0217970Y0140936D03*
X0217950Y0140996D03*
X0217950Y0141036D03*
X0217930Y0141096D03*
X0217910Y0141196D03*
X0217890Y0141256D03*
X0217890Y0141296D03*
X0217870Y0141356D03*
X0217870Y0141396D03*
X0217850Y0141436D03*
X0217850Y0141456D03*
X0217850Y0141496D03*
X0217830Y0141536D03*
X0217830Y0141556D03*
X0217810Y0141636D03*
X0217810Y0141656D03*
X0217790Y0141736D03*
X0217790Y0141756D03*
X0217770Y0141796D03*
X0217770Y0141836D03*
X0217770Y0141856D03*
X0217750Y0141896D03*
X0217750Y0141936D03*
X0217730Y0141996D03*
X0217730Y0142036D03*
X0217710Y0142096D03*
X0217710Y0142136D03*
X0217690Y0142156D03*
X0217690Y0142196D03*
X0217670Y0142256D03*
X0217670Y0142296D03*
X0217650Y0142336D03*
X0217650Y0142356D03*
X0217650Y0142396D03*
X0217630Y0142436D03*
X0217630Y0142456D03*
X0217630Y0142496D03*
X0217610Y0142536D03*
X0217610Y0142556D03*
X0217590Y0142636D03*
X0217590Y0142656D03*
X0217570Y0142696D03*
X0217570Y0142736D03*
X0217570Y0142756D03*
X0217550Y0142796D03*
X0217550Y0142836D03*
X0217550Y0142856D03*
X0215530Y0141996D03*
X0215630Y0141396D03*
X0216330Y0139256D03*
X0216330Y0139236D03*
X0216330Y0139196D03*
X0216330Y0139156D03*
X0216310Y0139056D03*
X0213070Y0138696D03*
X0212990Y0139136D03*
X0212990Y0139156D03*
X0212990Y0139196D03*
X0212610Y0141396D03*
X0212610Y0141436D03*
X0212610Y0141456D03*
X0212610Y0141496D03*
X0212630Y0141536D03*
X0212630Y0141556D03*
D521*
X0212630Y0141516D03*
X0212610Y0141476D03*
X0212610Y0141416D03*
X0212990Y0139176D03*
X0213050Y0138716D03*
X0213070Y0138676D03*
X0216330Y0139176D03*
X0216330Y0139216D03*
X0216330Y0139276D03*
X0218210Y0139876D03*
X0218190Y0139976D03*
X0218170Y0140016D03*
X0218150Y0140076D03*
X0218150Y0140116D03*
X0218130Y0140176D03*
X0218130Y0140216D03*
X0218110Y0140276D03*
X0218090Y0140376D03*
X0218070Y0140476D03*
X0218050Y0140576D03*
X0218010Y0140716D03*
X0217990Y0140816D03*
X0217970Y0140916D03*
X0217950Y0141016D03*
X0217930Y0141076D03*
X0217930Y0141116D03*
X0217910Y0141176D03*
X0217910Y0141216D03*
X0217890Y0141276D03*
X0217870Y0141376D03*
X0217850Y0141476D03*
X0217830Y0141576D03*
X0217810Y0141616D03*
X0217810Y0141676D03*
X0217790Y0141716D03*
X0217770Y0141816D03*
X0217750Y0141916D03*
X0217730Y0141976D03*
X0217730Y0142016D03*
X0217710Y0142076D03*
X0217710Y0142116D03*
X0217690Y0142176D03*
X0217690Y0142216D03*
X0217670Y0142276D03*
X0217670Y0142316D03*
X0217650Y0142376D03*
X0217630Y0142476D03*
X0217610Y0142516D03*
X0217610Y0142576D03*
X0217590Y0142616D03*
X0217590Y0142676D03*
X0217570Y0142716D03*
X0217570Y0142776D03*
X0217550Y0142816D03*
X0215550Y0141976D03*
X0215630Y0141376D03*
X0220870Y0142616D03*
X0220890Y0142576D03*
X0220910Y0142516D03*
X0220910Y0142476D03*
X0220930Y0142416D03*
X0220930Y0142376D03*
X0220950Y0142316D03*
X0220950Y0142276D03*
X0220970Y0142216D03*
X0220970Y0142176D03*
X0220990Y0142116D03*
X0221010Y0142016D03*
X0221030Y0141976D03*
X0221030Y0141916D03*
X0221050Y0141876D03*
X0221050Y0141816D03*
X0221070Y0141776D03*
X0221090Y0141676D03*
X0221110Y0141616D03*
X0221110Y0141576D03*
X0221130Y0141516D03*
X0221130Y0141476D03*
X0221150Y0141416D03*
X0221150Y0141376D03*
X0221170Y0141316D03*
X0221190Y0141216D03*
X0221210Y0141116D03*
X0221230Y0141076D03*
X0221250Y0140976D03*
X0221270Y0140876D03*
X0221290Y0140776D03*
X0221310Y0140716D03*
X0221310Y0140676D03*
X0221330Y0140616D03*
X0221350Y0140516D03*
X0221370Y0140416D03*
X0221430Y0140176D03*
X0221450Y0140076D03*
X0221470Y0139976D03*
X0221510Y0139816D03*
X0221530Y0139716D03*
X0221550Y0139616D03*
X0221570Y0139516D03*
X0221590Y0139416D03*
X0221610Y0139316D03*
X0221630Y0139216D03*
X0221650Y0139116D03*
X0221650Y0139076D03*
X0221670Y0138916D03*
X0221670Y0138876D03*
X0223910Y0139376D03*
X0223930Y0139316D03*
X0223930Y0139276D03*
X0223950Y0139216D03*
X0223950Y0139176D03*
X0223970Y0139116D03*
X0223970Y0139076D03*
X0223990Y0139016D03*
X0223990Y0138976D03*
X0224010Y0138916D03*
X0224010Y0138876D03*
X0224030Y0138816D03*
X0224030Y0138776D03*
X0224050Y0138716D03*
X0224050Y0138676D03*
X0224070Y0138616D03*
X0224070Y0138576D03*
X0224090Y0138516D03*
X0224090Y0138476D03*
X0224110Y0138416D03*
X0224110Y0138376D03*
X0224130Y0138316D03*
X0224130Y0138276D03*
X0224150Y0138216D03*
X0224170Y0138116D03*
X0224190Y0138016D03*
X0224210Y0137916D03*
X0224230Y0137876D03*
X0224230Y0137816D03*
X0224250Y0137776D03*
X0224250Y0137716D03*
X0224270Y0137676D03*
X0223890Y0139476D03*
X0223870Y0139576D03*
X0223850Y0139616D03*
X0223850Y0139676D03*
X0223830Y0139716D03*
X0223830Y0139776D03*
X0223810Y0139816D03*
X0223810Y0139876D03*
X0223790Y0139916D03*
X0223790Y0139976D03*
X0223770Y0140016D03*
X0223770Y0140076D03*
X0223750Y0140116D03*
X0223750Y0140176D03*
X0223730Y0140216D03*
X0223710Y0140316D03*
X0223690Y0140416D03*
X0223670Y0140516D03*
X0223650Y0140576D03*
X0223650Y0140616D03*
X0223630Y0140676D03*
X0223630Y0140716D03*
X0223610Y0140776D03*
X0223610Y0140816D03*
X0223590Y0140876D03*
X0223590Y0140916D03*
X0223570Y0140976D03*
X0223570Y0141016D03*
X0223550Y0141076D03*
X0223550Y0141116D03*
X0223530Y0141176D03*
X0223530Y0141216D03*
X0223510Y0141276D03*
X0223510Y0141316D03*
X0223490Y0141376D03*
X0223490Y0141416D03*
X0223470Y0141476D03*
X0223470Y0141516D03*
X0223450Y0141576D03*
X0223450Y0141616D03*
X0223430Y0141676D03*
X0223410Y0141776D03*
X0223390Y0141876D03*
X0223370Y0141916D03*
X0223370Y0141976D03*
X0223350Y0142016D03*
X0223350Y0142076D03*
X0223330Y0142116D03*
X0223330Y0142176D03*
X0223310Y0142216D03*
X0223310Y0142276D03*
X0223290Y0142316D03*
X0223290Y0142376D03*
X0223270Y0142416D03*
X0223270Y0142476D03*
X0223250Y0142516D03*
X0223230Y0142616D03*
X0223210Y0142716D03*
X0223190Y0142816D03*
X0223170Y0142876D03*
X0223170Y0142916D03*
X0223150Y0142976D03*
X0223150Y0143016D03*
X0223130Y0143076D03*
X0223130Y0143116D03*
X0223110Y0143176D03*
X0223110Y0143216D03*
X0223090Y0143276D03*
X0223090Y0143316D03*
X0223070Y0143376D03*
X0223070Y0143416D03*
X0223050Y0143476D03*
X0223050Y0143516D03*
X0223030Y0143576D03*
X0223030Y0143616D03*
X0223010Y0143676D03*
X0223010Y0143716D03*
X0222990Y0143776D03*
X0222990Y0143816D03*
X0222970Y0143876D03*
X0222950Y0143976D03*
X0222930Y0144076D03*
X0222910Y0144176D03*
X0222890Y0144216D03*
X0222890Y0144276D03*
X0222870Y0144316D03*
X0222870Y0144376D03*
X0222850Y0144416D03*
X0222850Y0144476D03*
X0222830Y0144516D03*
X0222830Y0144576D03*
X0222810Y0144616D03*
X0222810Y0144676D03*
X0222790Y0144716D03*
X0222790Y0144776D03*
X0222770Y0144816D03*
X0220830Y0142816D03*
X0220850Y0142776D03*
X0220850Y0142716D03*
X0220870Y0142676D03*
X0225650Y0141416D03*
X0225650Y0141376D03*
X0225630Y0141316D03*
X0225630Y0141276D03*
X0225610Y0141116D03*
X0225610Y0140616D03*
X0225630Y0140416D03*
X0225630Y0140376D03*
X0225650Y0140276D03*
X0225670Y0140176D03*
X0225670Y0140116D03*
X0225690Y0140076D03*
X0225710Y0139976D03*
X0229070Y0140916D03*
X0229090Y0140876D03*
X0229110Y0140776D03*
X0229310Y0139816D03*
X0229310Y0139776D03*
X0229590Y0138476D03*
X0229610Y0138376D03*
X0229630Y0138316D03*
X0229630Y0138276D03*
X0229650Y0138216D03*
X0229650Y0138176D03*
X0229670Y0138116D03*
X0229670Y0138076D03*
X0229690Y0138016D03*
X0229690Y0137976D03*
X0229710Y0137916D03*
X0229710Y0137876D03*
X0229730Y0137816D03*
X0229730Y0137776D03*
X0229750Y0137716D03*
X0229750Y0137676D03*
X0229770Y0137616D03*
X0229770Y0137576D03*
X0229790Y0137516D03*
X0229810Y0137416D03*
X0229830Y0137316D03*
X0229850Y0137216D03*
X0229870Y0137116D03*
X0229890Y0137016D03*
X0229910Y0136976D03*
X0229910Y0136916D03*
X0229930Y0136876D03*
X0229930Y0136816D03*
X0229950Y0136776D03*
X0229950Y0136716D03*
X0229970Y0136676D03*
X0229970Y0136616D03*
X0229990Y0136576D03*
X0229990Y0136516D03*
X0230010Y0136476D03*
X0230030Y0136376D03*
X0230050Y0136276D03*
X0230070Y0136176D03*
X0230090Y0136116D03*
X0230090Y0136076D03*
X0230110Y0136016D03*
X0230110Y0135976D03*
X0230130Y0135916D03*
X0230130Y0135876D03*
X0230150Y0135816D03*
X0230150Y0135776D03*
X0230170Y0135716D03*
D522*
X0230160Y0135736D03*
X0230140Y0135836D03*
X0230120Y0135936D03*
X0229980Y0136596D03*
X0229960Y0136696D03*
X0229940Y0136796D03*
X0229920Y0136896D03*
X0229900Y0136996D03*
X0229780Y0137556D03*
X0229760Y0137656D03*
X0229740Y0137756D03*
X0229720Y0137856D03*
X0229700Y0137956D03*
X0229680Y0138036D03*
X0229680Y0138056D03*
X0229660Y0138136D03*
X0229640Y0138236D03*
X0229620Y0138336D03*
X0229600Y0138436D03*
X0229300Y0139856D03*
X0229300Y0139896D03*
X0229300Y0139936D03*
X0229280Y0139996D03*
X0229280Y0140036D03*
X0229260Y0140136D03*
X0229160Y0140596D03*
X0229140Y0140656D03*
X0229140Y0140696D03*
X0229120Y0140736D03*
X0229120Y0140756D03*
X0227960Y0142196D03*
X0225620Y0141236D03*
X0225620Y0141196D03*
X0225600Y0141056D03*
X0225600Y0141036D03*
X0225600Y0140996D03*
X0225600Y0140956D03*
X0225600Y0140936D03*
X0225600Y0140896D03*
X0225600Y0140856D03*
X0225600Y0140836D03*
X0225600Y0140796D03*
X0225600Y0140756D03*
X0225600Y0140736D03*
X0225600Y0140696D03*
X0225600Y0140656D03*
X0225600Y0140636D03*
X0225620Y0140596D03*
X0225620Y0140556D03*
X0225620Y0140536D03*
X0225620Y0140496D03*
X0225620Y0140456D03*
X0225620Y0140436D03*
X0225640Y0140356D03*
X0225640Y0140336D03*
X0223780Y0139996D03*
X0223800Y0139896D03*
X0223820Y0139796D03*
X0223980Y0139036D03*
X0224000Y0138936D03*
X0224080Y0138556D03*
X0224100Y0138456D03*
X0224260Y0137696D03*
X0223620Y0140756D03*
X0223600Y0140856D03*
X0223520Y0141236D03*
X0223500Y0141336D03*
X0223340Y0142096D03*
X0223320Y0142196D03*
X0223300Y0142296D03*
X0223140Y0143056D03*
X0223120Y0143156D03*
X0223040Y0143536D03*
X0223020Y0143636D03*
X0222860Y0144396D03*
X0222840Y0144496D03*
X0222820Y0144596D03*
X0220860Y0142696D03*
X0217720Y0142056D03*
X0217740Y0141956D03*
X0217800Y0141696D03*
X0217820Y0141596D03*
X0217880Y0141336D03*
X0217900Y0141236D03*
X0217920Y0141156D03*
X0217920Y0141136D03*
X0217940Y0141056D03*
X0217960Y0140956D03*
X0217980Y0140856D03*
X0218000Y0140796D03*
X0218020Y0140696D03*
X0218040Y0140596D03*
X0218060Y0140496D03*
X0218080Y0140436D03*
X0218100Y0140336D03*
X0218120Y0140236D03*
X0218140Y0140156D03*
X0216340Y0139396D03*
X0216340Y0139356D03*
X0216340Y0139336D03*
X0216340Y0139296D03*
X0215640Y0141436D03*
X0215640Y0141456D03*
X0215560Y0141956D03*
X0217600Y0142596D03*
X0217680Y0142236D03*
X0212600Y0141356D03*
X0212980Y0139096D03*
X0212980Y0139056D03*
X0212980Y0139036D03*
X0212980Y0138996D03*
X0213000Y0138896D03*
X0213000Y0138856D03*
X0213020Y0138796D03*
X0213040Y0138756D03*
X0213040Y0138736D03*
D523*
X0213020Y0138776D03*
X0213020Y0138816D03*
X0213000Y0138876D03*
X0212980Y0138976D03*
X0212980Y0139016D03*
X0212980Y0139076D03*
X0212980Y0139116D03*
X0212600Y0141376D03*
X0215580Y0141916D03*
X0215640Y0141416D03*
X0216340Y0139416D03*
X0216340Y0139376D03*
X0216340Y0139316D03*
X0218100Y0140316D03*
X0218080Y0140416D03*
X0218060Y0140516D03*
X0218040Y0140616D03*
X0218020Y0140676D03*
X0218000Y0140776D03*
X0217980Y0140876D03*
X0217960Y0140976D03*
X0217880Y0141316D03*
X0217860Y0141416D03*
X0217840Y0141516D03*
X0217780Y0141776D03*
X0217760Y0141876D03*
X0217640Y0142416D03*
X0222960Y0143916D03*
X0222940Y0144016D03*
X0222920Y0144116D03*
X0223200Y0142776D03*
X0223220Y0142676D03*
X0223240Y0142576D03*
X0223400Y0141816D03*
X0223420Y0141716D03*
X0223680Y0140476D03*
X0223700Y0140376D03*
X0223720Y0140276D03*
X0223880Y0139516D03*
X0223900Y0139416D03*
X0224160Y0138176D03*
X0224180Y0138076D03*
X0224200Y0137976D03*
X0225660Y0140216D03*
X0225640Y0140316D03*
X0225620Y0140476D03*
X0225620Y0140516D03*
X0225620Y0140576D03*
X0225600Y0140676D03*
X0225600Y0140716D03*
X0225600Y0140776D03*
X0225600Y0140816D03*
X0225600Y0140876D03*
X0225600Y0140916D03*
X0225600Y0140976D03*
X0225600Y0141016D03*
X0225600Y0141076D03*
X0225620Y0141176D03*
X0225620Y0141216D03*
X0229100Y0140816D03*
X0229120Y0140716D03*
X0229140Y0140676D03*
X0229160Y0140616D03*
X0229160Y0140576D03*
X0229180Y0140516D03*
X0229280Y0140016D03*
X0229300Y0139916D03*
X0229300Y0139876D03*
X0229600Y0138416D03*
X0229800Y0137476D03*
X0229820Y0137376D03*
X0229840Y0137276D03*
X0229860Y0137176D03*
X0229880Y0137076D03*
X0230020Y0136416D03*
X0230040Y0136316D03*
X0230060Y0136216D03*
D524*
X0214650Y0137556D03*
D525*
X0220800Y0137556D03*
X0227700Y0137556D03*
D526*
X0226010Y0139176D03*
X0225910Y0139376D03*
X0225850Y0139516D03*
X0229010Y0141116D03*
X0225710Y0141616D03*
X0218250Y0139716D03*
X0214650Y0137576D03*
X0213010Y0139276D03*
D527*
X0220790Y0137576D03*
X0227690Y0137576D03*
D528*
X0229350Y0138936D03*
X0229350Y0138956D03*
X0228770Y0141696D03*
X0225990Y0142096D03*
X0218550Y0138956D03*
X0218530Y0138996D03*
X0215990Y0138436D03*
X0214650Y0137596D03*
X0213230Y0139636D03*
X0212950Y0142136D03*
X0212970Y0142156D03*
X0215250Y0142256D03*
D529*
X0215570Y0141936D03*
X0215590Y0141896D03*
X0215610Y0141856D03*
X0215650Y0141496D03*
X0212990Y0138956D03*
X0212990Y0138936D03*
X0213010Y0138836D03*
X0218470Y0138556D03*
X0218490Y0138456D03*
X0218570Y0138096D03*
X0220790Y0137596D03*
X0229290Y0139956D03*
X0229270Y0140056D03*
X0229270Y0140096D03*
X0229250Y0140156D03*
X0229250Y0140196D03*
X0229210Y0140356D03*
X0229210Y0140396D03*
X0229190Y0140436D03*
X0229190Y0140456D03*
X0229190Y0140496D03*
X0229170Y0140536D03*
X0229170Y0140556D03*
X0229150Y0140636D03*
X0226870Y0142936D03*
D530*
X0228700Y0142856D03*
X0228700Y0142836D03*
X0228760Y0142596D03*
X0228760Y0142556D03*
X0228800Y0142396D03*
X0228800Y0142356D03*
X0227700Y0137596D03*
X0218660Y0137696D03*
X0218600Y0137936D03*
X0218600Y0137956D03*
X0218600Y0137996D03*
X0218560Y0138136D03*
X0218560Y0138156D03*
X0218500Y0138396D03*
X0218500Y0138436D03*
X0215660Y0141536D03*
X0215660Y0141556D03*
X0215660Y0141596D03*
X0215660Y0141636D03*
D531*
X0213390Y0139776D03*
X0214650Y0137616D03*
X0221350Y0138276D03*
D532*
X0220790Y0137616D03*
X0218390Y0139316D03*
X0216190Y0138676D03*
X0215550Y0141216D03*
X0212770Y0141916D03*
X0225830Y0141876D03*
X0226290Y0138716D03*
X0226330Y0138676D03*
X0229350Y0139316D03*
D533*
X0228990Y0141176D03*
X0228970Y0141216D03*
X0226870Y0142916D03*
X0225790Y0141816D03*
X0225770Y0141776D03*
X0226090Y0139016D03*
X0226150Y0138916D03*
X0226170Y0138876D03*
X0227690Y0137616D03*
X0219630Y0138316D03*
X0218350Y0139416D03*
X0218330Y0139476D03*
X0216230Y0138776D03*
X0213210Y0138476D03*
X0213050Y0139376D03*
X0212750Y0141876D03*
X0215430Y0142116D03*
D534*
X0214650Y0137636D03*
X0228510Y0142096D03*
D535*
X0228820Y0141596D03*
X0228840Y0141556D03*
X0229360Y0139056D03*
X0229360Y0139036D03*
X0226560Y0138436D03*
X0226540Y0138456D03*
X0220780Y0137636D03*
X0218500Y0139056D03*
X0218480Y0139096D03*
X0216060Y0138496D03*
X0213340Y0138356D03*
X0212900Y0142096D03*
X0225940Y0142036D03*
D536*
X0226870Y0142896D03*
X0228850Y0141536D03*
X0226490Y0138496D03*
X0227690Y0137636D03*
X0218470Y0139136D03*
X0216090Y0138536D03*
X0215490Y0141136D03*
X0212870Y0142056D03*
X0213150Y0139556D03*
D537*
X0214990Y0140756D03*
X0214650Y0137656D03*
X0226870Y0142756D03*
D538*
X0228720Y0141796D03*
X0228740Y0141756D03*
X0229340Y0138856D03*
X0229340Y0138836D03*
X0227680Y0137656D03*
X0220780Y0137656D03*
X0215380Y0141036D03*
X0213440Y0138296D03*
D539*
X0214650Y0137676D03*
X0226870Y0142716D03*
D540*
X0228000Y0142176D03*
X0228800Y0142376D03*
X0228800Y0142416D03*
X0228760Y0142576D03*
X0228760Y0142616D03*
X0218500Y0138416D03*
X0218560Y0138176D03*
X0218560Y0138116D03*
X0218600Y0137976D03*
X0218600Y0137916D03*
X0218660Y0137676D03*
X0215660Y0141576D03*
X0215660Y0141616D03*
X0215600Y0141876D03*
D541*
X0220770Y0137676D03*
D542*
X0218660Y0138776D03*
X0227680Y0137676D03*
D543*
X0214650Y0137696D03*
D544*
X0220760Y0137696D03*
D545*
X0215250Y0140936D03*
X0213410Y0139796D03*
X0226870Y0142836D03*
X0228590Y0141996D03*
X0229290Y0138656D03*
X0229290Y0138636D03*
X0227670Y0137696D03*
D546*
X0214650Y0137716D03*
X0214190Y0140276D03*
X0214370Y0140376D03*
D547*
X0215650Y0141676D03*
X0215650Y0141716D03*
X0218650Y0137716D03*
D548*
X0220760Y0137716D03*
X0228520Y0142076D03*
D549*
X0226870Y0142816D03*
X0229270Y0138576D03*
X0227670Y0137716D03*
X0215170Y0140876D03*
D550*
X0214650Y0137736D03*
D551*
X0218480Y0138496D03*
X0218480Y0138536D03*
X0218520Y0138356D03*
X0218520Y0138336D03*
X0218520Y0138296D03*
X0218540Y0138256D03*
X0218540Y0138236D03*
X0218540Y0138196D03*
X0218580Y0138056D03*
X0218580Y0138036D03*
X0218620Y0137896D03*
X0218620Y0137856D03*
X0218620Y0137836D03*
X0218640Y0137796D03*
X0218640Y0137756D03*
X0218640Y0137736D03*
X0219480Y0138396D03*
X0215640Y0141736D03*
X0215640Y0141756D03*
X0215620Y0141796D03*
X0215620Y0141836D03*
X0228720Y0142736D03*
X0228720Y0142756D03*
X0228720Y0142796D03*
X0228740Y0142696D03*
X0228740Y0142656D03*
X0228780Y0142496D03*
X0228780Y0142456D03*
X0228820Y0142336D03*
X0228820Y0142296D03*
X0228820Y0142256D03*
X0228840Y0142236D03*
X0228840Y0142196D03*
X0229220Y0140336D03*
X0229240Y0140236D03*
X0228680Y0138396D03*
D552*
X0220760Y0137736D03*
X0213280Y0142296D03*
D553*
X0215110Y0140836D03*
X0213550Y0139896D03*
X0226870Y0142796D03*
X0227670Y0137736D03*
D554*
X0220710Y0137956D03*
X0214650Y0137756D03*
X0214150Y0142756D03*
D555*
X0220760Y0137756D03*
D556*
X0215050Y0140796D03*
X0213650Y0139956D03*
X0227670Y0137756D03*
D557*
X0214650Y0137776D03*
D558*
X0218480Y0138516D03*
X0218520Y0138316D03*
X0218540Y0138216D03*
X0218580Y0138076D03*
X0218580Y0138016D03*
X0218620Y0137876D03*
X0218620Y0137816D03*
X0218640Y0137776D03*
X0215640Y0141776D03*
X0215620Y0141816D03*
X0228720Y0142776D03*
X0228720Y0142816D03*
X0228740Y0142716D03*
X0228740Y0142676D03*
X0228780Y0142516D03*
X0228780Y0142476D03*
X0228820Y0142316D03*
X0228820Y0142276D03*
X0228840Y0142216D03*
X0228840Y0142176D03*
D559*
X0220750Y0137776D03*
D560*
X0227660Y0137776D03*
D561*
X0214650Y0137796D03*
D562*
X0213810Y0140056D03*
X0220750Y0137796D03*
D563*
X0214900Y0140696D03*
X0213780Y0140036D03*
X0227660Y0137796D03*
D564*
X0227610Y0138076D03*
X0214650Y0137816D03*
D565*
X0220740Y0137816D03*
D566*
X0227650Y0137816D03*
D567*
X0214650Y0137836D03*
X0214150Y0142656D03*
D568*
X0220730Y0137836D03*
D569*
X0214740Y0140596D03*
X0213940Y0140136D03*
X0227660Y0137836D03*
D570*
X0220660Y0138136D03*
X0214660Y0137856D03*
D571*
X0214670Y0140556D03*
X0220730Y0137856D03*
X0227650Y0137856D03*
D572*
X0214660Y0137876D03*
D573*
X0214430Y0140416D03*
X0220730Y0137876D03*
D574*
X0227650Y0137876D03*
D575*
X0226910Y0142296D03*
X0214650Y0137896D03*
D576*
X0220720Y0137896D03*
D577*
X0214400Y0140396D03*
X0214340Y0140356D03*
X0214300Y0140336D03*
X0214160Y0142796D03*
X0227640Y0137896D03*
D578*
X0214660Y0137916D03*
D579*
X0220720Y0137916D03*
D580*
X0227630Y0137916D03*
D581*
X0214660Y0137936D03*
D582*
X0220710Y0137936D03*
D583*
X0227640Y0137936D03*
D584*
X0214660Y0137956D03*
D585*
X0227640Y0137956D03*
X0226880Y0142556D03*
D586*
X0214660Y0137976D03*
D587*
X0220700Y0137976D03*
D588*
X0227630Y0137976D03*
D589*
X0214660Y0137996D03*
D590*
X0220690Y0137996D03*
X0227630Y0137996D03*
D591*
X0214660Y0138016D03*
D592*
X0220690Y0138016D03*
X0227630Y0138016D03*
D593*
X0214660Y0138036D03*
D594*
X0220680Y0138036D03*
D595*
X0227620Y0138036D03*
D596*
X0214660Y0138056D03*
D597*
X0220680Y0138056D03*
D598*
X0227610Y0138056D03*
X0226890Y0142456D03*
X0214150Y0142696D03*
D599*
X0214660Y0138076D03*
D600*
X0220680Y0138076D03*
D601*
X0214660Y0138096D03*
D602*
X0220670Y0138096D03*
D603*
X0227610Y0138096D03*
D604*
X0214660Y0138116D03*
D605*
X0220660Y0138116D03*
D606*
X0227610Y0138116D03*
D607*
X0214660Y0138136D03*
D608*
X0227610Y0138136D03*
D609*
X0214660Y0138156D03*
D610*
X0220650Y0138156D03*
X0227610Y0138156D03*
X0226910Y0142356D03*
X0214150Y0142636D03*
D611*
X0214660Y0138176D03*
D612*
X0220650Y0138176D03*
X0227590Y0138176D03*
X0214150Y0142616D03*
D613*
X0214660Y0138196D03*
D614*
X0220640Y0138196D03*
D615*
X0227590Y0138196D03*
D616*
X0214660Y0138216D03*
D617*
X0220640Y0138216D03*
D618*
X0227590Y0138216D03*
D619*
X0229260Y0138556D03*
X0214160Y0142896D03*
X0213640Y0138236D03*
D620*
X0215630Y0138236D03*
D621*
X0220620Y0138236D03*
D622*
X0227590Y0138236D03*
D623*
X0229310Y0138696D03*
X0218710Y0138696D03*
X0215130Y0142296D03*
X0213550Y0138256D03*
D624*
X0215700Y0138256D03*
X0215140Y0140856D03*
X0229240Y0138536D03*
D625*
X0227580Y0138256D03*
X0220620Y0138256D03*
D626*
X0218630Y0138816D03*
X0213490Y0138276D03*
X0213310Y0139716D03*
X0226750Y0138316D03*
X0229330Y0138776D03*
X0228670Y0141876D03*
D627*
X0226870Y0138276D03*
X0218770Y0138616D03*
X0215750Y0138276D03*
D628*
X0218530Y0138276D03*
X0229230Y0140276D03*
X0229230Y0140316D03*
D629*
X0229360Y0138976D03*
X0219760Y0138276D03*
X0218540Y0138976D03*
X0218520Y0139016D03*
X0216040Y0138476D03*
D630*
X0228450Y0138276D03*
X0228810Y0141616D03*
D631*
X0228620Y0141956D03*
X0226180Y0142236D03*
X0215800Y0138296D03*
X0213140Y0142256D03*
D632*
X0215350Y0142196D03*
X0213110Y0139496D03*
X0213290Y0138396D03*
X0219690Y0138296D03*
X0226390Y0138596D03*
X0226450Y0138536D03*
X0229350Y0139196D03*
X0228890Y0141436D03*
X0228890Y0141456D03*
X0227810Y0142256D03*
X0225870Y0141956D03*
D633*
X0228700Y0141836D03*
X0221420Y0138296D03*
X0218620Y0138836D03*
X0215900Y0138356D03*
D634*
X0213360Y0139756D03*
X0226800Y0138296D03*
X0228640Y0141936D03*
D635*
X0228520Y0138296D03*
X0226340Y0138656D03*
X0221580Y0138436D03*
X0218420Y0139236D03*
X0218420Y0139256D03*
X0212820Y0141996D03*
D636*
X0215430Y0141076D03*
X0213210Y0139616D03*
X0213410Y0138316D03*
X0226010Y0142116D03*
X0229350Y0138916D03*
D637*
X0218700Y0138716D03*
X0215840Y0138316D03*
D638*
X0215970Y0138416D03*
X0218570Y0138916D03*
X0221450Y0138316D03*
X0226870Y0142876D03*
X0228730Y0141776D03*
X0229350Y0138876D03*
X0213010Y0142176D03*
D639*
X0212720Y0141816D03*
X0212700Y0141776D03*
X0216240Y0138816D03*
X0218320Y0139516D03*
X0218300Y0139576D03*
X0221640Y0138576D03*
X0221660Y0138616D03*
X0225940Y0139316D03*
X0225960Y0139276D03*
X0226040Y0139116D03*
X0226060Y0139076D03*
X0226120Y0138976D03*
X0228560Y0138316D03*
X0229340Y0139476D03*
X0229340Y0139516D03*
X0225740Y0141716D03*
D640*
X0215290Y0142236D03*
X0213190Y0139596D03*
X0213370Y0138336D03*
D641*
X0213340Y0139736D03*
X0215860Y0138336D03*
X0226860Y0142856D03*
X0228660Y0141896D03*
X0229320Y0138756D03*
D642*
X0229330Y0139596D03*
X0229330Y0139636D03*
X0229330Y0139656D03*
X0229030Y0141036D03*
X0229030Y0141056D03*
X0225690Y0141556D03*
X0225790Y0139696D03*
X0225830Y0139596D03*
X0225870Y0139496D03*
X0225890Y0139436D03*
X0225930Y0139356D03*
X0225930Y0139336D03*
X0225970Y0139256D03*
X0221670Y0138756D03*
X0221670Y0138736D03*
X0221670Y0138696D03*
X0219590Y0138336D03*
X0218290Y0139596D03*
X0218270Y0139636D03*
X0218270Y0139656D03*
X0216290Y0138956D03*
X0216290Y0138936D03*
X0216270Y0138896D03*
X0215590Y0141296D03*
X0215490Y0142056D03*
X0212690Y0141756D03*
X0212690Y0141736D03*
X0212670Y0141696D03*
X0213030Y0139336D03*
D643*
X0214180Y0142936D03*
X0221480Y0138336D03*
D644*
X0218610Y0138856D03*
X0213290Y0139696D03*
X0226710Y0138336D03*
D645*
X0225880Y0139456D03*
X0225840Y0139556D03*
X0225800Y0139656D03*
X0225780Y0139736D03*
X0225780Y0139756D03*
X0225760Y0139796D03*
X0225740Y0139836D03*
X0225740Y0139856D03*
X0225720Y0139936D03*
X0225660Y0141436D03*
X0225660Y0141456D03*
X0225680Y0141536D03*
X0225700Y0141596D03*
X0229060Y0140956D03*
X0229060Y0140936D03*
X0229080Y0140896D03*
X0229320Y0139736D03*
X0229320Y0139696D03*
X0228600Y0138336D03*
X0221680Y0138796D03*
X0221680Y0138836D03*
X0221680Y0138856D03*
X0221660Y0138996D03*
X0221660Y0139036D03*
X0221640Y0139136D03*
X0221640Y0139156D03*
X0221620Y0139296D03*
X0221600Y0139396D03*
X0221580Y0139496D03*
X0221560Y0139556D03*
X0221560Y0139596D03*
X0221540Y0139656D03*
X0221540Y0139696D03*
X0221520Y0139736D03*
X0221520Y0139756D03*
X0221500Y0139836D03*
X0221500Y0139856D03*
X0221480Y0139936D03*
X0221480Y0139956D03*
X0221460Y0140036D03*
X0221460Y0140056D03*
X0221440Y0140096D03*
X0221440Y0140136D03*
X0221420Y0140196D03*
X0221400Y0140296D03*
X0221380Y0140396D03*
X0221360Y0140456D03*
X0221360Y0140496D03*
X0221340Y0140556D03*
X0221320Y0140636D03*
X0221320Y0140656D03*
X0221300Y0140736D03*
X0221300Y0140756D03*
X0221280Y0140836D03*
X0221240Y0140996D03*
X0221220Y0141096D03*
X0221200Y0141196D03*
X0221160Y0141356D03*
X0221140Y0141456D03*
X0221120Y0141536D03*
X0221100Y0141636D03*
X0221040Y0141896D03*
X0218180Y0139996D03*
X0218200Y0139896D03*
X0218220Y0139856D03*
X0218220Y0139836D03*
X0218240Y0139756D03*
X0218260Y0139696D03*
X0216320Y0139136D03*
X0216320Y0139096D03*
X0216300Y0139036D03*
X0216300Y0138996D03*
X0215620Y0141356D03*
X0215500Y0142036D03*
X0214180Y0142956D03*
X0212660Y0141656D03*
X0212640Y0141596D03*
X0213000Y0139256D03*
X0213000Y0139236D03*
X0213080Y0138656D03*
X0213100Y0138636D03*
X0213120Y0138596D03*
D646*
X0218510Y0139036D03*
X0221510Y0138356D03*
X0225950Y0142056D03*
X0229350Y0138996D03*
D647*
X0226670Y0138356D03*
X0226030Y0142136D03*
X0228750Y0141736D03*
X0218590Y0138896D03*
X0215950Y0138396D03*
X0213250Y0139656D03*
D648*
X0213310Y0138376D03*
X0216070Y0138516D03*
X0218470Y0139116D03*
X0221530Y0138376D03*
X0226510Y0138476D03*
X0225910Y0142016D03*
X0228830Y0141576D03*
X0215330Y0142216D03*
X0212890Y0142076D03*
D649*
X0215930Y0138376D03*
X0229330Y0138816D03*
D650*
X0228650Y0138376D03*
X0229290Y0139976D03*
X0229270Y0140076D03*
X0229270Y0140116D03*
X0229250Y0140176D03*
X0229250Y0140216D03*
X0229210Y0140376D03*
X0229210Y0140416D03*
X0229190Y0140476D03*
X0219510Y0138376D03*
X0218510Y0138376D03*
X0218490Y0138476D03*
X0218470Y0138576D03*
X0215650Y0141476D03*
X0215650Y0141516D03*
X0212990Y0138916D03*
D651*
X0226640Y0138376D03*
X0228760Y0141716D03*
D652*
X0228860Y0141496D03*
X0229360Y0139156D03*
X0229360Y0139136D03*
X0229360Y0139096D03*
X0225900Y0141996D03*
X0221540Y0138396D03*
X0218460Y0139156D03*
X0218440Y0139196D03*
X0216100Y0138556D03*
X0215500Y0141156D03*
X0212860Y0142036D03*
X0213140Y0139536D03*
D653*
X0215440Y0141096D03*
X0216020Y0138456D03*
X0226620Y0138396D03*
X0228800Y0141636D03*
X0228800Y0141656D03*
D654*
X0228900Y0141416D03*
X0229360Y0139276D03*
X0229360Y0139216D03*
X0218400Y0139276D03*
X0213260Y0138416D03*
X0213100Y0139476D03*
X0212800Y0141976D03*
D655*
X0219440Y0138416D03*
X0228700Y0138416D03*
D656*
X0226470Y0138516D03*
X0226410Y0138576D03*
X0221570Y0138416D03*
X0216150Y0138616D03*
X0225890Y0141976D03*
D657*
X0225970Y0142076D03*
X0226590Y0138416D03*
X0212930Y0142116D03*
D658*
X0212790Y0141956D03*
X0215530Y0141196D03*
X0216170Y0138656D03*
X0218370Y0139356D03*
X0221590Y0138456D03*
X0221610Y0138496D03*
X0226310Y0138696D03*
X0229350Y0139296D03*
X0229350Y0139336D03*
X0229350Y0139356D03*
X0228930Y0141336D03*
X0228930Y0141356D03*
X0225830Y0141896D03*
X0225810Y0141856D03*
X0213090Y0139456D03*
X0213250Y0138436D03*
D659*
X0212650Y0141336D03*
X0216290Y0139436D03*
X0219410Y0138436D03*
X0228730Y0138436D03*
D660*
X0229340Y0139396D03*
X0228960Y0141256D03*
X0228940Y0141296D03*
X0225800Y0141836D03*
X0225780Y0141796D03*
X0226260Y0138756D03*
X0226280Y0138736D03*
X0218380Y0139336D03*
X0218360Y0139396D03*
X0216200Y0138696D03*
X0215560Y0141236D03*
X0215420Y0142136D03*
X0215400Y0142156D03*
X0212780Y0141936D03*
X0212760Y0141896D03*
X0213080Y0139436D03*
X0213220Y0138456D03*
D661*
X0219380Y0138456D03*
D662*
X0228740Y0138456D03*
D663*
X0219350Y0138476D03*
D664*
X0218360Y0139376D03*
X0216200Y0138716D03*
X0213060Y0139416D03*
X0221600Y0138476D03*
X0221620Y0138516D03*
X0226220Y0138816D03*
X0226240Y0138776D03*
X0229340Y0139376D03*
X0229340Y0139416D03*
X0228960Y0141276D03*
X0228940Y0141316D03*
D665*
X0228770Y0138476D03*
D666*
X0229350Y0139436D03*
X0229350Y0139456D03*
X0228970Y0141236D03*
X0227870Y0142236D03*
X0225750Y0141736D03*
X0226070Y0139056D03*
X0226130Y0138956D03*
X0226170Y0138896D03*
X0226190Y0138856D03*
X0226210Y0138836D03*
X0226230Y0138796D03*
X0221630Y0138556D03*
X0221630Y0138536D03*
X0218350Y0139436D03*
X0218330Y0139456D03*
X0218310Y0139536D03*
X0216230Y0138756D03*
X0216210Y0138736D03*
X0215570Y0141256D03*
X0212730Y0141836D03*
X0212730Y0141856D03*
X0213050Y0139396D03*
X0213190Y0138496D03*
D667*
X0219330Y0138496D03*
D668*
X0228470Y0142136D03*
X0229230Y0138496D03*
D669*
X0216280Y0138916D03*
X0215580Y0141276D03*
X0213180Y0138516D03*
D670*
X0219300Y0138516D03*
D671*
X0228490Y0142116D03*
X0229230Y0138516D03*
D672*
X0229340Y0139496D03*
X0229340Y0139536D03*
X0229340Y0139556D03*
X0229000Y0141136D03*
X0229000Y0141156D03*
X0225760Y0141756D03*
X0225740Y0141696D03*
X0225720Y0141656D03*
X0226000Y0139196D03*
X0226020Y0139156D03*
X0226020Y0139136D03*
X0226040Y0139096D03*
X0226100Y0138996D03*
X0226140Y0138936D03*
X0221660Y0138656D03*
X0221660Y0138636D03*
X0221640Y0138596D03*
X0218320Y0139496D03*
X0218300Y0139556D03*
X0216260Y0138856D03*
X0216260Y0138836D03*
X0216240Y0138796D03*
X0213160Y0138536D03*
X0213040Y0139356D03*
X0212700Y0141796D03*
X0215460Y0142096D03*
D673*
X0219270Y0138536D03*
D674*
X0218250Y0139736D03*
X0215610Y0141336D03*
X0212650Y0141636D03*
X0213010Y0139296D03*
X0213150Y0138556D03*
X0225810Y0139636D03*
X0225850Y0139536D03*
X0225910Y0139396D03*
X0225950Y0139296D03*
X0229050Y0140996D03*
X0229010Y0141096D03*
X0225710Y0141636D03*
D675*
X0219260Y0138556D03*
D676*
X0216130Y0138596D03*
X0226430Y0138556D03*
D677*
X0225990Y0139216D03*
X0225890Y0139416D03*
X0225870Y0139476D03*
X0225830Y0139576D03*
X0229330Y0139576D03*
X0229330Y0139616D03*
X0229030Y0141076D03*
X0225730Y0141676D03*
X0225690Y0141576D03*
X0221670Y0138716D03*
X0221670Y0138676D03*
X0218290Y0139616D03*
X0218270Y0139676D03*
X0216290Y0138976D03*
X0216270Y0138876D03*
X0213130Y0138576D03*
X0213030Y0139316D03*
X0212670Y0141716D03*
X0215470Y0142076D03*
D678*
X0216120Y0138576D03*
X0218440Y0139176D03*
X0228860Y0141516D03*
X0228880Y0141476D03*
X0229360Y0139176D03*
X0229360Y0139116D03*
D679*
X0219230Y0138576D03*
D680*
X0218790Y0138596D03*
X0213490Y0139856D03*
X0226250Y0142256D03*
D681*
X0228540Y0142056D03*
X0228560Y0142036D03*
X0229280Y0138596D03*
X0215200Y0140896D03*
X0213460Y0139836D03*
D682*
X0213000Y0139216D03*
X0213100Y0138616D03*
X0216300Y0139016D03*
X0216320Y0139076D03*
X0216320Y0139116D03*
X0218220Y0139816D03*
X0218240Y0139776D03*
X0218200Y0139916D03*
X0215600Y0141316D03*
X0215520Y0142016D03*
X0212660Y0141676D03*
X0212640Y0141616D03*
X0212640Y0141576D03*
X0221000Y0142076D03*
X0221080Y0141716D03*
X0221180Y0141276D03*
X0221200Y0141176D03*
X0221240Y0141016D03*
X0221260Y0140916D03*
X0221280Y0140816D03*
X0221340Y0140576D03*
X0221360Y0140476D03*
X0221380Y0140376D03*
X0221400Y0140316D03*
X0221400Y0140276D03*
X0221420Y0140216D03*
X0221440Y0140116D03*
X0221460Y0140016D03*
X0221480Y0139916D03*
X0221500Y0139876D03*
X0221520Y0139776D03*
X0221540Y0139676D03*
X0221560Y0139576D03*
X0221580Y0139476D03*
X0221600Y0139376D03*
X0221620Y0139276D03*
X0221640Y0139176D03*
X0221660Y0139016D03*
X0221660Y0138976D03*
X0221680Y0138816D03*
X0221680Y0138776D03*
X0225720Y0139916D03*
X0225740Y0139876D03*
X0225760Y0139816D03*
X0225760Y0139776D03*
X0225780Y0139716D03*
X0225800Y0139676D03*
X0225820Y0139616D03*
X0225700Y0140016D03*
X0225660Y0141476D03*
X0225680Y0141516D03*
X0227920Y0142216D03*
X0229040Y0141016D03*
X0229060Y0140976D03*
X0229320Y0139716D03*
X0229320Y0139676D03*
D683*
X0228920Y0141376D03*
X0225840Y0141916D03*
X0226380Y0138616D03*
X0215520Y0141176D03*
X0215380Y0142176D03*
D684*
X0215220Y0140916D03*
X0213440Y0139816D03*
X0228580Y0142016D03*
X0229280Y0138616D03*
D685*
X0229360Y0139236D03*
X0229360Y0139256D03*
X0228900Y0141396D03*
X0225860Y0141936D03*
X0226360Y0138636D03*
X0218400Y0139296D03*
X0216160Y0138636D03*
D686*
X0218750Y0138636D03*
D687*
X0218740Y0138656D03*
D688*
X0218720Y0138676D03*
X0228600Y0141976D03*
X0229300Y0138676D03*
D689*
X0229310Y0138716D03*
X0228650Y0141916D03*
X0226150Y0142216D03*
X0215310Y0140976D03*
D690*
X0215280Y0140956D03*
X0218680Y0138736D03*
D691*
X0229310Y0138736D03*
D692*
X0218670Y0138756D03*
X0213090Y0142236D03*
D693*
X0215330Y0140996D03*
X0218650Y0138796D03*
X0226110Y0142196D03*
X0228690Y0141856D03*
X0229330Y0138796D03*
D694*
X0218600Y0138876D03*
D695*
X0218560Y0138936D03*
X0215400Y0141056D03*
X0229340Y0138896D03*
D696*
X0229360Y0139016D03*
X0229360Y0139076D03*
X0218500Y0139076D03*
X0215460Y0141116D03*
X0213180Y0139576D03*
D697*
X0225980Y0139236D03*
X0226080Y0139036D03*
X0228980Y0141196D03*
D698*
X0218430Y0139216D03*
X0213130Y0139516D03*
X0212830Y0142016D03*
D699*
X0216180Y0139456D03*
D700*
X0216070Y0139476D03*
D701*
X0215960Y0139496D03*
D702*
X0213270Y0139676D03*
X0215210Y0142276D03*
X0226090Y0142176D03*
X0228710Y0141816D03*
D703*
X0213530Y0139876D03*
D704*
X0213580Y0139916D03*
X0215080Y0140816D03*
D705*
X0213620Y0139936D03*
X0228440Y0142156D03*
D706*
X0213670Y0139976D03*
D707*
X0213710Y0139996D03*
X0214950Y0140736D03*
D708*
X0213740Y0140016D03*
D709*
X0213840Y0140076D03*
D710*
X0213880Y0140096D03*
X0214800Y0140636D03*
X0214160Y0142836D03*
D711*
X0214770Y0140616D03*
X0213910Y0140116D03*
D712*
X0213980Y0140156D03*
D713*
X0214010Y0140176D03*
D714*
X0214040Y0140196D03*
X0214640Y0140536D03*
X0226880Y0142656D03*
D715*
X0214600Y0140516D03*
X0214080Y0140216D03*
X0214160Y0142816D03*
D716*
X0214570Y0140496D03*
X0214110Y0140236D03*
D717*
X0214160Y0140256D03*
X0214500Y0140456D03*
D718*
X0229230Y0140296D03*
X0229230Y0140256D03*
D719*
X0214230Y0140296D03*
D720*
X0214260Y0140316D03*
D721*
X0214470Y0140436D03*
X0226870Y0142636D03*
D722*
X0214540Y0140476D03*
D723*
X0214700Y0140576D03*
D724*
X0214830Y0140656D03*
D725*
X0214860Y0140676D03*
D726*
X0214930Y0140716D03*
D727*
X0215020Y0140776D03*
D728*
X0215360Y0141016D03*
X0213060Y0142216D03*
D729*
X0212980Y0141276D03*
D730*
X0212870Y0141296D03*
D731*
X0212760Y0141316D03*
D732*
X0215650Y0141656D03*
X0215650Y0141696D03*
X0228750Y0142636D03*
X0228770Y0142536D03*
X0228790Y0142436D03*
D733*
X0228780Y0141676D03*
D734*
X0226060Y0142156D03*
D735*
X0213030Y0142196D03*
D736*
X0213200Y0142276D03*
D737*
X0226920Y0142276D03*
D738*
X0214140Y0142316D03*
D739*
X0226910Y0142316D03*
D740*
X0214140Y0142336D03*
D741*
X0226910Y0142336D03*
D742*
X0214140Y0142356D03*
D743*
X0214150Y0142376D03*
D744*
X0226900Y0142376D03*
D745*
X0214150Y0142396D03*
D746*
X0226900Y0142396D03*
D747*
X0214150Y0142416D03*
D748*
X0226900Y0142416D03*
D749*
X0214150Y0142436D03*
D750*
X0226890Y0142436D03*
D751*
X0214150Y0142456D03*
D752*
X0214150Y0142476D03*
D753*
X0226890Y0142476D03*
D754*
X0214150Y0142496D03*
D755*
X0226890Y0142496D03*
D756*
X0214150Y0142516D03*
D757*
X0226890Y0142516D03*
D758*
X0214150Y0142536D03*
D759*
X0226890Y0142536D03*
D760*
X0214150Y0142556D03*
D761*
X0214150Y0142576D03*
D762*
X0226880Y0142576D03*
D763*
X0214140Y0142596D03*
D764*
X0226880Y0142596D03*
D765*
X0226880Y0142616D03*
D766*
X0214150Y0142676D03*
D767*
X0226870Y0142676D03*
D768*
X0226870Y0142696D03*
D769*
X0214160Y0142716D03*
D770*
X0214150Y0142736D03*
D771*
X0214170Y0142856D03*
X0226870Y0142736D03*
D772*
X0214150Y0142776D03*
D773*
X0226860Y0142776D03*
D774*
X0214170Y0142876D03*
D775*
X0214180Y0142916D03*
D776*
X0226870Y0142956D03*
D777*
X0214190Y0142976D03*
D778*
X0226870Y0142976D03*
M02*
