G75*
%MOIN*%
%OFA0B0*%
%FSLAX25Y25*%
%IPPOS*%
%LPD*%
%AMOC8*
5,1,8,0,0,1.08239X$1,22.5*
%
%ADD10C,0.06800*%
%ADD11R,0.03713X0.04442*%
%ADD12R,0.01772X0.01063*%
%ADD13R,0.01063X0.01772*%
%ADD14R,0.07800X0.04400*%
%ADD15C,0.04375*%
%ADD16OC8,0.09300*%
%ADD17C,0.04762*%
%ADD18R,0.06706X0.06706*%
D10*
X0042000Y0052256D02*
X0048000Y0052256D01*
X0048000Y0062256D02*
X0042000Y0062256D01*
X0042000Y0072256D02*
X0048000Y0072256D01*
X0048000Y0082256D02*
X0042000Y0082256D01*
X0042000Y0092256D02*
X0048000Y0092256D01*
X0048000Y0102256D02*
X0042000Y0102256D01*
D11*
X0083650Y0079354D03*
X0083650Y0074630D03*
D12*
X0077185Y0076496D03*
X0077185Y0076496D03*
X0072465Y0076496D03*
X0072465Y0076496D03*
D13*
X0072858Y0074138D03*
X0072858Y0074138D03*
X0074819Y0074138D03*
X0074819Y0074138D03*
X0076791Y0074142D03*
X0076791Y0074142D03*
X0076787Y0078858D03*
X0076787Y0078858D03*
X0074827Y0078862D03*
X0074827Y0078862D03*
X0072858Y0078862D03*
X0072858Y0078862D03*
D14*
X0086681Y0084866D03*
X0086681Y0069118D03*
D15*
X0088157Y0069118D03*
X0102921Y0069118D03*
D16*
X0086504Y0061673D03*
X0086504Y0092382D03*
D17*
X0074823Y0087327D03*
X0068031Y0076500D03*
D18*
X0057000Y0072256D03*
X0057000Y0082256D03*
X0057000Y0092256D03*
X0057000Y0102256D03*
X0057000Y0062256D03*
X0057000Y0052256D03*
M02*
