G75*
%MOIN*%
%OFA0B0*%
%FSLAX25Y25*%
%IPPOS*%
%LPD*%
%AMOC8*
5,1,8,0,0,1.08239X$1,22.5*
%
%ADD10C,0.06000*%
%ADD11C,0.01181*%
%ADD12C,0.03575*%
%ADD13OC8,0.08500*%
%ADD14C,0.01600*%
%ADD15C,0.03962*%
%ADD16C,0.01000*%
%ADD17R,0.05906X0.05906*%
D10*
X0042000Y0052256D02*
X0048000Y0052256D01*
X0048000Y0062256D02*
X0042000Y0062256D01*
X0042000Y0072256D02*
X0048000Y0072256D01*
X0048000Y0082256D02*
X0042000Y0082256D01*
X0042000Y0092256D02*
X0048000Y0092256D01*
X0048000Y0102256D02*
X0042000Y0102256D01*
D11*
X0088157Y0069118D02*
X0102921Y0069118D01*
D12*
X0102921Y0069118D03*
X0088157Y0069118D03*
D13*
X0086504Y0061673D03*
X0086504Y0092382D03*
D14*
X0074823Y0087327D02*
X0074823Y0072087D01*
X0068031Y0076500D02*
X0064571Y0078961D01*
X0064571Y0100122D01*
X0062437Y0102256D01*
X0045000Y0102256D01*
X0045000Y0062256D02*
X0045016Y0062240D01*
X0056945Y0062240D01*
D15*
X0068031Y0076500D03*
X0074823Y0087327D03*
D16*
X0074823Y0072087D02*
X0074823Y0071102D01*
X0065961Y0062240D01*
X0056945Y0062240D01*
D17*
X0057000Y0062256D03*
X0057000Y0052256D03*
X0057000Y0072256D03*
X0057000Y0082256D03*
X0057000Y0092256D03*
X0057000Y0102256D03*
M02*
