%TF.GenerationSoftware,Altium Limited,Altium Designer,19.0.10 (269)*%
G04 Layer_Color=8388736*
%FSLAX26Y26*%
%MOIN*%
%TF.FileFunction,Soldermask,Top*%
%TF.Part,Single*%
G01*
G75*
%TA.AperFunction,ComponentPad*%
%ADD63C,0.055244*%
%TA.AperFunction,ViaPad*%
%ADD64C,0.158000*%
%ADD65C,0.258000*%
%TA.AperFunction,ComponentPad*%
G04:AMPARAMS|DCode=66|XSize=47.37mil|YSize=86.74mil|CornerRadius=13.842mil|HoleSize=0mil|Usage=FLASHONLY|Rotation=0.000|XOffset=0mil|YOffset=0mil|HoleType=Round|Shape=RoundedRectangle|*
%AMROUNDEDRECTD66*
21,1,0.047370,0.059055,0,0,0.0*
21,1,0.019685,0.086740,0,0,0.0*
1,1,0.027685,0.009843,-0.029528*
1,1,0.027685,-0.009843,-0.029528*
1,1,0.027685,-0.009843,0.029528*
1,1,0.027685,0.009843,0.029528*
%
%ADD66ROUNDEDRECTD66*%
%ADD67C,0.165480*%
%ADD68C,0.078000*%
%ADD69R,0.078000X0.078000*%
G04:AMPARAMS|DCode=70|XSize=47.37mil|YSize=86.74mil|CornerRadius=13.842mil|HoleSize=0mil|Usage=FLASHONLY|Rotation=270.000|XOffset=0mil|YOffset=0mil|HoleType=Round|Shape=RoundedRectangle|*
%AMROUNDEDRECTD70*
21,1,0.047370,0.059055,0,0,270.0*
21,1,0.019685,0.086740,0,0,270.0*
1,1,0.027685,-0.029528,-0.009843*
1,1,0.027685,-0.029528,0.009843*
1,1,0.027685,0.029528,0.009843*
1,1,0.027685,0.029528,-0.009843*
%
%ADD70ROUNDEDRECTD70*%
%ADD71C,0.149732*%
%ADD72C,0.068000*%
%TA.AperFunction,ViaPad*%
%ADD73C,0.038000*%
%ADD74C,0.027685*%
%ADD75C,0.058000*%
%TA.AperFunction,SMDPad,CuDef*%
G04:AMPARAMS|DCode=80|XSize=41.465mil|YSize=39.496mil|CornerRadius=0mil|HoleSize=0mil|Usage=FLASHONLY|Rotation=225.000|XOffset=0mil|YOffset=0mil|HoleType=Round|Shape=Rectangle|*
%AMROTATEDRECTD80*
4,1,4,0.000696,0.028624,0.028624,0.000696,-0.000696,-0.028624,-0.028624,-0.000696,0.000696,0.028624,0.0*
%
%ADD80ROTATEDRECTD80*%

%ADD81R,0.093000X0.078000*%
%ADD82R,0.041465X0.043433*%
%ADD83R,0.039496X0.070992*%
%ADD84R,0.443039X0.358394*%
%ADD85R,0.049339X0.165480*%
%ADD86R,0.043433X0.041465*%
%ADD87R,0.143827X0.100520*%
%ADD88R,0.268630X0.115087*%
%ADD89R,0.047370X0.031622*%
%ADD90R,0.039496X0.063118*%
%ADD91R,0.063118X0.039496*%
%ADD92R,0.047370X0.047370*%
%ADD93R,0.039496X0.041465*%
%ADD94R,0.049339X0.061150*%
%ADD95R,0.047370X0.047370*%
%ADD96P,0.298054X4X270.0*%
G04:AMPARAMS|DCode=97|XSize=17.843mil|YSize=45.402mil|CornerRadius=0mil|HoleSize=0mil|Usage=FLASHONLY|Rotation=225.000|XOffset=0mil|YOffset=0mil|HoleType=Round|Shape=Round|*
%AMOVALD97*
21,1,0.027559,0.017843,0.000000,0.000000,315.0*
1,1,0.017843,-0.009744,0.009744*
1,1,0.017843,0.009744,-0.009744*
%
%ADD97OVALD97*%

G04:AMPARAMS|DCode=98|XSize=17.843mil|YSize=45.402mil|CornerRadius=0mil|HoleSize=0mil|Usage=FLASHONLY|Rotation=315.000|XOffset=0mil|YOffset=0mil|HoleType=Round|Shape=Round|*
%AMOVALD98*
21,1,0.027559,0.017843,0.000000,0.000000,45.0*
1,1,0.017843,-0.009744,-0.009744*
1,1,0.017843,0.009744,0.009744*
%
%ADD98OVALD98*%

D63*
X-1622000Y-1008740D02*
D03*
Y-930000D02*
D03*
Y-1087480D02*
D03*
Y-1166220D02*
D03*
Y-1244961D02*
D03*
D64*
X1650000Y-1900000D02*
D03*
X-1650000D02*
D03*
D65*
X1550000Y1800000D02*
D03*
X-1550000D02*
D03*
D66*
X-690252Y1836220D02*
D03*
X-1221748D02*
D03*
X268248D02*
D03*
X-263248D02*
D03*
X1221748D02*
D03*
X690252D02*
D03*
D67*
X-814268Y1600000D02*
D03*
X-1097732D02*
D03*
X144232D02*
D03*
X-139232D02*
D03*
X1097732D02*
D03*
X814268D02*
D03*
X1233780Y-837480D02*
D03*
Y-554016D02*
D03*
D68*
X-920000Y-141851D02*
D03*
X-240000Y-131851D02*
D03*
X1410000D02*
D03*
D69*
X-920000Y55000D02*
D03*
X-240000Y65000D02*
D03*
X1410000D02*
D03*
D70*
X1470000Y-961496D02*
D03*
Y-430000D02*
D03*
D71*
X882189Y-1545000D02*
D03*
Y-1367835D02*
D03*
X-440646D02*
D03*
Y-1545000D02*
D03*
X-275291Y-1367835D02*
D03*
Y-1545000D02*
D03*
X-109937Y-1367835D02*
D03*
Y-1545000D02*
D03*
X55417Y-1367835D02*
D03*
Y-1545000D02*
D03*
X220772Y-1367835D02*
D03*
Y-1545000D02*
D03*
X386126Y-1367835D02*
D03*
Y-1545000D02*
D03*
X551480Y-1367835D02*
D03*
Y-1545000D02*
D03*
X716835Y-1367835D02*
D03*
Y-1545000D02*
D03*
X-606000Y-1367835D02*
D03*
Y-1545000D02*
D03*
X-771354D02*
D03*
Y-1367835D02*
D03*
X-936709Y-1545000D02*
D03*
Y-1367835D02*
D03*
D72*
Y-1832402D02*
D03*
X882189D02*
D03*
D73*
X386126Y-829000D02*
D03*
X-760000Y300000D02*
D03*
X-730000Y240000D02*
D03*
X-760000Y180000D02*
D03*
X-730000Y120000D02*
D03*
X-760000Y60000D02*
D03*
X-730000Y0D02*
D03*
X-820000Y300000D02*
D03*
X-790000Y240000D02*
D03*
X-820000Y180000D02*
D03*
X-790000Y120000D02*
D03*
X-820000Y60000D02*
D03*
X-790000Y0D02*
D03*
X-880000Y300000D02*
D03*
X-850000Y240000D02*
D03*
X-880000Y180000D02*
D03*
X-850000Y120000D02*
D03*
Y0D02*
D03*
X-940000Y300000D02*
D03*
X-910000Y240000D02*
D03*
X-940000Y180000D02*
D03*
X-910000Y120000D02*
D03*
X-1000000Y300000D02*
D03*
X-970000Y240000D02*
D03*
X-1000000Y180000D02*
D03*
X-970000Y120000D02*
D03*
X-1000000Y60000D02*
D03*
X-970000Y0D02*
D03*
X-1060000Y300000D02*
D03*
X-1030000Y240000D02*
D03*
X-1060000Y180000D02*
D03*
X-1030000Y120000D02*
D03*
X-1060000Y60000D02*
D03*
X-1030000Y0D02*
D03*
X-1120000Y300000D02*
D03*
X-1090000Y240000D02*
D03*
X-1120000Y180000D02*
D03*
X-1090000Y120000D02*
D03*
X-1120000Y60000D02*
D03*
X-1090000Y0D02*
D03*
X-1225000Y-300000D02*
D03*
X-1187500Y-375000D02*
D03*
X-1225000Y-450000D02*
D03*
X-1187500Y-525000D02*
D03*
X-1225000Y-600000D02*
D03*
X-1262500Y-225000D02*
D03*
X-1300000Y-300000D02*
D03*
X-1262500Y-375000D02*
D03*
X-1300000Y-450000D02*
D03*
X-1262500Y-525000D02*
D03*
X-1300000Y-600000D02*
D03*
X-1337500Y-225000D02*
D03*
X-1375000Y-300000D02*
D03*
X-1337500Y-375000D02*
D03*
X-1375000Y-450000D02*
D03*
X-1337500Y-525000D02*
D03*
X-1375000Y-600000D02*
D03*
X-1412500Y-225000D02*
D03*
X-1450000Y-300000D02*
D03*
X-1412500Y-375000D02*
D03*
X-1450000Y-450000D02*
D03*
X-1412500Y-525000D02*
D03*
X-1450000Y-600000D02*
D03*
X-1525000Y-150000D02*
D03*
X-1487500Y-225000D02*
D03*
X-1525000Y-300000D02*
D03*
X-1487500Y-375000D02*
D03*
X-1525000Y-450000D02*
D03*
X-1487500Y-525000D02*
D03*
X-1525000Y-600000D02*
D03*
X-1562500Y-75000D02*
D03*
X-1600000Y-150000D02*
D03*
X-1562500Y-225000D02*
D03*
X-1600000Y-300000D02*
D03*
X-1562500Y-375000D02*
D03*
X-1600000Y-450000D02*
D03*
X-1562500Y-525000D02*
D03*
X-1600000Y-600000D02*
D03*
X-1637500Y-75000D02*
D03*
X-1675000Y-150000D02*
D03*
X-1637500Y-225000D02*
D03*
Y-375000D02*
D03*
X-1675000Y-450000D02*
D03*
X-1637500Y-525000D02*
D03*
X-1675000Y-600000D02*
D03*
X1600000Y-1720000D02*
D03*
X1640000Y-1800000D02*
D03*
X1520000Y-1880000D02*
D03*
X1440000D02*
D03*
X1360000D02*
D03*
X1280000Y-1720000D02*
D03*
Y-1880000D02*
D03*
X1240000Y-1800000D02*
D03*
X1200000Y-1880000D02*
D03*
X1160000Y-1800000D02*
D03*
X1120000Y-1880000D02*
D03*
X1080000Y-1800000D02*
D03*
X1680000Y-200000D02*
D03*
Y-360000D02*
D03*
Y-520000D02*
D03*
X1640000Y-120000D02*
D03*
X1600000Y-200000D02*
D03*
X1640000Y-280000D02*
D03*
X1600000Y-360000D02*
D03*
X1640000Y-440000D02*
D03*
X1600000Y-520000D02*
D03*
X1640000Y-600000D02*
D03*
X1560000Y-120000D02*
D03*
X1520000Y-200000D02*
D03*
X1560000Y-280000D02*
D03*
X1520000Y-360000D02*
D03*
X1560000Y-440000D02*
D03*
X1520000Y-520000D02*
D03*
X1560000Y-600000D02*
D03*
X1520000Y-680000D02*
D03*
X1480000Y-120000D02*
D03*
X1440000Y-200000D02*
D03*
X1480000Y-280000D02*
D03*
X1440000Y-360000D02*
D03*
Y-520000D02*
D03*
X1480000Y-600000D02*
D03*
X1440000Y-680000D02*
D03*
X1360000Y-200000D02*
D03*
X1400000Y-280000D02*
D03*
X1360000Y-360000D02*
D03*
X1400000Y-440000D02*
D03*
X1360000Y-520000D02*
D03*
X1400000Y-600000D02*
D03*
X1360000Y-680000D02*
D03*
X1320000Y-120000D02*
D03*
X1280000Y-200000D02*
D03*
X1320000Y-280000D02*
D03*
X1280000Y-360000D02*
D03*
X1320000Y-440000D02*
D03*
X1280000Y-680000D02*
D03*
X1240000Y-120000D02*
D03*
X1200000Y-200000D02*
D03*
X1240000Y-280000D02*
D03*
X1200000Y-360000D02*
D03*
X1240000Y-440000D02*
D03*
X1200000Y-680000D02*
D03*
X1160000Y-120000D02*
D03*
X1120000Y-200000D02*
D03*
X1160000Y-280000D02*
D03*
X1120000Y-360000D02*
D03*
X1160000Y-440000D02*
D03*
X1120000Y-520000D02*
D03*
Y-680000D02*
D03*
X1080000Y-280000D02*
D03*
X1040000Y-360000D02*
D03*
X1080000Y-440000D02*
D03*
X1040000Y-520000D02*
D03*
X1080000Y-600000D02*
D03*
X1000000Y-280000D02*
D03*
X960000Y-360000D02*
D03*
X1000000Y-440000D02*
D03*
X960000Y-520000D02*
D03*
X760000Y500000D02*
D03*
Y360000D02*
D03*
X795000Y290000D02*
D03*
X760000Y220000D02*
D03*
X795000Y150000D02*
D03*
X760000Y-60000D02*
D03*
X690000Y500000D02*
D03*
X725000Y430000D02*
D03*
X690000Y360000D02*
D03*
X725000Y290000D02*
D03*
X690000Y220000D02*
D03*
X725000Y150000D02*
D03*
X690000Y80000D02*
D03*
X725000Y10000D02*
D03*
X690000Y-60000D02*
D03*
X725000Y-130000D02*
D03*
X655000Y430000D02*
D03*
X620000Y360000D02*
D03*
X655000Y290000D02*
D03*
X620000Y220000D02*
D03*
X655000Y150000D02*
D03*
X620000Y80000D02*
D03*
X655000Y10000D02*
D03*
X620000Y-60000D02*
D03*
X655000Y-130000D02*
D03*
X620000Y-200000D02*
D03*
X585000Y430000D02*
D03*
X550000Y360000D02*
D03*
X585000Y290000D02*
D03*
X550000Y220000D02*
D03*
X585000Y150000D02*
D03*
X550000Y80000D02*
D03*
X585000Y10000D02*
D03*
X550000Y-60000D02*
D03*
X585000Y-130000D02*
D03*
X550000Y-200000D02*
D03*
X585000Y-270000D02*
D03*
X515000Y10000D02*
D03*
X480000Y-60000D02*
D03*
X515000Y-130000D02*
D03*
X480000Y-200000D02*
D03*
X515000Y-270000D02*
D03*
X445000Y10000D02*
D03*
Y-130000D02*
D03*
Y-270000D02*
D03*
X0Y280000D02*
D03*
X40000Y200000D02*
D03*
X0Y120000D02*
D03*
X40000Y40000D02*
D03*
X0Y-40000D02*
D03*
X40000Y-120000D02*
D03*
X-80000Y280000D02*
D03*
X-40000Y200000D02*
D03*
X-80000Y120000D02*
D03*
X-40000Y40000D02*
D03*
X-80000Y-40000D02*
D03*
X-40000Y-120000D02*
D03*
X-160000Y280000D02*
D03*
X-120000Y200000D02*
D03*
X-160000Y120000D02*
D03*
X-120000Y40000D02*
D03*
X-160000Y-40000D02*
D03*
X-120000Y-120000D02*
D03*
X-240000Y280000D02*
D03*
X-200000Y200000D02*
D03*
X-240000Y-40000D02*
D03*
X-320000Y280000D02*
D03*
X-280000Y200000D02*
D03*
X-320000Y120000D02*
D03*
Y-40000D02*
D03*
X-400000Y280000D02*
D03*
X-360000Y200000D02*
D03*
X-400000Y120000D02*
D03*
X-360000Y40000D02*
D03*
X-400000Y-40000D02*
D03*
X-360000Y-120000D02*
D03*
X-480000Y280000D02*
D03*
X-440000Y200000D02*
D03*
X-480000Y120000D02*
D03*
X-440000Y40000D02*
D03*
X-480000Y-40000D02*
D03*
X-440000Y-120000D02*
D03*
X-600000Y1400000D02*
D03*
X-550000Y1300000D02*
D03*
X-600000Y1200000D02*
D03*
X-700000Y1400000D02*
D03*
X-650000Y1300000D02*
D03*
X-700000Y1200000D02*
D03*
X-800000Y1400000D02*
D03*
X-750000Y1300000D02*
D03*
X-800000Y1200000D02*
D03*
X-900000Y1400000D02*
D03*
X-850000Y1300000D02*
D03*
X-900000Y1200000D02*
D03*
X-1000000Y1400000D02*
D03*
X-950000Y1300000D02*
D03*
X-1000000Y1200000D02*
D03*
X-1100000Y1400000D02*
D03*
X-1050000Y1300000D02*
D03*
X-1100000Y1200000D02*
D03*
X-1200000Y1400000D02*
D03*
X-1150000Y1300000D02*
D03*
X-1200000Y1200000D02*
D03*
X-1300000Y1400000D02*
D03*
X-1250000Y1300000D02*
D03*
X-1300000Y1200000D02*
D03*
X-1400000Y1400000D02*
D03*
X-1350000Y1300000D02*
D03*
X-1400000Y1200000D02*
D03*
X-1500000Y1400000D02*
D03*
X-1450000Y1300000D02*
D03*
X-1500000Y1200000D02*
D03*
X-1600000Y1400000D02*
D03*
X-1550000Y1300000D02*
D03*
X-1600000Y1200000D02*
D03*
X-1700000Y1400000D02*
D03*
X-1650000Y1300000D02*
D03*
X-1700000Y1200000D02*
D03*
X400000Y1400000D02*
D03*
X450000Y1300000D02*
D03*
X400000Y1200000D02*
D03*
X300000Y1400000D02*
D03*
X350000Y1300000D02*
D03*
X300000Y1200000D02*
D03*
X200000Y1400000D02*
D03*
X250000Y1300000D02*
D03*
X200000Y1200000D02*
D03*
X100000Y1400000D02*
D03*
X150000Y1300000D02*
D03*
X100000Y1200000D02*
D03*
X0Y1400000D02*
D03*
X50000Y1300000D02*
D03*
X0Y1200000D02*
D03*
X-100000Y1400000D02*
D03*
X-50000Y1300000D02*
D03*
X-100000Y1200000D02*
D03*
X-200000Y1400000D02*
D03*
X-150000Y1300000D02*
D03*
X-200000Y1200000D02*
D03*
X-300000Y1400000D02*
D03*
X-250000Y1300000D02*
D03*
X-300000Y1200000D02*
D03*
X-400000Y1400000D02*
D03*
X-350000Y1300000D02*
D03*
X-400000Y1200000D02*
D03*
X1650000Y1400000D02*
D03*
X1600000Y1300000D02*
D03*
X1650000Y1200000D02*
D03*
X1600000Y1100000D02*
D03*
X1550000Y1400000D02*
D03*
X1500000Y1300000D02*
D03*
X1550000Y1200000D02*
D03*
X1500000Y1100000D02*
D03*
X1450000Y1400000D02*
D03*
X1400000Y1300000D02*
D03*
Y1100000D02*
D03*
X1350000Y1400000D02*
D03*
X1300000Y1300000D02*
D03*
X1350000Y1200000D02*
D03*
X1300000Y1100000D02*
D03*
X1250000Y1400000D02*
D03*
X1200000Y1300000D02*
D03*
X1250000Y1200000D02*
D03*
X1200000Y1100000D02*
D03*
X1150000Y1400000D02*
D03*
X1100000Y1300000D02*
D03*
X1150000Y1200000D02*
D03*
X1100000Y1100000D02*
D03*
X1050000Y1400000D02*
D03*
X1000000Y1300000D02*
D03*
X1050000Y1200000D02*
D03*
X1000000Y1100000D02*
D03*
X950000Y1400000D02*
D03*
X900000Y1300000D02*
D03*
X950000Y1200000D02*
D03*
X900000Y1100000D02*
D03*
X850000Y1400000D02*
D03*
X800000Y1300000D02*
D03*
X850000Y1200000D02*
D03*
X800000Y1100000D02*
D03*
X750000Y1400000D02*
D03*
X700000Y1300000D02*
D03*
X750000Y1200000D02*
D03*
X700000Y1100000D02*
D03*
X650000Y1400000D02*
D03*
X600000Y1300000D02*
D03*
X650000Y1200000D02*
D03*
X600000Y1100000D02*
D03*
X1473000Y1205000D02*
D03*
X1670000Y-1573976D02*
D03*
X-1519000Y-1599000D02*
D03*
X-1420000Y-1607000D02*
D03*
X-1331000Y-1599000D02*
D03*
X523549Y-1246000D02*
D03*
X343000Y-1247000D02*
D03*
X177456Y-1243000D02*
D03*
X11000Y1246000D02*
D03*
X-570000Y1356000D02*
D03*
X172000Y-961496D02*
D03*
X298000D02*
D03*
X454528Y-959000D02*
D03*
X1077000Y-1483000D02*
D03*
X-1429485Y-1330000D02*
D03*
X-1567000Y-1400000D02*
D03*
X-1503550Y-1367835D02*
D03*
X-394000Y-1865000D02*
D03*
X-1564495Y-1128000D02*
D03*
X-1562000Y-1047488D02*
D03*
X-1558024Y-969000D02*
D03*
X775500Y-780465D02*
D03*
X839000Y-1042000D02*
D03*
X1602000Y-1481000D02*
D03*
X1122000Y-1555000D02*
D03*
X1544000Y-1403000D02*
D03*
X1094000Y-1325000D02*
D03*
X-510000Y-887000D02*
D03*
X-425000Y-815000D02*
D03*
X-334000Y-788000D02*
D03*
X-374000Y-1114000D02*
D03*
X-71000Y-943000D02*
D03*
X429000Y-549000D02*
D03*
X230000Y-572000D02*
D03*
X218000Y-497000D02*
D03*
X45000Y-477000D02*
D03*
X1670000Y690000D02*
D03*
Y600000D02*
D03*
Y510000D02*
D03*
Y420000D02*
D03*
Y330000D02*
D03*
Y240000D02*
D03*
Y150000D02*
D03*
Y60000D02*
D03*
Y-30000D02*
D03*
X1580000Y330000D02*
D03*
Y240000D02*
D03*
Y150000D02*
D03*
Y60000D02*
D03*
Y-30000D02*
D03*
X1490000Y330000D02*
D03*
Y240000D02*
D03*
Y150000D02*
D03*
Y60000D02*
D03*
Y-30000D02*
D03*
X1400000Y330000D02*
D03*
Y240000D02*
D03*
Y150000D02*
D03*
Y-30000D02*
D03*
X1310000Y330000D02*
D03*
Y240000D02*
D03*
Y150000D02*
D03*
Y60000D02*
D03*
Y-30000D02*
D03*
X1220000Y330000D02*
D03*
Y240000D02*
D03*
Y150000D02*
D03*
Y60000D02*
D03*
Y-30000D02*
D03*
D74*
X-91868Y-684377D02*
D03*
X0Y-776245D02*
D03*
Y-837491D02*
D03*
X122491Y-715000D02*
D03*
X0Y-592509D02*
D03*
X-91868Y-745623D02*
D03*
X-122491Y-715000D02*
D03*
X30623Y-806868D02*
D03*
X-61245Y-715000D02*
D03*
X-30623Y-745623D02*
D03*
X-61245Y-776245D02*
D03*
X-30623Y-806868D02*
D03*
X-61245Y-653755D02*
D03*
X-30623Y-623132D02*
D03*
Y-684377D02*
D03*
X91868D02*
D03*
Y-745623D02*
D03*
X61245Y-653755D02*
D03*
Y-715000D02*
D03*
X30623Y-623132D02*
D03*
X0Y-653755D02*
D03*
X30623Y-684377D02*
D03*
X0Y-715000D02*
D03*
X30623Y-745623D02*
D03*
X61245Y-776245D02*
D03*
D75*
X1021000Y23000D02*
D03*
X790000Y22000D02*
D03*
D80*
X231095Y-881095D02*
D03*
X198858Y-848858D02*
D03*
X279095Y-832379D02*
D03*
X246858Y-800141D02*
D03*
D81*
X-588000Y971000D02*
D03*
Y811000D02*
D03*
X580000Y880000D02*
D03*
Y720000D02*
D03*
D82*
X-564024Y-817000D02*
D03*
X-503000D02*
D03*
X846488Y-825000D02*
D03*
X907512D02*
D03*
X171512Y-1050000D02*
D03*
X110488D02*
D03*
X53488Y-1125097D02*
D03*
X114511D02*
D03*
X238433Y-1119960D02*
D03*
X299457D02*
D03*
X299456Y-1050000D02*
D03*
X238433D02*
D03*
X394488Y-1190000D02*
D03*
X455512D02*
D03*
X-367024Y-882000D02*
D03*
X-306000D02*
D03*
X-1419488Y-1127000D02*
D03*
X-1480512D02*
D03*
X-1419488Y-1051000D02*
D03*
X-1480512D02*
D03*
X-1419488Y-968000D02*
D03*
X-1480512D02*
D03*
X394488Y-1050000D02*
D03*
X455512D02*
D03*
X-222488Y-1031061D02*
D03*
X-283512D02*
D03*
D83*
X414000Y1878000D02*
D03*
X-1349000D02*
D03*
X1600000Y1395000D02*
D03*
X-1701000Y-293000D02*
D03*
D84*
X-1410000Y853543D02*
D03*
X-920000Y549000D02*
D03*
X-240000Y546457D02*
D03*
X250000Y853543D02*
D03*
X1408000Y544457D02*
D03*
X920000Y853543D02*
D03*
D85*
X-1310000Y451969D02*
D03*
X-1510000D02*
D03*
X-1020000Y950575D02*
D03*
X-820000D02*
D03*
X-340000Y948032D02*
D03*
X-140000D02*
D03*
X350000Y451969D02*
D03*
X150000D02*
D03*
X1308000Y946032D02*
D03*
X1508000D02*
D03*
X1020000Y451969D02*
D03*
X820000D02*
D03*
D86*
X580000Y580512D02*
D03*
Y519488D02*
D03*
X-580000Y580512D02*
D03*
Y519488D02*
D03*
X1609000Y-1573976D02*
D03*
Y-1635000D02*
D03*
X1673000Y-1634488D02*
D03*
Y-1695512D02*
D03*
X-444000Y-1047488D02*
D03*
Y-1108512D02*
D03*
X-1455505Y-1271512D02*
D03*
Y-1210488D02*
D03*
X-1309000Y-1271512D02*
D03*
Y-1210488D02*
D03*
X-1381000Y-1271024D02*
D03*
Y-1210000D02*
D03*
D87*
X1020000Y-131890D02*
D03*
Y131890D02*
D03*
X-1400000D02*
D03*
Y-131890D02*
D03*
X350000Y131890D02*
D03*
Y-131890D02*
D03*
D88*
X1439000Y-1478181D02*
D03*
Y-1725819D02*
D03*
D89*
X1490134Y-1361402D02*
D03*
Y-1324000D02*
D03*
Y-1286599D02*
D03*
X1381866D02*
D03*
Y-1324000D02*
D03*
Y-1361402D02*
D03*
D90*
X1180661Y-1322000D02*
D03*
X1263339D02*
D03*
X291661Y-464000D02*
D03*
X374339D02*
D03*
X-293677Y-1108000D02*
D03*
X-211000D02*
D03*
D91*
X1208000Y-1472661D02*
D03*
Y-1555339D02*
D03*
X1209000Y-1609661D02*
D03*
Y-1692339D02*
D03*
D92*
X1126000Y-1678000D02*
D03*
Y-1618945D02*
D03*
X-1566000Y-1462000D02*
D03*
Y-1521055D02*
D03*
X-1489000Y-1461945D02*
D03*
Y-1521000D02*
D03*
X-1410000Y-1460945D02*
D03*
Y-1520000D02*
D03*
D93*
X1046000Y-832000D02*
D03*
X994819D02*
D03*
X1043591Y-731000D02*
D03*
X992409D02*
D03*
D94*
X915449Y-730000D02*
D03*
X846551D02*
D03*
D95*
X299000Y-546966D02*
D03*
X358055D02*
D03*
X298473Y-618000D02*
D03*
X357528D02*
D03*
X113528Y-1190000D02*
D03*
X54472D02*
D03*
X298473Y-1189960D02*
D03*
X239417D02*
D03*
X454528Y-1120000D02*
D03*
X395473D02*
D03*
D96*
X0Y-715000D02*
D03*
D97*
X170513Y-732399D02*
D03*
X156594Y-746319D02*
D03*
X142674Y-760238D02*
D03*
X128755Y-774158D02*
D03*
X114835Y-788077D02*
D03*
X100916Y-801996D02*
D03*
X86996Y-815916D02*
D03*
X73077Y-829835D02*
D03*
X59158Y-843755D02*
D03*
X45238Y-857674D02*
D03*
X31319Y-871593D02*
D03*
X17399Y-885513D02*
D03*
X-170513Y-697601D02*
D03*
X-156594Y-683681D02*
D03*
X-142674Y-669762D02*
D03*
X-128755Y-655842D02*
D03*
X-114835Y-641923D02*
D03*
X-100916Y-628004D02*
D03*
X-86996Y-614084D02*
D03*
X-73077Y-600165D02*
D03*
X-59157Y-586245D02*
D03*
X-45238Y-572326D02*
D03*
X-31319Y-558406D02*
D03*
X-17399Y-544487D02*
D03*
D98*
X-17399Y-885513D02*
D03*
X-31319Y-871593D02*
D03*
X-45238Y-857674D02*
D03*
X-59157Y-843755D02*
D03*
X-73077Y-829835D02*
D03*
X-86996Y-815916D02*
D03*
X-100916Y-801996D02*
D03*
X-114835Y-788077D02*
D03*
X-128755Y-774158D02*
D03*
X-142674Y-760238D02*
D03*
X-156594Y-746319D02*
D03*
X-170513Y-732399D02*
D03*
X17399Y-544487D02*
D03*
X31319Y-558406D02*
D03*
X45238Y-572326D02*
D03*
X59158Y-586245D02*
D03*
X73077Y-600165D02*
D03*
X86996Y-614084D02*
D03*
X100916Y-628004D02*
D03*
X114835Y-641923D02*
D03*
X128755Y-655842D02*
D03*
X142674Y-669762D02*
D03*
X156594Y-683681D02*
D03*
X170513Y-697601D02*
D03*
%TF.MD5,30a3686995b74a2679551a1d67437ac6*%
M02*
