%TF.GenerationSoftware,Altium Limited,Altium Designer,19.0.10 (269)*%
G04 Layer_Color=32896*
%FSLAX26Y26*%
%MOIN*%
%TF.FileFunction,Legend,Bot*%
%TF.Part,Single*%
G01*
G75*
G36*
X608000Y1479000D02*
X656000D01*
Y1471000D01*
X688000D01*
Y1463000D01*
X712000D01*
Y1455000D01*
X736000D01*
Y1447000D01*
X760000D01*
Y1439000D01*
X784000D01*
Y1431000D01*
X800000D01*
Y1423000D01*
X816000D01*
Y1415000D01*
X832000D01*
Y1407000D01*
X848000D01*
Y1399000D01*
X864000D01*
Y1391000D01*
X880000D01*
Y1383000D01*
X888000D01*
Y1375000D01*
X904000D01*
Y1367000D01*
X912000D01*
Y1359000D01*
X928000D01*
Y1351000D01*
X936000D01*
Y1343000D01*
X944000D01*
Y1335000D01*
X960000D01*
Y1327000D01*
X968000D01*
Y1319000D01*
X976000D01*
Y1311000D01*
X984000D01*
Y1303000D01*
X992000D01*
Y1295000D01*
X1000000D01*
Y1287000D01*
X1008000D01*
Y1279000D01*
X1016000D01*
Y1271000D01*
X1024000D01*
Y1263000D01*
X1032000D01*
Y1255000D01*
X1040000D01*
Y1247000D01*
X1048000D01*
Y1239000D01*
X1056000D01*
Y1231000D01*
X1064000D01*
Y1223000D01*
X1072000D01*
Y1215000D01*
Y1207000D01*
X1080000D01*
Y1199000D01*
X1088000D01*
Y1191000D01*
X1096000D01*
Y1183000D01*
Y1175000D01*
X1104000D01*
Y1167000D01*
X1112000D01*
Y1159000D01*
Y1151000D01*
X1120000D01*
Y1143000D01*
X1128000D01*
Y1135000D01*
Y1127000D01*
X1136000D01*
Y1119000D01*
Y1111000D01*
X1144000D01*
Y1103000D01*
Y1095000D01*
X1152000D01*
Y1087000D01*
Y1079000D01*
X1160000D01*
Y1071000D01*
Y1063000D01*
X1168000D01*
Y1055000D01*
Y1047000D01*
X1176000D01*
Y1039000D01*
Y1031000D01*
Y1023000D01*
X1184000D01*
Y1015000D01*
Y1007000D01*
X1192000D01*
Y999000D01*
Y991000D01*
Y983000D01*
Y975000D01*
X1200000D01*
Y967000D01*
Y959000D01*
Y951000D01*
X1208000D01*
Y943000D01*
Y935000D01*
Y927000D01*
Y919000D01*
X1216000D01*
Y911000D01*
Y903000D01*
Y895000D01*
Y887000D01*
Y879000D01*
Y871000D01*
X1224000D01*
Y863000D01*
Y855000D01*
Y847000D01*
Y839000D01*
Y831000D01*
Y823000D01*
Y815000D01*
Y807000D01*
Y799000D01*
Y791000D01*
Y783000D01*
Y775000D01*
Y767000D01*
Y759000D01*
Y751000D01*
Y743000D01*
Y735000D01*
Y727000D01*
Y719000D01*
Y711000D01*
Y703000D01*
Y695000D01*
Y687000D01*
Y679000D01*
Y671000D01*
Y663000D01*
X1216000D01*
Y655000D01*
Y647000D01*
Y639000D01*
Y631000D01*
Y623000D01*
Y615000D01*
X1208000D01*
Y607000D01*
Y599000D01*
Y591000D01*
Y583000D01*
X1200000D01*
Y575000D01*
Y567000D01*
Y559000D01*
X1192000D01*
Y551000D01*
Y543000D01*
Y535000D01*
Y527000D01*
X1184000D01*
Y519000D01*
Y511000D01*
X1176000D01*
Y503000D01*
Y495000D01*
Y487000D01*
X1168000D01*
Y479000D01*
Y471000D01*
X1160000D01*
Y463000D01*
Y455000D01*
X1152000D01*
Y447000D01*
Y439000D01*
X1144000D01*
Y431000D01*
Y423000D01*
X1136000D01*
Y415000D01*
Y407000D01*
X1128000D01*
Y399000D01*
Y391000D01*
X1120000D01*
Y383000D01*
X1112000D01*
Y375000D01*
Y367000D01*
X1104000D01*
Y359000D01*
X1096000D01*
Y351000D01*
Y343000D01*
X1088000D01*
Y335000D01*
X1080000D01*
Y327000D01*
X1072000D01*
Y319000D01*
Y311000D01*
X1064000D01*
Y303000D01*
X1056000D01*
Y295000D01*
X1048000D01*
Y287000D01*
X1040000D01*
Y279000D01*
X1032000D01*
Y271000D01*
X1024000D01*
Y263000D01*
X1016000D01*
Y255000D01*
X1008000D01*
Y247000D01*
X1000000D01*
Y239000D01*
X992000D01*
Y231000D01*
X984000D01*
Y223000D01*
X976000D01*
Y215000D01*
X968000D01*
Y207000D01*
X960000D01*
Y199000D01*
X944000D01*
Y191000D01*
X936000D01*
Y183000D01*
X928000D01*
Y175000D01*
X912000D01*
Y167000D01*
X904000D01*
Y159000D01*
X888000D01*
Y151000D01*
X880000D01*
Y143000D01*
X864000D01*
Y135000D01*
X848000D01*
Y127000D01*
X832000D01*
Y119000D01*
X816000D01*
Y111000D01*
X800000D01*
Y103000D01*
X784000D01*
Y95000D01*
X760000D01*
Y87000D01*
X744000D01*
Y79000D01*
X712000D01*
Y71000D01*
X688000D01*
Y63000D01*
X656000D01*
Y55000D01*
X608000D01*
Y47000D01*
X400000D01*
Y55000D01*
X352000D01*
Y63000D01*
X320000D01*
Y71000D01*
X296000D01*
Y79000D01*
X272000D01*
Y87000D01*
X248000D01*
Y95000D01*
X224000D01*
Y103000D01*
X208000D01*
Y111000D01*
X192000D01*
Y119000D01*
X176000D01*
Y127000D01*
X160000D01*
Y135000D01*
X144000D01*
Y143000D01*
X128000D01*
Y151000D01*
X120000D01*
Y159000D01*
X104000D01*
Y167000D01*
X96000D01*
Y175000D01*
X80000D01*
Y183000D01*
X72000D01*
Y191000D01*
X64000D01*
Y199000D01*
X48000D01*
Y207000D01*
X40000D01*
Y215000D01*
X32000D01*
Y223000D01*
X24000D01*
Y231000D01*
X16000D01*
Y239000D01*
X8000D01*
Y247000D01*
X0D01*
Y255000D01*
X-8000D01*
Y263000D01*
X-16000D01*
Y271000D01*
X-24000D01*
Y279000D01*
X-32000D01*
Y287000D01*
X-40000D01*
Y295000D01*
X-48000D01*
Y303000D01*
X-56000D01*
Y311000D01*
X-64000D01*
Y319000D01*
Y327000D01*
X-72000D01*
Y335000D01*
X-80000D01*
Y343000D01*
X-88000D01*
Y351000D01*
Y359000D01*
X-96000D01*
Y367000D01*
X-104000D01*
Y375000D01*
Y383000D01*
X-112000D01*
Y391000D01*
X-120000D01*
Y399000D01*
Y407000D01*
X-128000D01*
Y415000D01*
Y423000D01*
X-136000D01*
Y431000D01*
Y439000D01*
X-144000D01*
Y447000D01*
Y455000D01*
X-152000D01*
Y463000D01*
Y471000D01*
X-160000D01*
Y479000D01*
Y487000D01*
X-168000D01*
Y495000D01*
Y503000D01*
Y511000D01*
X-176000D01*
Y519000D01*
Y527000D01*
Y535000D01*
X-184000D01*
Y543000D01*
Y551000D01*
Y559000D01*
X-192000D01*
Y567000D01*
Y575000D01*
Y583000D01*
X-200000D01*
Y591000D01*
Y599000D01*
Y607000D01*
Y615000D01*
Y623000D01*
X-208000D01*
Y631000D01*
Y639000D01*
Y647000D01*
Y655000D01*
Y663000D01*
X-216000D01*
Y671000D01*
Y679000D01*
Y687000D01*
Y695000D01*
Y703000D01*
Y711000D01*
Y719000D01*
Y727000D01*
Y735000D01*
Y743000D01*
Y751000D01*
Y759000D01*
Y767000D01*
Y775000D01*
Y783000D01*
Y791000D01*
Y799000D01*
Y807000D01*
Y815000D01*
Y823000D01*
Y831000D01*
Y839000D01*
Y847000D01*
Y855000D01*
Y863000D01*
Y871000D01*
X-208000D01*
Y879000D01*
Y887000D01*
Y895000D01*
Y903000D01*
Y911000D01*
X-200000D01*
Y919000D01*
Y927000D01*
Y935000D01*
Y943000D01*
Y951000D01*
X-192000D01*
Y959000D01*
Y967000D01*
Y975000D01*
X-184000D01*
Y983000D01*
Y991000D01*
Y999000D01*
X-176000D01*
Y1007000D01*
Y1015000D01*
Y1023000D01*
X-168000D01*
Y1031000D01*
Y1039000D01*
Y1047000D01*
X-160000D01*
Y1055000D01*
Y1063000D01*
X-152000D01*
Y1071000D01*
Y1079000D01*
X-144000D01*
Y1087000D01*
Y1095000D01*
X-136000D01*
Y1103000D01*
Y1111000D01*
X-128000D01*
Y1119000D01*
Y1127000D01*
X-120000D01*
Y1135000D01*
Y1143000D01*
X-112000D01*
Y1151000D01*
X-104000D01*
Y1159000D01*
Y1167000D01*
X-96000D01*
Y1175000D01*
X-88000D01*
Y1183000D01*
Y1191000D01*
X-80000D01*
Y1199000D01*
X-72000D01*
Y1207000D01*
X-64000D01*
Y1215000D01*
Y1223000D01*
X-56000D01*
Y1231000D01*
X-48000D01*
Y1239000D01*
X-40000D01*
Y1247000D01*
X-32000D01*
Y1255000D01*
X-24000D01*
Y1263000D01*
X-16000D01*
Y1271000D01*
X-8000D01*
Y1279000D01*
X0D01*
Y1287000D01*
X8000D01*
Y1295000D01*
X16000D01*
Y1303000D01*
X24000D01*
Y1311000D01*
X32000D01*
Y1319000D01*
X40000D01*
Y1327000D01*
X48000D01*
Y1335000D01*
X64000D01*
Y1343000D01*
X72000D01*
Y1351000D01*
X80000D01*
Y1359000D01*
X96000D01*
Y1367000D01*
X104000D01*
Y1375000D01*
X120000D01*
Y1383000D01*
X128000D01*
Y1391000D01*
X144000D01*
Y1399000D01*
X160000D01*
Y1407000D01*
X176000D01*
Y1415000D01*
X192000D01*
Y1423000D01*
X208000D01*
Y1431000D01*
X224000D01*
Y1439000D01*
X248000D01*
Y1447000D01*
X272000D01*
Y1455000D01*
X296000D01*
Y1463000D01*
X320000D01*
Y1471000D01*
X360000D01*
Y1479000D01*
X400000D01*
Y1487000D01*
X608000D01*
Y1479000D01*
D02*
G37*
%LPC*%
G36*
X536000Y1407000D02*
X472000D01*
Y1399000D01*
X400000D01*
Y1391000D01*
X360000D01*
Y1383000D01*
X328000D01*
Y1375000D01*
X304000D01*
Y1367000D01*
X280000D01*
Y1359000D01*
X256000D01*
Y1351000D01*
X240000D01*
Y1343000D01*
X224000D01*
Y1335000D01*
X208000D01*
Y1327000D01*
X192000D01*
Y1319000D01*
X176000D01*
Y1311000D01*
X168000D01*
Y1303000D01*
X152000D01*
Y1295000D01*
X144000D01*
Y1287000D01*
X128000D01*
Y1279000D01*
X120000D01*
Y1271000D01*
X112000D01*
Y1263000D01*
X96000D01*
Y1255000D01*
X88000D01*
Y1247000D01*
X80000D01*
Y1239000D01*
X72000D01*
Y1231000D01*
X64000D01*
Y1223000D01*
X56000D01*
Y1215000D01*
X48000D01*
Y1207000D01*
X40000D01*
Y1199000D01*
X32000D01*
Y1191000D01*
X24000D01*
Y1183000D01*
X16000D01*
Y1175000D01*
X8000D01*
Y1167000D01*
Y1159000D01*
X0D01*
Y1151000D01*
X-8000D01*
Y1143000D01*
X-16000D01*
Y1135000D01*
Y1127000D01*
X-24000D01*
Y1119000D01*
X-32000D01*
Y1111000D01*
Y1103000D01*
X-40000D01*
Y1095000D01*
X-48000D01*
Y1087000D01*
Y1079000D01*
X-56000D01*
Y1071000D01*
Y1063000D01*
X-64000D01*
Y1055000D01*
Y1047000D01*
X-72000D01*
Y1039000D01*
Y1031000D01*
X-80000D01*
Y1023000D01*
Y1015000D01*
X-88000D01*
Y1007000D01*
Y999000D01*
Y991000D01*
X-96000D01*
Y983000D01*
Y975000D01*
Y967000D01*
X-104000D01*
Y959000D01*
Y951000D01*
Y943000D01*
X-112000D01*
Y935000D01*
Y927000D01*
Y919000D01*
Y911000D01*
X-120000D01*
Y903000D01*
Y895000D01*
Y887000D01*
Y879000D01*
Y871000D01*
X-128000D01*
Y863000D01*
Y855000D01*
Y847000D01*
Y839000D01*
Y831000D01*
Y823000D01*
Y815000D01*
Y807000D01*
Y799000D01*
Y791000D01*
Y783000D01*
Y775000D01*
Y767000D01*
Y759000D01*
Y751000D01*
Y743000D01*
Y735000D01*
Y727000D01*
Y719000D01*
Y711000D01*
Y703000D01*
Y695000D01*
X-120000D01*
Y687000D01*
Y679000D01*
Y671000D01*
Y663000D01*
Y655000D01*
Y647000D01*
X-112000D01*
Y639000D01*
Y631000D01*
Y623000D01*
Y615000D01*
Y607000D01*
Y599000D01*
X-104000D01*
Y591000D01*
Y583000D01*
Y575000D01*
Y567000D01*
X-96000D01*
Y559000D01*
Y551000D01*
Y543000D01*
X-88000D01*
Y535000D01*
Y527000D01*
X-80000D01*
Y519000D01*
Y511000D01*
Y503000D01*
X-72000D01*
Y495000D01*
Y487000D01*
X-64000D01*
Y479000D01*
Y471000D01*
X-56000D01*
Y463000D01*
Y455000D01*
X-48000D01*
Y447000D01*
Y439000D01*
X-40000D01*
Y431000D01*
X-32000D01*
Y423000D01*
Y415000D01*
X-24000D01*
Y407000D01*
X-16000D01*
Y399000D01*
Y391000D01*
X-8000D01*
Y383000D01*
X0D01*
Y375000D01*
X8000D01*
Y367000D01*
Y359000D01*
X16000D01*
Y351000D01*
X24000D01*
Y343000D01*
X32000D01*
Y335000D01*
X40000D01*
Y327000D01*
X48000D01*
Y319000D01*
X56000D01*
Y311000D01*
X64000D01*
Y303000D01*
X72000D01*
Y295000D01*
X80000D01*
Y287000D01*
X88000D01*
Y279000D01*
X96000D01*
Y271000D01*
X112000D01*
Y263000D01*
X120000D01*
Y255000D01*
X128000D01*
Y247000D01*
X144000D01*
Y239000D01*
X152000D01*
Y231000D01*
X168000D01*
Y223000D01*
X176000D01*
Y215000D01*
X192000D01*
Y207000D01*
X208000D01*
Y199000D01*
X224000D01*
Y191000D01*
X240000D01*
Y183000D01*
X256000D01*
Y175000D01*
X280000D01*
Y167000D01*
X304000D01*
Y159000D01*
X328000D01*
Y151000D01*
X360000D01*
Y143000D01*
X400000D01*
Y135000D01*
X456000D01*
Y127000D01*
X552000D01*
Y135000D01*
X608000D01*
Y143000D01*
X648000D01*
Y151000D01*
X680000D01*
Y159000D01*
X704000D01*
Y167000D01*
X728000D01*
Y175000D01*
X752000D01*
Y183000D01*
X768000D01*
Y191000D01*
X784000D01*
Y199000D01*
X800000D01*
Y207000D01*
X816000D01*
Y215000D01*
X832000D01*
Y223000D01*
X840000D01*
Y231000D01*
X856000D01*
Y239000D01*
X864000D01*
Y247000D01*
X880000D01*
Y255000D01*
X888000D01*
Y263000D01*
X896000D01*
Y271000D01*
X912000D01*
Y279000D01*
X920000D01*
Y287000D01*
X928000D01*
Y295000D01*
X936000D01*
Y303000D01*
X944000D01*
Y311000D01*
X952000D01*
Y319000D01*
X960000D01*
Y327000D01*
X968000D01*
Y335000D01*
X976000D01*
Y343000D01*
X984000D01*
Y351000D01*
X992000D01*
Y359000D01*
X1000000D01*
Y367000D01*
Y375000D01*
X1008000D01*
Y383000D01*
X1016000D01*
Y391000D01*
X1024000D01*
Y399000D01*
Y407000D01*
X1032000D01*
Y415000D01*
X1040000D01*
Y423000D01*
Y431000D01*
X1048000D01*
Y439000D01*
X1056000D01*
Y447000D01*
Y455000D01*
X1064000D01*
Y463000D01*
Y471000D01*
X1072000D01*
Y479000D01*
Y487000D01*
X1080000D01*
Y495000D01*
Y503000D01*
Y511000D01*
X1088000D01*
Y519000D01*
Y527000D01*
Y535000D01*
Y543000D01*
X1096000D01*
Y551000D01*
Y559000D01*
Y567000D01*
Y575000D01*
Y583000D01*
Y591000D01*
Y599000D01*
Y607000D01*
X1104000D01*
Y615000D01*
Y623000D01*
Y631000D01*
Y639000D01*
X1112000D01*
Y647000D01*
Y655000D01*
Y663000D01*
Y671000D01*
X1120000D01*
Y679000D01*
Y687000D01*
X1128000D01*
Y695000D01*
Y703000D01*
Y711000D01*
Y719000D01*
Y727000D01*
X1136000D01*
Y735000D01*
Y743000D01*
Y751000D01*
Y759000D01*
Y767000D01*
X1128000D01*
Y775000D01*
Y783000D01*
Y791000D01*
Y799000D01*
Y807000D01*
Y815000D01*
Y823000D01*
Y831000D01*
Y839000D01*
Y847000D01*
Y855000D01*
X1120000D01*
Y863000D01*
Y871000D01*
Y879000D01*
Y887000D01*
Y895000D01*
Y903000D01*
Y911000D01*
Y919000D01*
Y927000D01*
Y935000D01*
X1112000D01*
Y943000D01*
Y951000D01*
Y959000D01*
Y967000D01*
X1104000D01*
Y975000D01*
Y983000D01*
Y991000D01*
X1096000D01*
Y999000D01*
Y1007000D01*
Y1015000D01*
X1088000D01*
Y1023000D01*
Y1031000D01*
X1080000D01*
Y1039000D01*
Y1047000D01*
X1072000D01*
Y1055000D01*
Y1063000D01*
X1064000D01*
Y1071000D01*
Y1079000D01*
X1056000D01*
Y1087000D01*
Y1095000D01*
X1048000D01*
Y1103000D01*
X1040000D01*
Y1111000D01*
Y1119000D01*
X1032000D01*
Y1127000D01*
X1024000D01*
Y1135000D01*
Y1143000D01*
X1016000D01*
Y1151000D01*
X1008000D01*
Y1159000D01*
X1000000D01*
Y1167000D01*
Y1175000D01*
X992000D01*
Y1183000D01*
X984000D01*
Y1191000D01*
X976000D01*
Y1199000D01*
X968000D01*
Y1207000D01*
X960000D01*
Y1215000D01*
X952000D01*
Y1223000D01*
X944000D01*
Y1231000D01*
X936000D01*
Y1239000D01*
X928000D01*
Y1247000D01*
X920000D01*
Y1255000D01*
X912000D01*
Y1263000D01*
X896000D01*
Y1271000D01*
X888000D01*
Y1279000D01*
X880000D01*
Y1287000D01*
X864000D01*
Y1295000D01*
X856000D01*
Y1303000D01*
X840000D01*
Y1311000D01*
X832000D01*
Y1319000D01*
X816000D01*
Y1327000D01*
X800000D01*
Y1335000D01*
X784000D01*
Y1343000D01*
X768000D01*
Y1351000D01*
X752000D01*
Y1359000D01*
X728000D01*
Y1367000D01*
X704000D01*
Y1375000D01*
X680000D01*
Y1383000D01*
X648000D01*
Y1391000D01*
X608000D01*
Y1399000D01*
X536000D01*
Y1407000D01*
D02*
G37*
%LPD*%
G36*
X1080000Y863000D02*
Y855000D01*
Y847000D01*
Y839000D01*
X952000D01*
Y831000D01*
Y823000D01*
X1072000D01*
Y815000D01*
Y807000D01*
Y799000D01*
X952000D01*
Y791000D01*
X960000D01*
Y783000D01*
X1080000D01*
Y775000D01*
Y767000D01*
Y759000D01*
X944000D01*
Y767000D01*
X928000D01*
Y775000D01*
Y783000D01*
Y791000D01*
X920000D01*
Y783000D01*
X912000D01*
Y775000D01*
X904000D01*
Y767000D01*
X896000D01*
Y759000D01*
X768000D01*
Y767000D01*
X760000D01*
Y775000D01*
X752000D01*
Y783000D01*
X744000D01*
Y791000D01*
Y799000D01*
X736000D01*
Y791000D01*
Y783000D01*
X728000D01*
Y775000D01*
Y767000D01*
X720000D01*
Y759000D01*
X600000D01*
Y767000D01*
X584000D01*
Y775000D01*
Y783000D01*
Y791000D01*
X576000D01*
Y799000D01*
Y807000D01*
Y815000D01*
X584000D01*
Y823000D01*
Y831000D01*
Y839000D01*
Y847000D01*
Y855000D01*
X576000D01*
Y863000D01*
X584000D01*
Y871000D01*
X608000D01*
Y863000D01*
X616000D01*
Y855000D01*
Y847000D01*
Y839000D01*
Y831000D01*
Y823000D01*
Y815000D01*
Y807000D01*
X608000D01*
Y799000D01*
X616000D01*
Y791000D01*
Y783000D01*
X696000D01*
Y791000D01*
X704000D01*
Y799000D01*
Y807000D01*
Y815000D01*
Y823000D01*
Y831000D01*
Y839000D01*
Y847000D01*
Y855000D01*
Y863000D01*
Y871000D01*
X736000D01*
Y863000D01*
Y855000D01*
Y847000D01*
Y839000D01*
Y831000D01*
X744000D01*
Y839000D01*
Y847000D01*
X752000D01*
Y855000D01*
X760000D01*
Y863000D01*
X776000D01*
Y871000D01*
X888000D01*
Y863000D01*
X896000D01*
Y855000D01*
X912000D01*
Y847000D01*
Y839000D01*
X928000D01*
Y847000D01*
Y855000D01*
X936000D01*
Y863000D01*
X952000D01*
Y871000D01*
X1080000D01*
Y863000D01*
D02*
G37*
G36*
X264000Y1111000D02*
Y1103000D01*
Y1095000D01*
Y1087000D01*
Y1079000D01*
Y1071000D01*
Y1063000D01*
X256000D01*
Y1055000D01*
Y1047000D01*
X264000D01*
Y1039000D01*
X272000D01*
Y1031000D01*
X280000D01*
Y1023000D01*
X288000D01*
Y1015000D01*
X304000D01*
Y1007000D01*
X320000D01*
Y999000D01*
X328000D01*
Y991000D01*
X344000D01*
Y983000D01*
X360000D01*
Y975000D01*
Y967000D01*
Y959000D01*
X368000D01*
Y951000D01*
Y943000D01*
Y935000D01*
X376000D01*
Y927000D01*
X384000D01*
Y919000D01*
X392000D01*
Y911000D01*
Y903000D01*
X400000D01*
Y895000D01*
X408000D01*
Y887000D01*
X416000D01*
Y879000D01*
X424000D01*
Y871000D01*
X440000D01*
Y863000D01*
X448000D01*
Y855000D01*
X456000D01*
Y847000D01*
X472000D01*
Y839000D01*
X488000D01*
Y831000D01*
Y823000D01*
Y815000D01*
Y807000D01*
Y799000D01*
X496000D01*
Y791000D01*
Y783000D01*
X504000D01*
Y775000D01*
Y767000D01*
Y759000D01*
X496000D01*
Y751000D01*
X480000D01*
Y743000D01*
X432000D01*
Y735000D01*
Y727000D01*
Y719000D01*
X408000D01*
Y727000D01*
X400000D01*
Y735000D01*
X392000D01*
Y743000D01*
X384000D01*
Y751000D01*
X376000D01*
Y759000D01*
X368000D01*
Y767000D01*
X360000D01*
Y775000D01*
X352000D01*
Y783000D01*
X336000D01*
Y791000D01*
X280000D01*
Y783000D01*
X264000D01*
Y791000D01*
X240000D01*
Y799000D01*
X224000D01*
Y807000D01*
X216000D01*
Y815000D01*
X200000D01*
Y823000D01*
X192000D01*
Y831000D01*
X184000D01*
Y839000D01*
Y847000D01*
X176000D01*
Y855000D01*
X168000D01*
Y863000D01*
Y871000D01*
X160000D01*
Y879000D01*
Y887000D01*
Y895000D01*
Y903000D01*
Y911000D01*
Y919000D01*
Y927000D01*
Y935000D01*
Y943000D01*
X168000D01*
Y951000D01*
Y959000D01*
Y967000D01*
X176000D01*
Y975000D01*
Y983000D01*
X184000D01*
Y991000D01*
Y999000D01*
X192000D01*
Y1007000D01*
Y1015000D01*
X200000D01*
Y1023000D01*
Y1031000D01*
X208000D01*
Y1039000D01*
Y1047000D01*
Y1055000D01*
Y1063000D01*
X216000D01*
Y1071000D01*
Y1079000D01*
Y1087000D01*
X224000D01*
Y1095000D01*
X232000D01*
Y1103000D01*
X248000D01*
Y1111000D01*
X256000D01*
Y1119000D01*
X264000D01*
Y1111000D01*
D02*
G37*
G36*
X184000Y1023000D02*
Y1015000D01*
X176000D01*
Y1007000D01*
X168000D01*
Y999000D01*
Y991000D01*
X160000D01*
Y983000D01*
X152000D01*
Y975000D01*
Y967000D01*
X144000D01*
Y959000D01*
Y951000D01*
X136000D01*
Y943000D01*
Y935000D01*
Y927000D01*
Y919000D01*
Y911000D01*
Y903000D01*
Y895000D01*
Y887000D01*
Y879000D01*
X144000D01*
Y871000D01*
Y863000D01*
Y855000D01*
X152000D01*
Y847000D01*
Y839000D01*
X160000D01*
Y831000D01*
Y823000D01*
X168000D01*
Y815000D01*
X176000D01*
Y807000D01*
Y799000D01*
X184000D01*
Y791000D01*
X192000D01*
Y783000D01*
X200000D01*
Y775000D01*
X208000D01*
Y767000D01*
X216000D01*
Y759000D01*
X224000D01*
Y751000D01*
X232000D01*
Y743000D01*
X240000D01*
Y735000D01*
X248000D01*
Y727000D01*
Y719000D01*
X256000D01*
Y711000D01*
Y703000D01*
X248000D01*
Y711000D01*
Y719000D01*
X240000D01*
Y727000D01*
X232000D01*
Y735000D01*
X224000D01*
Y743000D01*
X216000D01*
Y751000D01*
X200000D01*
Y759000D01*
X192000D01*
Y767000D01*
X184000D01*
Y775000D01*
X176000D01*
Y783000D01*
X168000D01*
Y791000D01*
X160000D01*
Y799000D01*
X152000D01*
Y807000D01*
X144000D01*
Y815000D01*
X136000D01*
Y823000D01*
X128000D01*
Y831000D01*
Y839000D01*
X120000D01*
Y847000D01*
Y855000D01*
X112000D01*
Y863000D01*
Y871000D01*
Y879000D01*
X104000D01*
Y887000D01*
Y895000D01*
Y903000D01*
Y911000D01*
Y919000D01*
Y927000D01*
Y935000D01*
Y943000D01*
X112000D01*
Y951000D01*
Y959000D01*
X120000D01*
Y967000D01*
Y975000D01*
X128000D01*
Y983000D01*
Y991000D01*
X136000D01*
Y999000D01*
Y1007000D01*
X144000D01*
Y1015000D01*
X152000D01*
Y1023000D01*
X168000D01*
Y1031000D01*
X184000D01*
Y1023000D01*
D02*
G37*
G36*
X784000Y703000D02*
Y695000D01*
X760000D01*
Y703000D01*
Y711000D01*
X784000D01*
Y703000D01*
D02*
G37*
G36*
Y679000D02*
Y671000D01*
Y663000D01*
Y655000D01*
Y647000D01*
Y639000D01*
Y631000D01*
Y623000D01*
Y615000D01*
Y607000D01*
X768000D01*
Y615000D01*
X632000D01*
Y623000D01*
X624000D01*
Y631000D01*
Y639000D01*
Y647000D01*
X616000D01*
Y639000D01*
Y631000D01*
Y623000D01*
Y615000D01*
Y607000D01*
X592000D01*
Y615000D01*
X584000D01*
Y623000D01*
Y631000D01*
Y639000D01*
Y647000D01*
Y655000D01*
X568000D01*
Y663000D01*
X528000D01*
Y655000D01*
X504000D01*
Y647000D01*
Y639000D01*
X576000D01*
Y631000D01*
Y623000D01*
Y615000D01*
Y607000D01*
X504000D01*
Y615000D01*
X488000D01*
Y623000D01*
X480000D01*
Y631000D01*
X472000D01*
Y639000D01*
Y647000D01*
Y655000D01*
Y663000D01*
X424000D01*
Y655000D01*
X416000D01*
Y647000D01*
Y639000D01*
Y631000D01*
Y623000D01*
Y615000D01*
X384000D01*
Y623000D01*
Y631000D01*
Y639000D01*
Y647000D01*
Y655000D01*
Y663000D01*
X392000D01*
Y671000D01*
Y679000D01*
X400000D01*
Y687000D01*
X472000D01*
Y679000D01*
Y671000D01*
Y663000D01*
X480000D01*
Y671000D01*
X488000D01*
Y679000D01*
X496000D01*
Y687000D01*
X600000D01*
Y679000D01*
X608000D01*
Y671000D01*
X616000D01*
Y663000D01*
Y655000D01*
X624000D01*
Y663000D01*
Y671000D01*
X632000D01*
Y679000D01*
X640000D01*
Y687000D01*
X752000D01*
Y679000D01*
Y671000D01*
Y663000D01*
X656000D01*
Y655000D01*
X648000D01*
Y647000D01*
Y639000D01*
X752000D01*
Y631000D01*
X760000D01*
Y639000D01*
Y647000D01*
Y655000D01*
Y663000D01*
Y671000D01*
Y679000D01*
Y687000D01*
X784000D01*
Y679000D01*
D02*
G37*
G36*
X112000Y991000D02*
X104000D01*
Y983000D01*
Y975000D01*
X96000D01*
Y967000D01*
Y959000D01*
X88000D01*
Y951000D01*
Y943000D01*
Y935000D01*
Y927000D01*
X80000D01*
Y919000D01*
Y911000D01*
Y903000D01*
Y895000D01*
Y887000D01*
Y879000D01*
Y871000D01*
X88000D01*
Y863000D01*
Y855000D01*
Y847000D01*
X96000D01*
Y839000D01*
Y831000D01*
X104000D01*
Y823000D01*
X112000D01*
Y815000D01*
X120000D01*
Y807000D01*
Y799000D01*
X128000D01*
Y791000D01*
X136000D01*
Y783000D01*
X144000D01*
Y775000D01*
X152000D01*
Y767000D01*
X160000D01*
Y759000D01*
X168000D01*
Y751000D01*
X176000D01*
Y743000D01*
X184000D01*
Y735000D01*
X192000D01*
Y727000D01*
X200000D01*
Y719000D01*
X208000D01*
Y711000D01*
X216000D01*
Y703000D01*
X224000D01*
Y695000D01*
X232000D01*
Y687000D01*
X240000D01*
Y679000D01*
X248000D01*
Y671000D01*
X256000D01*
Y663000D01*
X264000D01*
Y655000D01*
X272000D01*
Y647000D01*
Y639000D01*
Y631000D01*
Y623000D01*
X264000D01*
Y631000D01*
Y639000D01*
X256000D01*
Y647000D01*
X248000D01*
Y655000D01*
X240000D01*
Y663000D01*
X232000D01*
Y671000D01*
X224000D01*
Y679000D01*
X216000D01*
Y687000D01*
X208000D01*
Y695000D01*
X200000D01*
Y703000D01*
X184000D01*
Y711000D01*
X176000D01*
Y719000D01*
X168000D01*
Y727000D01*
X160000D01*
Y735000D01*
X152000D01*
Y743000D01*
X136000D01*
Y751000D01*
X128000D01*
Y759000D01*
X120000D01*
Y767000D01*
X112000D01*
Y775000D01*
X104000D01*
Y783000D01*
Y791000D01*
X96000D01*
Y799000D01*
X88000D01*
Y807000D01*
X80000D01*
Y815000D01*
X72000D01*
Y823000D01*
Y831000D01*
X64000D01*
Y839000D01*
Y847000D01*
X56000D01*
Y855000D01*
Y863000D01*
X48000D01*
Y871000D01*
Y879000D01*
Y887000D01*
Y895000D01*
Y903000D01*
Y911000D01*
Y919000D01*
Y927000D01*
Y935000D01*
X56000D01*
Y943000D01*
Y951000D01*
X64000D01*
Y959000D01*
Y967000D01*
Y975000D01*
X72000D01*
Y983000D01*
X80000D01*
Y991000D01*
X96000D01*
Y999000D01*
X112000D01*
Y991000D01*
D02*
G37*
G36*
X912000Y679000D02*
X920000D01*
Y671000D01*
X928000D01*
Y663000D01*
Y655000D01*
Y647000D01*
Y639000D01*
Y631000D01*
Y623000D01*
Y615000D01*
X912000D01*
Y607000D01*
X904000D01*
Y615000D01*
Y623000D01*
Y631000D01*
Y639000D01*
Y647000D01*
Y655000D01*
X888000D01*
Y663000D01*
X832000D01*
Y655000D01*
X824000D01*
Y647000D01*
Y639000D01*
Y631000D01*
Y623000D01*
Y615000D01*
X792000D01*
Y623000D01*
Y631000D01*
Y639000D01*
Y647000D01*
Y655000D01*
Y663000D01*
X800000D01*
Y671000D01*
Y679000D01*
X816000D01*
Y687000D01*
X912000D01*
Y679000D01*
D02*
G37*
G36*
X1064000D02*
X1072000D01*
Y671000D01*
X1080000D01*
Y663000D01*
Y655000D01*
Y647000D01*
Y639000D01*
Y631000D01*
Y623000D01*
Y615000D01*
Y607000D01*
Y599000D01*
X1072000D01*
Y591000D01*
X1064000D01*
Y583000D01*
X1040000D01*
Y591000D01*
Y599000D01*
Y607000D01*
X1048000D01*
Y615000D01*
Y623000D01*
Y631000D01*
Y639000D01*
Y647000D01*
Y655000D01*
X1040000D01*
Y663000D01*
X968000D01*
Y655000D01*
Y647000D01*
Y639000D01*
X1040000D01*
Y631000D01*
Y623000D01*
Y615000D01*
X952000D01*
Y623000D01*
X944000D01*
Y631000D01*
X936000D01*
Y639000D01*
Y647000D01*
Y655000D01*
Y663000D01*
Y671000D01*
X944000D01*
Y679000D01*
X952000D01*
Y687000D01*
X1064000D01*
Y679000D01*
D02*
G37*
G36*
X-56000Y727000D02*
X-48000D01*
Y719000D01*
Y711000D01*
X-40000D01*
Y703000D01*
Y695000D01*
X-32000D01*
Y687000D01*
X-24000D01*
Y679000D01*
Y671000D01*
X-16000D01*
Y663000D01*
X0D01*
Y655000D01*
X8000D01*
Y647000D01*
X24000D01*
Y639000D01*
X32000D01*
Y631000D01*
X48000D01*
Y623000D01*
X64000D01*
Y615000D01*
X80000D01*
Y607000D01*
X88000D01*
Y599000D01*
X104000D01*
Y591000D01*
X120000D01*
Y583000D01*
X128000D01*
Y575000D01*
X144000D01*
Y567000D01*
X160000D01*
Y559000D01*
X168000D01*
Y551000D01*
X176000D01*
Y543000D01*
X184000D01*
Y535000D01*
X192000D01*
Y527000D01*
X200000D01*
Y519000D01*
Y511000D01*
X192000D01*
Y519000D01*
X184000D01*
Y527000D01*
X176000D01*
Y535000D01*
X160000D01*
Y543000D01*
X152000D01*
Y551000D01*
X136000D01*
Y559000D01*
X120000D01*
Y567000D01*
X104000D01*
Y575000D01*
X88000D01*
Y583000D01*
X72000D01*
Y591000D01*
X56000D01*
Y599000D01*
X40000D01*
Y607000D01*
X24000D01*
Y615000D01*
X8000D01*
Y623000D01*
X0D01*
Y631000D01*
X-16000D01*
Y639000D01*
X-24000D01*
Y647000D01*
X-32000D01*
Y655000D01*
X-40000D01*
Y663000D01*
X-48000D01*
Y671000D01*
X-56000D01*
Y679000D01*
Y687000D01*
X-64000D01*
Y695000D01*
Y703000D01*
Y711000D01*
Y719000D01*
Y727000D01*
Y735000D01*
X-56000D01*
Y727000D01*
D02*
G37*
G36*
X32000Y927000D02*
Y919000D01*
X24000D01*
Y911000D01*
Y903000D01*
Y895000D01*
Y887000D01*
Y879000D01*
Y871000D01*
X32000D01*
Y863000D01*
Y855000D01*
Y847000D01*
X40000D01*
Y839000D01*
Y831000D01*
Y823000D01*
X48000D01*
Y815000D01*
Y807000D01*
X56000D01*
Y799000D01*
X64000D01*
Y791000D01*
Y783000D01*
X72000D01*
Y775000D01*
X80000D01*
Y767000D01*
X88000D01*
Y759000D01*
X96000D01*
Y751000D01*
X104000D01*
Y743000D01*
X112000D01*
Y735000D01*
X120000D01*
Y727000D01*
X128000D01*
Y719000D01*
X136000D01*
Y711000D01*
X144000D01*
Y703000D01*
X160000D01*
Y695000D01*
X168000D01*
Y687000D01*
X176000D01*
Y679000D01*
X192000D01*
Y671000D01*
X200000D01*
Y663000D01*
X208000D01*
Y655000D01*
X216000D01*
Y647000D01*
X224000D01*
Y639000D01*
X232000D01*
Y631000D01*
X240000D01*
Y623000D01*
Y615000D01*
X248000D01*
Y607000D01*
X256000D01*
Y599000D01*
X264000D01*
Y591000D01*
Y583000D01*
X272000D01*
Y575000D01*
X280000D01*
Y567000D01*
Y559000D01*
X288000D01*
Y551000D01*
Y543000D01*
X296000D01*
Y535000D01*
Y527000D01*
X304000D01*
Y519000D01*
Y511000D01*
Y503000D01*
X312000D01*
Y495000D01*
X296000D01*
Y503000D01*
Y511000D01*
X288000D01*
Y519000D01*
Y527000D01*
Y535000D01*
X280000D01*
Y543000D01*
Y551000D01*
X272000D01*
Y559000D01*
X264000D01*
Y567000D01*
Y575000D01*
X256000D01*
Y583000D01*
X248000D01*
Y591000D01*
Y599000D01*
X240000D01*
Y607000D01*
X224000D01*
Y615000D01*
X216000D01*
Y623000D01*
X208000D01*
Y631000D01*
X200000D01*
Y639000D01*
X192000D01*
Y647000D01*
X184000D01*
Y655000D01*
X176000D01*
Y663000D01*
X160000D01*
Y671000D01*
X152000D01*
Y679000D01*
X144000D01*
Y687000D01*
X128000D01*
Y695000D01*
X120000D01*
Y703000D01*
X112000D01*
Y711000D01*
X104000D01*
Y719000D01*
X96000D01*
Y727000D01*
X88000D01*
Y735000D01*
X80000D01*
Y743000D01*
X72000D01*
Y751000D01*
X64000D01*
Y759000D01*
X56000D01*
Y767000D01*
X48000D01*
Y775000D01*
X40000D01*
Y783000D01*
X32000D01*
Y791000D01*
X24000D01*
Y799000D01*
X16000D01*
Y807000D01*
Y815000D01*
X8000D01*
Y823000D01*
Y831000D01*
Y839000D01*
Y847000D01*
X0D01*
Y855000D01*
Y863000D01*
Y871000D01*
Y879000D01*
Y887000D01*
Y895000D01*
X8000D01*
Y903000D01*
Y911000D01*
Y919000D01*
X16000D01*
Y927000D01*
X24000D01*
Y935000D01*
X32000D01*
Y927000D01*
D02*
G37*
G36*
X-24000Y847000D02*
Y839000D01*
Y831000D01*
Y823000D01*
X-16000D01*
Y815000D01*
Y807000D01*
Y799000D01*
X-8000D01*
Y791000D01*
Y783000D01*
Y775000D01*
X0D01*
Y767000D01*
X8000D01*
Y759000D01*
Y751000D01*
X16000D01*
Y743000D01*
X24000D01*
Y735000D01*
X32000D01*
Y727000D01*
X40000D01*
Y719000D01*
X48000D01*
Y711000D01*
X56000D01*
Y703000D01*
X64000D01*
Y695000D01*
X72000D01*
Y687000D01*
X80000D01*
Y679000D01*
X96000D01*
Y671000D01*
X104000D01*
Y663000D01*
X112000D01*
Y655000D01*
X128000D01*
Y647000D01*
X136000D01*
Y639000D01*
X144000D01*
Y631000D01*
X160000D01*
Y623000D01*
X168000D01*
Y615000D01*
X176000D01*
Y607000D01*
X184000D01*
Y599000D01*
X200000D01*
Y591000D01*
X208000D01*
Y583000D01*
X216000D01*
Y575000D01*
X224000D01*
Y567000D01*
X232000D01*
Y559000D01*
X240000D01*
Y551000D01*
Y543000D01*
X248000D01*
Y535000D01*
X256000D01*
Y527000D01*
Y519000D01*
X264000D01*
Y511000D01*
Y503000D01*
Y495000D01*
X272000D01*
Y487000D01*
Y479000D01*
X280000D01*
Y471000D01*
Y463000D01*
X288000D01*
Y455000D01*
Y447000D01*
Y439000D01*
Y431000D01*
Y423000D01*
X280000D01*
Y431000D01*
Y439000D01*
Y447000D01*
X272000D01*
Y455000D01*
Y463000D01*
X264000D01*
Y471000D01*
Y479000D01*
X256000D01*
Y487000D01*
X248000D01*
Y495000D01*
Y503000D01*
X240000D01*
Y511000D01*
Y519000D01*
X232000D01*
Y527000D01*
X224000D01*
Y535000D01*
X216000D01*
Y543000D01*
X208000D01*
Y551000D01*
X200000D01*
Y559000D01*
X192000D01*
Y567000D01*
X184000D01*
Y575000D01*
X176000D01*
Y583000D01*
X168000D01*
Y591000D01*
X152000D01*
Y599000D01*
X144000D01*
Y607000D01*
X136000D01*
Y615000D01*
X120000D01*
Y623000D01*
X112000D01*
Y631000D01*
X96000D01*
Y639000D01*
X88000D01*
Y647000D01*
X72000D01*
Y655000D01*
X64000D01*
Y663000D01*
X56000D01*
Y671000D01*
X40000D01*
Y679000D01*
X32000D01*
Y687000D01*
X24000D01*
Y695000D01*
X16000D01*
Y703000D01*
X8000D01*
Y711000D01*
X0D01*
Y719000D01*
X-8000D01*
Y727000D01*
X-16000D01*
Y735000D01*
Y743000D01*
X-24000D01*
Y751000D01*
X-32000D01*
Y759000D01*
Y767000D01*
X-40000D01*
Y775000D01*
Y783000D01*
Y791000D01*
Y799000D01*
Y807000D01*
X-48000D01*
Y815000D01*
X-40000D01*
Y823000D01*
Y831000D01*
Y839000D01*
X-32000D01*
Y847000D01*
Y855000D01*
X-24000D01*
Y847000D01*
D02*
G37*
%LPC*%
G36*
X880000Y839000D02*
X784000D01*
Y831000D01*
X776000D01*
Y823000D01*
X768000D01*
Y815000D01*
Y807000D01*
Y799000D01*
X776000D01*
Y791000D01*
X888000D01*
Y799000D01*
X896000D01*
Y807000D01*
Y815000D01*
Y823000D01*
X888000D01*
Y831000D01*
X880000D01*
Y839000D01*
D02*
G37*
%LPD*%
%TF.MD5,58e83118749e32c64ca3c49dd95614e4*%
M02*
