%TF.GenerationSoftware,Altium Limited,Altium Designer,19.0.10 (269)*%
G04 Layer_Physical_Order=3*
G04 Layer_Color=128*
%FSLAX26Y26*%
%MOIN*%
%TF.FileFunction,Copper,L3,Inr,Plane*%
%TF.Part,Single*%
G01*
G75*
%TA.AperFunction,NonConductor*%
%ADD49C,0.010000*%
%ADD50C,0.040000*%
%TA.AperFunction,ComponentPad*%
%ADD51C,0.071496*%
%TA.AperFunction,ViaPad*%
%ADD52C,0.134500*%
%ADD53C,0.220000*%
%TA.AperFunction,ComponentPad*%
%ADD54O,0.063622X0.106929*%
%ADD55C,0.158110*%
%ADD56C,0.075433*%
%ADD57O,0.106929X0.063622*%
%ADD58C,0.110866*%
%TA.AperFunction,ViaPad*%
%ADD59C,0.055625*%
%ADD60C,0.047874*%
%ADD61C,0.055000*%
%ADD62C,0.068000*%
D49*
X1751000Y-1998000D02*
Y-1850000D01*
X1749000Y-2000000D02*
X1751000Y-1998000D01*
X-1039000Y-2000000D02*
X1749000D01*
X-1053000Y-1986000D02*
X-1039000Y-2000000D01*
D50*
X1004000Y-1105000D02*
X1748000D01*
X621000Y-721000D02*
X1006000Y-1106000D01*
X-547000Y-721000D02*
X621000D01*
X-1053000Y-1227000D02*
X-547000Y-721000D01*
X-1053000Y-1986000D02*
Y-1227000D01*
X-1750000Y-2000000D02*
X1750000D01*
Y2000000D01*
X-1750000D02*
X1750000D01*
X-1750000Y-2000000D02*
Y2000000D01*
D51*
X-1622000Y-1008740D02*
D03*
Y-930000D02*
D03*
Y-1087480D02*
D03*
Y-1166220D02*
D03*
Y-1244961D02*
D03*
D52*
X1650000Y-1900000D02*
D03*
X-1650000D02*
D03*
D53*
X1550000Y1800000D02*
D03*
X-1550000D02*
D03*
D54*
X-690252Y1836220D02*
D03*
X-1221748D02*
D03*
X268248D02*
D03*
X-263248D02*
D03*
X1221748D02*
D03*
X690252D02*
D03*
D55*
X-814268Y1600000D02*
D03*
X-1097732D02*
D03*
X144232D02*
D03*
X-139232D02*
D03*
X1097732D02*
D03*
X814268D02*
D03*
X1233780Y-554016D02*
D03*
X-936709Y-1832402D02*
D03*
X882189D02*
D03*
D56*
X-920000Y-141851D02*
D03*
X-240000Y-131851D02*
D03*
X1410000D02*
D03*
D57*
X1470000Y-961496D02*
D03*
Y-430000D02*
D03*
D58*
X882189Y-1367835D02*
D03*
X-440646D02*
D03*
Y-1545000D02*
D03*
X-275291Y-1367835D02*
D03*
Y-1545000D02*
D03*
X-109937Y-1367835D02*
D03*
Y-1545000D02*
D03*
X55417Y-1367835D02*
D03*
Y-1545000D02*
D03*
X220772Y-1367835D02*
D03*
Y-1545000D02*
D03*
X386126Y-1367835D02*
D03*
Y-1545000D02*
D03*
X551480Y-1367835D02*
D03*
Y-1545000D02*
D03*
X716835Y-1367835D02*
D03*
Y-1545000D02*
D03*
X-606000Y-1367835D02*
D03*
Y-1545000D02*
D03*
X-771354D02*
D03*
Y-1367835D02*
D03*
X-936709Y-1545000D02*
D03*
Y-1367835D02*
D03*
D59*
X386126Y-829000D02*
D03*
X-1225000Y-300000D02*
D03*
X-1187500Y-375000D02*
D03*
X-1225000Y-450000D02*
D03*
X-1187500Y-525000D02*
D03*
X-1225000Y-600000D02*
D03*
X-1262500Y-225000D02*
D03*
X-1300000Y-300000D02*
D03*
X-1262500Y-375000D02*
D03*
X-1300000Y-450000D02*
D03*
X-1262500Y-525000D02*
D03*
X-1300000Y-600000D02*
D03*
X-1337500Y-225000D02*
D03*
X-1375000Y-300000D02*
D03*
X-1337500Y-375000D02*
D03*
X-1375000Y-450000D02*
D03*
X-1337500Y-525000D02*
D03*
X-1375000Y-600000D02*
D03*
X-1412500Y-225000D02*
D03*
X-1450000Y-300000D02*
D03*
X-1412500Y-375000D02*
D03*
X-1450000Y-450000D02*
D03*
X-1412500Y-525000D02*
D03*
X-1450000Y-600000D02*
D03*
X-1525000Y-150000D02*
D03*
X-1487500Y-225000D02*
D03*
X-1525000Y-300000D02*
D03*
X-1487500Y-375000D02*
D03*
X-1525000Y-450000D02*
D03*
X-1487500Y-525000D02*
D03*
X-1525000Y-600000D02*
D03*
X-1562500Y-75000D02*
D03*
X-1600000Y-150000D02*
D03*
X-1562500Y-225000D02*
D03*
X-1600000Y-300000D02*
D03*
X-1562500Y-375000D02*
D03*
X-1600000Y-450000D02*
D03*
X-1562500Y-525000D02*
D03*
X-1600000Y-600000D02*
D03*
X-1637500Y-75000D02*
D03*
X-1675000Y-150000D02*
D03*
X-1637500Y-225000D02*
D03*
Y-375000D02*
D03*
X-1675000Y-450000D02*
D03*
X-1637500Y-525000D02*
D03*
X-1675000Y-600000D02*
D03*
X1680000Y-200000D02*
D03*
Y-360000D02*
D03*
Y-520000D02*
D03*
X1640000Y-120000D02*
D03*
X1600000Y-200000D02*
D03*
X1640000Y-280000D02*
D03*
X1600000Y-360000D02*
D03*
X1640000Y-440000D02*
D03*
X1600000Y-520000D02*
D03*
X1640000Y-600000D02*
D03*
X1560000Y-120000D02*
D03*
X1520000Y-200000D02*
D03*
X1560000Y-280000D02*
D03*
X1520000Y-360000D02*
D03*
X1560000Y-440000D02*
D03*
X1520000Y-520000D02*
D03*
X1560000Y-600000D02*
D03*
X1520000Y-680000D02*
D03*
X1480000Y-120000D02*
D03*
X1440000Y-200000D02*
D03*
X1480000Y-280000D02*
D03*
X1440000Y-360000D02*
D03*
Y-520000D02*
D03*
X1480000Y-600000D02*
D03*
X1440000Y-680000D02*
D03*
X1360000Y-200000D02*
D03*
X1400000Y-280000D02*
D03*
X1360000Y-360000D02*
D03*
X1400000Y-440000D02*
D03*
X1360000Y-520000D02*
D03*
X1400000Y-600000D02*
D03*
X1360000Y-680000D02*
D03*
X1320000Y-120000D02*
D03*
X1280000Y-200000D02*
D03*
X1320000Y-280000D02*
D03*
X1280000Y-360000D02*
D03*
X1320000Y-440000D02*
D03*
X1280000Y-680000D02*
D03*
X1240000Y-120000D02*
D03*
X1200000Y-200000D02*
D03*
X1240000Y-280000D02*
D03*
X1200000Y-360000D02*
D03*
X1240000Y-440000D02*
D03*
X1200000Y-680000D02*
D03*
X1160000Y-120000D02*
D03*
X1120000Y-200000D02*
D03*
X1160000Y-280000D02*
D03*
X1120000Y-360000D02*
D03*
X1160000Y-440000D02*
D03*
X1120000Y-520000D02*
D03*
Y-680000D02*
D03*
X1080000Y-280000D02*
D03*
X1040000Y-360000D02*
D03*
X1080000Y-440000D02*
D03*
X1040000Y-520000D02*
D03*
X1080000Y-600000D02*
D03*
X1000000Y-280000D02*
D03*
X960000Y-360000D02*
D03*
X1000000Y-440000D02*
D03*
X960000Y-520000D02*
D03*
X760000Y500000D02*
D03*
Y360000D02*
D03*
X795000Y290000D02*
D03*
X760000Y220000D02*
D03*
X795000Y150000D02*
D03*
X760000Y-60000D02*
D03*
X690000Y500000D02*
D03*
X725000Y430000D02*
D03*
X690000Y360000D02*
D03*
X725000Y290000D02*
D03*
X690000Y220000D02*
D03*
X725000Y150000D02*
D03*
X690000Y80000D02*
D03*
X725000Y10000D02*
D03*
X690000Y-60000D02*
D03*
X725000Y-130000D02*
D03*
X655000Y430000D02*
D03*
X620000Y360000D02*
D03*
X655000Y290000D02*
D03*
X620000Y220000D02*
D03*
X655000Y150000D02*
D03*
X620000Y80000D02*
D03*
X655000Y10000D02*
D03*
X620000Y-60000D02*
D03*
X655000Y-130000D02*
D03*
X620000Y-200000D02*
D03*
X585000Y430000D02*
D03*
X550000Y360000D02*
D03*
X585000Y290000D02*
D03*
X550000Y220000D02*
D03*
X585000Y150000D02*
D03*
X550000Y80000D02*
D03*
X585000Y10000D02*
D03*
X550000Y-60000D02*
D03*
X585000Y-130000D02*
D03*
X550000Y-200000D02*
D03*
X585000Y-270000D02*
D03*
X515000Y10000D02*
D03*
X480000Y-60000D02*
D03*
X515000Y-130000D02*
D03*
X480000Y-200000D02*
D03*
X515000Y-270000D02*
D03*
X445000Y10000D02*
D03*
Y-130000D02*
D03*
Y-270000D02*
D03*
X-600000Y1400000D02*
D03*
X-550000Y1300000D02*
D03*
X-600000Y1200000D02*
D03*
X-700000Y1400000D02*
D03*
X-650000Y1300000D02*
D03*
X-700000Y1200000D02*
D03*
X-800000Y1400000D02*
D03*
X-750000Y1300000D02*
D03*
X-800000Y1200000D02*
D03*
X-900000Y1400000D02*
D03*
X-850000Y1300000D02*
D03*
X-900000Y1200000D02*
D03*
X-1000000Y1400000D02*
D03*
X-950000Y1300000D02*
D03*
X-1000000Y1200000D02*
D03*
X-1100000Y1400000D02*
D03*
X-1050000Y1300000D02*
D03*
X-1100000Y1200000D02*
D03*
X-1200000Y1400000D02*
D03*
X-1150000Y1300000D02*
D03*
X-1200000Y1200000D02*
D03*
X-1300000Y1400000D02*
D03*
X-1250000Y1300000D02*
D03*
X-1300000Y1200000D02*
D03*
X-1400000Y1400000D02*
D03*
X-1350000Y1300000D02*
D03*
X-1400000Y1200000D02*
D03*
X-1500000Y1400000D02*
D03*
X-1450000Y1300000D02*
D03*
X-1500000Y1200000D02*
D03*
X-1600000Y1400000D02*
D03*
X-1550000Y1300000D02*
D03*
X-1600000Y1200000D02*
D03*
X-1700000Y1400000D02*
D03*
X-1650000Y1300000D02*
D03*
X-1700000Y1200000D02*
D03*
X400000Y1400000D02*
D03*
X450000Y1300000D02*
D03*
X400000Y1200000D02*
D03*
X300000Y1400000D02*
D03*
X350000Y1300000D02*
D03*
X300000Y1200000D02*
D03*
X200000Y1400000D02*
D03*
X250000Y1300000D02*
D03*
X200000Y1200000D02*
D03*
X100000Y1400000D02*
D03*
X150000Y1300000D02*
D03*
X100000Y1200000D02*
D03*
X0Y1400000D02*
D03*
X50000Y1300000D02*
D03*
X0Y1200000D02*
D03*
X-100000Y1400000D02*
D03*
X-50000Y1300000D02*
D03*
X-100000Y1200000D02*
D03*
X-200000Y1400000D02*
D03*
X-150000Y1300000D02*
D03*
X-200000Y1200000D02*
D03*
X-300000Y1400000D02*
D03*
X-250000Y1300000D02*
D03*
X-300000Y1200000D02*
D03*
X-400000Y1400000D02*
D03*
X-350000Y1300000D02*
D03*
X-400000Y1200000D02*
D03*
X1650000Y1400000D02*
D03*
X1600000Y1300000D02*
D03*
X1650000Y1200000D02*
D03*
X1600000Y1100000D02*
D03*
X1550000Y1400000D02*
D03*
X1500000Y1300000D02*
D03*
X1550000Y1200000D02*
D03*
X1500000Y1100000D02*
D03*
X1450000Y1400000D02*
D03*
X1400000Y1300000D02*
D03*
Y1100000D02*
D03*
X1350000Y1400000D02*
D03*
X1300000Y1300000D02*
D03*
X1350000Y1200000D02*
D03*
X1300000Y1100000D02*
D03*
X1250000Y1400000D02*
D03*
X1200000Y1300000D02*
D03*
X1250000Y1200000D02*
D03*
X1200000Y1100000D02*
D03*
X1150000Y1400000D02*
D03*
X1100000Y1300000D02*
D03*
X1150000Y1200000D02*
D03*
X1100000Y1100000D02*
D03*
X1050000Y1400000D02*
D03*
X1000000Y1300000D02*
D03*
X1050000Y1200000D02*
D03*
X1000000Y1100000D02*
D03*
X950000Y1400000D02*
D03*
X900000Y1300000D02*
D03*
X950000Y1200000D02*
D03*
X900000Y1100000D02*
D03*
X850000Y1400000D02*
D03*
X800000Y1300000D02*
D03*
X850000Y1200000D02*
D03*
X800000Y1100000D02*
D03*
X750000Y1400000D02*
D03*
X700000Y1300000D02*
D03*
X750000Y1200000D02*
D03*
X700000Y1100000D02*
D03*
X650000Y1400000D02*
D03*
X600000Y1300000D02*
D03*
X650000Y1200000D02*
D03*
X600000Y1100000D02*
D03*
X1473000Y1205000D02*
D03*
X1670000Y-1573976D02*
D03*
X-1519000Y-1599000D02*
D03*
X-1420000Y-1607000D02*
D03*
X-1331000Y-1599000D02*
D03*
X523549Y-1246000D02*
D03*
X343000Y-1247000D02*
D03*
X177456Y-1243000D02*
D03*
X11000Y1246000D02*
D03*
X-570000Y1356000D02*
D03*
X172000Y-961496D02*
D03*
X298000D02*
D03*
X454528Y-959000D02*
D03*
X1077000Y-1483000D02*
D03*
X-1429485Y-1330000D02*
D03*
X-1567000Y-1400000D02*
D03*
X-1503550Y-1367835D02*
D03*
X775500Y-780465D02*
D03*
X1602000Y-1481000D02*
D03*
X1122000Y-1555000D02*
D03*
X1544000Y-1403000D02*
D03*
X1094000Y-1325000D02*
D03*
X-425000Y-815000D02*
D03*
X-374000Y-1114000D02*
D03*
X-71000Y-943000D02*
D03*
X429000Y-549000D02*
D03*
X45000Y-477000D02*
D03*
D60*
X-91868Y-684377D02*
D03*
X0Y-776245D02*
D03*
Y-837491D02*
D03*
X122491Y-715000D02*
D03*
X0Y-592509D02*
D03*
X-91868Y-745623D02*
D03*
X-122491Y-715000D02*
D03*
X30623Y-806868D02*
D03*
X-61245Y-715000D02*
D03*
X-30623Y-745623D02*
D03*
X-61245Y-776245D02*
D03*
X-30623Y-806868D02*
D03*
X-61245Y-653755D02*
D03*
X-30623Y-623132D02*
D03*
Y-684377D02*
D03*
X91868D02*
D03*
Y-745623D02*
D03*
X61245Y-653755D02*
D03*
Y-715000D02*
D03*
X30623Y-623132D02*
D03*
X0Y-653755D02*
D03*
X30623Y-684377D02*
D03*
X0Y-715000D02*
D03*
X30623Y-745623D02*
D03*
X61245Y-776245D02*
D03*
D61*
X-1564495Y-1128000D02*
D03*
X-1562000Y-1047488D02*
D03*
X-1558024Y-969000D02*
D03*
D62*
X1021000Y23000D02*
D03*
X790000Y22000D02*
D03*
%TF.MD5,00803ff33e41f0e018a449d6395f4399*%
M02*
