%TF.GenerationSoftware,Altium Limited,Altium Designer,19.0.10 (269)*%
G04 Layer_Color=65535*
%FSLAX26Y26*%
%MOIN*%
%TF.FileFunction,Legend,Top*%
%TF.Part,Single*%
G01*
G75*
%TA.AperFunction,NonConductor*%
%ADD49C,0.010000*%
%ADD76C,0.009842*%
%ADD77C,0.005000*%
%ADD78C,0.007874*%
%ADD79C,0.003937*%
D49*
X-1671384Y-1359480D02*
G03*
X-1671384Y-1359480I-20616J0D01*
G01*
X-700882Y1501575D02*
G03*
X-650882Y1551575I0J50000D01*
G01*
X-1261118D02*
G03*
X-1211118Y1501575I50000J0D01*
G01*
X257618D02*
G03*
X307618Y1551575I0J50000D01*
G01*
X-302618D02*
G03*
X-252618Y1501575I50000J0D01*
G01*
X1211118D02*
G03*
X1261118Y1551575I0J50000D01*
G01*
X650882D02*
G03*
X700882Y1501575I50000J0D01*
G01*
X-669997Y-43429D02*
G03*
X-669997Y-43429I-250000J0D01*
G01*
X10003Y-33429D02*
G03*
X10003Y-33429I-250000J0D01*
G01*
X1660003D02*
G03*
X1660003Y-33429I-250000J0D01*
G01*
X1135354Y-950866D02*
G03*
X1185354Y-1000866I50000J0D01*
G01*
Y-390630D02*
G03*
X1135354Y-440630I0J-50000D01*
G01*
X-1720425Y-1323701D02*
X-1523575D01*
X-1720425Y-851260D02*
X-1523575D01*
X-1720425Y-1323701D02*
Y-851260D01*
X-1523575Y-1323701D02*
Y-851260D01*
X-639000Y767000D02*
X-616000D01*
X-640000Y768000D02*
X-639000Y767000D01*
X-640000Y768000D02*
Y793000D01*
X-587000Y1048000D02*
Y1072000D01*
X-598000Y1060000D02*
X-575000D01*
X-640000Y990000D02*
Y1016000D01*
X-621000D01*
X-560000D02*
X-538000D01*
X-537000Y987000D02*
Y1015000D01*
X-560000Y767000D02*
X-538000D01*
X-537000Y768000D02*
Y793000D01*
X-1469000Y-1656000D02*
X-1425000Y-1700000D01*
X-1469000Y-1656000D02*
Y-1571000D01*
X-1483000Y-1557000D02*
X-1469000Y-1571000D01*
X-650882Y1551575D02*
Y1678740D01*
X-719779Y1501575D02*
X-700882D01*
X-1211118D02*
X-1192220D01*
X-1261118Y1551575D02*
Y1678740D01*
Y2243701D01*
X-650882D01*
Y1678740D02*
Y2243701D01*
X-1192220Y1501575D02*
X-719779D01*
X307618Y1551575D02*
Y1678740D01*
X238720Y1501575D02*
X257618D01*
X-252618D02*
X-233720D01*
X-302618Y1551575D02*
Y1678740D01*
Y2243701D01*
X307618D01*
Y1678740D02*
Y2243701D01*
X-233720Y1501575D02*
X238720D01*
X1261118Y1551575D02*
Y1678740D01*
X1192220Y1501575D02*
X1211118D01*
X700882D02*
X719779D01*
X650882Y1551575D02*
Y1678740D01*
Y2243701D01*
X1261118D01*
Y1678740D02*
Y2243701D01*
X719779Y1501575D02*
X1192220D01*
X589000Y1033000D02*
Y1050000D01*
X643000Y1005000D02*
Y1033450D01*
X643549Y1034000D01*
X516000D02*
X643549D01*
X516000Y1003000D02*
Y1034000D01*
X529000Y676000D02*
X552000D01*
X528000Y677000D02*
X529000Y676000D01*
X528000Y677000D02*
Y702000D01*
X581000Y957000D02*
Y981000D01*
X570000Y969000D02*
X593000D01*
X528000Y899000D02*
Y925000D01*
X547000D01*
X608000D02*
X630000D01*
X631000Y896000D02*
Y924000D01*
X608000Y676000D02*
X630000D01*
X631000Y677000D02*
Y702000D01*
X1185354Y-1000866D02*
X1312520D01*
X1135354Y-950866D02*
Y-931968D01*
Y-459527D02*
Y-440630D01*
X1185354Y-390630D02*
X1312520D01*
X1877480D01*
Y-1000866D02*
Y-390630D01*
X1312520Y-1000866D02*
X1877480D01*
X1135354Y-931968D02*
Y-459527D01*
X327627Y-1007373D02*
X382000Y-953000D01*
X326000Y-1007373D02*
X327627D01*
X326000Y-1008000D02*
Y-1007373D01*
X-1253000Y-1198000D02*
X-1226000D01*
X-1278000Y-1341000D02*
X-1253000D01*
Y-1058000D01*
X-1279000D02*
X-1253000D01*
X1035732Y-1928858D02*
Y-1318622D01*
X-1090252Y-1928858D02*
X1035732D01*
X996362Y-1279252D02*
X1035732Y-1318622D01*
X-1090252Y-1279252D02*
X996362D01*
X-1090252Y-1928858D02*
Y-1281417D01*
X534587Y-812131D02*
X577000Y-854544D01*
Y-826269D01*
X605275D01*
X562862Y-783856D01*
X619413Y-812131D02*
X633550Y-797993D01*
X626481Y-805062D01*
X584069Y-762649D01*
Y-776787D01*
X582508Y-876587D02*
X624921Y-919000D01*
Y-890725D01*
X653196D01*
X610783Y-848312D01*
X695609D02*
X667333Y-876587D01*
Y-820037D01*
X660265Y-812968D01*
X646127D01*
X631990Y-827106D01*
Y-841243D01*
X-1531013Y1346981D02*
X-1551006D01*
X-1541010D01*
Y1296997D01*
X-1551006Y1287000D01*
X-1561003D01*
X-1571000Y1296997D01*
X-1501023Y1326987D02*
X-1481029D01*
X-1471032Y1316990D01*
Y1287000D01*
X-1501023D01*
X-1511019Y1296997D01*
X-1501023Y1306994D01*
X-1471032D01*
X-1451039Y1287000D02*
Y1326987D01*
X-1421049D01*
X-1411052Y1316990D01*
Y1287000D01*
X-1391058Y1326987D02*
Y1296997D01*
X-1381061Y1287000D01*
X-1351071D01*
Y1326987D01*
X-1321081D02*
X-1301087D01*
X-1291091Y1316990D01*
Y1287000D01*
X-1321081D01*
X-1331078Y1296997D01*
X-1321081Y1306994D01*
X-1291091D01*
X-1271097Y1326987D02*
Y1287000D01*
Y1306994D01*
X-1261100Y1316990D01*
X-1251103Y1326987D01*
X-1241107D01*
X-1211116D02*
Y1296997D01*
X-1201120Y1287000D01*
X-1171129D01*
Y1277003D01*
X-1181126Y1267006D01*
X-1191123D01*
X-1171129Y1287000D02*
Y1326987D01*
X-1051168Y1287000D02*
X-1091155D01*
X-1051168Y1326987D01*
Y1336984D01*
X-1061165Y1346981D01*
X-1081158D01*
X-1091155Y1336984D01*
X-1031175D02*
X-1021178Y1346981D01*
X-1001184D01*
X-991188Y1336984D01*
Y1296997D01*
X-1001184Y1287000D01*
X-1021178D01*
X-1031175Y1296997D01*
Y1336984D01*
X-971194Y1287000D02*
X-951201D01*
X-961197D01*
Y1346981D01*
X-971194Y1336984D01*
X-921210Y1296997D02*
X-911213Y1287000D01*
X-891220D01*
X-881223Y1296997D01*
Y1336984D01*
X-891220Y1346981D01*
X-911213D01*
X-921210Y1336984D01*
Y1326987D01*
X-911213Y1316990D01*
X-881223D01*
X-1569000Y1246971D02*
Y1171995D01*
X-1554005Y1157000D01*
X-1524014D01*
X-1509019Y1171995D01*
Y1246971D01*
X-1419049D02*
X-1479029D01*
Y1157000D01*
X-1419049D01*
X-1479029Y1201986D02*
X-1449039D01*
X-1344073Y1246971D02*
X-1374063D01*
X-1389058Y1231976D01*
Y1171995D01*
X-1374063Y1157000D01*
X-1344073D01*
X-1329078Y1171995D01*
Y1231976D01*
X-1344073Y1246971D01*
X-1209116Y1157000D02*
Y1246971D01*
X-1164131D01*
X-1149136Y1231976D01*
Y1201986D01*
X-1164131Y1186990D01*
X-1209116D01*
X-1179126D02*
X-1149136Y1157000D01*
X-1104150Y1216981D02*
X-1074160D01*
X-1059165Y1201986D01*
Y1157000D01*
X-1104150D01*
X-1119146Y1171995D01*
X-1104150Y1186990D01*
X-1059165D01*
X-969194Y1216981D02*
X-1014179D01*
X-1029175Y1201986D01*
Y1171995D01*
X-1014179Y1157000D01*
X-969194D01*
X-939204D02*
X-909213D01*
X-924208D01*
Y1216981D01*
X-939204D01*
X-864228Y1157000D02*
Y1216981D01*
X-819242D01*
X-804247Y1201986D01*
Y1157000D01*
X-744267Y1127010D02*
X-729271D01*
X-714276Y1142005D01*
Y1216981D01*
X-759262D01*
X-774257Y1201986D01*
Y1171995D01*
X-759262Y1157000D01*
X-714276D01*
X-669291Y1142005D02*
X-654296Y1157000D01*
Y1171995D01*
X-669291D01*
Y1157000D01*
X-654296D01*
X-669291Y1142005D01*
X-684286Y1127010D01*
X-444364Y1246971D02*
X-504344D01*
Y1201986D01*
X-474354D01*
X-504344D01*
Y1157000D01*
X-354393Y1246971D02*
X-414373D01*
Y1157000D01*
X-354393D01*
X-414373Y1201986D02*
X-384383D01*
X-324402Y1246971D02*
X-264422D01*
X-294412D01*
Y1157000D01*
X-144461Y1246971D02*
Y1157000D01*
X-99475D01*
X-84480Y1171995D01*
Y1186990D01*
X-99475Y1201986D01*
X-144461D01*
X-99475D01*
X-84480Y1216981D01*
Y1231976D01*
X-99475Y1246971D01*
X-144461D01*
X-39495Y1157000D02*
X-9504D01*
X5491Y1171995D01*
Y1201986D01*
X-9504Y1216981D01*
X-39495D01*
X-54490Y1201986D01*
Y1171995D01*
X-39495Y1157000D01*
X50476Y1216981D02*
X80467D01*
X95462Y1201986D01*
Y1157000D01*
X50476D01*
X35481Y1171995D01*
X50476Y1186990D01*
X95462D01*
X125452Y1216981D02*
Y1157000D01*
Y1186990D01*
X140447Y1201986D01*
X155442Y1216981D01*
X170438D01*
X275404Y1246971D02*
Y1157000D01*
X230418D01*
X215423Y1171995D01*
Y1201986D01*
X230418Y1216981D01*
X275404D01*
X-1571000Y1386000D02*
Y1445981D01*
X-1531013Y1386000D01*
Y1445981D01*
X-1511019Y1386000D02*
X-1491026D01*
X-1501023D01*
Y1425987D01*
X-1511019D01*
X-1421049D02*
X-1451039D01*
X-1461036Y1415990D01*
Y1395997D01*
X-1451039Y1386000D01*
X-1421049D01*
X-1401055D02*
Y1445981D01*
Y1405994D02*
X-1371065Y1425987D01*
X-1401055Y1405994D02*
X-1371065Y1386000D01*
X-1281094D02*
Y1425987D01*
X-1261100Y1445981D01*
X-1241107Y1425987D01*
Y1386000D01*
Y1415990D01*
X-1281094D01*
X-1221113Y1386000D02*
Y1425987D01*
X-1191123D01*
X-1181126Y1415990D01*
Y1386000D01*
X-1121146Y1445981D02*
Y1386000D01*
X-1151136D01*
X-1161133Y1395997D01*
Y1415990D01*
X-1151136Y1425987D01*
X-1121146D01*
X-1071162Y1386000D02*
X-1091155D01*
X-1101152Y1395997D01*
Y1415990D01*
X-1091155Y1425987D01*
X-1071162D01*
X-1061165Y1415990D01*
Y1405994D01*
X-1101152D01*
X-1041171Y1425987D02*
Y1386000D01*
Y1405994D01*
X-1031175Y1415990D01*
X-1021178Y1425987D01*
X-1011181D01*
X-981191Y1386000D02*
X-951201D01*
X-941204Y1395997D01*
X-951201Y1405994D01*
X-971194D01*
X-981191Y1415990D01*
X-971194Y1425987D01*
X-941204D01*
X-911213Y1386000D02*
X-891220D01*
X-881223Y1395997D01*
Y1415990D01*
X-891220Y1425987D01*
X-911213D01*
X-921210Y1415990D01*
Y1395997D01*
X-911213Y1386000D01*
X-861230D02*
Y1425987D01*
X-831239D01*
X-821242Y1415990D01*
Y1386000D01*
X-701281D02*
X-711278Y1395997D01*
X-721275Y1386000D01*
X-731272D01*
X-741268Y1395997D01*
Y1405994D01*
X-731272Y1415990D01*
X-741268Y1425987D01*
Y1435984D01*
X-731272Y1445981D01*
X-721275D01*
X-711278Y1435984D01*
Y1425987D01*
X-721275Y1415990D01*
X-711278Y1405994D01*
Y1395997D01*
X-701281Y1415990D02*
X-711278Y1405994D01*
X-731272Y1415990D02*
X-721275D01*
X-581320Y1435984D02*
X-591317Y1445981D01*
X-611310D01*
X-621307Y1435984D01*
Y1395997D01*
X-611310Y1386000D01*
X-591317D01*
X-581320Y1395997D01*
X-551330Y1425987D02*
X-531336D01*
X-521340Y1415990D01*
Y1386000D01*
X-551330D01*
X-561327Y1395997D01*
X-551330Y1405994D01*
X-521340D01*
X-501346Y1386000D02*
Y1425987D01*
X-491349D01*
X-481353Y1415990D01*
Y1386000D01*
Y1415990D01*
X-471356Y1425987D01*
X-461359Y1415990D01*
Y1386000D01*
X-441365Y1425987D02*
Y1386000D01*
Y1405994D01*
X-431369Y1415990D01*
X-421372Y1425987D01*
X-411375D01*
X-381385D02*
Y1395997D01*
X-371388Y1386000D01*
X-341398D01*
Y1376003D01*
X-351394Y1366006D01*
X-361391D01*
X-341398Y1386000D02*
Y1425987D01*
X-261424Y1386000D02*
Y1445981D01*
X-241430Y1425987D01*
X-221436Y1445981D01*
Y1386000D01*
X-191446Y1425987D02*
X-171453D01*
X-161456Y1415990D01*
Y1386000D01*
X-191446D01*
X-201443Y1395997D01*
X-191446Y1405994D01*
X-161456D01*
X-141462Y1445981D02*
Y1386000D01*
X-111472D01*
X-101475Y1395997D01*
Y1405994D01*
Y1415990D01*
X-111472Y1425987D01*
X-141462D01*
X-71485Y1386000D02*
X-51492D01*
X-41495Y1395997D01*
Y1415990D01*
X-51492Y1425987D01*
X-71485D01*
X-81482Y1415990D01*
Y1395997D01*
X-71485Y1386000D01*
X-21501D02*
Y1425987D01*
X8489D01*
X18486Y1415990D01*
Y1386000D01*
X965290Y1374613D02*
X931968Y1407935D01*
X865323D01*
X832000Y1374613D01*
Y1341290D01*
X865323Y1307968D01*
X931968D01*
X965290Y1274645D01*
Y1241323D01*
X931968Y1208000D01*
X865323D01*
X832000Y1241323D01*
X1165226Y1407935D02*
X1031935D01*
Y1208000D01*
X1165226D01*
X1031935Y1307968D02*
X1098581D01*
X1231871Y1208000D02*
Y1407935D01*
X1298516Y1341290D01*
X1365161Y1407935D01*
Y1208000D01*
X1555987Y1311984D02*
X1545990Y1321981D01*
X1525997D01*
X1516000Y1311984D01*
Y1301987D01*
X1525997Y1291990D01*
X1545990D01*
X1555987Y1281994D01*
Y1271997D01*
X1545990Y1262000D01*
X1525997D01*
X1516000Y1271997D01*
X1575981Y1321981D02*
Y1262000D01*
Y1291990D01*
X1615968D01*
Y1321981D01*
Y1262000D01*
X1635961D02*
Y1301987D01*
X1655955Y1321981D01*
X1675948Y1301987D01*
Y1262000D01*
Y1291990D01*
X1635961D01*
X409987Y1705984D02*
X399990Y1715981D01*
X379997D01*
X370000Y1705984D01*
Y1695987D01*
X379997Y1685990D01*
X399990D01*
X409987Y1675994D01*
Y1665997D01*
X399990Y1656000D01*
X379997D01*
X370000Y1665997D01*
X429981Y1715981D02*
Y1656000D01*
Y1685990D01*
X469968D01*
Y1715981D01*
Y1656000D01*
X489961Y1715981D02*
Y1656000D01*
X519952D01*
X529948Y1665997D01*
Y1675994D01*
X519952Y1685990D01*
X489961D01*
X519952D01*
X529948Y1695987D01*
Y1705984D01*
X519952Y1715981D01*
X489961D01*
X-1677984Y801987D02*
X-1687981Y791990D01*
Y771997D01*
X-1677984Y762000D01*
X-1667987D01*
X-1657990Y771997D01*
Y791990D01*
X-1647994Y801987D01*
X-1637997D01*
X-1628000Y791990D01*
Y771997D01*
X-1637997Y762000D01*
X-1687981Y821981D02*
X-1628000D01*
X-1657990D01*
Y861968D01*
X-1687981D01*
X-1628000D01*
X-1677984Y921948D02*
X-1687981Y911952D01*
Y891958D01*
X-1677984Y881961D01*
X-1637997D01*
X-1628000Y891958D01*
Y911952D01*
X-1637997Y921948D01*
X-920010Y145000D02*
Y105013D01*
X-900016Y125007D02*
X-940003D01*
X-240010Y155000D02*
Y115013D01*
X-220016Y135006D02*
X-260003D01*
X1409990Y155000D02*
Y115013D01*
X1429984Y135006D02*
X1389997D01*
X837740Y-1266417D02*
X857734D01*
X847737D01*
Y-1206437D01*
X837740Y-1216434D01*
X887724D02*
X897721Y-1206437D01*
X917714D01*
X927711Y-1216434D01*
Y-1226430D01*
X917714Y-1236427D01*
X907717D01*
X917714D01*
X927711Y-1246424D01*
Y-1256420D01*
X917714Y-1266417D01*
X897721D01*
X887724Y-1256420D01*
X-947273Y-1266417D02*
X-987260D01*
X-947273Y-1226430D01*
Y-1216434D01*
X-957270Y-1206437D01*
X-977263D01*
X-987260Y-1216434D01*
X-897289Y-1266417D02*
Y-1206437D01*
X-927279Y-1236427D01*
X-887292D01*
X-1651997Y486050D02*
X-1691984D01*
X-1701981Y476053D01*
Y456060D01*
X-1691984Y446063D01*
X-1651997D01*
X-1642000Y456060D01*
Y476053D01*
X-1661994Y466057D02*
X-1642000Y486050D01*
Y476053D02*
X-1651997Y486050D01*
X-1701981Y546031D02*
X-1691984Y526037D01*
X-1671990Y506044D01*
X-1651997D01*
X-1642000Y516040D01*
Y536034D01*
X-1651997Y546031D01*
X-1661994D01*
X-1671990Y536034D01*
Y506044D01*
X1038987Y1041997D02*
Y1081984D01*
X1028990Y1091981D01*
X1008997D01*
X999000Y1081984D01*
Y1041997D01*
X1008997Y1032000D01*
X1028990D01*
X1018994Y1051994D02*
X1038987Y1032000D01*
X1028990D02*
X1038987Y1041997D01*
X1058981Y1032000D02*
X1078974D01*
X1068977D01*
Y1091981D01*
X1058981Y1081984D01*
X-1717500Y-160519D02*
X-1677513D01*
X-1697506D01*
Y-220500D01*
X-1657519D02*
Y-160519D01*
X-1627529D01*
X-1617532Y-170516D01*
Y-190510D01*
X-1627529Y-200506D01*
X-1657519D01*
X-1597539Y-220500D02*
X-1577545D01*
X-1587542D01*
Y-160519D01*
X-1597539Y-170516D01*
X-1547555D02*
X-1537558Y-160519D01*
X-1517565D01*
X-1507568Y-170516D01*
Y-180513D01*
X-1517565Y-190510D01*
X-1527562D01*
X-1517565D01*
X-1507568Y-200506D01*
Y-210503D01*
X-1517565Y-220500D01*
X-1537558D01*
X-1547555Y-210503D01*
X366000Y1802981D02*
X405987D01*
X385993D01*
Y1743000D01*
X425981D02*
Y1802981D01*
X455971D01*
X465968Y1792984D01*
Y1772990D01*
X455971Y1762994D01*
X425981D01*
X525948Y1743000D02*
X485961D01*
X525948Y1782987D01*
Y1792984D01*
X515952Y1802981D01*
X495958D01*
X485961Y1792984D01*
X-1373981Y1684000D02*
Y1723987D01*
Y1703994D01*
X-1314000D01*
Y1743981D02*
X-1373981D01*
Y1773971D01*
X-1363984Y1783968D01*
X-1343990D01*
X-1333994Y1773971D01*
Y1743981D01*
X-1314000Y1803961D02*
Y1823955D01*
Y1813958D01*
X-1373981D01*
X-1363984Y1803961D01*
X580000Y-1225000D02*
Y-1165019D01*
X609990D01*
X619987Y-1175016D01*
Y-1195010D01*
X609990Y-1205006D01*
X580000D01*
X599994D02*
X619987Y-1225000D01*
X679968D02*
X639981D01*
X679968Y-1185013D01*
Y-1175016D01*
X669971Y-1165019D01*
X649977D01*
X639981Y-1175016D01*
X739948Y-1165019D02*
X699961D01*
Y-1195010D01*
X719955Y-1185013D01*
X729952D01*
X739948Y-1195010D01*
Y-1215003D01*
X729952Y-1225000D01*
X709958D01*
X699961Y-1215003D01*
X331638Y-853000D02*
Y-793019D01*
X361628D01*
X371625Y-803016D01*
Y-823010D01*
X361628Y-833006D01*
X331638D01*
X351632D02*
X371625Y-853000D01*
X431606D02*
X391619D01*
X431606Y-813013D01*
Y-803016D01*
X421609Y-793019D01*
X401616D01*
X391619Y-803016D01*
X481590Y-853000D02*
Y-793019D01*
X451599Y-823010D01*
X491587D01*
X-144000Y-1155000D02*
Y-1095019D01*
X-114010D01*
X-104013Y-1105016D01*
Y-1125010D01*
X-114010Y-1135006D01*
X-144000D01*
X-124007D02*
X-104013Y-1155000D01*
X-44032D02*
X-84019D01*
X-44032Y-1115013D01*
Y-1105016D01*
X-54029Y-1095019D01*
X-74023D01*
X-84019Y-1105016D01*
X-24039D02*
X-14042Y-1095019D01*
X5952D01*
X15948Y-1105016D01*
Y-1115013D01*
X5952Y-1125010D01*
X-4045D01*
X5952D01*
X15948Y-1135006D01*
Y-1145003D01*
X5952Y-1155000D01*
X-14042D01*
X-24039Y-1145003D01*
X545987Y-1101016D02*
X535990Y-1091019D01*
X515997D01*
X506000Y-1101016D01*
Y-1141003D01*
X515997Y-1151000D01*
X535990D01*
X545987Y-1141003D01*
X605968Y-1151000D02*
X565981D01*
X605968Y-1111013D01*
Y-1101016D01*
X595971Y-1091019D01*
X575977D01*
X565981Y-1101016D01*
X625961Y-1151000D02*
X645955D01*
X635958D01*
Y-1091019D01*
X625961Y-1101016D01*
X368514Y-879502D02*
X358517Y-869505D01*
X338524D01*
X328527Y-879502D01*
Y-919489D01*
X338524Y-929486D01*
X358517D01*
X368514Y-919489D01*
X428495Y-929486D02*
X388508D01*
X428495Y-889499D01*
Y-879502D01*
X418498Y-869505D01*
X398505D01*
X388508Y-879502D01*
X448488D02*
X458485Y-869505D01*
X478479D01*
X488476Y-879502D01*
Y-919489D01*
X478479Y-929486D01*
X458485D01*
X448488Y-919489D01*
Y-879502D01*
X-104013Y-1191016D02*
X-114010Y-1181019D01*
X-134003D01*
X-144000Y-1191016D01*
Y-1231003D01*
X-134003Y-1241000D01*
X-114010D01*
X-104013Y-1231003D01*
X-84019Y-1241000D02*
X-64026D01*
X-74023D01*
Y-1181019D01*
X-84019Y-1191016D01*
X-34036Y-1231003D02*
X-24039Y-1241000D01*
X-4045D01*
X5952Y-1231003D01*
Y-1191016D01*
X-4045Y-1181019D01*
X-24039D01*
X-34036Y-1191016D01*
Y-1201013D01*
X-24039Y-1211010D01*
X5952D01*
X-234000Y-498426D02*
Y-548410D01*
X-224003Y-558406D01*
X-204010D01*
X-194013Y-548410D01*
Y-498426D01*
X-134032Y-558406D02*
X-174019D01*
X-134032Y-518419D01*
Y-508423D01*
X-144029Y-498426D01*
X-164023D01*
X-174019Y-508423D01*
X1394000Y-1169019D02*
Y-1219003D01*
X1403997Y-1229000D01*
X1423990D01*
X1433987Y-1219003D01*
Y-1169019D01*
X1453981Y-1229000D02*
X1473974D01*
X1463977D01*
Y-1169019D01*
X1453981Y-1179016D01*
X1509000Y1534981D02*
X1548987D01*
X1528994D01*
Y1475000D01*
X1568981D02*
Y1534981D01*
X1598971D01*
X1608968Y1524984D01*
Y1504990D01*
X1598971Y1494994D01*
X1568981D01*
X1628961Y1524984D02*
X1638958Y1534981D01*
X1658951D01*
X1668948Y1524984D01*
Y1514987D01*
X1658951Y1504990D01*
X1648955D01*
X1658951D01*
X1668948Y1494994D01*
Y1484997D01*
X1658951Y1475000D01*
X1638958D01*
X1628961Y1484997D01*
X508000Y-1077000D02*
Y-1017019D01*
X537990D01*
X547987Y-1027016D01*
Y-1047010D01*
X537990Y-1057006D01*
X508000D01*
X527994D02*
X547987Y-1077000D01*
X607968D02*
X567981D01*
X607968Y-1037013D01*
Y-1027016D01*
X597971Y-1017019D01*
X577977D01*
X567981Y-1027016D01*
X667948Y-1077000D02*
X627961D01*
X667948Y-1037013D01*
Y-1027016D01*
X657952Y-1017019D01*
X637958D01*
X627961Y-1027016D01*
X331638Y-770000D02*
Y-710019D01*
X361628D01*
X371625Y-720016D01*
Y-740010D01*
X361628Y-750006D01*
X331638D01*
X351632D02*
X371625Y-770000D01*
X431606D02*
X391619D01*
X431606Y-730013D01*
Y-720016D01*
X421609Y-710019D01*
X401616D01*
X391619Y-720016D01*
X451599Y-770000D02*
X471593D01*
X461596D01*
Y-710019D01*
X451599Y-720016D01*
X-97000Y-1065000D02*
Y-1005019D01*
X-67010D01*
X-57013Y-1015016D01*
Y-1035010D01*
X-67010Y-1045006D01*
X-97000D01*
X-77007D02*
X-57013Y-1065000D01*
X2968D02*
X-37019D01*
X2968Y-1025013D01*
Y-1015016D01*
X-7029Y-1005019D01*
X-27023D01*
X-37019Y-1015016D01*
X22961D02*
X32958Y-1005019D01*
X52952D01*
X62948Y-1015016D01*
Y-1055003D01*
X52952Y-1065000D01*
X32958D01*
X22961Y-1055003D01*
Y-1015016D01*
X-472000Y-995559D02*
Y-935578D01*
X-442010D01*
X-432013Y-945575D01*
Y-965569D01*
X-442010Y-975566D01*
X-472000D01*
X-452007D02*
X-432013Y-995559D01*
X-412019D02*
X-392026D01*
X-402023D01*
Y-935578D01*
X-412019Y-945575D01*
X-362036Y-985562D02*
X-352039Y-995559D01*
X-332045D01*
X-322048Y-985562D01*
Y-945575D01*
X-332045Y-935578D01*
X-352039D01*
X-362036Y-945575D01*
Y-955572D01*
X-352039Y-965569D01*
X-322048D01*
X-598000Y-721000D02*
Y-661019D01*
X-568010D01*
X-558013Y-671016D01*
Y-691010D01*
X-568010Y-701006D01*
X-598000D01*
X-578006D02*
X-558013Y-721000D01*
X-538019D02*
X-518026D01*
X-528023D01*
Y-661019D01*
X-538019Y-671016D01*
X-488036D02*
X-478039Y-661019D01*
X-458045D01*
X-448048Y-671016D01*
Y-681013D01*
X-458045Y-691010D01*
X-448048Y-701006D01*
Y-711003D01*
X-458045Y-721000D01*
X-478039D01*
X-488036Y-711003D01*
Y-701006D01*
X-478039Y-691010D01*
X-488036Y-681013D01*
Y-671016D01*
X-478039Y-691010D02*
X-458045D01*
X-1470000Y218000D02*
Y277981D01*
X-1440010D01*
X-1430013Y267984D01*
Y247990D01*
X-1440010Y237994D01*
X-1470000D01*
X-1450006D02*
X-1430013Y218000D01*
X-1410019D02*
X-1390026D01*
X-1400023D01*
Y277981D01*
X-1410019Y267984D01*
X-1360036Y277981D02*
X-1320049D01*
Y267984D01*
X-1360036Y227997D01*
Y218000D01*
X280000D02*
Y277981D01*
X309990D01*
X319987Y267984D01*
Y247990D01*
X309990Y237994D01*
X280000D01*
X299993D02*
X319987Y218000D01*
X339981D02*
X359974D01*
X349977D01*
Y277981D01*
X339981Y267984D01*
X429952Y277981D02*
X409958Y267984D01*
X389964Y247990D01*
Y227997D01*
X399961Y218000D01*
X419955D01*
X429952Y227997D01*
Y237994D01*
X419955Y247990D01*
X389964D01*
X853000Y210000D02*
Y269981D01*
X882990D01*
X892987Y259984D01*
Y239990D01*
X882990Y229994D01*
X853000D01*
X872994D02*
X892987Y210000D01*
X912981D02*
X932974D01*
X922977D01*
Y269981D01*
X912981Y259984D01*
X1002952Y269981D02*
X962964D01*
Y239990D01*
X982958Y249987D01*
X992955D01*
X1002952Y239990D01*
Y219997D01*
X992955Y210000D01*
X972961D01*
X962964Y219997D01*
X-546000Y319000D02*
X-605981D01*
Y348990D01*
X-595984Y358987D01*
X-575990D01*
X-565994Y348990D01*
Y319000D01*
Y338993D02*
X-546000Y358987D01*
Y378981D02*
Y398974D01*
Y388977D01*
X-605981D01*
X-595984Y378981D01*
X-546000Y458955D02*
X-605981D01*
X-575990Y428964D01*
Y468952D01*
X621000Y1072000D02*
X561019D01*
Y1101990D01*
X571016Y1111987D01*
X591010D01*
X601006Y1101990D01*
Y1072000D01*
Y1091994D02*
X621000Y1111987D01*
Y1131981D02*
Y1151974D01*
Y1141977D01*
X561019D01*
X571016Y1131981D01*
Y1181964D02*
X561019Y1191961D01*
Y1211955D01*
X571016Y1221951D01*
X581013D01*
X591010Y1211955D01*
Y1201958D01*
Y1211955D01*
X601006Y1221951D01*
X611003D01*
X621000Y1211955D01*
Y1191961D01*
X611003Y1181964D01*
X-264000Y-912656D02*
Y-852675D01*
X-234010D01*
X-224013Y-862672D01*
Y-882666D01*
X-234010Y-892662D01*
X-264000D01*
X-244006D02*
X-224013Y-912656D01*
X-204019D02*
X-184026D01*
X-194023D01*
Y-852675D01*
X-204019Y-862672D01*
X-114049Y-912656D02*
X-154036D01*
X-114049Y-872669D01*
Y-862672D01*
X-124045Y-852675D01*
X-144039D01*
X-154036Y-862672D01*
X-625000Y-1103000D02*
Y-1043019D01*
X-595010D01*
X-585013Y-1053016D01*
Y-1073010D01*
X-595010Y-1083006D01*
X-625000D01*
X-605006D02*
X-585013Y-1103000D01*
X-565019D02*
X-545026D01*
X-555023D01*
Y-1043019D01*
X-565019Y-1053016D01*
X-515036Y-1103000D02*
X-495042D01*
X-505039D01*
Y-1043019D01*
X-515036Y-1053016D01*
X758024Y-935501D02*
Y-875520D01*
X788014D01*
X798011Y-885517D01*
Y-905510D01*
X788014Y-915507D01*
X758024D01*
X778018D02*
X798011Y-935501D01*
X818005D02*
X837998D01*
X828001D01*
Y-875520D01*
X818005Y-885517D01*
X867988D02*
X877985Y-875520D01*
X897979D01*
X907976Y-885517D01*
Y-925504D01*
X897979Y-935501D01*
X877985D01*
X867988Y-925504D01*
Y-885517D01*
X768000Y-674000D02*
Y-614019D01*
X797990D01*
X807987Y-624016D01*
Y-644010D01*
X797990Y-654006D01*
X768000D01*
X787994D02*
X807987Y-674000D01*
X827981Y-664003D02*
X837977Y-674000D01*
X857971D01*
X867968Y-664003D01*
Y-624016D01*
X857971Y-614019D01*
X837977D01*
X827981Y-624016D01*
Y-634013D01*
X837977Y-644010D01*
X867968D01*
X-1484000Y-728000D02*
Y-668019D01*
X-1454010D01*
X-1444013Y-678016D01*
Y-698010D01*
X-1454010Y-708006D01*
X-1484000D01*
X-1464006D02*
X-1444013Y-728000D01*
X-1424019Y-678016D02*
X-1414023Y-668019D01*
X-1394029D01*
X-1384032Y-678016D01*
Y-688013D01*
X-1394029Y-698010D01*
X-1384032Y-708006D01*
Y-718003D01*
X-1394029Y-728000D01*
X-1414023D01*
X-1424019Y-718003D01*
Y-708006D01*
X-1414023Y-698010D01*
X-1424019Y-688013D01*
Y-678016D01*
X-1414023Y-698010D02*
X-1394029D01*
X-1482000Y-817984D02*
Y-758004D01*
X-1452010D01*
X-1442013Y-768000D01*
Y-787994D01*
X-1452010Y-797991D01*
X-1482000D01*
X-1462006D02*
X-1442013Y-817984D01*
X-1422019Y-758004D02*
X-1382032D01*
Y-768000D01*
X-1422019Y-807987D01*
Y-817984D01*
X-1482000Y-904000D02*
Y-844019D01*
X-1452010D01*
X-1442013Y-854016D01*
Y-874010D01*
X-1452010Y-884006D01*
X-1482000D01*
X-1462006D02*
X-1442013Y-904000D01*
X-1382032Y-844019D02*
X-1402026Y-854016D01*
X-1422019Y-874010D01*
Y-894003D01*
X-1412023Y-904000D01*
X-1392029D01*
X-1382032Y-894003D01*
Y-884006D01*
X-1392029Y-874010D01*
X-1422019D01*
X-1200000Y-1314000D02*
Y-1254019D01*
X-1170010D01*
X-1160013Y-1264016D01*
Y-1284010D01*
X-1170010Y-1294006D01*
X-1200000D01*
X-1180006D02*
X-1160013Y-1314000D01*
X-1100032Y-1254019D02*
X-1140019D01*
Y-1284010D01*
X-1120026Y-1274013D01*
X-1110029D01*
X-1100032Y-1284010D01*
Y-1304003D01*
X-1110029Y-1314000D01*
X-1130023D01*
X-1140019Y-1304003D01*
X-1203000Y-1228000D02*
Y-1168019D01*
X-1173010D01*
X-1163013Y-1178016D01*
Y-1198010D01*
X-1173010Y-1208006D01*
X-1203000D01*
X-1183006D02*
X-1163013Y-1228000D01*
X-1113029D02*
Y-1168019D01*
X-1143019Y-1198010D01*
X-1103032D01*
X-1206000Y-1141000D02*
Y-1081019D01*
X-1176010D01*
X-1166013Y-1091016D01*
Y-1111010D01*
X-1176010Y-1121006D01*
X-1206000D01*
X-1186006D02*
X-1166013Y-1141000D01*
X-1146019Y-1091016D02*
X-1136023Y-1081019D01*
X-1116029D01*
X-1106032Y-1091016D01*
Y-1101013D01*
X-1116029Y-1111010D01*
X-1126026D01*
X-1116029D01*
X-1106032Y-1121006D01*
Y-1131003D01*
X-1116029Y-1141000D01*
X-1136023D01*
X-1146019Y-1131003D01*
X1643000Y-1499000D02*
X1583019D01*
Y-1469010D01*
X1593016Y-1459013D01*
X1613010D01*
X1623006Y-1469010D01*
Y-1499000D01*
Y-1479006D02*
X1643000Y-1459013D01*
Y-1399032D02*
Y-1439019D01*
X1603013Y-1399032D01*
X1593016D01*
X1583019Y-1409029D01*
Y-1429023D01*
X1593016Y-1439019D01*
X1695675Y-1519488D02*
X1635694D01*
Y-1489498D01*
X1645691Y-1479501D01*
X1665685D01*
X1675681Y-1489498D01*
Y-1519488D01*
Y-1499495D02*
X1695675Y-1479501D01*
Y-1459508D02*
Y-1439514D01*
Y-1449511D01*
X1635694D01*
X1645691Y-1459508D01*
X-1648997Y620562D02*
X-1688984D01*
X-1698981Y610565D01*
Y590572D01*
X-1688984Y580575D01*
X-1648997D01*
X-1639000Y590572D01*
Y610565D01*
X-1658994Y600568D02*
X-1639000Y620562D01*
Y610565D02*
X-1648997Y620562D01*
X-1698981Y680543D02*
Y640555D01*
X-1668990D01*
X-1678987Y660549D01*
Y670546D01*
X-1668990Y680543D01*
X-1648997D01*
X-1639000Y670546D01*
Y650552D01*
X-1648997Y640555D01*
X349987Y1047997D02*
Y1087984D01*
X339990Y1097981D01*
X319997D01*
X310000Y1087984D01*
Y1047997D01*
X319997Y1038000D01*
X339990D01*
X329993Y1057994D02*
X349987Y1038000D01*
X339990D02*
X349987Y1047997D01*
X399971Y1038000D02*
Y1097981D01*
X369981Y1067990D01*
X409968D01*
X221987Y1047997D02*
Y1087984D01*
X211990Y1097981D01*
X191997D01*
X182000Y1087984D01*
Y1047997D01*
X191997Y1038000D01*
X211990D01*
X201994Y1057994D02*
X221987Y1038000D01*
X211990D02*
X221987Y1047997D01*
X241981Y1087984D02*
X251977Y1097981D01*
X271971D01*
X281968Y1087984D01*
Y1077987D01*
X271971Y1067990D01*
X261974D01*
X271971D01*
X281968Y1057994D01*
Y1047997D01*
X271971Y1038000D01*
X251977D01*
X241981Y1047997D01*
X908987Y1041997D02*
Y1081984D01*
X898990Y1091981D01*
X878997D01*
X869000Y1081984D01*
Y1041997D01*
X878997Y1032000D01*
X898990D01*
X888994Y1051994D02*
X908987Y1032000D01*
X898990D02*
X908987Y1041997D01*
X968968Y1032000D02*
X928981D01*
X968968Y1071987D01*
Y1081984D01*
X958971Y1091981D01*
X938977D01*
X928981Y1081984D01*
X1289373Y-1329019D02*
Y-1389000D01*
X1329360D01*
X1349353D02*
X1369347D01*
X1359350D01*
Y-1329019D01*
X1349353Y-1339016D01*
X-1660513Y-757019D02*
X-1680506D01*
X-1670510D01*
Y-807003D01*
X-1680506Y-817000D01*
X-1690503D01*
X-1700500Y-807003D01*
X-1600532Y-757019D02*
X-1620526Y-767016D01*
X-1640519Y-787010D01*
Y-807003D01*
X-1630523Y-817000D01*
X-1610529D01*
X-1600532Y-807003D01*
Y-797006D01*
X-1610529Y-787010D01*
X-1640519D01*
X-381981Y1679987D02*
Y1659994D01*
Y1669990D01*
X-331997D01*
X-322000Y1659994D01*
Y1649997D01*
X-331997Y1640000D01*
X-381981Y1739968D02*
Y1699981D01*
X-351990D01*
X-361987Y1719974D01*
Y1729971D01*
X-351990Y1739968D01*
X-331997D01*
X-322000Y1729971D01*
Y1709977D01*
X-331997Y1699981D01*
X1295019Y1789987D02*
Y1769994D01*
Y1779990D01*
X1345003D01*
X1355000Y1769994D01*
Y1759997D01*
X1345003Y1750000D01*
X1355000Y1839971D02*
X1295019D01*
X1325010Y1809981D01*
Y1849968D01*
X-1198950Y-1608019D02*
X-1218944D01*
X-1208947D01*
Y-1658003D01*
X-1218944Y-1668000D01*
X-1228940D01*
X-1238937Y-1658003D01*
X-1178956Y-1618016D02*
X-1168960Y-1608019D01*
X-1148966D01*
X-1138969Y-1618016D01*
Y-1628013D01*
X-1148966Y-1638010D01*
X-1158963D01*
X-1148966D01*
X-1138969Y-1648006D01*
Y-1658003D01*
X-1148966Y-1668000D01*
X-1168960D01*
X-1178956Y-1658003D01*
X-1349981Y1552987D02*
Y1532994D01*
Y1542990D01*
X-1299997D01*
X-1290000Y1532994D01*
Y1522997D01*
X-1299997Y1513000D01*
X-1290000Y1612968D02*
Y1572981D01*
X-1329987Y1612968D01*
X-1339984D01*
X-1349981Y1602971D01*
Y1582977D01*
X-1339984Y1572981D01*
X1638987Y-1033019D02*
X1618994D01*
X1628990D01*
Y-1083003D01*
X1618994Y-1093000D01*
X1608997D01*
X1599000Y-1083003D01*
X1658981Y-1093000D02*
X1678974D01*
X1668977D01*
Y-1033019D01*
X1658981Y-1043016D01*
X-461000Y1025981D02*
Y966000D01*
X-431010D01*
X-421013Y975997D01*
Y1015984D01*
X-431010Y1025981D01*
X-461000D01*
X-371029Y966000D02*
Y1025981D01*
X-401019Y995990D01*
X-361032D01*
X536000Y1327981D02*
Y1268000D01*
X565990D01*
X575987Y1277997D01*
Y1317984D01*
X565990Y1327981D01*
X536000D01*
X595981Y1317984D02*
X605977Y1327981D01*
X625971D01*
X635968Y1317984D01*
Y1307987D01*
X625971Y1297990D01*
X615974D01*
X625971D01*
X635968Y1287994D01*
Y1277997D01*
X625971Y1268000D01*
X605977D01*
X595981Y1277997D01*
X975000Y-885019D02*
Y-945000D01*
X1004990D01*
X1014987Y-935003D01*
Y-895016D01*
X1004990Y-885019D01*
X975000D01*
X1074968Y-945000D02*
X1034981D01*
X1074968Y-905013D01*
Y-895016D01*
X1064971Y-885019D01*
X1044977D01*
X1034981Y-895016D01*
X951000Y-623701D02*
Y-683681D01*
X980990D01*
X990987Y-673684D01*
Y-633697D01*
X980990Y-623701D01*
X951000D01*
X1010981Y-683681D02*
X1030974D01*
X1020977D01*
Y-623701D01*
X1010981Y-633697D01*
X1094016Y-1843013D02*
X1084019Y-1853010D01*
Y-1873003D01*
X1094016Y-1883000D01*
X1134003D01*
X1144000Y-1873003D01*
Y-1853010D01*
X1134003Y-1843013D01*
X1144000Y-1823019D02*
Y-1803026D01*
Y-1813023D01*
X1084019D01*
X1094016Y-1823019D01*
X1084019Y-1773036D02*
Y-1733049D01*
X1094016D01*
X1134003Y-1773036D01*
X1144000D01*
X-317013Y-1172016D02*
X-327010Y-1162019D01*
X-347003D01*
X-357000Y-1172016D01*
Y-1212003D01*
X-347003Y-1222000D01*
X-327010D01*
X-317013Y-1212003D01*
X-297019Y-1222000D02*
X-277026D01*
X-287023D01*
Y-1162019D01*
X-297019Y-1172016D01*
X-207048Y-1162019D02*
X-227042Y-1172016D01*
X-247036Y-1192010D01*
Y-1212003D01*
X-237039Y-1222000D01*
X-217045D01*
X-207048Y-1212003D01*
Y-1202006D01*
X-217045Y-1192010D01*
X-247036D01*
X524042Y-514016D02*
X514045Y-504019D01*
X494052D01*
X484055Y-514016D01*
Y-554003D01*
X494052Y-564000D01*
X514045D01*
X524042Y-554003D01*
X544036Y-564000D02*
X564029D01*
X554033D01*
Y-504019D01*
X544036Y-514016D01*
X634007Y-504019D02*
X594020D01*
Y-534010D01*
X614013Y-524013D01*
X624010D01*
X634007Y-534010D01*
Y-554003D01*
X624010Y-564000D01*
X604016D01*
X594020Y-554003D01*
X521963Y-597016D02*
X511966Y-587019D01*
X491973D01*
X481976Y-597016D01*
Y-637003D01*
X491973Y-647000D01*
X511966D01*
X521963Y-637003D01*
X541957Y-647000D02*
X561950D01*
X551953D01*
Y-587019D01*
X541957Y-597016D01*
X621931Y-647000D02*
Y-587019D01*
X591940Y-617010D01*
X631928D01*
X525987Y-431016D02*
X515990Y-421019D01*
X495997D01*
X486000Y-431016D01*
Y-471003D01*
X495997Y-481000D01*
X515990D01*
X525987Y-471003D01*
X545981Y-481000D02*
X565974D01*
X555977D01*
Y-421019D01*
X545981Y-431016D01*
X595964D02*
X605961Y-421019D01*
X625955D01*
X635952Y-431016D01*
Y-441013D01*
X625955Y-451010D01*
X615958D01*
X625955D01*
X635952Y-461007D01*
Y-471003D01*
X625955Y-481000D01*
X605961D01*
X595964Y-471003D01*
X-1663984Y-1504013D02*
X-1673981Y-1514010D01*
Y-1534003D01*
X-1663984Y-1544000D01*
X-1623997D01*
X-1614000Y-1534003D01*
Y-1514010D01*
X-1623997Y-1504013D01*
Y-1484019D02*
X-1614000Y-1474023D01*
Y-1454029D01*
X-1623997Y-1444032D01*
X-1663984D01*
X-1673981Y-1454029D01*
Y-1474023D01*
X-1663984Y-1484019D01*
X-1653987D01*
X-1643990Y-1474023D01*
Y-1444032D01*
X-1388984Y-1736013D02*
X-1398981Y-1746010D01*
Y-1766003D01*
X-1388984Y-1776000D01*
X-1348997D01*
X-1339000Y-1766003D01*
Y-1746010D01*
X-1348997Y-1736013D01*
X-1388984Y-1716019D02*
X-1398981Y-1706023D01*
Y-1686029D01*
X-1388984Y-1676032D01*
X-1378987D01*
X-1368990Y-1686029D01*
X-1358994Y-1676032D01*
X-1348997D01*
X-1339000Y-1686029D01*
Y-1706023D01*
X-1348997Y-1716019D01*
X-1358994D01*
X-1368990Y-1706023D01*
X-1378987Y-1716019D01*
X-1388984D01*
X-1368990Y-1706023D02*
Y-1686029D01*
X-1339984Y-1490013D02*
X-1349981Y-1500010D01*
Y-1520003D01*
X-1339984Y-1530000D01*
X-1299997D01*
X-1290000Y-1520003D01*
Y-1500010D01*
X-1299997Y-1490013D01*
X-1349981Y-1470019D02*
Y-1430032D01*
X-1339984D01*
X-1299997Y-1470019D01*
X-1290000D01*
X-587013Y68984D02*
X-597010Y78981D01*
X-617003D01*
X-627000Y68984D01*
Y28997D01*
X-617003Y19000D01*
X-597010D01*
X-587013Y28997D01*
X-527032Y78981D02*
X-547026Y68984D01*
X-567019Y48990D01*
Y28997D01*
X-557023Y19000D01*
X-537029D01*
X-527032Y28997D01*
Y38993D01*
X-537029Y48990D01*
X-567019D01*
X-1250258Y151984D02*
X-1260255Y161981D01*
X-1280249D01*
X-1290245Y151984D01*
Y111997D01*
X-1280249Y102000D01*
X-1260255D01*
X-1250258Y111997D01*
X-1190278Y161981D02*
X-1230265D01*
Y131990D01*
X-1210271Y141987D01*
X-1200275D01*
X-1190278Y131990D01*
Y111997D01*
X-1200275Y102000D01*
X-1220268D01*
X-1230265Y111997D01*
X1130987Y258984D02*
X1120990Y268981D01*
X1100997D01*
X1091000Y258984D01*
Y218997D01*
X1100997Y209000D01*
X1120990D01*
X1130987Y218997D01*
X1180971Y209000D02*
Y268981D01*
X1150981Y238990D01*
X1190968D01*
X1191701Y-1796013D02*
X1181704Y-1806010D01*
Y-1826003D01*
X1191701Y-1836000D01*
X1231688D01*
X1241685Y-1826003D01*
Y-1806010D01*
X1231688Y-1796013D01*
X1191701Y-1776019D02*
X1181704Y-1766023D01*
Y-1746029D01*
X1191701Y-1736032D01*
X1201698D01*
X1211695Y-1746029D01*
Y-1756026D01*
Y-1746029D01*
X1221691Y-1736032D01*
X1231688D01*
X1241685Y-1746029D01*
Y-1766023D01*
X1231688Y-1776019D01*
X1215987Y-1221016D02*
X1205990Y-1211019D01*
X1185997D01*
X1176000Y-1221016D01*
Y-1261003D01*
X1185997Y-1271000D01*
X1205990D01*
X1215987Y-1261003D01*
X1275968Y-1271000D02*
X1235981D01*
X1275968Y-1231013D01*
Y-1221016D01*
X1265971Y-1211019D01*
X1245977D01*
X1235981Y-1221016D01*
X1172987Y-1379016D02*
X1162990Y-1369019D01*
X1142997D01*
X1133000Y-1379016D01*
Y-1419003D01*
X1142997Y-1429000D01*
X1162990D01*
X1172987Y-1419003D01*
X1192981Y-1429000D02*
X1212974D01*
X1202977D01*
Y-1369019D01*
X1192981Y-1379016D01*
D76*
X-1547401Y451969D02*
G03*
X-1547401Y451969I-4921J0D01*
G01*
X-772756Y950575D02*
G03*
X-772756Y950575I-4921J0D01*
G01*
X-92756Y948032D02*
G03*
X-92756Y948032I-4921J0D01*
G01*
X112599Y451969D02*
G03*
X112599Y451969I-4921J0D01*
G01*
X1555244Y946032D02*
G03*
X1555244Y946032I-4921J0D01*
G01*
X782598Y451969D02*
G03*
X782598Y451969I-4921J0D01*
G01*
X1495055Y-1394866D02*
G03*
X1495055Y-1394866I-4921J0D01*
G01*
X224848Y-692729D02*
G03*
X224848Y-692729I-4921J0D01*
G01*
D77*
X394315Y1842567D02*
X433685D01*
Y1913433D01*
X394315D02*
X433685D01*
X394315Y1842567D02*
Y1913433D01*
X-1368685Y1842567D02*
X-1329315D01*
Y1913433D01*
X-1368685D02*
X-1329315D01*
X-1368685Y1842567D02*
Y1913433D01*
X1580315Y1359567D02*
X1619685D01*
Y1430433D01*
X1580315D02*
X1619685D01*
X1580315Y1359567D02*
Y1430433D01*
X-1720685Y-328433D02*
Y-257567D01*
X-1681315D01*
Y-328433D02*
Y-257567D01*
X-1720685Y-328433D02*
X-1681315D01*
D78*
X-1207244Y591732D02*
Y662598D01*
X-1612756Y591732D02*
X-1207244D01*
X-1612756D02*
Y662598D01*
X-1122756Y739945D02*
Y810811D01*
X-717244D01*
Y739945D02*
Y810811D01*
X-442756Y737402D02*
Y808268D01*
X-37244D01*
Y737402D02*
Y808268D01*
X452756Y591732D02*
Y662598D01*
X47244Y591732D02*
X452756D01*
X47244D02*
Y662598D01*
X1205244Y735402D02*
Y806268D01*
X1610756D01*
Y735402D02*
Y806268D01*
X1122756Y591732D02*
Y662598D01*
X717244Y591732D02*
X1122756D01*
X717244D02*
Y662598D01*
X956024Y-70866D02*
Y70866D01*
X1083976Y-70866D02*
Y70866D01*
X1565378Y-1657118D02*
Y-1546882D01*
X1312622Y-1657118D02*
Y-1546882D01*
X1416315Y-1385024D02*
X1455685D01*
X1416315Y-1262976D02*
X1455685D01*
Y-1385024D02*
Y-1262976D01*
X1416315Y-1385024D02*
Y-1262976D01*
X1212158Y-1298378D02*
X1231842D01*
X1212158Y-1345622D02*
X1231842D01*
X1231622Y-1523842D02*
Y-1504158D01*
X1184378Y-1523842D02*
Y-1504158D01*
X1232622Y-1660842D02*
Y-1641158D01*
X1185378Y-1660842D02*
Y-1641158D01*
X323158Y-440378D02*
X342842D01*
X323158Y-487622D02*
X342842D01*
X-11832Y-520824D02*
X0Y-508993D01*
X11832Y-520824D01*
X-206007Y-715000D02*
X-194176Y-703168D01*
X-206007Y-715000D02*
X-194176Y-726832D01*
X-11832Y-909176D02*
X0Y-921008D01*
X11832Y-909176D01*
X194176Y-726832D02*
X206007Y-715000D01*
X194176Y-703168D02*
X206007Y-715000D01*
X-262181Y-1084378D02*
X-242496D01*
X-262181Y-1131622D02*
X-242496D01*
X-1336024Y-70866D02*
Y70866D01*
X-1463976Y-70866D02*
Y70866D01*
X413976Y-70866D02*
Y70866D01*
X286024Y-70866D02*
Y70866D01*
D79*
X1055409Y-862000D02*
X1065409D01*
X1060409Y-866842D02*
Y-857000D01*
X1053000Y-761000D02*
X1063000D01*
X1058000Y-765842D02*
Y-756000D01*
%TF.MD5,62a7311de850e3ccf8255b6a389bf3d5*%
M02*
