%TF.GenerationSoftware,Altium Limited,Altium Designer,19.0.10 (269)*%
G04 Layer_Color=32768*
%FSLAX26Y26*%
%MOIN*%
%TF.FileFunction,Other,Mechanical_15*%
%TF.Part,Single*%
G01*
G75*
%TA.AperFunction,NonConductor*%
%ADD79C,0.003937*%
%ADD99C,0.001968*%
D79*
X-659997Y-43429D02*
G03*
X-659997Y-43429I-260000J0D01*
G01*
X20003Y-33429D02*
G03*
X20003Y-33429I-260000J0D01*
G01*
X1670003D02*
G03*
X1670003Y-33429I-260000J0D01*
G01*
X-533512Y-834716D02*
Y-799283D01*
X-551228Y-817000D02*
X-515795D01*
X562284Y550000D02*
X597717D01*
X580000Y532284D02*
Y567716D01*
X-597716Y550000D02*
X-562283D01*
X-580000Y532284D02*
Y567716D01*
X-944997Y-43429D02*
X-894997D01*
X-919997Y-68429D02*
Y-18429D01*
X-264997Y-33429D02*
X-214997D01*
X-239997Y-58429D02*
Y-8429D01*
X1385003Y-33429D02*
X1435003D01*
X1410003Y-58429D02*
Y-8429D01*
X1020000Y-19685D02*
Y19685D01*
X1000315Y0D02*
X1039685D01*
X1439000Y-1621685D02*
Y-1582315D01*
X1419315Y-1602000D02*
X1458685D01*
X1416315Y-1324000D02*
X1455685D01*
X1436000Y-1343685D02*
Y-1304315D01*
X1202315Y-1322000D02*
X1241685D01*
X1222000Y-1341685D02*
Y-1302315D01*
X1208000Y-1533685D02*
Y-1494315D01*
X1188315Y-1514000D02*
X1227685D01*
X1591284Y-1604488D02*
X1626717D01*
X1609000Y-1622205D02*
Y-1586772D01*
X1655284Y-1665000D02*
X1690717D01*
X1673000Y-1682716D02*
Y-1647284D01*
X1209000Y-1670685D02*
Y-1631315D01*
X1189315Y-1651000D02*
X1228685D01*
X1107299Y-1648473D02*
X1144701D01*
X1126000Y-1667173D02*
Y-1629772D01*
X877000Y-842716D02*
Y-807283D01*
X859284Y-825000D02*
X894716D01*
X1002693Y-832000D02*
X1038126D01*
X1020409Y-849717D02*
Y-814284D01*
X1000284Y-731000D02*
X1035717D01*
X1018000Y-748717D02*
Y-713284D01*
X861315Y-730000D02*
X900685D01*
X881000Y-749685D02*
Y-710315D01*
X313315Y-464000D02*
X352685D01*
X333000Y-483685D02*
Y-444315D01*
X328527Y-565667D02*
Y-528266D01*
X309827Y-546966D02*
X347228D01*
X328000Y-636701D02*
Y-599299D01*
X309299Y-618000D02*
X346701D01*
X-13919Y-701081D02*
X13919Y-728919D01*
X-13919D02*
X13919Y-701081D01*
X123284Y-1050000D02*
X158716D01*
X141000Y-1067716D02*
Y-1032283D01*
X66283Y-1125097D02*
X101716D01*
X83999Y-1142813D02*
Y-1107380D01*
X65299Y-1190000D02*
X102701D01*
X84000Y-1208701D02*
Y-1171299D01*
X251228Y-1119960D02*
X286661D01*
X268945Y-1137677D02*
Y-1102244D01*
X251228Y-1050000D02*
X286661D01*
X268944Y-1067716D02*
Y-1032283D01*
X250244Y-1189960D02*
X287646D01*
X268945Y-1208661D02*
Y-1171260D01*
X407284Y-1190000D02*
X442716D01*
X425000Y-1207717D02*
Y-1172284D01*
X406299Y-1120000D02*
X443701D01*
X425000Y-1138701D02*
Y-1101299D01*
X-461716Y-1078000D02*
X-426283D01*
X-444000Y-1095716D02*
Y-1060284D01*
X-336512Y-899716D02*
Y-864283D01*
X-354228Y-882000D02*
X-318795D01*
X-1584701Y-1491527D02*
X-1547299D01*
X-1566000Y-1510228D02*
Y-1472827D01*
X-1507701Y-1491472D02*
X-1470299D01*
X-1489000Y-1510173D02*
Y-1472772D01*
X-1428701Y-1490472D02*
X-1391299D01*
X-1410000Y-1509173D02*
Y-1471772D01*
X-1450000Y-1144717D02*
Y-1109284D01*
X-1467716Y-1127000D02*
X-1432284D01*
X-1450000Y-1068717D02*
Y-1033284D01*
X-1467716Y-1051000D02*
X-1432284D01*
X-1450000Y-985717D02*
Y-950284D01*
X-1467716Y-968000D02*
X-1432284D01*
X-1473221Y-1241000D02*
X-1437788D01*
X-1455505Y-1258716D02*
Y-1223284D01*
X-1326717Y-1241000D02*
X-1291284D01*
X-1309000Y-1258716D02*
Y-1223284D01*
X425000Y-1067716D02*
Y-1032283D01*
X407284Y-1050000D02*
X442716D01*
X-1398717Y-1240512D02*
X-1363284D01*
X-1381000Y-1258228D02*
Y-1222795D01*
X-253000Y-1048777D02*
Y-1013344D01*
X-270716Y-1031061D02*
X-235284D01*
X-272024Y-1108000D02*
X-232654D01*
X-252339Y-1127685D02*
Y-1088315D01*
X-1419685Y0D02*
X-1380315D01*
X-1400000Y-19685D02*
Y19685D01*
X330315Y0D02*
X369685D01*
X350000Y-19685D02*
Y19685D01*
D99*
X229703Y-910326D02*
X260326Y-879703D01*
X176865Y-842177D02*
X192177Y-826865D01*
X169209Y-849832D02*
X229703Y-910326D01*
X199832Y-819210D02*
X260326Y-879703D01*
X192177Y-826865D02*
X199832Y-819210D01*
X169209Y-849832D02*
X176865Y-842177D01*
X277703Y-861610D02*
X308326Y-830987D01*
X224865Y-793460D02*
X240177Y-778149D01*
X217209Y-801116D02*
X277703Y-861610D01*
X247832Y-770493D02*
X308326Y-830987D01*
X240177Y-778149D02*
X247832Y-770493D01*
X217209Y-801116D02*
X224865Y-793460D01*
X-590598Y-789441D02*
X-476425D01*
X-590598Y-844559D02*
X-476425D01*
X-590598D02*
Y-789441D01*
X-476425Y-844559D02*
Y-789441D01*
X388409Y1836661D02*
Y1919339D01*
X439591D01*
Y1836661D02*
Y1919339D01*
X388409Y1836661D02*
X439591D01*
X-1374591D02*
Y1919339D01*
X-1323409D01*
Y1836661D02*
Y1919339D01*
X-1374591Y1836661D02*
X-1323409D01*
X607559Y492913D02*
Y607087D01*
X552441Y492913D02*
Y607087D01*
X607559D01*
X552441Y492913D02*
X607559D01*
X-552441D02*
Y607087D01*
X-607559Y492913D02*
Y607087D01*
X-552441D01*
X-607559Y492913D02*
X-552441D01*
X941260Y-187008D02*
X1098740D01*
X941260Y187008D02*
X1098740D01*
X941260Y-187008D02*
Y187008D01*
X1098740Y-187008D02*
Y187008D01*
X1297268Y-1414992D02*
X1580732D01*
X1297268Y-1789008D02*
X1580732D01*
Y-1414992D01*
X1297268Y-1789008D02*
Y-1414992D01*
X1519661Y-1394866D02*
Y-1253134D01*
X1352339Y-1394866D02*
Y-1253134D01*
Y-1394866D02*
X1519661D01*
X1352339Y-1253134D02*
X1519661D01*
X1155071Y-1359401D02*
Y-1284598D01*
X1288929Y-1359401D02*
Y-1284598D01*
X1155071D02*
X1288929D01*
X1155071Y-1359401D02*
X1288929D01*
X1170599Y-1447071D02*
X1245402D01*
X1170599Y-1580929D02*
X1245402D01*
Y-1447071D01*
X1170599Y-1580929D02*
Y-1447071D01*
X1636559Y-1661575D02*
Y-1547402D01*
X1581441Y-1661575D02*
Y-1547402D01*
X1636559D01*
X1581441Y-1661575D02*
X1636559D01*
X1700559Y-1722087D02*
Y-1607913D01*
X1645441Y-1722087D02*
Y-1607913D01*
X1700559D01*
X1645441Y-1722087D02*
X1700559D01*
X1171599Y-1584071D02*
X1246402D01*
X1171599Y-1717929D02*
X1246402D01*
Y-1584071D01*
X1171599Y-1717929D02*
Y-1584071D01*
X1096472Y-1707528D02*
Y-1589417D01*
X1155527Y-1707528D02*
Y-1589417D01*
X1096472Y-1707528D02*
X1155527D01*
X1096472Y-1589417D02*
X1155527D01*
X819913Y-797441D02*
X934087D01*
X819913Y-852559D02*
X934087D01*
X819913D02*
Y-797441D01*
X934087Y-852559D02*
Y-797441D01*
X1065685Y-853654D02*
Y-810346D01*
X975134Y-853654D02*
Y-810346D01*
Y-853654D02*
X1065685D01*
X975134Y-810346D02*
X1065685D01*
X1063276Y-752654D02*
Y-709346D01*
X972725Y-752654D02*
Y-709346D01*
Y-752654D02*
X1063276D01*
X972725Y-709346D02*
X1063276D01*
X945961Y-767402D02*
Y-692598D01*
X816039Y-767402D02*
Y-692598D01*
Y-767402D02*
X945961D01*
X816039Y-692598D02*
X945961D01*
X266071Y-501401D02*
Y-426598D01*
X399929Y-501401D02*
Y-426598D01*
X266071D02*
X399929D01*
X266071Y-501401D02*
X399929D01*
X269472Y-517439D02*
X387583D01*
X269472Y-576494D02*
X387583D01*
X269472D02*
Y-517439D01*
X387583Y-576494D02*
Y-517439D01*
X268945Y-588472D02*
X387055D01*
X268945Y-647528D02*
X387055D01*
X268945D02*
Y-588472D01*
X387055Y-647528D02*
Y-588472D01*
X-228279Y-715000D02*
X0Y-486721D01*
Y-943279D02*
X228279Y-715000D01*
X-228279D02*
X0Y-943279D01*
Y-486721D02*
X228279Y-715000D01*
X198087Y-1077559D02*
Y-1022441D01*
X83913Y-1077559D02*
Y-1022441D01*
Y-1077559D02*
X198087D01*
X83913Y-1022441D02*
X198087D01*
X26913Y-1152656D02*
Y-1097538D01*
X141086Y-1152656D02*
Y-1097538D01*
X26913D02*
X141086D01*
X26913Y-1152656D02*
X141086D01*
X143055Y-1219527D02*
Y-1160472D01*
X24945Y-1219527D02*
Y-1160472D01*
Y-1219527D02*
X143055D01*
X24945Y-1160472D02*
X143055D01*
X211858Y-1147520D02*
Y-1092401D01*
X326031Y-1147520D02*
Y-1092401D01*
X211858D02*
X326031D01*
X211858Y-1147520D02*
X326031D01*
X326031Y-1077559D02*
Y-1022441D01*
X211858Y-1077559D02*
Y-1022441D01*
Y-1077559D02*
X326031D01*
X211858Y-1022441D02*
X326031D01*
X328000Y-1219488D02*
Y-1160433D01*
X209890Y-1219488D02*
Y-1160433D01*
Y-1219488D02*
X328000D01*
X209890Y-1160433D02*
X328000D01*
X367913Y-1217559D02*
Y-1162441D01*
X482087Y-1217559D02*
Y-1162441D01*
X367913D02*
X482087D01*
X367913Y-1217559D02*
X482087D01*
X484055Y-1149527D02*
Y-1090472D01*
X365945Y-1149527D02*
Y-1090472D01*
Y-1149527D02*
X484055D01*
X365945Y-1090472D02*
X484055D01*
X-416441Y-1135087D02*
Y-1020913D01*
X-471559Y-1135087D02*
Y-1020913D01*
X-416441D01*
X-471559Y-1135087D02*
X-416441D01*
X-393598Y-854441D02*
X-279425D01*
X-393598Y-909559D02*
X-279425D01*
X-393598D02*
Y-854441D01*
X-279425Y-909559D02*
Y-854441D01*
X-1536472Y-1550583D02*
Y-1432472D01*
X-1595527Y-1550583D02*
Y-1432472D01*
X-1536472D01*
X-1595527Y-1550583D02*
X-1536472D01*
X-1459472Y-1550528D02*
Y-1432417D01*
X-1518527Y-1550528D02*
Y-1432417D01*
X-1459472D01*
X-1518527Y-1550528D02*
X-1459472D01*
X-1380472Y-1549528D02*
Y-1431417D01*
X-1439527Y-1549528D02*
Y-1431417D01*
X-1380472D01*
X-1439527Y-1549528D02*
X-1380472D01*
X-1507087Y-1154559D02*
X-1392913D01*
X-1507087Y-1099441D02*
X-1392913D01*
Y-1154559D02*
Y-1099441D01*
X-1507087Y-1154559D02*
Y-1099441D01*
Y-1078559D02*
X-1392913D01*
X-1507087Y-1023441D02*
X-1392913D01*
Y-1078559D02*
Y-1023441D01*
X-1507087Y-1078559D02*
Y-1023441D01*
Y-995559D02*
X-1392913D01*
X-1507087Y-940441D02*
X-1392913D01*
Y-995559D02*
Y-940441D01*
X-1507087Y-995559D02*
Y-940441D01*
X-1483064Y-1298087D02*
Y-1183913D01*
X-1427946Y-1298087D02*
Y-1183913D01*
X-1483064Y-1298087D02*
X-1427946D01*
X-1483064Y-1183913D02*
X-1427946D01*
X-1336559Y-1298087D02*
Y-1183913D01*
X-1281441Y-1298087D02*
Y-1183913D01*
X-1336559Y-1298087D02*
X-1281441D01*
X-1336559Y-1183913D02*
X-1281441D01*
X367913Y-1022441D02*
X482087D01*
X367913Y-1077559D02*
X482087D01*
X367913D02*
Y-1022441D01*
X482087Y-1077559D02*
Y-1022441D01*
X-1408559Y-1297598D02*
Y-1183425D01*
X-1353441Y-1297598D02*
Y-1183425D01*
X-1408559Y-1297598D02*
X-1353441D01*
X-1408559Y-1183425D02*
X-1353441D01*
X-310087Y-1058620D02*
X-195913D01*
X-310087Y-1003502D02*
X-195913D01*
Y-1058620D02*
Y-1003502D01*
X-310087Y-1058620D02*
Y-1003502D01*
X-319268Y-1145401D02*
Y-1070598D01*
X-185410Y-1145401D02*
Y-1070598D01*
X-319268D02*
X-185410D01*
X-319268Y-1145401D02*
X-185410D01*
X1574409Y1353661D02*
Y1436339D01*
X1625591D01*
Y1353661D02*
Y1436339D01*
X1574409Y1353661D02*
X1625591D01*
X-1726591Y-334339D02*
X-1675409D01*
Y-251661D01*
X-1726591D02*
X-1675409D01*
X-1726591Y-334339D02*
Y-251661D01*
X-1321260Y-187008D02*
Y187008D01*
X-1478740Y-187008D02*
Y187008D01*
X-1321260D01*
X-1478740Y-187008D02*
X-1321260D01*
X428740D02*
Y187008D01*
X271260Y-187008D02*
Y187008D01*
X428740D01*
X271260Y-187008D02*
X428740D01*
%TF.MD5,67519ecf0dc2beb2ca29eca43200a0db*%
M02*
