M48
;Layer_Color=9474304
;FILE_FORMAT=2:5
INCH,LZ
;TYPE=PLATED
T1F00S00C0.00787
T2F00S00C0.01500
T3F00S00C0.01562
T5F00S00C0.02800
T6F00S00C0.03150
T7F00S00C0.03150
T8F00S00C0.03543
T9F00S00C0.07087
T10F00S00C0.09450
T11F00S00C0.11811
T12F00S00C0.18000
%
T01
X0Y-0083749
Y-0077624
X-0003062Y-0080687
X0003062
X0006125Y-0077624
X0009187Y-0074562
X0006125Y-00715
X0003062Y-0074562
X-0003062
X0Y-00715
X-0006125
X-0009187Y-0074562
Y-0068438
X-0006125Y-0065376
X-0003062Y-0068438
X0Y-0065376
Y-0059251
X-0003062Y-0062313
X0003062
X0006125Y-0065376
X0009187Y-0068438
X0003062
X0012249Y-00715
X-0012249
X-0006125Y-0077624
T02
X-0156449Y-01128
X-01562Y-0104749
X-0155802Y-00969
T03
X-01519Y-01599
X-0142Y-01607
X-01331Y-01599
X-00394Y-01865
X0112Y-0188
X012
X0128
X0136
X0144
X0152
X0164Y-018
X016Y-0172
X0167Y-0157398
X01602Y-01481
X01077Y-01483
X01122Y-01555
X0116Y-018
X0124
X0128Y-0172
X0108Y-018
X01094Y-01325
X01544Y-01403
X0152Y-0068
X0144
X0136
X0128
X012
X0112
X0108Y-006
X0112Y-0052
X0104
X0096
X01Y-0044
X0108
X0116
X0124
X0132
X014
X0144Y-0036
X0152
X016
X0168
X0164Y-0028
X0156
X0148
X014
X0132
X0124
X0116
X0108
X01
X0104Y-0036
X0112
X012
X0128
X0136
Y-002
X0144
X0152
X016
X0168
X0164Y-0012
X0156
X0148
X0149Y-0003
X0158
X0167
Y0006
X0158
X0149
X014Y-0003
X0131
Y0006
X0122
Y-0003
X0124Y-0012
X0132
X0128Y-002
X012
X0112
X0116Y-0012
X0096Y-0036
X00725Y-0013
X0076Y-0006
X0069
X00725Y0001
X0069Y0008
X007755Y-0078047
X00839Y-01042
X014Y-006
X0148
X0156
X0164
X0168Y-0052
X016
X0152
X0144
X0136
X0156Y-0044
X0164
X00585Y-0027
X00515
X00445
X0048Y-002
X0055
X0062
X00655Y-0013
X00585
X00515
X00445
X0048Y-0006
X0055
X0062
X00655Y0001
X00585
X00515
X00445
X0055Y0008
X0062
X0004Y0004
X-0004
X-0012
X-0008Y0012
X0
Y-0004
X-0008
X-0016
X-0024
X-0032
X-004
X-0048
X-0044Y0004
X-0036
X-0032Y0012
X-004
X-0048
X-0073
X-0079
X-0085
X-0082Y0006
X-0076
X-0073Y0
X-0079
X-0085
X-0044Y-0012
X-0036
X-0012
X-0004
X0004
X00045Y-00477
X00218Y-00497
X0023Y-00572
X00429Y-00549
X0038613Y-00829
X0045453Y-00959
X00298Y-009615
X00172
X-00071Y-00943
X-00334Y-00788
X-00425Y-00815
X-0051Y-00887
X-00374Y-01114
X0017746Y-01243
X00343Y-01247
X0052355Y-01246
X-0016Y0012
X-0091
X-0097
X-0103
X-0109
X-0106Y0006
X-01
X-0097Y0
X-0103
X-0109
X-0112Y0006
X-012625Y-00225
X-013375
X-014125
X-014875
X-015625
X-016375
X-016Y-0015
X-01525
X-015625Y-00075
X-016375
X-01675Y-0015
X-016Y-003
X-01525
X-0145
X-01375
X-013
X-01225
X-011875Y-00375
X-012625
X-013375
X-014125
X-014875
X-015625
X-016375
X-016Y-0045
X-01525
X-0145
X-01375
X-013
X-01225
X-011875Y-00525
X-012625
X-013375
X-014125
X-014875
X-015625
X-016375
X-016Y-006
X-01525
X-0145
X-01375
X-013
X-01225
X-01675
Y-0045
X-01567Y-014
X-0150355Y-0136784
X-0142948Y-0133
X-0112Y0018
X-0106
X-01
X-0094
X-0088
X-0091Y0024
X-0097
X-0103
X-0109
X-0106Y003
X-01
X-0094
X-0088
X-0112
X-011Y012
X-01
X-009
X-0095Y013
X-0105
X-0115
X-0125
X-0135
X-0145
X-0155
X-0165
X-016Y014
X-015
X-014
X-013
X-012
X-011
X-01
X-009
X-012Y012
X-013
X-014
X-015
X-016
X-017
Y014
X-008
X-007
X-006
X-0057Y01356
X-0055Y013
X-0065
X-0075
X-0085
X-008Y012
X-007
X-006
X-004
X-003
X-002
X-001
X0
X00011Y01246
X0005Y013
X0015
X0025
X0035
X0045
X004Y014
X003
X002
X001
X0
X-001
X-002
X-003
X-004
X-0035Y013
X-0025
X-0015
X-0005
X001Y012
X002
X003
X004
X0065
X006Y013
X0065Y014
X006Y011
X00585Y0043
X00655
X0062Y0036
X0055
X00585Y0029
X00655
X0062Y0022
X0055
X00585Y0015
X00655
X0004Y002
X-0004
X-0012
X-002
X-0028
X-0036
X-0044
X-004Y0028
X-0032
X-0024
X-0016
X-0008
X0
X-0048
X-0073Y0024
X-0079
X-0085
X-0082Y003
X-0076
Y0018
X-0082
X0069Y0022
X0076
X00795Y0029
X00725
X0076Y0036
X0069
X00725Y0043
X0076Y005
X0069
X00725Y0015
X00795
X0122
X0131
X014
X0149
X0158
X0167
Y0024
Y0033
Y0042
Y0051
Y006
Y0069
X0158Y0033
Y0024
X0149
Y0033
X014
Y0024
X0131
Y0033
X0122
Y0024
X012Y011
X013
X014
X015
X016
X0165Y012
X0155
X01473Y01205
X015Y013
X016
X0165Y014
X0155
X0145
X0135
X0125
X0115
X0105
X0095
X0085
X0075
X008Y013
X009
X01
X011
X012
X013
X014
X0135Y012
X0125
X0115
X0105
X0095
X0085
X0075
X008Y011
X009
X01
X011
X007
Y013
T05
X0079Y00022
X01021Y00023
T06
X-01622Y-0124496
Y-0093
T07
X-01622Y-0116622
Y-0108748
Y-0100874
T08
X0141Y-0013185
Y00065
X-0024
Y-0013185
X-0092Y-0014185
Y00055
T09
X-0093671Y-01545
X-0077135
X-00606
X-0044065
X-0027529
X-0010994
X0005542
X0022077
X0038613
X0055148
X0071684
X0088219
Y-0136784
X0071684
X0055148
X0038613
X0022077
X0005542
X-0010994
X-0027529
X-0044065
X-00606
X-0077135
X-0093671
T10
X-0165Y-019
X0165
T11
X-0093671Y-018324
X0088219
X0123378Y-0083748
Y-0055402
X-0109773Y016
X-0081427
X-0013923
X0014423
X0081427
X0109773
T12
X0155Y018
X-0155
M30
