%TF.GenerationSoftware,Altium Limited,Altium Designer,19.0.10 (269)*%
G04 Layer_Color=16711935*
%FSLAX26Y26*%
%MOIN*%
%TF.FileFunction,Soldermask,Bot*%
%TF.Part,Single*%
G01*
G75*
%TA.AperFunction,ComponentPad*%
%ADD63C,0.055244*%
%TA.AperFunction,ViaPad*%
%ADD64C,0.158000*%
%ADD65C,0.258000*%
%TA.AperFunction,ComponentPad*%
G04:AMPARAMS|DCode=66|XSize=47.37mil|YSize=86.74mil|CornerRadius=13.842mil|HoleSize=0mil|Usage=FLASHONLY|Rotation=0.000|XOffset=0mil|YOffset=0mil|HoleType=Round|Shape=RoundedRectangle|*
%AMROUNDEDRECTD66*
21,1,0.047370,0.059055,0,0,0.0*
21,1,0.019685,0.086740,0,0,0.0*
1,1,0.027685,0.009843,-0.029528*
1,1,0.027685,-0.009843,-0.029528*
1,1,0.027685,-0.009843,0.029528*
1,1,0.027685,0.009843,0.029528*
%
%ADD66ROUNDEDRECTD66*%
%ADD67C,0.165480*%
%ADD68C,0.078000*%
%ADD69R,0.078000X0.078000*%
G04:AMPARAMS|DCode=70|XSize=47.37mil|YSize=86.74mil|CornerRadius=13.842mil|HoleSize=0mil|Usage=FLASHONLY|Rotation=270.000|XOffset=0mil|YOffset=0mil|HoleType=Round|Shape=RoundedRectangle|*
%AMROUNDEDRECTD70*
21,1,0.047370,0.059055,0,0,270.0*
21,1,0.019685,0.086740,0,0,270.0*
1,1,0.027685,-0.029528,-0.009843*
1,1,0.027685,-0.029528,0.009843*
1,1,0.027685,0.029528,0.009843*
1,1,0.027685,0.029528,-0.009843*
%
%ADD70ROUNDEDRECTD70*%
%ADD71C,0.149732*%
%ADD72C,0.068000*%
%TA.AperFunction,ViaPad*%
%ADD73C,0.038000*%
%ADD74C,0.027685*%
%ADD75C,0.058000*%
D63*
X-1622000Y-1008740D02*
D03*
Y-930000D02*
D03*
Y-1087480D02*
D03*
Y-1166220D02*
D03*
Y-1244961D02*
D03*
D64*
X1650000Y-1900000D02*
D03*
X-1650000D02*
D03*
D65*
X1550000Y1800000D02*
D03*
X-1550000D02*
D03*
D66*
X-690252Y1836220D02*
D03*
X-1221748D02*
D03*
X268248D02*
D03*
X-263248D02*
D03*
X1221748D02*
D03*
X690252D02*
D03*
D67*
X-814268Y1600000D02*
D03*
X-1097732D02*
D03*
X144232D02*
D03*
X-139232D02*
D03*
X1097732D02*
D03*
X814268D02*
D03*
X1233780Y-837480D02*
D03*
Y-554016D02*
D03*
D68*
X-920000Y-141851D02*
D03*
X-240000Y-131851D02*
D03*
X1410000D02*
D03*
D69*
X-920000Y55000D02*
D03*
X-240000Y65000D02*
D03*
X1410000D02*
D03*
D70*
X1470000Y-961496D02*
D03*
Y-430000D02*
D03*
D71*
X882189Y-1545000D02*
D03*
Y-1367835D02*
D03*
X-440646D02*
D03*
Y-1545000D02*
D03*
X-275291Y-1367835D02*
D03*
Y-1545000D02*
D03*
X-109937Y-1367835D02*
D03*
Y-1545000D02*
D03*
X55417Y-1367835D02*
D03*
Y-1545000D02*
D03*
X220772Y-1367835D02*
D03*
Y-1545000D02*
D03*
X386126Y-1367835D02*
D03*
Y-1545000D02*
D03*
X551480Y-1367835D02*
D03*
Y-1545000D02*
D03*
X716835Y-1367835D02*
D03*
Y-1545000D02*
D03*
X-606000Y-1367835D02*
D03*
Y-1545000D02*
D03*
X-771354D02*
D03*
Y-1367835D02*
D03*
X-936709Y-1545000D02*
D03*
Y-1367835D02*
D03*
D72*
Y-1832402D02*
D03*
X882189D02*
D03*
D73*
X386126Y-829000D02*
D03*
X-760000Y300000D02*
D03*
X-730000Y240000D02*
D03*
X-760000Y180000D02*
D03*
X-730000Y120000D02*
D03*
X-760000Y60000D02*
D03*
X-730000Y0D02*
D03*
X-820000Y300000D02*
D03*
X-790000Y240000D02*
D03*
X-820000Y180000D02*
D03*
X-790000Y120000D02*
D03*
X-820000Y60000D02*
D03*
X-790000Y0D02*
D03*
X-880000Y300000D02*
D03*
X-850000Y240000D02*
D03*
X-880000Y180000D02*
D03*
X-850000Y120000D02*
D03*
Y0D02*
D03*
X-940000Y300000D02*
D03*
X-910000Y240000D02*
D03*
X-940000Y180000D02*
D03*
X-910000Y120000D02*
D03*
X-1000000Y300000D02*
D03*
X-970000Y240000D02*
D03*
X-1000000Y180000D02*
D03*
X-970000Y120000D02*
D03*
X-1000000Y60000D02*
D03*
X-970000Y0D02*
D03*
X-1060000Y300000D02*
D03*
X-1030000Y240000D02*
D03*
X-1060000Y180000D02*
D03*
X-1030000Y120000D02*
D03*
X-1060000Y60000D02*
D03*
X-1030000Y0D02*
D03*
X-1120000Y300000D02*
D03*
X-1090000Y240000D02*
D03*
X-1120000Y180000D02*
D03*
X-1090000Y120000D02*
D03*
X-1120000Y60000D02*
D03*
X-1090000Y0D02*
D03*
X-1225000Y-300000D02*
D03*
X-1187500Y-375000D02*
D03*
X-1225000Y-450000D02*
D03*
X-1187500Y-525000D02*
D03*
X-1225000Y-600000D02*
D03*
X-1262500Y-225000D02*
D03*
X-1300000Y-300000D02*
D03*
X-1262500Y-375000D02*
D03*
X-1300000Y-450000D02*
D03*
X-1262500Y-525000D02*
D03*
X-1300000Y-600000D02*
D03*
X-1337500Y-225000D02*
D03*
X-1375000Y-300000D02*
D03*
X-1337500Y-375000D02*
D03*
X-1375000Y-450000D02*
D03*
X-1337500Y-525000D02*
D03*
X-1375000Y-600000D02*
D03*
X-1412500Y-225000D02*
D03*
X-1450000Y-300000D02*
D03*
X-1412500Y-375000D02*
D03*
X-1450000Y-450000D02*
D03*
X-1412500Y-525000D02*
D03*
X-1450000Y-600000D02*
D03*
X-1525000Y-150000D02*
D03*
X-1487500Y-225000D02*
D03*
X-1525000Y-300000D02*
D03*
X-1487500Y-375000D02*
D03*
X-1525000Y-450000D02*
D03*
X-1487500Y-525000D02*
D03*
X-1525000Y-600000D02*
D03*
X-1562500Y-75000D02*
D03*
X-1600000Y-150000D02*
D03*
X-1562500Y-225000D02*
D03*
X-1600000Y-300000D02*
D03*
X-1562500Y-375000D02*
D03*
X-1600000Y-450000D02*
D03*
X-1562500Y-525000D02*
D03*
X-1600000Y-600000D02*
D03*
X-1637500Y-75000D02*
D03*
X-1675000Y-150000D02*
D03*
X-1637500Y-225000D02*
D03*
Y-375000D02*
D03*
X-1675000Y-450000D02*
D03*
X-1637500Y-525000D02*
D03*
X-1675000Y-600000D02*
D03*
X1600000Y-1720000D02*
D03*
X1640000Y-1800000D02*
D03*
X1520000Y-1880000D02*
D03*
X1440000D02*
D03*
X1360000D02*
D03*
X1280000Y-1720000D02*
D03*
Y-1880000D02*
D03*
X1240000Y-1800000D02*
D03*
X1200000Y-1880000D02*
D03*
X1160000Y-1800000D02*
D03*
X1120000Y-1880000D02*
D03*
X1080000Y-1800000D02*
D03*
X1680000Y-200000D02*
D03*
Y-360000D02*
D03*
Y-520000D02*
D03*
X1640000Y-120000D02*
D03*
X1600000Y-200000D02*
D03*
X1640000Y-280000D02*
D03*
X1600000Y-360000D02*
D03*
X1640000Y-440000D02*
D03*
X1600000Y-520000D02*
D03*
X1640000Y-600000D02*
D03*
X1560000Y-120000D02*
D03*
X1520000Y-200000D02*
D03*
X1560000Y-280000D02*
D03*
X1520000Y-360000D02*
D03*
X1560000Y-440000D02*
D03*
X1520000Y-520000D02*
D03*
X1560000Y-600000D02*
D03*
X1520000Y-680000D02*
D03*
X1480000Y-120000D02*
D03*
X1440000Y-200000D02*
D03*
X1480000Y-280000D02*
D03*
X1440000Y-360000D02*
D03*
Y-520000D02*
D03*
X1480000Y-600000D02*
D03*
X1440000Y-680000D02*
D03*
X1360000Y-200000D02*
D03*
X1400000Y-280000D02*
D03*
X1360000Y-360000D02*
D03*
X1400000Y-440000D02*
D03*
X1360000Y-520000D02*
D03*
X1400000Y-600000D02*
D03*
X1360000Y-680000D02*
D03*
X1320000Y-120000D02*
D03*
X1280000Y-200000D02*
D03*
X1320000Y-280000D02*
D03*
X1280000Y-360000D02*
D03*
X1320000Y-440000D02*
D03*
X1280000Y-680000D02*
D03*
X1240000Y-120000D02*
D03*
X1200000Y-200000D02*
D03*
X1240000Y-280000D02*
D03*
X1200000Y-360000D02*
D03*
X1240000Y-440000D02*
D03*
X1200000Y-680000D02*
D03*
X1160000Y-120000D02*
D03*
X1120000Y-200000D02*
D03*
X1160000Y-280000D02*
D03*
X1120000Y-360000D02*
D03*
X1160000Y-440000D02*
D03*
X1120000Y-520000D02*
D03*
Y-680000D02*
D03*
X1080000Y-280000D02*
D03*
X1040000Y-360000D02*
D03*
X1080000Y-440000D02*
D03*
X1040000Y-520000D02*
D03*
X1080000Y-600000D02*
D03*
X1000000Y-280000D02*
D03*
X960000Y-360000D02*
D03*
X1000000Y-440000D02*
D03*
X960000Y-520000D02*
D03*
X760000Y500000D02*
D03*
Y360000D02*
D03*
X795000Y290000D02*
D03*
X760000Y220000D02*
D03*
X795000Y150000D02*
D03*
X760000Y-60000D02*
D03*
X690000Y500000D02*
D03*
X725000Y430000D02*
D03*
X690000Y360000D02*
D03*
X725000Y290000D02*
D03*
X690000Y220000D02*
D03*
X725000Y150000D02*
D03*
X690000Y80000D02*
D03*
X725000Y10000D02*
D03*
X690000Y-60000D02*
D03*
X725000Y-130000D02*
D03*
X655000Y430000D02*
D03*
X620000Y360000D02*
D03*
X655000Y290000D02*
D03*
X620000Y220000D02*
D03*
X655000Y150000D02*
D03*
X620000Y80000D02*
D03*
X655000Y10000D02*
D03*
X620000Y-60000D02*
D03*
X655000Y-130000D02*
D03*
X620000Y-200000D02*
D03*
X585000Y430000D02*
D03*
X550000Y360000D02*
D03*
X585000Y290000D02*
D03*
X550000Y220000D02*
D03*
X585000Y150000D02*
D03*
X550000Y80000D02*
D03*
X585000Y10000D02*
D03*
X550000Y-60000D02*
D03*
X585000Y-130000D02*
D03*
X550000Y-200000D02*
D03*
X585000Y-270000D02*
D03*
X515000Y10000D02*
D03*
X480000Y-60000D02*
D03*
X515000Y-130000D02*
D03*
X480000Y-200000D02*
D03*
X515000Y-270000D02*
D03*
X445000Y10000D02*
D03*
Y-130000D02*
D03*
Y-270000D02*
D03*
X0Y280000D02*
D03*
X40000Y200000D02*
D03*
X0Y120000D02*
D03*
X40000Y40000D02*
D03*
X0Y-40000D02*
D03*
X40000Y-120000D02*
D03*
X-80000Y280000D02*
D03*
X-40000Y200000D02*
D03*
X-80000Y120000D02*
D03*
X-40000Y40000D02*
D03*
X-80000Y-40000D02*
D03*
X-40000Y-120000D02*
D03*
X-160000Y280000D02*
D03*
X-120000Y200000D02*
D03*
X-160000Y120000D02*
D03*
X-120000Y40000D02*
D03*
X-160000Y-40000D02*
D03*
X-120000Y-120000D02*
D03*
X-240000Y280000D02*
D03*
X-200000Y200000D02*
D03*
X-240000Y-40000D02*
D03*
X-320000Y280000D02*
D03*
X-280000Y200000D02*
D03*
X-320000Y120000D02*
D03*
Y-40000D02*
D03*
X-400000Y280000D02*
D03*
X-360000Y200000D02*
D03*
X-400000Y120000D02*
D03*
X-360000Y40000D02*
D03*
X-400000Y-40000D02*
D03*
X-360000Y-120000D02*
D03*
X-480000Y280000D02*
D03*
X-440000Y200000D02*
D03*
X-480000Y120000D02*
D03*
X-440000Y40000D02*
D03*
X-480000Y-40000D02*
D03*
X-440000Y-120000D02*
D03*
X-600000Y1400000D02*
D03*
X-550000Y1300000D02*
D03*
X-600000Y1200000D02*
D03*
X-700000Y1400000D02*
D03*
X-650000Y1300000D02*
D03*
X-700000Y1200000D02*
D03*
X-800000Y1400000D02*
D03*
X-750000Y1300000D02*
D03*
X-800000Y1200000D02*
D03*
X-900000Y1400000D02*
D03*
X-850000Y1300000D02*
D03*
X-900000Y1200000D02*
D03*
X-1000000Y1400000D02*
D03*
X-950000Y1300000D02*
D03*
X-1000000Y1200000D02*
D03*
X-1100000Y1400000D02*
D03*
X-1050000Y1300000D02*
D03*
X-1100000Y1200000D02*
D03*
X-1200000Y1400000D02*
D03*
X-1150000Y1300000D02*
D03*
X-1200000Y1200000D02*
D03*
X-1300000Y1400000D02*
D03*
X-1250000Y1300000D02*
D03*
X-1300000Y1200000D02*
D03*
X-1400000Y1400000D02*
D03*
X-1350000Y1300000D02*
D03*
X-1400000Y1200000D02*
D03*
X-1500000Y1400000D02*
D03*
X-1450000Y1300000D02*
D03*
X-1500000Y1200000D02*
D03*
X-1600000Y1400000D02*
D03*
X-1550000Y1300000D02*
D03*
X-1600000Y1200000D02*
D03*
X-1700000Y1400000D02*
D03*
X-1650000Y1300000D02*
D03*
X-1700000Y1200000D02*
D03*
X400000Y1400000D02*
D03*
X450000Y1300000D02*
D03*
X400000Y1200000D02*
D03*
X300000Y1400000D02*
D03*
X350000Y1300000D02*
D03*
X300000Y1200000D02*
D03*
X200000Y1400000D02*
D03*
X250000Y1300000D02*
D03*
X200000Y1200000D02*
D03*
X100000Y1400000D02*
D03*
X150000Y1300000D02*
D03*
X100000Y1200000D02*
D03*
X0Y1400000D02*
D03*
X50000Y1300000D02*
D03*
X0Y1200000D02*
D03*
X-100000Y1400000D02*
D03*
X-50000Y1300000D02*
D03*
X-100000Y1200000D02*
D03*
X-200000Y1400000D02*
D03*
X-150000Y1300000D02*
D03*
X-200000Y1200000D02*
D03*
X-300000Y1400000D02*
D03*
X-250000Y1300000D02*
D03*
X-300000Y1200000D02*
D03*
X-400000Y1400000D02*
D03*
X-350000Y1300000D02*
D03*
X-400000Y1200000D02*
D03*
X1650000Y1400000D02*
D03*
X1600000Y1300000D02*
D03*
X1650000Y1200000D02*
D03*
X1600000Y1100000D02*
D03*
X1550000Y1400000D02*
D03*
X1500000Y1300000D02*
D03*
X1550000Y1200000D02*
D03*
X1500000Y1100000D02*
D03*
X1450000Y1400000D02*
D03*
X1400000Y1300000D02*
D03*
Y1100000D02*
D03*
X1350000Y1400000D02*
D03*
X1300000Y1300000D02*
D03*
X1350000Y1200000D02*
D03*
X1300000Y1100000D02*
D03*
X1250000Y1400000D02*
D03*
X1200000Y1300000D02*
D03*
X1250000Y1200000D02*
D03*
X1200000Y1100000D02*
D03*
X1150000Y1400000D02*
D03*
X1100000Y1300000D02*
D03*
X1150000Y1200000D02*
D03*
X1100000Y1100000D02*
D03*
X1050000Y1400000D02*
D03*
X1000000Y1300000D02*
D03*
X1050000Y1200000D02*
D03*
X1000000Y1100000D02*
D03*
X950000Y1400000D02*
D03*
X900000Y1300000D02*
D03*
X950000Y1200000D02*
D03*
X900000Y1100000D02*
D03*
X850000Y1400000D02*
D03*
X800000Y1300000D02*
D03*
X850000Y1200000D02*
D03*
X800000Y1100000D02*
D03*
X750000Y1400000D02*
D03*
X700000Y1300000D02*
D03*
X750000Y1200000D02*
D03*
X700000Y1100000D02*
D03*
X650000Y1400000D02*
D03*
X600000Y1300000D02*
D03*
X650000Y1200000D02*
D03*
X600000Y1100000D02*
D03*
X1473000Y1205000D02*
D03*
X1670000Y-1573976D02*
D03*
X-1519000Y-1599000D02*
D03*
X-1420000Y-1607000D02*
D03*
X-1331000Y-1599000D02*
D03*
X523549Y-1246000D02*
D03*
X343000Y-1247000D02*
D03*
X177456Y-1243000D02*
D03*
X11000Y1246000D02*
D03*
X-570000Y1356000D02*
D03*
X172000Y-961496D02*
D03*
X298000D02*
D03*
X454528Y-959000D02*
D03*
X1077000Y-1483000D02*
D03*
X-1429485Y-1330000D02*
D03*
X-1567000Y-1400000D02*
D03*
X-1503550Y-1367835D02*
D03*
X-394000Y-1865000D02*
D03*
X-1564495Y-1128000D02*
D03*
X-1562000Y-1047488D02*
D03*
X-1558024Y-969000D02*
D03*
X775500Y-780465D02*
D03*
X839000Y-1042000D02*
D03*
X1602000Y-1481000D02*
D03*
X1122000Y-1555000D02*
D03*
X1544000Y-1403000D02*
D03*
X1094000Y-1325000D02*
D03*
X-510000Y-887000D02*
D03*
X-425000Y-815000D02*
D03*
X-334000Y-788000D02*
D03*
X-374000Y-1114000D02*
D03*
X-71000Y-943000D02*
D03*
X429000Y-549000D02*
D03*
X230000Y-572000D02*
D03*
X218000Y-497000D02*
D03*
X45000Y-477000D02*
D03*
X1670000Y690000D02*
D03*
Y600000D02*
D03*
Y510000D02*
D03*
Y420000D02*
D03*
Y330000D02*
D03*
Y240000D02*
D03*
Y150000D02*
D03*
Y60000D02*
D03*
Y-30000D02*
D03*
X1580000Y330000D02*
D03*
Y240000D02*
D03*
Y150000D02*
D03*
Y60000D02*
D03*
Y-30000D02*
D03*
X1490000Y330000D02*
D03*
Y240000D02*
D03*
Y150000D02*
D03*
Y60000D02*
D03*
Y-30000D02*
D03*
X1400000Y330000D02*
D03*
Y240000D02*
D03*
Y150000D02*
D03*
Y-30000D02*
D03*
X1310000Y330000D02*
D03*
Y240000D02*
D03*
Y150000D02*
D03*
Y60000D02*
D03*
Y-30000D02*
D03*
X1220000Y330000D02*
D03*
Y240000D02*
D03*
Y150000D02*
D03*
Y60000D02*
D03*
Y-30000D02*
D03*
D74*
X-91868Y-684377D02*
D03*
X0Y-776245D02*
D03*
Y-837491D02*
D03*
X122491Y-715000D02*
D03*
X0Y-592509D02*
D03*
X-91868Y-745623D02*
D03*
X-122491Y-715000D02*
D03*
X30623Y-806868D02*
D03*
X-61245Y-715000D02*
D03*
X-30623Y-745623D02*
D03*
X-61245Y-776245D02*
D03*
X-30623Y-806868D02*
D03*
X-61245Y-653755D02*
D03*
X-30623Y-623132D02*
D03*
Y-684377D02*
D03*
X91868D02*
D03*
Y-745623D02*
D03*
X61245Y-653755D02*
D03*
Y-715000D02*
D03*
X30623Y-623132D02*
D03*
X0Y-653755D02*
D03*
X30623Y-684377D02*
D03*
X0Y-715000D02*
D03*
X30623Y-745623D02*
D03*
X61245Y-776245D02*
D03*
D75*
X1021000Y23000D02*
D03*
X790000Y22000D02*
D03*
%TF.MD5,e4ed4de7b723563ba9b0c1253b40e3f4*%
M02*
