%TF.GenerationSoftware,Altium Limited,Altium Designer,19.0.10 (269)*%
G04 Layer_Physical_Order=4*
G04 Layer_Color=16711680*
%FSLAX26Y26*%
%MOIN*%
%TF.FileFunction,Copper,L4,Bot,Signal*%
%TF.Part,Single*%
G01*
G75*
%TA.AperFunction,Conductor*%
%ADD29C,0.010000*%
%ADD31C,0.015000*%
%ADD32C,0.030000*%
%ADD33C,0.050000*%
%TA.AperFunction,ComponentPad*%
%ADD36C,0.047244*%
%TA.AperFunction,ViaPad*%
%ADD37C,0.150000*%
%ADD38C,0.250000*%
%TA.AperFunction,ComponentPad*%
G04:AMPARAMS|DCode=39|XSize=39.37mil|YSize=78.74mil|CornerRadius=9.842mil|HoleSize=0mil|Usage=FLASHONLY|Rotation=0.000|XOffset=0mil|YOffset=0mil|HoleType=Round|Shape=RoundedRectangle|*
%AMROUNDEDRECTD39*
21,1,0.039370,0.059055,0,0,0.0*
21,1,0.019685,0.078740,0,0,0.0*
1,1,0.019685,0.009843,-0.029528*
1,1,0.019685,-0.009843,-0.029528*
1,1,0.019685,-0.009843,0.029528*
1,1,0.019685,0.009843,0.029528*
%
%ADD39ROUNDEDRECTD39*%
%ADD40C,0.157480*%
%ADD41C,0.070000*%
%ADD42R,0.070000X0.070000*%
G04:AMPARAMS|DCode=43|XSize=39.37mil|YSize=78.74mil|CornerRadius=9.842mil|HoleSize=0mil|Usage=FLASHONLY|Rotation=270.000|XOffset=0mil|YOffset=0mil|HoleType=Round|Shape=RoundedRectangle|*
%AMROUNDEDRECTD43*
21,1,0.039370,0.059055,0,0,270.0*
21,1,0.019685,0.078740,0,0,270.0*
1,1,0.019685,-0.029528,-0.009843*
1,1,0.019685,-0.029528,0.009843*
1,1,0.019685,0.029528,0.009843*
1,1,0.019685,0.029528,-0.009843*
%
%ADD43ROUNDEDRECTD43*%
%ADD44C,0.141732*%
%ADD45C,0.060000*%
%TA.AperFunction,ViaPad*%
%ADD46C,0.030000*%
%ADD47C,0.019685*%
%ADD48C,0.050000*%
G36*
X503000Y597000D02*
X-489429D01*
Y1966196D01*
X-486376Y1969742D01*
X503000D01*
Y597000D01*
D02*
G37*
G36*
X1719742Y784000D02*
X1159000D01*
Y566000D01*
X531000D01*
X530009Y1962666D01*
X533543Y1966203D01*
X1719742D01*
Y784000D01*
D02*
G37*
G36*
X-522000Y507000D02*
X-681000Y348000D01*
X-1719742Y348000D01*
Y1969742D01*
X-522000D01*
Y507000D01*
D02*
G37*
G36*
X-687000Y-411000D02*
X-655000D01*
Y-419000D01*
X-631000D01*
Y-427000D01*
X-615000D01*
Y-435000D01*
X-599000D01*
Y-443000D01*
X-583000D01*
Y-451000D01*
X-567000D01*
Y-459000D01*
X-559000D01*
Y-467000D01*
X-543000D01*
Y-475000D01*
X-535000D01*
Y-483000D01*
X-527000D01*
Y-491000D01*
X-519000D01*
Y-499000D01*
X-511000D01*
Y-507000D01*
X-503000D01*
Y-515000D01*
X-495000D01*
Y-523000D01*
X-487000D01*
Y-531000D01*
X-479000D01*
Y-539000D01*
X-471000D01*
Y-547000D01*
X-463000D01*
Y-555000D01*
Y-563000D01*
X-455000D01*
Y-571000D01*
X-447000D01*
Y-579000D01*
Y-587000D01*
X-439000D01*
Y-595000D01*
Y-603000D01*
X-431000D01*
Y-611000D01*
Y-619000D01*
X-423000D01*
Y-627000D01*
Y-635000D01*
X-415000D01*
Y-643000D01*
Y-651000D01*
Y-659000D01*
X-407000D01*
Y-667000D01*
Y-675000D01*
Y-683000D01*
Y-691000D01*
X-399000D01*
Y-699000D01*
Y-707000D01*
Y-715000D01*
Y-723000D01*
Y-731000D01*
Y-739000D01*
Y-747000D01*
Y-755000D01*
Y-763000D01*
Y-771000D01*
Y-779000D01*
Y-787000D01*
Y-795000D01*
Y-803000D01*
Y-811000D01*
Y-819000D01*
Y-827000D01*
Y-835000D01*
X-407000D01*
Y-843000D01*
Y-851000D01*
Y-859000D01*
Y-867000D01*
X-415000D01*
Y-875000D01*
Y-883000D01*
Y-891000D01*
X-423000D01*
Y-899000D01*
Y-907000D01*
X-431000D01*
Y-915000D01*
Y-923000D01*
X-439000D01*
Y-931000D01*
Y-939000D01*
X-447000D01*
Y-947000D01*
Y-955000D01*
X-455000D01*
Y-963000D01*
X-463000D01*
Y-971000D01*
Y-979000D01*
X-471000D01*
Y-987000D01*
X-479000D01*
Y-995000D01*
X-487000D01*
Y-1003000D01*
X-495000D01*
Y-1011000D01*
X-503000D01*
Y-1019000D01*
X-511000D01*
Y-1027000D01*
X-519000D01*
Y-1035000D01*
X-527000D01*
Y-1043000D01*
X-535000D01*
Y-1051000D01*
X-543000D01*
Y-1059000D01*
X-559000D01*
Y-1067000D01*
X-567000D01*
Y-1075000D01*
X-583000D01*
Y-1083000D01*
X-599000D01*
Y-1091000D01*
X-615000D01*
Y-1099000D01*
X-631000D01*
Y-1107000D01*
X-655000D01*
Y-1115000D01*
X-687000D01*
Y-1123000D01*
X-831000D01*
Y-1115000D01*
X-863000D01*
Y-1107000D01*
X-887000D01*
Y-1099000D01*
X-903000D01*
Y-1091000D01*
X-919000D01*
Y-1083000D01*
X-935000D01*
Y-1075000D01*
X-951000D01*
Y-1067000D01*
X-959000D01*
Y-1059000D01*
X-975000D01*
Y-1051000D01*
X-983000D01*
Y-1043000D01*
X-991000D01*
Y-1035000D01*
X-999000D01*
Y-1027000D01*
X-1007000D01*
Y-1019000D01*
X-1015000D01*
Y-1011000D01*
X-1023000D01*
Y-1003000D01*
X-1031000D01*
Y-995000D01*
X-1039000D01*
Y-987000D01*
X-1047000D01*
Y-979000D01*
X-1055000D01*
Y-971000D01*
Y-963000D01*
X-1063000D01*
Y-955000D01*
X-1071000D01*
Y-947000D01*
Y-939000D01*
X-1079000D01*
Y-931000D01*
Y-923000D01*
X-1087000D01*
Y-915000D01*
Y-907000D01*
X-1095000D01*
Y-899000D01*
Y-891000D01*
X-1103000D01*
Y-883000D01*
Y-875000D01*
Y-867000D01*
X-1111000D01*
Y-859000D01*
Y-851000D01*
Y-843000D01*
Y-835000D01*
X-1119000D01*
Y-827000D01*
Y-819000D01*
Y-811000D01*
Y-803000D01*
Y-795000D01*
Y-787000D01*
Y-779000D01*
Y-771000D01*
Y-763000D01*
Y-755000D01*
Y-747000D01*
Y-739000D01*
Y-731000D01*
Y-723000D01*
Y-715000D01*
Y-707000D01*
Y-699000D01*
Y-691000D01*
X-1111000D01*
Y-683000D01*
Y-675000D01*
Y-667000D01*
Y-659000D01*
X-1103000D01*
Y-651000D01*
Y-643000D01*
Y-635000D01*
X-1095000D01*
Y-627000D01*
Y-619000D01*
X-1087000D01*
Y-611000D01*
Y-603000D01*
X-1079000D01*
Y-595000D01*
Y-587000D01*
X-1071000D01*
Y-579000D01*
Y-571000D01*
X-1063000D01*
Y-563000D01*
X-1055000D01*
Y-555000D01*
Y-547000D01*
X-1047000D01*
Y-539000D01*
X-1039000D01*
Y-531000D01*
X-1031000D01*
Y-523000D01*
X-1023000D01*
Y-515000D01*
X-1015000D01*
Y-507000D01*
X-1007000D01*
Y-499000D01*
X-999000D01*
Y-491000D01*
X-991000D01*
Y-483000D01*
X-983000D01*
Y-475000D01*
X-975000D01*
Y-467000D01*
X-959000D01*
Y-459000D01*
X-951000D01*
Y-451000D01*
X-935000D01*
Y-443000D01*
X-919000D01*
Y-435000D01*
X-903000D01*
Y-427000D01*
X-887000D01*
Y-419000D01*
X-863000D01*
Y-411000D01*
X-831000D01*
Y-403000D01*
X-687000D01*
Y-411000D01*
D02*
G37*
%LPC*%
G36*
X278091Y1885979D02*
X258406D01*
X250663Y1884439D01*
X244100Y1880054D01*
X239714Y1873490D01*
X238174Y1865748D01*
Y1806693D01*
X239714Y1798951D01*
X244100Y1792387D01*
X250663Y1788002D01*
X258406Y1786462D01*
X278091D01*
X285833Y1788002D01*
X292396Y1792387D01*
X296782Y1798951D01*
X298322Y1806693D01*
Y1865748D01*
X296782Y1873490D01*
X292396Y1880054D01*
X285833Y1884439D01*
X278091Y1885979D01*
D02*
G37*
G36*
X-253405D02*
X-273091D01*
X-280833Y1884439D01*
X-287396Y1880054D01*
X-291782Y1873490D01*
X-293322Y1865748D01*
Y1806693D01*
X-291782Y1798951D01*
X-287396Y1792387D01*
X-280833Y1788002D01*
X-273091Y1786462D01*
X-253405D01*
X-245663Y1788002D01*
X-239100Y1792387D01*
X-234714Y1798951D01*
X-233174Y1806693D01*
Y1865748D01*
X-234714Y1873490D01*
X-239100Y1880054D01*
X-245663Y1884439D01*
X-253405Y1885979D01*
D02*
G37*
G36*
X144232Y1709076D02*
X127169Y1707733D01*
X110526Y1703738D01*
X101006Y1699795D01*
X144232Y1656569D01*
X187458Y1699795D01*
X177939Y1703738D01*
X161296Y1707733D01*
X144232Y1709076D01*
D02*
G37*
G36*
X-139232D02*
X-156296Y1707733D01*
X-172939Y1703738D01*
X-182458Y1699795D01*
X-139232Y1656569D01*
X-96006Y1699795D01*
X-105526Y1703738D01*
X-122169Y1707733D01*
X-139232Y1709076D01*
D02*
G37*
G36*
X244027Y1643226D02*
X200801Y1600000D01*
X244027Y1556774D01*
X247970Y1566294D01*
X251966Y1582937D01*
X253309Y1600000D01*
X251966Y1617063D01*
X247970Y1633706D01*
X244027Y1643226D01*
D02*
G37*
G36*
X-39438D02*
X-82664Y1600000D01*
X-39438Y1556774D01*
X-35495Y1566294D01*
X-31499Y1582937D01*
X-30156Y1600000D01*
X-31499Y1617063D01*
X-35495Y1633706D01*
X-39438Y1643226D01*
D02*
G37*
G36*
X44438D02*
X40495Y1633706D01*
X36499Y1617063D01*
X35156Y1600000D01*
X36499Y1582937D01*
X40495Y1566294D01*
X44438Y1556774D01*
X87664Y1600000D01*
X44438Y1643226D01*
D02*
G37*
G36*
X-239027D02*
X-242970Y1633706D01*
X-246966Y1617063D01*
X-248309Y1600000D01*
X-246966Y1582937D01*
X-242970Y1566294D01*
X-239027Y1556774D01*
X-195801Y1600000D01*
X-239027Y1643226D01*
D02*
G37*
G36*
X144232Y1543431D02*
X101006Y1500205D01*
X110526Y1496262D01*
X127169Y1492267D01*
X144232Y1490924D01*
X161296Y1492267D01*
X177939Y1496262D01*
X187458Y1500205D01*
X144232Y1543431D01*
D02*
G37*
G36*
X-139232D02*
X-182458Y1500205D01*
X-172939Y1496262D01*
X-156296Y1492267D01*
X-139232Y1490924D01*
X-122169Y1492267D01*
X-105526Y1496262D01*
X-96006Y1500205D01*
X-139232Y1543431D01*
D02*
G37*
G36*
X1231591Y1885979D02*
X1211906D01*
X1204163Y1884439D01*
X1197600Y1880054D01*
X1193214Y1873490D01*
X1191674Y1865748D01*
Y1806693D01*
X1193214Y1798951D01*
X1197600Y1792387D01*
X1204163Y1788002D01*
X1211906Y1786462D01*
X1231591D01*
X1239333Y1788002D01*
X1245896Y1792387D01*
X1250282Y1798951D01*
X1251822Y1806693D01*
Y1865748D01*
X1250282Y1873490D01*
X1245896Y1880054D01*
X1239333Y1884439D01*
X1231591Y1885979D01*
D02*
G37*
G36*
X700095D02*
X680409D01*
X672667Y1884439D01*
X666104Y1880054D01*
X661718Y1873490D01*
X660178Y1865748D01*
Y1806693D01*
X661718Y1798951D01*
X666104Y1792387D01*
X672667Y1788002D01*
X680409Y1786462D01*
X700095D01*
X707837Y1788002D01*
X714400Y1792387D01*
X718786Y1798951D01*
X720326Y1806693D01*
Y1865748D01*
X718786Y1873490D01*
X714400Y1880054D01*
X707837Y1884439D01*
X700095Y1885979D01*
D02*
G37*
G36*
X1550000Y1935417D02*
X1528816Y1933750D01*
X1508154Y1928790D01*
X1488522Y1920658D01*
X1470404Y1909555D01*
X1454245Y1895755D01*
X1440445Y1879596D01*
X1429342Y1861478D01*
X1421210Y1841846D01*
X1416250Y1821184D01*
X1414583Y1800000D01*
X1416250Y1778816D01*
X1421210Y1758154D01*
X1429342Y1738522D01*
X1440445Y1720404D01*
X1454245Y1704245D01*
X1470404Y1690445D01*
X1488522Y1679342D01*
X1508154Y1671210D01*
X1528816Y1666250D01*
X1550000Y1664583D01*
X1571184Y1666250D01*
X1591846Y1671210D01*
X1611478Y1679342D01*
X1629596Y1690445D01*
X1645755Y1704245D01*
X1659555Y1720404D01*
X1670658Y1738522D01*
X1678790Y1758154D01*
X1683750Y1778816D01*
X1685417Y1800000D01*
X1683750Y1821184D01*
X1678790Y1841846D01*
X1670658Y1861478D01*
X1659555Y1879596D01*
X1645755Y1895755D01*
X1629596Y1909555D01*
X1611478Y1920658D01*
X1591846Y1928790D01*
X1571184Y1933750D01*
X1550000Y1935417D01*
D02*
G37*
G36*
X1097732Y1709076D02*
X1080669Y1707733D01*
X1064026Y1703738D01*
X1054506Y1699795D01*
X1097732Y1656569D01*
X1140958Y1699795D01*
X1131439Y1703738D01*
X1114796Y1707733D01*
X1097732Y1709076D01*
D02*
G37*
G36*
X814268D02*
X797204Y1707733D01*
X780561Y1703738D01*
X771042Y1699795D01*
X814268Y1656569D01*
X857494Y1699795D01*
X847974Y1703738D01*
X831331Y1707733D01*
X814268Y1709076D01*
D02*
G37*
G36*
X1197527Y1643226D02*
X1154301Y1600000D01*
X1197527Y1556774D01*
X1201470Y1566294D01*
X1205466Y1582937D01*
X1206809Y1600000D01*
X1205466Y1617063D01*
X1201470Y1633706D01*
X1197527Y1643226D01*
D02*
G37*
G36*
X914062D02*
X870836Y1600000D01*
X914062Y1556774D01*
X918005Y1566294D01*
X922001Y1582937D01*
X923344Y1600000D01*
X922001Y1617063D01*
X918005Y1633706D01*
X914062Y1643226D01*
D02*
G37*
G36*
X997938D02*
X993995Y1633706D01*
X989999Y1617063D01*
X988656Y1600000D01*
X989999Y1582937D01*
X993995Y1566294D01*
X997938Y1556774D01*
X1041164Y1600000D01*
X997938Y1643226D01*
D02*
G37*
G36*
X714473D02*
X710530Y1633706D01*
X706534Y1617063D01*
X705191Y1600000D01*
X706534Y1582937D01*
X710530Y1566294D01*
X714473Y1556774D01*
X757699Y1600000D01*
X714473Y1643226D01*
D02*
G37*
G36*
X1097732Y1543431D02*
X1054506Y1500205D01*
X1064026Y1496262D01*
X1080669Y1492267D01*
X1097732Y1490924D01*
X1114796Y1492267D01*
X1131439Y1496262D01*
X1140958Y1500205D01*
X1097732Y1543431D01*
D02*
G37*
G36*
X814268D02*
X771042Y1500205D01*
X780561Y1496262D01*
X797204Y1492267D01*
X814268Y1490924D01*
X831331Y1492267D01*
X847974Y1496262D01*
X857494Y1500205D01*
X814268Y1543431D01*
D02*
G37*
G36*
X-680409Y1885979D02*
X-700095D01*
X-707837Y1884439D01*
X-714400Y1880054D01*
X-718786Y1873490D01*
X-720326Y1865748D01*
Y1806693D01*
X-718786Y1798951D01*
X-714400Y1792387D01*
X-707837Y1788002D01*
X-700095Y1786462D01*
X-680409D01*
X-672667Y1788002D01*
X-666104Y1792387D01*
X-661718Y1798951D01*
X-660178Y1806693D01*
Y1865748D01*
X-661718Y1873490D01*
X-666104Y1880054D01*
X-672667Y1884439D01*
X-680409Y1885979D01*
D02*
G37*
G36*
X-1211906D02*
X-1231591D01*
X-1239333Y1884439D01*
X-1245896Y1880054D01*
X-1250282Y1873490D01*
X-1251822Y1865748D01*
Y1806693D01*
X-1250282Y1798951D01*
X-1245896Y1792387D01*
X-1239333Y1788002D01*
X-1231591Y1786462D01*
X-1211906D01*
X-1204163Y1788002D01*
X-1197600Y1792387D01*
X-1193214Y1798951D01*
X-1191674Y1806693D01*
Y1865748D01*
X-1193214Y1873490D01*
X-1197600Y1880054D01*
X-1204163Y1884439D01*
X-1211906Y1885979D01*
D02*
G37*
G36*
X-1550000Y1935417D02*
X-1571184Y1933750D01*
X-1591846Y1928790D01*
X-1611478Y1920658D01*
X-1629596Y1909555D01*
X-1645755Y1895755D01*
X-1659555Y1879596D01*
X-1670658Y1861478D01*
X-1678790Y1841846D01*
X-1683750Y1821184D01*
X-1685417Y1800000D01*
X-1683750Y1778816D01*
X-1678790Y1758154D01*
X-1670658Y1738522D01*
X-1659555Y1720404D01*
X-1645755Y1704245D01*
X-1629596Y1690445D01*
X-1611478Y1679342D01*
X-1591846Y1671210D01*
X-1571184Y1666250D01*
X-1550000Y1664583D01*
X-1528816Y1666250D01*
X-1508154Y1671210D01*
X-1488522Y1679342D01*
X-1470404Y1690445D01*
X-1454245Y1704245D01*
X-1440445Y1720404D01*
X-1429342Y1738522D01*
X-1421210Y1758154D01*
X-1416250Y1778816D01*
X-1414583Y1800000D01*
X-1416250Y1821184D01*
X-1421210Y1841846D01*
X-1429342Y1861478D01*
X-1440445Y1879596D01*
X-1454245Y1895755D01*
X-1470404Y1909555D01*
X-1488522Y1920658D01*
X-1508154Y1928790D01*
X-1528816Y1933750D01*
X-1550000Y1935417D01*
D02*
G37*
G36*
X-814268Y1709076D02*
X-831331Y1707733D01*
X-847974Y1703738D01*
X-857494Y1699795D01*
X-814268Y1656569D01*
X-771042Y1699795D01*
X-780561Y1703738D01*
X-797204Y1707733D01*
X-814268Y1709076D01*
D02*
G37*
G36*
X-1097732D02*
X-1114796Y1707733D01*
X-1131439Y1703738D01*
X-1140958Y1699795D01*
X-1097732Y1656569D01*
X-1054506Y1699795D01*
X-1064026Y1703738D01*
X-1080669Y1707733D01*
X-1097732Y1709076D01*
D02*
G37*
G36*
X-714473Y1643226D02*
X-757699Y1600000D01*
X-714473Y1556774D01*
X-710530Y1566294D01*
X-706534Y1582937D01*
X-705191Y1600000D01*
X-706534Y1617063D01*
X-710530Y1633706D01*
X-714473Y1643226D01*
D02*
G37*
G36*
X-997938D02*
X-1041164Y1600000D01*
X-997938Y1556774D01*
X-993995Y1566294D01*
X-989999Y1582937D01*
X-988656Y1600000D01*
X-989999Y1617063D01*
X-993995Y1633706D01*
X-997938Y1643226D01*
D02*
G37*
G36*
X-914062D02*
X-918005Y1633706D01*
X-922001Y1617063D01*
X-923344Y1600000D01*
X-922001Y1582937D01*
X-918005Y1566294D01*
X-914062Y1556774D01*
X-870836Y1600000D01*
X-914062Y1643226D01*
D02*
G37*
G36*
X-1197527D02*
X-1201470Y1633706D01*
X-1205466Y1617063D01*
X-1206809Y1600000D01*
X-1205466Y1582937D01*
X-1201470Y1566294D01*
X-1197527Y1556774D01*
X-1154301Y1600000D01*
X-1197527Y1643226D01*
D02*
G37*
G36*
X-814268Y1543431D02*
X-857494Y1500205D01*
X-847974Y1496262D01*
X-831331Y1492267D01*
X-814268Y1490924D01*
X-797204Y1492267D01*
X-780561Y1496262D01*
X-771042Y1500205D01*
X-814268Y1543431D01*
D02*
G37*
G36*
X-1097732D02*
X-1140958Y1500205D01*
X-1131439Y1496262D01*
X-1114796Y1492267D01*
X-1097732Y1490924D01*
X-1080669Y1492267D01*
X-1064026Y1496262D01*
X-1054506Y1500205D01*
X-1097732Y1543431D01*
D02*
G37*
G36*
X-743000Y-443000D02*
X-775000D01*
Y-451000D01*
X-831000D01*
Y-459000D01*
X-863000D01*
Y-467000D01*
X-887000D01*
Y-475000D01*
X-903000D01*
Y-483000D01*
X-919000D01*
Y-491000D01*
X-927000D01*
Y-499000D01*
X-943000D01*
Y-507000D01*
X-951000D01*
Y-515000D01*
X-967000D01*
Y-523000D01*
X-975000D01*
Y-531000D01*
X-983000D01*
Y-539000D01*
X-991000D01*
Y-547000D01*
X-999000D01*
Y-555000D01*
X-1007000D01*
Y-563000D01*
Y-571000D01*
X-1015000D01*
Y-579000D01*
X-1023000D01*
Y-587000D01*
Y-595000D01*
X-1031000D01*
Y-603000D01*
X-1039000D01*
Y-611000D01*
Y-619000D01*
X-1047000D01*
Y-627000D01*
Y-635000D01*
X-1055000D01*
Y-643000D01*
Y-651000D01*
Y-659000D01*
X-1063000D01*
Y-667000D01*
Y-675000D01*
Y-683000D01*
Y-691000D01*
X-1071000D01*
Y-699000D01*
Y-707000D01*
Y-715000D01*
Y-723000D01*
Y-731000D01*
Y-739000D01*
Y-747000D01*
Y-755000D01*
Y-763000D01*
Y-771000D01*
Y-779000D01*
Y-787000D01*
Y-795000D01*
Y-803000D01*
Y-811000D01*
Y-819000D01*
Y-827000D01*
X-1063000D01*
Y-835000D01*
Y-843000D01*
Y-851000D01*
Y-859000D01*
Y-867000D01*
X-1055000D01*
Y-875000D01*
Y-883000D01*
X-1047000D01*
Y-891000D01*
Y-899000D01*
Y-907000D01*
X-1039000D01*
Y-915000D01*
Y-923000D01*
X-1031000D01*
Y-931000D01*
X-1023000D01*
Y-939000D01*
Y-947000D01*
X-1015000D01*
Y-955000D01*
X-1007000D01*
Y-963000D01*
Y-971000D01*
X-999000D01*
Y-979000D01*
X-991000D01*
Y-987000D01*
X-983000D01*
Y-995000D01*
X-975000D01*
Y-1003000D01*
X-967000D01*
Y-1011000D01*
X-951000D01*
Y-1019000D01*
X-943000D01*
Y-1027000D01*
X-927000D01*
Y-1035000D01*
X-919000D01*
Y-1043000D01*
X-903000D01*
Y-1051000D01*
X-887000D01*
Y-1059000D01*
X-863000D01*
Y-1067000D01*
X-831000D01*
Y-1075000D01*
X-783000D01*
Y-1083000D01*
X-735000D01*
Y-1075000D01*
X-687000D01*
Y-1067000D01*
X-655000D01*
Y-1059000D01*
X-631000D01*
Y-1051000D01*
X-615000D01*
Y-1043000D01*
X-599000D01*
Y-1035000D01*
X-591000D01*
Y-1027000D01*
X-575000D01*
Y-1019000D01*
X-567000D01*
Y-1011000D01*
X-551000D01*
Y-1003000D01*
X-543000D01*
Y-995000D01*
X-535000D01*
Y-987000D01*
X-527000D01*
Y-979000D01*
X-519000D01*
Y-971000D01*
X-511000D01*
Y-963000D01*
Y-955000D01*
X-503000D01*
Y-947000D01*
X-495000D01*
Y-939000D01*
Y-931000D01*
X-487000D01*
Y-923000D01*
X-479000D01*
Y-915000D01*
Y-907000D01*
X-471000D01*
Y-899000D01*
Y-891000D01*
Y-883000D01*
Y-875000D01*
X-463000D01*
Y-867000D01*
Y-859000D01*
Y-851000D01*
Y-843000D01*
Y-835000D01*
Y-827000D01*
X-455000D01*
Y-819000D01*
Y-811000D01*
Y-803000D01*
X-447000D01*
Y-795000D01*
Y-787000D01*
Y-779000D01*
Y-771000D01*
Y-763000D01*
Y-755000D01*
Y-747000D01*
Y-739000D01*
Y-731000D01*
Y-723000D01*
Y-715000D01*
X-455000D01*
Y-707000D01*
Y-699000D01*
Y-691000D01*
Y-683000D01*
Y-675000D01*
Y-667000D01*
Y-659000D01*
X-463000D01*
Y-651000D01*
Y-643000D01*
Y-635000D01*
X-471000D01*
Y-627000D01*
Y-619000D01*
X-479000D01*
Y-611000D01*
Y-603000D01*
X-487000D01*
Y-595000D01*
X-495000D01*
Y-587000D01*
Y-579000D01*
X-503000D01*
Y-571000D01*
X-511000D01*
Y-563000D01*
Y-555000D01*
X-519000D01*
Y-547000D01*
X-527000D01*
Y-539000D01*
X-535000D01*
Y-531000D01*
X-543000D01*
Y-523000D01*
X-551000D01*
Y-515000D01*
X-567000D01*
Y-507000D01*
X-575000D01*
Y-499000D01*
X-591000D01*
Y-491000D01*
X-599000D01*
Y-483000D01*
X-615000D01*
Y-475000D01*
X-631000D01*
Y-467000D01*
X-655000D01*
Y-459000D01*
X-687000D01*
Y-451000D01*
X-743000D01*
Y-443000D01*
D02*
G37*
%LPD*%
G36*
X-879000Y-595000D02*
Y-603000D01*
Y-611000D01*
Y-619000D01*
Y-627000D01*
X-871000D01*
Y-635000D01*
X-863000D01*
Y-643000D01*
X-847000D01*
Y-651000D01*
X-831000D01*
Y-659000D01*
Y-667000D01*
X-823000D01*
Y-675000D01*
Y-683000D01*
X-815000D01*
Y-691000D01*
Y-699000D01*
X-807000D01*
Y-707000D01*
X-791000D01*
Y-715000D01*
X-783000D01*
Y-723000D01*
X-767000D01*
Y-731000D01*
Y-739000D01*
Y-747000D01*
X-759000D01*
Y-755000D01*
Y-763000D01*
Y-771000D01*
X-775000D01*
Y-779000D01*
X-791000D01*
Y-787000D01*
X-807000D01*
Y-779000D01*
X-815000D01*
Y-771000D01*
X-823000D01*
Y-763000D01*
X-831000D01*
Y-755000D01*
X-887000D01*
Y-747000D01*
X-903000D01*
Y-739000D01*
X-911000D01*
Y-731000D01*
X-919000D01*
Y-723000D01*
X-927000D01*
Y-715000D01*
Y-707000D01*
X-935000D01*
Y-699000D01*
Y-691000D01*
Y-683000D01*
Y-675000D01*
X-927000D01*
Y-667000D01*
Y-659000D01*
X-919000D01*
Y-651000D01*
Y-643000D01*
X-927000D01*
Y-651000D01*
X-935000D01*
Y-659000D01*
Y-667000D01*
X-943000D01*
Y-675000D01*
Y-683000D01*
Y-691000D01*
Y-699000D01*
Y-707000D01*
X-935000D01*
Y-715000D01*
Y-723000D01*
Y-731000D01*
X-927000D01*
Y-739000D01*
X-919000D01*
Y-747000D01*
Y-755000D01*
X-911000D01*
Y-763000D01*
X-903000D01*
Y-771000D01*
X-895000D01*
Y-779000D01*
X-887000D01*
Y-787000D01*
X-879000D01*
Y-795000D01*
X-887000D01*
Y-787000D01*
X-895000D01*
Y-779000D01*
X-903000D01*
Y-771000D01*
X-911000D01*
Y-763000D01*
X-919000D01*
Y-755000D01*
X-927000D01*
Y-747000D01*
X-935000D01*
Y-739000D01*
X-943000D01*
Y-731000D01*
X-951000D01*
Y-723000D01*
Y-715000D01*
X-959000D01*
Y-707000D01*
Y-699000D01*
Y-691000D01*
Y-683000D01*
Y-675000D01*
Y-667000D01*
X-967000D01*
Y-675000D01*
Y-683000D01*
Y-691000D01*
Y-699000D01*
Y-707000D01*
Y-715000D01*
Y-723000D01*
X-959000D01*
Y-731000D01*
Y-739000D01*
X-951000D01*
Y-747000D01*
X-943000D01*
Y-755000D01*
X-935000D01*
Y-763000D01*
X-927000D01*
Y-771000D01*
X-919000D01*
Y-779000D01*
X-911000D01*
Y-787000D01*
X-903000D01*
Y-795000D01*
X-895000D01*
Y-803000D01*
X-887000D01*
Y-811000D01*
X-879000D01*
Y-819000D01*
X-871000D01*
Y-827000D01*
Y-835000D01*
X-879000D01*
Y-827000D01*
X-887000D01*
Y-819000D01*
X-895000D01*
Y-811000D01*
X-903000D01*
Y-803000D01*
X-911000D01*
Y-795000D01*
X-919000D01*
Y-787000D01*
X-927000D01*
Y-779000D01*
X-943000D01*
Y-771000D01*
X-951000D01*
Y-763000D01*
X-959000D01*
Y-755000D01*
Y-747000D01*
X-967000D01*
Y-739000D01*
X-975000D01*
Y-731000D01*
X-983000D01*
Y-723000D01*
Y-715000D01*
X-991000D01*
Y-707000D01*
Y-699000D01*
Y-691000D01*
Y-683000D01*
X-983000D01*
Y-675000D01*
Y-667000D01*
Y-659000D01*
X-975000D01*
Y-651000D01*
X-959000D01*
Y-659000D01*
Y-667000D01*
X-951000D01*
Y-659000D01*
Y-651000D01*
X-943000D01*
Y-643000D01*
X-935000D01*
Y-635000D01*
X-927000D01*
Y-627000D01*
X-919000D01*
Y-635000D01*
Y-643000D01*
X-911000D01*
Y-635000D01*
Y-627000D01*
Y-619000D01*
X-903000D01*
Y-611000D01*
Y-603000D01*
X-895000D01*
Y-595000D01*
X-887000D01*
Y-587000D01*
X-879000D01*
Y-595000D01*
D02*
G37*
G36*
X-471000Y-715000D02*
Y-723000D01*
Y-731000D01*
X-479000D01*
Y-739000D01*
X-471000D01*
Y-747000D01*
X-535000D01*
Y-755000D01*
X-471000D01*
Y-763000D01*
Y-771000D01*
X-535000D01*
Y-763000D01*
X-551000D01*
Y-755000D01*
X-559000D01*
Y-763000D01*
X-567000D01*
Y-771000D01*
X-623000D01*
Y-763000D01*
X-631000D01*
Y-755000D01*
X-647000D01*
Y-763000D01*
X-655000D01*
Y-771000D01*
X-711000D01*
Y-763000D01*
X-719000D01*
Y-755000D01*
Y-747000D01*
X-727000D01*
Y-739000D01*
X-719000D01*
Y-731000D01*
Y-723000D01*
Y-715000D01*
Y-707000D01*
X-711000D01*
Y-715000D01*
X-703000D01*
Y-723000D01*
Y-731000D01*
Y-739000D01*
Y-747000D01*
Y-755000D01*
X-663000D01*
Y-747000D01*
Y-739000D01*
Y-731000D01*
Y-723000D01*
Y-715000D01*
X-655000D01*
Y-707000D01*
X-647000D01*
Y-715000D01*
X-639000D01*
Y-723000D01*
X-631000D01*
Y-715000D01*
X-623000D01*
Y-707000D01*
X-567000D01*
Y-715000D01*
X-559000D01*
Y-723000D01*
X-543000D01*
Y-715000D01*
X-535000D01*
Y-707000D01*
X-471000D01*
Y-715000D01*
D02*
G37*
G36*
X-623000Y-795000D02*
Y-803000D01*
X-615000D01*
Y-811000D01*
X-607000D01*
Y-803000D01*
X-551000D01*
Y-811000D01*
X-535000D01*
Y-803000D01*
X-479000D01*
Y-811000D01*
X-471000D01*
Y-819000D01*
Y-827000D01*
Y-835000D01*
Y-843000D01*
Y-851000D01*
X-479000D01*
Y-859000D01*
X-487000D01*
Y-851000D01*
X-495000D01*
Y-843000D01*
X-535000D01*
Y-835000D01*
X-551000D01*
Y-843000D01*
X-559000D01*
Y-835000D01*
Y-827000D01*
Y-819000D01*
X-599000D01*
Y-827000D01*
Y-835000D01*
Y-843000D01*
X-695000D01*
Y-835000D01*
X-703000D01*
Y-843000D01*
X-767000D01*
Y-835000D01*
X-775000D01*
Y-827000D01*
Y-819000D01*
X-799000D01*
Y-827000D01*
Y-835000D01*
X-807000D01*
Y-843000D01*
X-815000D01*
Y-835000D01*
X-823000D01*
Y-827000D01*
Y-819000D01*
X-815000D01*
Y-811000D01*
Y-803000D01*
X-775000D01*
Y-811000D01*
X-767000D01*
Y-803000D01*
X-711000D01*
Y-811000D01*
X-695000D01*
Y-803000D01*
X-631000D01*
Y-795000D01*
Y-787000D01*
X-623000D01*
Y-795000D01*
D02*
G37*
G36*
X-1039000Y-787000D02*
X-1031000D01*
Y-795000D01*
Y-803000D01*
X-1023000D01*
Y-811000D01*
X-1015000D01*
Y-819000D01*
X-999000D01*
Y-827000D01*
X-991000D01*
Y-835000D01*
X-975000D01*
Y-843000D01*
X-959000D01*
Y-851000D01*
X-951000D01*
Y-859000D01*
X-935000D01*
Y-867000D01*
X-927000D01*
Y-875000D01*
X-919000D01*
Y-883000D01*
X-911000D01*
Y-891000D01*
X-919000D01*
Y-883000D01*
X-927000D01*
Y-875000D01*
X-943000D01*
Y-867000D01*
X-959000D01*
Y-859000D01*
X-975000D01*
Y-851000D01*
X-991000D01*
Y-843000D01*
X-1007000D01*
Y-835000D01*
X-1015000D01*
Y-827000D01*
X-1023000D01*
Y-819000D01*
X-1031000D01*
Y-811000D01*
X-1039000D01*
Y-803000D01*
X-1047000D01*
Y-795000D01*
Y-787000D01*
Y-779000D01*
X-1039000D01*
Y-787000D01*
D02*
G37*
G36*
X-999000Y-691000D02*
Y-699000D01*
Y-707000D01*
Y-715000D01*
X-991000D01*
Y-723000D01*
Y-731000D01*
Y-739000D01*
X-983000D01*
Y-747000D01*
X-975000D01*
Y-755000D01*
Y-763000D01*
X-967000D01*
Y-771000D01*
X-959000D01*
Y-779000D01*
X-951000D01*
Y-787000D01*
X-943000D01*
Y-795000D01*
X-927000D01*
Y-803000D01*
X-919000D01*
Y-811000D01*
X-911000D01*
Y-819000D01*
X-903000D01*
Y-827000D01*
X-895000D01*
Y-835000D01*
X-887000D01*
Y-843000D01*
X-879000D01*
Y-851000D01*
Y-859000D01*
X-871000D01*
Y-867000D01*
X-863000D01*
Y-875000D01*
Y-883000D01*
X-855000D01*
Y-891000D01*
Y-899000D01*
X-863000D01*
Y-891000D01*
X-871000D01*
Y-883000D01*
Y-875000D01*
Y-867000D01*
X-879000D01*
Y-859000D01*
X-887000D01*
Y-851000D01*
Y-843000D01*
X-903000D01*
Y-835000D01*
X-911000D01*
Y-827000D01*
X-919000D01*
Y-819000D01*
X-927000D01*
Y-811000D01*
X-935000D01*
Y-803000D01*
X-951000D01*
Y-795000D01*
X-959000D01*
Y-787000D01*
X-967000D01*
Y-779000D01*
X-975000D01*
Y-771000D01*
X-983000D01*
Y-763000D01*
X-991000D01*
Y-755000D01*
X-999000D01*
Y-747000D01*
X-1007000D01*
Y-739000D01*
Y-731000D01*
Y-723000D01*
X-1015000D01*
Y-715000D01*
Y-707000D01*
Y-699000D01*
X-1007000D01*
Y-691000D01*
Y-683000D01*
X-999000D01*
Y-691000D01*
D02*
G37*
G36*
X-1023000Y-731000D02*
Y-739000D01*
X-1015000D01*
Y-747000D01*
Y-755000D01*
Y-763000D01*
X-1007000D01*
Y-771000D01*
X-999000D01*
Y-779000D01*
X-991000D01*
Y-787000D01*
X-983000D01*
Y-795000D01*
X-975000D01*
Y-803000D01*
X-967000D01*
Y-811000D01*
X-959000D01*
Y-819000D01*
X-943000D01*
Y-827000D01*
X-935000D01*
Y-835000D01*
X-927000D01*
Y-843000D01*
X-911000D01*
Y-851000D01*
X-903000D01*
Y-859000D01*
X-895000D01*
Y-867000D01*
X-887000D01*
Y-875000D01*
Y-883000D01*
X-879000D01*
Y-891000D01*
Y-899000D01*
X-871000D01*
Y-907000D01*
Y-915000D01*
X-863000D01*
Y-923000D01*
Y-931000D01*
X-871000D01*
Y-923000D01*
X-879000D01*
Y-915000D01*
Y-907000D01*
X-887000D01*
Y-899000D01*
Y-891000D01*
X-895000D01*
Y-883000D01*
X-903000D01*
Y-875000D01*
X-911000D01*
Y-867000D01*
X-919000D01*
Y-859000D01*
X-927000D01*
Y-851000D01*
X-935000D01*
Y-843000D01*
X-951000D01*
Y-835000D01*
X-959000D01*
Y-827000D01*
X-975000D01*
Y-819000D01*
X-983000D01*
Y-811000D01*
X-991000D01*
Y-803000D01*
X-999000D01*
Y-795000D01*
X-1007000D01*
Y-787000D01*
X-1015000D01*
Y-779000D01*
X-1023000D01*
Y-771000D01*
X-1031000D01*
Y-763000D01*
Y-755000D01*
Y-747000D01*
Y-739000D01*
Y-731000D01*
Y-723000D01*
X-1023000D01*
Y-731000D01*
D02*
G37*
%LPC*%
G36*
X-567000D02*
X-623000D01*
Y-739000D01*
Y-747000D01*
X-567000D01*
Y-739000D01*
Y-731000D01*
D02*
G37*
G36*
X-487000Y-819000D02*
X-527000D01*
Y-827000D01*
X-487000D01*
Y-819000D01*
D02*
G37*
G36*
X-631000Y-811000D02*
X-639000D01*
Y-819000D01*
X-687000D01*
Y-827000D01*
X-631000D01*
Y-819000D01*
Y-811000D01*
D02*
G37*
G36*
X-719000Y-819000D02*
X-759000D01*
Y-827000D01*
X-719000D01*
Y-819000D01*
D02*
G37*
G36*
X-487000Y-835000D02*
X-495000D01*
Y-843000D01*
X-487000D01*
Y-835000D01*
D02*
G37*
%LPD*%
D29*
X-1532495Y-1279877D02*
X-1482373Y-1330000D01*
X-1429485D01*
X-1427686Y-1331799D01*
Y-1384686D02*
Y-1331799D01*
X-1503550Y-1367835D02*
X-1467165D01*
X-1208976Y-1626024D01*
X-1548495Y-1322889D02*
X-1503550Y-1367835D01*
X-1208976Y-1626024D02*
X-1182603D01*
X-1567000Y-1400000D02*
X-1540417Y-1426583D01*
X-1567000Y-1400000D02*
X-1564495Y-1397495D01*
X-1427686Y-1384686D02*
X-1202348Y-1610024D01*
X-1564495Y-1397495D02*
Y-1128000D01*
X-1540417Y-1426583D02*
X-1431045D01*
X-1189230Y-1642024D02*
X-1130255Y-1701000D01*
X-1215603Y-1642024D02*
X-1189230D01*
X-1431045Y-1426583D02*
X-1215603Y-1642024D01*
X-1558024Y-1014695D02*
X-1536000Y-1036719D01*
X-1558024Y-1014695D02*
Y-969000D01*
X-1546000Y-1087098D02*
X-1522495Y-1110603D01*
X-1546000Y-1087098D02*
Y-1068258D01*
X-1536000Y-1058258D01*
Y-1036719D01*
X-1202348Y-1610024D02*
X-1175976D01*
X-1532495Y-1279877D02*
Y-1155397D01*
X-1522495Y-1145397D01*
Y-1110603D01*
X-1548495Y-1322889D02*
Y-1148770D01*
X-1562000Y-1093726D02*
X-1538495Y-1117230D01*
X-1562000Y-1093726D02*
Y-1047488D01*
X-1548495Y-1148770D02*
X-1538495Y-1138770D01*
Y-1117230D01*
X-1182603Y-1626024D02*
X-1123627Y-1685000D01*
X-762063Y-1701000D02*
X-606063Y-1545000D01*
X-1130255Y-1701000D02*
X-762063D01*
X-1123627Y-1685000D02*
X-911417D01*
X-771417Y-1545000D01*
X-936772Y-1653772D02*
Y-1545000D01*
X-952000Y-1669000D02*
X-936772Y-1653772D01*
X-1117000Y-1669000D02*
X-952000D01*
X-1175976Y-1610024D02*
X-1117000Y-1669000D01*
X1020000Y23000D02*
X1021000D01*
X1019000Y22000D02*
X1020000Y23000D01*
X790000Y22000D02*
X1019000D01*
D31*
X1118000Y268305D02*
X1473000Y623305D01*
X1118000Y-6551D02*
Y268305D01*
X1473000Y623305D02*
Y1205000D01*
X846551Y-278000D02*
X1118000Y-6551D01*
X846551Y-511449D02*
Y-278000D01*
X338000Y-1020000D02*
X846551Y-511449D01*
X230504Y-1020000D02*
X338000D01*
X172000Y-961496D02*
X230504Y-1020000D01*
X142674Y-568000D02*
X298000Y-723326D01*
X142674Y-568000D02*
Y513707D01*
X298000Y-961496D02*
Y-723326D01*
X2382Y1237382D02*
X11000Y1246000D01*
X2382Y654000D02*
Y1237382D01*
Y654000D02*
X142674Y513707D01*
X-570000Y-341945D02*
Y1356000D01*
Y-341945D02*
X143055Y-1055000D01*
X358528D01*
X454528Y-959000D01*
D32*
X-478000Y-1865000D02*
X-394000D01*
X-610000Y-1733000D02*
X-478000Y-1865000D01*
X-1548976Y-1668024D02*
X-1200000D01*
X-1622000Y-1595000D02*
X-1548976Y-1668024D01*
X-1622000Y-1595000D02*
Y-1244961D01*
X-1135024Y-1733000D02*
X-610000D01*
X-1200000Y-1668024D02*
X-1135024Y-1733000D01*
D33*
X1528000Y-1555000D02*
X1602000Y-1481000D01*
X1122000Y-1555000D02*
X1528000D01*
D36*
X-1622000Y-1008740D02*
D03*
Y-930000D02*
D03*
Y-1087480D02*
D03*
Y-1166220D02*
D03*
Y-1244961D02*
D03*
D37*
X1650000Y-1900000D02*
D03*
X-1650000D02*
D03*
D38*
X1550000Y1800000D02*
D03*
X-1550000D02*
D03*
D39*
X-690252Y1836220D02*
D03*
X-1221748D02*
D03*
X268248D02*
D03*
X-263248D02*
D03*
X1221748D02*
D03*
X690252D02*
D03*
D40*
X-814268Y1600000D02*
D03*
X-1097732D02*
D03*
X144232D02*
D03*
X-139232D02*
D03*
X1097732D02*
D03*
X814268D02*
D03*
X1233780Y-837480D02*
D03*
Y-554016D02*
D03*
D41*
X-920000Y-141851D02*
D03*
X-240000Y-131851D02*
D03*
X1410000D02*
D03*
D42*
X-920000Y55000D02*
D03*
X-240000Y65000D02*
D03*
X1410000D02*
D03*
D43*
X1470000Y-961496D02*
D03*
Y-430000D02*
D03*
D44*
X882189Y-1545000D02*
D03*
Y-1367835D02*
D03*
X-440646D02*
D03*
Y-1545000D02*
D03*
X-275291Y-1367835D02*
D03*
Y-1545000D02*
D03*
X-109937Y-1367835D02*
D03*
Y-1545000D02*
D03*
X55417Y-1367835D02*
D03*
Y-1545000D02*
D03*
X220772Y-1367835D02*
D03*
Y-1545000D02*
D03*
X386126Y-1367835D02*
D03*
Y-1545000D02*
D03*
X551480Y-1367835D02*
D03*
Y-1545000D02*
D03*
X716835Y-1367835D02*
D03*
Y-1545000D02*
D03*
X-606000Y-1367835D02*
D03*
Y-1545000D02*
D03*
X-771354D02*
D03*
Y-1367835D02*
D03*
X-936709Y-1545000D02*
D03*
Y-1367835D02*
D03*
D45*
Y-1832402D02*
D03*
X882189D02*
D03*
D46*
X386126Y-829000D02*
D03*
X-760000Y300000D02*
D03*
X-730000Y240000D02*
D03*
X-760000Y180000D02*
D03*
X-730000Y120000D02*
D03*
X-760000Y60000D02*
D03*
X-730000Y0D02*
D03*
X-820000Y300000D02*
D03*
X-790000Y240000D02*
D03*
X-820000Y180000D02*
D03*
X-790000Y120000D02*
D03*
X-820000Y60000D02*
D03*
X-790000Y0D02*
D03*
X-880000Y300000D02*
D03*
X-850000Y240000D02*
D03*
X-880000Y180000D02*
D03*
X-850000Y120000D02*
D03*
Y0D02*
D03*
X-940000Y300000D02*
D03*
X-910000Y240000D02*
D03*
X-940000Y180000D02*
D03*
X-910000Y120000D02*
D03*
X-1000000Y300000D02*
D03*
X-970000Y240000D02*
D03*
X-1000000Y180000D02*
D03*
X-970000Y120000D02*
D03*
X-1000000Y60000D02*
D03*
X-970000Y0D02*
D03*
X-1060000Y300000D02*
D03*
X-1030000Y240000D02*
D03*
X-1060000Y180000D02*
D03*
X-1030000Y120000D02*
D03*
X-1060000Y60000D02*
D03*
X-1030000Y0D02*
D03*
X-1120000Y300000D02*
D03*
X-1090000Y240000D02*
D03*
X-1120000Y180000D02*
D03*
X-1090000Y120000D02*
D03*
X-1120000Y60000D02*
D03*
X-1090000Y0D02*
D03*
X-1225000Y-300000D02*
D03*
X-1187500Y-375000D02*
D03*
X-1225000Y-450000D02*
D03*
X-1187500Y-525000D02*
D03*
X-1225000Y-600000D02*
D03*
X-1262500Y-225000D02*
D03*
X-1300000Y-300000D02*
D03*
X-1262500Y-375000D02*
D03*
X-1300000Y-450000D02*
D03*
X-1262500Y-525000D02*
D03*
X-1300000Y-600000D02*
D03*
X-1337500Y-225000D02*
D03*
X-1375000Y-300000D02*
D03*
X-1337500Y-375000D02*
D03*
X-1375000Y-450000D02*
D03*
X-1337500Y-525000D02*
D03*
X-1375000Y-600000D02*
D03*
X-1412500Y-225000D02*
D03*
X-1450000Y-300000D02*
D03*
X-1412500Y-375000D02*
D03*
X-1450000Y-450000D02*
D03*
X-1412500Y-525000D02*
D03*
X-1450000Y-600000D02*
D03*
X-1525000Y-150000D02*
D03*
X-1487500Y-225000D02*
D03*
X-1525000Y-300000D02*
D03*
X-1487500Y-375000D02*
D03*
X-1525000Y-450000D02*
D03*
X-1487500Y-525000D02*
D03*
X-1525000Y-600000D02*
D03*
X-1562500Y-75000D02*
D03*
X-1600000Y-150000D02*
D03*
X-1562500Y-225000D02*
D03*
X-1600000Y-300000D02*
D03*
X-1562500Y-375000D02*
D03*
X-1600000Y-450000D02*
D03*
X-1562500Y-525000D02*
D03*
X-1600000Y-600000D02*
D03*
X-1637500Y-75000D02*
D03*
X-1675000Y-150000D02*
D03*
X-1637500Y-225000D02*
D03*
Y-375000D02*
D03*
X-1675000Y-450000D02*
D03*
X-1637500Y-525000D02*
D03*
X-1675000Y-600000D02*
D03*
X1600000Y-1720000D02*
D03*
X1640000Y-1800000D02*
D03*
X1520000Y-1880000D02*
D03*
X1440000D02*
D03*
X1360000D02*
D03*
X1280000Y-1720000D02*
D03*
Y-1880000D02*
D03*
X1240000Y-1800000D02*
D03*
X1200000Y-1880000D02*
D03*
X1160000Y-1800000D02*
D03*
X1120000Y-1880000D02*
D03*
X1080000Y-1800000D02*
D03*
X1680000Y-200000D02*
D03*
Y-360000D02*
D03*
Y-520000D02*
D03*
X1640000Y-120000D02*
D03*
X1600000Y-200000D02*
D03*
X1640000Y-280000D02*
D03*
X1600000Y-360000D02*
D03*
X1640000Y-440000D02*
D03*
X1600000Y-520000D02*
D03*
X1640000Y-600000D02*
D03*
X1560000Y-120000D02*
D03*
X1520000Y-200000D02*
D03*
X1560000Y-280000D02*
D03*
X1520000Y-360000D02*
D03*
X1560000Y-440000D02*
D03*
X1520000Y-520000D02*
D03*
X1560000Y-600000D02*
D03*
X1520000Y-680000D02*
D03*
X1480000Y-120000D02*
D03*
X1440000Y-200000D02*
D03*
X1480000Y-280000D02*
D03*
X1440000Y-360000D02*
D03*
Y-520000D02*
D03*
X1480000Y-600000D02*
D03*
X1440000Y-680000D02*
D03*
X1360000Y-200000D02*
D03*
X1400000Y-280000D02*
D03*
X1360000Y-360000D02*
D03*
X1400000Y-440000D02*
D03*
X1360000Y-520000D02*
D03*
X1400000Y-600000D02*
D03*
X1360000Y-680000D02*
D03*
X1320000Y-120000D02*
D03*
X1280000Y-200000D02*
D03*
X1320000Y-280000D02*
D03*
X1280000Y-360000D02*
D03*
X1320000Y-440000D02*
D03*
X1280000Y-680000D02*
D03*
X1240000Y-120000D02*
D03*
X1200000Y-200000D02*
D03*
X1240000Y-280000D02*
D03*
X1200000Y-360000D02*
D03*
X1240000Y-440000D02*
D03*
X1200000Y-680000D02*
D03*
X1160000Y-120000D02*
D03*
X1120000Y-200000D02*
D03*
X1160000Y-280000D02*
D03*
X1120000Y-360000D02*
D03*
X1160000Y-440000D02*
D03*
X1120000Y-520000D02*
D03*
Y-680000D02*
D03*
X1080000Y-280000D02*
D03*
X1040000Y-360000D02*
D03*
X1080000Y-440000D02*
D03*
X1040000Y-520000D02*
D03*
X1080000Y-600000D02*
D03*
X1000000Y-280000D02*
D03*
X960000Y-360000D02*
D03*
X1000000Y-440000D02*
D03*
X960000Y-520000D02*
D03*
X760000Y500000D02*
D03*
Y360000D02*
D03*
X795000Y290000D02*
D03*
X760000Y220000D02*
D03*
X795000Y150000D02*
D03*
X760000Y-60000D02*
D03*
X690000Y500000D02*
D03*
X725000Y430000D02*
D03*
X690000Y360000D02*
D03*
X725000Y290000D02*
D03*
X690000Y220000D02*
D03*
X725000Y150000D02*
D03*
X690000Y80000D02*
D03*
X725000Y10000D02*
D03*
X690000Y-60000D02*
D03*
X725000Y-130000D02*
D03*
X655000Y430000D02*
D03*
X620000Y360000D02*
D03*
X655000Y290000D02*
D03*
X620000Y220000D02*
D03*
X655000Y150000D02*
D03*
X620000Y80000D02*
D03*
X655000Y10000D02*
D03*
X620000Y-60000D02*
D03*
X655000Y-130000D02*
D03*
X620000Y-200000D02*
D03*
X585000Y430000D02*
D03*
X550000Y360000D02*
D03*
X585000Y290000D02*
D03*
X550000Y220000D02*
D03*
X585000Y150000D02*
D03*
X550000Y80000D02*
D03*
X585000Y10000D02*
D03*
X550000Y-60000D02*
D03*
X585000Y-130000D02*
D03*
X550000Y-200000D02*
D03*
X585000Y-270000D02*
D03*
X515000Y10000D02*
D03*
X480000Y-60000D02*
D03*
X515000Y-130000D02*
D03*
X480000Y-200000D02*
D03*
X515000Y-270000D02*
D03*
X445000Y10000D02*
D03*
Y-130000D02*
D03*
Y-270000D02*
D03*
X0Y280000D02*
D03*
X40000Y200000D02*
D03*
X0Y120000D02*
D03*
X40000Y40000D02*
D03*
X0Y-40000D02*
D03*
X40000Y-120000D02*
D03*
X-80000Y280000D02*
D03*
X-40000Y200000D02*
D03*
X-80000Y120000D02*
D03*
X-40000Y40000D02*
D03*
X-80000Y-40000D02*
D03*
X-40000Y-120000D02*
D03*
X-160000Y280000D02*
D03*
X-120000Y200000D02*
D03*
X-160000Y120000D02*
D03*
X-120000Y40000D02*
D03*
X-160000Y-40000D02*
D03*
X-120000Y-120000D02*
D03*
X-240000Y280000D02*
D03*
X-200000Y200000D02*
D03*
X-240000Y-40000D02*
D03*
X-320000Y280000D02*
D03*
X-280000Y200000D02*
D03*
X-320000Y120000D02*
D03*
Y-40000D02*
D03*
X-400000Y280000D02*
D03*
X-360000Y200000D02*
D03*
X-400000Y120000D02*
D03*
X-360000Y40000D02*
D03*
X-400000Y-40000D02*
D03*
X-360000Y-120000D02*
D03*
X-480000Y280000D02*
D03*
X-440000Y200000D02*
D03*
X-480000Y120000D02*
D03*
X-440000Y40000D02*
D03*
X-480000Y-40000D02*
D03*
X-440000Y-120000D02*
D03*
X-600000Y1400000D02*
D03*
X-550000Y1300000D02*
D03*
X-600000Y1200000D02*
D03*
X-700000Y1400000D02*
D03*
X-650000Y1300000D02*
D03*
X-700000Y1200000D02*
D03*
X-800000Y1400000D02*
D03*
X-750000Y1300000D02*
D03*
X-800000Y1200000D02*
D03*
X-900000Y1400000D02*
D03*
X-850000Y1300000D02*
D03*
X-900000Y1200000D02*
D03*
X-1000000Y1400000D02*
D03*
X-950000Y1300000D02*
D03*
X-1000000Y1200000D02*
D03*
X-1100000Y1400000D02*
D03*
X-1050000Y1300000D02*
D03*
X-1100000Y1200000D02*
D03*
X-1200000Y1400000D02*
D03*
X-1150000Y1300000D02*
D03*
X-1200000Y1200000D02*
D03*
X-1300000Y1400000D02*
D03*
X-1250000Y1300000D02*
D03*
X-1300000Y1200000D02*
D03*
X-1400000Y1400000D02*
D03*
X-1350000Y1300000D02*
D03*
X-1400000Y1200000D02*
D03*
X-1500000Y1400000D02*
D03*
X-1450000Y1300000D02*
D03*
X-1500000Y1200000D02*
D03*
X-1600000Y1400000D02*
D03*
X-1550000Y1300000D02*
D03*
X-1600000Y1200000D02*
D03*
X-1700000Y1400000D02*
D03*
X-1650000Y1300000D02*
D03*
X-1700000Y1200000D02*
D03*
X400000Y1400000D02*
D03*
X450000Y1300000D02*
D03*
X400000Y1200000D02*
D03*
X300000Y1400000D02*
D03*
X350000Y1300000D02*
D03*
X300000Y1200000D02*
D03*
X200000Y1400000D02*
D03*
X250000Y1300000D02*
D03*
X200000Y1200000D02*
D03*
X100000Y1400000D02*
D03*
X150000Y1300000D02*
D03*
X100000Y1200000D02*
D03*
X0Y1400000D02*
D03*
X50000Y1300000D02*
D03*
X0Y1200000D02*
D03*
X-100000Y1400000D02*
D03*
X-50000Y1300000D02*
D03*
X-100000Y1200000D02*
D03*
X-200000Y1400000D02*
D03*
X-150000Y1300000D02*
D03*
X-200000Y1200000D02*
D03*
X-300000Y1400000D02*
D03*
X-250000Y1300000D02*
D03*
X-300000Y1200000D02*
D03*
X-400000Y1400000D02*
D03*
X-350000Y1300000D02*
D03*
X-400000Y1200000D02*
D03*
X1650000Y1400000D02*
D03*
X1600000Y1300000D02*
D03*
X1650000Y1200000D02*
D03*
X1600000Y1100000D02*
D03*
X1550000Y1400000D02*
D03*
X1500000Y1300000D02*
D03*
X1550000Y1200000D02*
D03*
X1500000Y1100000D02*
D03*
X1450000Y1400000D02*
D03*
X1400000Y1300000D02*
D03*
Y1100000D02*
D03*
X1350000Y1400000D02*
D03*
X1300000Y1300000D02*
D03*
X1350000Y1200000D02*
D03*
X1300000Y1100000D02*
D03*
X1250000Y1400000D02*
D03*
X1200000Y1300000D02*
D03*
X1250000Y1200000D02*
D03*
X1200000Y1100000D02*
D03*
X1150000Y1400000D02*
D03*
X1100000Y1300000D02*
D03*
X1150000Y1200000D02*
D03*
X1100000Y1100000D02*
D03*
X1050000Y1400000D02*
D03*
X1000000Y1300000D02*
D03*
X1050000Y1200000D02*
D03*
X1000000Y1100000D02*
D03*
X950000Y1400000D02*
D03*
X900000Y1300000D02*
D03*
X950000Y1200000D02*
D03*
X900000Y1100000D02*
D03*
X850000Y1400000D02*
D03*
X800000Y1300000D02*
D03*
X850000Y1200000D02*
D03*
X800000Y1100000D02*
D03*
X750000Y1400000D02*
D03*
X700000Y1300000D02*
D03*
X750000Y1200000D02*
D03*
X700000Y1100000D02*
D03*
X650000Y1400000D02*
D03*
X600000Y1300000D02*
D03*
X650000Y1200000D02*
D03*
X600000Y1100000D02*
D03*
X1473000Y1205000D02*
D03*
X1670000Y-1573976D02*
D03*
X-1519000Y-1599000D02*
D03*
X-1420000Y-1607000D02*
D03*
X-1331000Y-1599000D02*
D03*
X523549Y-1246000D02*
D03*
X343000Y-1247000D02*
D03*
X177456Y-1243000D02*
D03*
X11000Y1246000D02*
D03*
X-570000Y1356000D02*
D03*
X172000Y-961496D02*
D03*
X298000D02*
D03*
X454528Y-959000D02*
D03*
X1077000Y-1483000D02*
D03*
X-1429485Y-1330000D02*
D03*
X-1567000Y-1400000D02*
D03*
X-1503550Y-1367835D02*
D03*
X-394000Y-1865000D02*
D03*
X-1564495Y-1128000D02*
D03*
X-1562000Y-1047488D02*
D03*
X-1558024Y-969000D02*
D03*
X775500Y-780465D02*
D03*
X839000Y-1042000D02*
D03*
X1602000Y-1481000D02*
D03*
X1122000Y-1555000D02*
D03*
X1544000Y-1403000D02*
D03*
X1094000Y-1325000D02*
D03*
X-510000Y-887000D02*
D03*
X-425000Y-815000D02*
D03*
X-334000Y-788000D02*
D03*
X-374000Y-1114000D02*
D03*
X-71000Y-943000D02*
D03*
X429000Y-549000D02*
D03*
X230000Y-572000D02*
D03*
X218000Y-497000D02*
D03*
X45000Y-477000D02*
D03*
X1670000Y690000D02*
D03*
Y600000D02*
D03*
Y510000D02*
D03*
Y420000D02*
D03*
Y330000D02*
D03*
Y240000D02*
D03*
Y150000D02*
D03*
Y60000D02*
D03*
Y-30000D02*
D03*
X1580000Y330000D02*
D03*
Y240000D02*
D03*
Y150000D02*
D03*
Y60000D02*
D03*
Y-30000D02*
D03*
X1490000Y330000D02*
D03*
Y240000D02*
D03*
Y150000D02*
D03*
Y60000D02*
D03*
Y-30000D02*
D03*
X1400000Y330000D02*
D03*
Y240000D02*
D03*
Y150000D02*
D03*
Y-30000D02*
D03*
X1310000Y330000D02*
D03*
Y240000D02*
D03*
Y150000D02*
D03*
Y60000D02*
D03*
Y-30000D02*
D03*
X1220000Y330000D02*
D03*
Y240000D02*
D03*
Y150000D02*
D03*
Y60000D02*
D03*
Y-30000D02*
D03*
D47*
X-91868Y-684377D02*
D03*
X0Y-776245D02*
D03*
Y-837491D02*
D03*
X122491Y-715000D02*
D03*
X0Y-592509D02*
D03*
X-91868Y-745623D02*
D03*
X-122491Y-715000D02*
D03*
X30623Y-806868D02*
D03*
X-61245Y-715000D02*
D03*
X-30623Y-745623D02*
D03*
X-61245Y-776245D02*
D03*
X-30623Y-806868D02*
D03*
X-61245Y-653755D02*
D03*
X-30623Y-623132D02*
D03*
Y-684377D02*
D03*
X91868D02*
D03*
Y-745623D02*
D03*
X61245Y-653755D02*
D03*
Y-715000D02*
D03*
X30623Y-623132D02*
D03*
X0Y-653755D02*
D03*
X30623Y-684377D02*
D03*
X0Y-715000D02*
D03*
X30623Y-745623D02*
D03*
X61245Y-776245D02*
D03*
D48*
X1021000Y23000D02*
D03*
X790000Y22000D02*
D03*
%TF.MD5,a2e815fc0d6f3d6e02cd79305339d969*%
M02*
