%TF.GenerationSoftware,Altium Limited,Altium Designer,19.0.10 (269)*%
G04 Layer_Color=16711935*
%FSLAX26Y26*%
%MOIN*%
%TF.FileFunction,Other,Mechanical_13*%
%TF.Part,Single*%
G01*
G75*
%TA.AperFunction,NonConductor*%
%ADD77C,0.005000*%
%ADD79C,0.003937*%
D77*
X398252Y1846504D02*
X429748D01*
Y1909496D01*
X398252D02*
X429748D01*
X398252Y1846504D02*
Y1909496D01*
Y1846504D02*
X429748D01*
Y1909496D01*
X398252D02*
X429748D01*
X398252Y1846504D02*
Y1909496D01*
X-1364748Y1846504D02*
X-1333252D01*
Y1909496D01*
X-1364748D02*
X-1333252D01*
X-1364748Y1846504D02*
Y1909496D01*
Y1846504D02*
X-1333252D01*
Y1909496D01*
X-1364748D02*
X-1333252D01*
X-1364748Y1846504D02*
Y1909496D01*
X1584252Y1363504D02*
X1615748D01*
Y1426496D01*
X1584252D02*
X1615748D01*
X1584252Y1363504D02*
Y1426496D01*
Y1363504D02*
X1615748D01*
Y1426496D01*
X1584252D02*
X1615748D01*
X1584252Y1363504D02*
Y1426496D01*
X-1716748Y-324496D02*
Y-261504D01*
X-1685252D01*
Y-324496D02*
Y-261504D01*
X-1716748Y-324496D02*
X-1685252D01*
X-1716748D02*
Y-261504D01*
X-1685252D01*
Y-324496D02*
Y-261504D01*
X-1716748Y-324496D02*
X-1685252D01*
D79*
X167231Y-715000D02*
G03*
X167231Y-715000I-19685J0D01*
G01*
X224136Y-899191D02*
X249190Y-874136D01*
X176810Y-851865D02*
X201865Y-826809D01*
X272135Y-850474D02*
X297190Y-825419D01*
X224810Y-803148D02*
X249864Y-778093D01*
X-566976Y-799283D02*
X-500047D01*
X-566976Y-834716D02*
X-500047D01*
X-566976D02*
Y-799283D01*
X-500047Y-834716D02*
Y-799283D01*
X597717Y516535D02*
Y583465D01*
X562284Y516535D02*
Y583465D01*
X597717D01*
X562284Y516535D02*
X597717D01*
X-562283D02*
Y583465D01*
X-597716Y516535D02*
Y583465D01*
X-562283D01*
X-597716Y516535D02*
X-562283D01*
X952480Y-163386D02*
X1087520D01*
X952480Y163386D02*
X1087520D01*
X952480Y-163386D02*
Y163386D01*
X1087520Y-163386D02*
Y163386D01*
X1309079Y-1438614D02*
X1568921D01*
X1309079Y-1765386D02*
X1568921D01*
Y-1438614D01*
X1309079Y-1765386D02*
Y-1438614D01*
X1470449Y-1384039D02*
Y-1263961D01*
X1401551Y-1384039D02*
Y-1263961D01*
Y-1384039D02*
X1470449D01*
X1401551Y-1263961D02*
X1470449D01*
X1180661Y-1348575D02*
Y-1295425D01*
X1263339Y-1348575D02*
Y-1295425D01*
X1180661D02*
X1263339D01*
X1180661Y-1348575D02*
X1263339D01*
X1181425Y-1472661D02*
X1234575D01*
X1181425Y-1555339D02*
X1234575D01*
Y-1472661D01*
X1181425Y-1555339D02*
Y-1472661D01*
X1626717Y-1637953D02*
Y-1571024D01*
X1591284Y-1637953D02*
Y-1571024D01*
X1626717D01*
X1591284Y-1637953D02*
X1626717D01*
X1690717Y-1698465D02*
Y-1631535D01*
X1655284Y-1698465D02*
Y-1631535D01*
X1690717D01*
X1655284Y-1698465D02*
X1690717D01*
X1182425Y-1609661D02*
X1235575D01*
X1182425Y-1692339D02*
X1235575D01*
Y-1609661D01*
X1182425Y-1692339D02*
Y-1609661D01*
X1107299Y-1681937D02*
Y-1615008D01*
X1144701Y-1681937D02*
Y-1615008D01*
X1107299Y-1681937D02*
X1144701D01*
X1107299Y-1615008D02*
X1144701D01*
X843535Y-807283D02*
X910465D01*
X843535Y-842716D02*
X910465D01*
X843535D02*
Y-807283D01*
X910465Y-842716D02*
Y-807283D01*
X1053874Y-849717D02*
Y-814284D01*
X986945Y-849717D02*
Y-814284D01*
Y-849717D02*
X1053874D01*
X986945Y-814284D02*
X1053874D01*
X1051465Y-748717D02*
Y-713284D01*
X984535Y-748717D02*
Y-713284D01*
Y-748717D02*
X1051465D01*
X984535Y-713284D02*
X1051465D01*
X922339Y-756575D02*
Y-703425D01*
X839661Y-756575D02*
Y-703425D01*
Y-756575D02*
X922339D01*
X839661Y-703425D02*
X922339D01*
X291661Y-490575D02*
Y-437425D01*
X374339Y-490575D02*
Y-437425D01*
X291661D02*
X374339D01*
X291661Y-490575D02*
X374339D01*
X295063Y-528266D02*
X361992D01*
X295063Y-565667D02*
X361992D01*
X295063D02*
Y-528266D01*
X361992Y-565667D02*
Y-528266D01*
X294536Y-599299D02*
X361465D01*
X294536Y-636701D02*
X361465D01*
X294536D02*
Y-599299D01*
X361465Y-636701D02*
Y-599299D01*
X-197656Y-715000D02*
X0Y-517344D01*
Y-912656D02*
X197656Y-715000D01*
X-197656D02*
X0Y-912656D01*
Y-517344D02*
X197656Y-715000D01*
X174465Y-1067716D02*
Y-1032283D01*
X107535Y-1067716D02*
Y-1032283D01*
Y-1067716D02*
X174465D01*
X107535Y-1032283D02*
X174465D01*
X50535Y-1142813D02*
Y-1107380D01*
X117464Y-1142813D02*
Y-1107380D01*
X50535D02*
X117464D01*
X50535Y-1142813D02*
X117464D01*
X117465Y-1208701D02*
Y-1171299D01*
X50535Y-1208701D02*
Y-1171299D01*
Y-1208701D02*
X117465D01*
X50535Y-1171299D02*
X117465D01*
X235480Y-1137677D02*
Y-1102244D01*
X302409Y-1137677D02*
Y-1102244D01*
X235480D02*
X302409D01*
X235480Y-1137677D02*
X302409D01*
X302409Y-1067716D02*
Y-1032283D01*
X235480Y-1067716D02*
Y-1032283D01*
Y-1067716D02*
X302409D01*
X235480Y-1032283D02*
X302409D01*
X302409Y-1208661D02*
Y-1171260D01*
X235480Y-1208661D02*
Y-1171260D01*
Y-1208661D02*
X302409D01*
X235480Y-1171260D02*
X302409D01*
X391535Y-1207717D02*
Y-1172284D01*
X458465Y-1207717D02*
Y-1172284D01*
X391535D02*
X458465D01*
X391535Y-1207717D02*
X458465D01*
Y-1138701D02*
Y-1101299D01*
X391536Y-1138701D02*
Y-1101299D01*
Y-1138701D02*
X458465D01*
X391536Y-1101299D02*
X458465D01*
X-426283Y-1111465D02*
Y-1044535D01*
X-461716Y-1111465D02*
Y-1044535D01*
X-426283D01*
X-461716Y-1111465D02*
X-426283D01*
X-369976Y-864283D02*
X-303047D01*
X-369976Y-899716D02*
X-303047D01*
X-369976D02*
Y-864283D01*
X-303047Y-899716D02*
Y-864283D01*
X-1547299Y-1524992D02*
Y-1458063D01*
X-1584701Y-1524992D02*
Y-1458063D01*
X-1547299D01*
X-1584701Y-1524992D02*
X-1547299D01*
X-1470299Y-1524937D02*
Y-1458008D01*
X-1507701Y-1524937D02*
Y-1458008D01*
X-1470299D01*
X-1507701Y-1524937D02*
X-1470299D01*
X-1391299Y-1523937D02*
Y-1457008D01*
X-1428701Y-1523937D02*
Y-1457008D01*
X-1391299D01*
X-1428701Y-1523937D02*
X-1391299D01*
X-1483465Y-1144717D02*
X-1416535D01*
X-1483465Y-1109284D02*
X-1416535D01*
Y-1144717D02*
Y-1109284D01*
X-1483465Y-1144717D02*
Y-1109284D01*
Y-1068717D02*
X-1416535D01*
X-1483465Y-1033284D02*
X-1416535D01*
Y-1068717D02*
Y-1033284D01*
X-1483465Y-1068717D02*
Y-1033284D01*
Y-985717D02*
X-1416535D01*
X-1483465Y-950284D02*
X-1416535D01*
Y-985717D02*
Y-950284D01*
X-1483465Y-985717D02*
Y-950284D01*
X-1473221Y-1274465D02*
Y-1207535D01*
X-1437788Y-1274465D02*
Y-1207535D01*
X-1473221Y-1274465D02*
X-1437788D01*
X-1473221Y-1207535D02*
X-1437788D01*
X-1326717Y-1274465D02*
Y-1207535D01*
X-1291284Y-1274465D02*
Y-1207535D01*
X-1326717Y-1274465D02*
X-1291284D01*
X-1326717Y-1207535D02*
X-1291284D01*
X391535Y-1032283D02*
X458465D01*
X391535Y-1067716D02*
X458465D01*
X391535D02*
Y-1032283D01*
X458465Y-1067716D02*
Y-1032283D01*
X-1398717Y-1273976D02*
Y-1207047D01*
X-1363284Y-1273976D02*
Y-1207047D01*
X-1398717Y-1273976D02*
X-1363284D01*
X-1398717Y-1207047D02*
X-1363284D01*
X-286465Y-1048777D02*
X-219535D01*
X-286465Y-1013344D02*
X-219535D01*
Y-1048777D02*
Y-1013344D01*
X-286465Y-1048777D02*
Y-1013344D01*
X-293677Y-1134575D02*
Y-1081425D01*
X-211000Y-1134575D02*
Y-1081425D01*
X-293677D02*
X-211000D01*
X-293677Y-1134575D02*
X-211000D01*
X-1332480Y-163386D02*
Y163386D01*
X-1467520Y-163386D02*
Y163386D01*
X-1332480D01*
X-1467520Y-163386D02*
X-1332480D01*
X417520D02*
Y163386D01*
X282480Y-163386D02*
Y163386D01*
X417520D01*
X282480Y-163386D02*
X417520D01*
%TF.MD5,6bf0f5602a4005e544256acb4841ae5b*%
M02*
