%TF.GenerationSoftware,Altium Limited,Altium Designer,19.0.10 (269)*%
G04 Layer_Physical_Order=2*
G04 Layer_Color=32768*
%FSLAX26Y26*%
%MOIN*%
%TF.FileFunction,Copper,L2,Inr,Plane*%
%TF.Part,Single*%
G01*
G75*
%TA.AperFunction,NonConductor*%
%ADD49C,0.010000*%
%ADD50C,0.040000*%
%TA.AperFunction,ComponentPad*%
%ADD51C,0.071496*%
%TA.AperFunction,ViaPad*%
%ADD52C,0.134500*%
%ADD53C,0.220000*%
%TA.AperFunction,ComponentPad*%
%ADD54O,0.063622X0.106929*%
%ADD55C,0.158110*%
%ADD56C,0.075433*%
%ADD57O,0.106929X0.063622*%
%ADD58C,0.110866*%
%TA.AperFunction,ViaPad*%
%ADD59C,0.055625*%
%ADD60C,0.047874*%
%ADD61C,0.055000*%
%ADD62C,0.068000*%
D49*
X-1750000Y-672000D02*
Y-488000D01*
Y-672000D02*
X-1741000Y-681000D01*
X-138000Y-1014000D02*
Y-887491D01*
X-344491Y-681000D02*
X-138000Y-887491D01*
X-1741000Y-681000D02*
X-344491D01*
X111000Y-903000D02*
X846000D01*
X1124000Y-1181000D01*
X1750000D01*
D50*
X-1750000Y-2000000D02*
X1750000D01*
Y2000000D01*
X-1750000D02*
X1750000D01*
X-1750000Y-2000000D02*
Y2000000D01*
D51*
X-1622000Y-1008740D02*
D03*
Y-1087480D02*
D03*
Y-1166220D02*
D03*
Y-1244961D02*
D03*
D52*
X1650000Y-1900000D02*
D03*
X-1650000D02*
D03*
D53*
X1550000Y1800000D02*
D03*
X-1550000D02*
D03*
D54*
X-690252Y1836220D02*
D03*
X-1221748D02*
D03*
X268248D02*
D03*
X-263248D02*
D03*
X1221748D02*
D03*
X690252D02*
D03*
D55*
X-814268Y1600000D02*
D03*
X-1097732D02*
D03*
X144232D02*
D03*
X-139232D02*
D03*
X1097732D02*
D03*
X814268D02*
D03*
X1233780Y-837480D02*
D03*
X-936709Y-1832402D02*
D03*
X882189D02*
D03*
D56*
X-920000Y55000D02*
D03*
X-240000Y65000D02*
D03*
X1410000D02*
D03*
D57*
X1470000Y-961496D02*
D03*
Y-430000D02*
D03*
D58*
X882189Y-1545000D02*
D03*
Y-1367835D02*
D03*
X-440646D02*
D03*
Y-1545000D02*
D03*
X-275291Y-1367835D02*
D03*
Y-1545000D02*
D03*
X-109937Y-1367835D02*
D03*
Y-1545000D02*
D03*
X55417Y-1367835D02*
D03*
Y-1545000D02*
D03*
X220772Y-1367835D02*
D03*
Y-1545000D02*
D03*
X386126Y-1367835D02*
D03*
Y-1545000D02*
D03*
X551480Y-1367835D02*
D03*
Y-1545000D02*
D03*
X716835Y-1367835D02*
D03*
X-606000D02*
D03*
Y-1545000D02*
D03*
X-771354D02*
D03*
Y-1367835D02*
D03*
X-936709Y-1545000D02*
D03*
Y-1367835D02*
D03*
D59*
X-760000Y300000D02*
D03*
X-730000Y240000D02*
D03*
X-760000Y180000D02*
D03*
X-730000Y120000D02*
D03*
X-760000Y60000D02*
D03*
X-730000Y0D02*
D03*
X-820000Y300000D02*
D03*
X-790000Y240000D02*
D03*
X-820000Y180000D02*
D03*
X-790000Y120000D02*
D03*
X-820000Y60000D02*
D03*
X-790000Y0D02*
D03*
X-880000Y300000D02*
D03*
X-850000Y240000D02*
D03*
X-880000Y180000D02*
D03*
X-850000Y120000D02*
D03*
Y0D02*
D03*
X-940000Y300000D02*
D03*
X-910000Y240000D02*
D03*
X-940000Y180000D02*
D03*
X-910000Y120000D02*
D03*
X-1000000Y300000D02*
D03*
X-970000Y240000D02*
D03*
X-1000000Y180000D02*
D03*
X-970000Y120000D02*
D03*
X-1000000Y60000D02*
D03*
X-970000Y0D02*
D03*
X-1060000Y300000D02*
D03*
X-1030000Y240000D02*
D03*
X-1060000Y180000D02*
D03*
X-1030000Y120000D02*
D03*
X-1060000Y60000D02*
D03*
X-1030000Y0D02*
D03*
X-1120000Y300000D02*
D03*
X-1090000Y240000D02*
D03*
X-1120000Y180000D02*
D03*
X-1090000Y120000D02*
D03*
X-1120000Y60000D02*
D03*
X-1090000Y0D02*
D03*
X1600000Y-1720000D02*
D03*
X1640000Y-1800000D02*
D03*
X1520000Y-1880000D02*
D03*
X1440000D02*
D03*
X1360000D02*
D03*
X1280000Y-1720000D02*
D03*
Y-1880000D02*
D03*
X1240000Y-1800000D02*
D03*
X1200000Y-1880000D02*
D03*
X1160000Y-1800000D02*
D03*
X1120000Y-1880000D02*
D03*
X1080000Y-1800000D02*
D03*
X0Y280000D02*
D03*
X40000Y200000D02*
D03*
X0Y120000D02*
D03*
X40000Y40000D02*
D03*
X0Y-40000D02*
D03*
X40000Y-120000D02*
D03*
X-80000Y280000D02*
D03*
X-40000Y200000D02*
D03*
X-80000Y120000D02*
D03*
X-40000Y40000D02*
D03*
X-80000Y-40000D02*
D03*
X-40000Y-120000D02*
D03*
X-160000Y280000D02*
D03*
X-120000Y200000D02*
D03*
X-160000Y120000D02*
D03*
X-120000Y40000D02*
D03*
X-160000Y-40000D02*
D03*
X-120000Y-120000D02*
D03*
X-240000Y280000D02*
D03*
X-200000Y200000D02*
D03*
X-240000Y-40000D02*
D03*
X-320000Y280000D02*
D03*
X-280000Y200000D02*
D03*
X-320000Y120000D02*
D03*
Y-40000D02*
D03*
X-400000Y280000D02*
D03*
X-360000Y200000D02*
D03*
X-400000Y120000D02*
D03*
X-360000Y40000D02*
D03*
X-400000Y-40000D02*
D03*
X-360000Y-120000D02*
D03*
X-480000Y280000D02*
D03*
X-440000Y200000D02*
D03*
X-480000Y120000D02*
D03*
X-440000Y40000D02*
D03*
X-480000Y-40000D02*
D03*
X-440000Y-120000D02*
D03*
X-600000Y1400000D02*
D03*
X-550000Y1300000D02*
D03*
X-600000Y1200000D02*
D03*
X-700000Y1400000D02*
D03*
X-650000Y1300000D02*
D03*
X-700000Y1200000D02*
D03*
X-800000Y1400000D02*
D03*
X-750000Y1300000D02*
D03*
X-800000Y1200000D02*
D03*
X-900000Y1400000D02*
D03*
X-850000Y1300000D02*
D03*
X-900000Y1200000D02*
D03*
X-1000000Y1400000D02*
D03*
X-950000Y1300000D02*
D03*
X-1000000Y1200000D02*
D03*
X-1100000Y1400000D02*
D03*
X-1050000Y1300000D02*
D03*
X-1100000Y1200000D02*
D03*
X-1200000Y1400000D02*
D03*
X-1150000Y1300000D02*
D03*
X-1200000Y1200000D02*
D03*
X-1300000Y1400000D02*
D03*
X-1250000Y1300000D02*
D03*
X-1300000Y1200000D02*
D03*
X-1400000Y1400000D02*
D03*
X-1350000Y1300000D02*
D03*
X-1400000Y1200000D02*
D03*
X-1500000Y1400000D02*
D03*
X-1450000Y1300000D02*
D03*
X-1500000Y1200000D02*
D03*
X-1600000Y1400000D02*
D03*
X-1550000Y1300000D02*
D03*
X-1600000Y1200000D02*
D03*
X-1700000Y1400000D02*
D03*
X-1650000Y1300000D02*
D03*
X-1700000Y1200000D02*
D03*
X400000Y1400000D02*
D03*
X450000Y1300000D02*
D03*
X400000Y1200000D02*
D03*
X300000Y1400000D02*
D03*
X350000Y1300000D02*
D03*
X300000Y1200000D02*
D03*
X200000Y1400000D02*
D03*
X250000Y1300000D02*
D03*
X200000Y1200000D02*
D03*
X100000Y1400000D02*
D03*
X150000Y1300000D02*
D03*
X100000Y1200000D02*
D03*
X0Y1400000D02*
D03*
X50000Y1300000D02*
D03*
X0Y1200000D02*
D03*
X-100000Y1400000D02*
D03*
X-50000Y1300000D02*
D03*
X-100000Y1200000D02*
D03*
X-200000Y1400000D02*
D03*
X-150000Y1300000D02*
D03*
X-200000Y1200000D02*
D03*
X-300000Y1400000D02*
D03*
X-250000Y1300000D02*
D03*
X-300000Y1200000D02*
D03*
X-400000Y1400000D02*
D03*
X-350000Y1300000D02*
D03*
X-400000Y1200000D02*
D03*
X1650000Y1400000D02*
D03*
X1600000Y1300000D02*
D03*
X1650000Y1200000D02*
D03*
X1600000Y1100000D02*
D03*
X1550000Y1400000D02*
D03*
X1500000Y1300000D02*
D03*
X1550000Y1200000D02*
D03*
X1500000Y1100000D02*
D03*
X1450000Y1400000D02*
D03*
X1400000Y1300000D02*
D03*
Y1100000D02*
D03*
X1350000Y1400000D02*
D03*
X1300000Y1300000D02*
D03*
X1350000Y1200000D02*
D03*
X1300000Y1100000D02*
D03*
X1250000Y1400000D02*
D03*
X1200000Y1300000D02*
D03*
X1250000Y1200000D02*
D03*
X1200000Y1100000D02*
D03*
X1150000Y1400000D02*
D03*
X1100000Y1300000D02*
D03*
X1150000Y1200000D02*
D03*
X1100000Y1100000D02*
D03*
X1050000Y1400000D02*
D03*
X1000000Y1300000D02*
D03*
X1050000Y1200000D02*
D03*
X1000000Y1100000D02*
D03*
X950000Y1400000D02*
D03*
X900000Y1300000D02*
D03*
X950000Y1200000D02*
D03*
X900000Y1100000D02*
D03*
X850000Y1400000D02*
D03*
X800000Y1300000D02*
D03*
X850000Y1200000D02*
D03*
X800000Y1100000D02*
D03*
X750000Y1400000D02*
D03*
X700000Y1300000D02*
D03*
X750000Y1200000D02*
D03*
X700000Y1100000D02*
D03*
X650000Y1400000D02*
D03*
X600000Y1300000D02*
D03*
X650000Y1200000D02*
D03*
X600000Y1100000D02*
D03*
X1473000Y1205000D02*
D03*
X11000Y1246000D02*
D03*
X-570000Y1356000D02*
D03*
X172000Y-961496D02*
D03*
X298000D02*
D03*
X454528Y-959000D02*
D03*
X-1429485Y-1330000D02*
D03*
X-1567000Y-1400000D02*
D03*
X-1503550Y-1367835D02*
D03*
X-394000Y-1865000D02*
D03*
X839000Y-1042000D02*
D03*
X1602000Y-1481000D02*
D03*
X1122000Y-1555000D02*
D03*
X-510000Y-887000D02*
D03*
X-334000Y-788000D02*
D03*
X230000Y-572000D02*
D03*
X218000Y-497000D02*
D03*
X1670000Y690000D02*
D03*
Y600000D02*
D03*
Y510000D02*
D03*
Y420000D02*
D03*
Y330000D02*
D03*
Y240000D02*
D03*
Y150000D02*
D03*
Y60000D02*
D03*
Y-30000D02*
D03*
X1580000Y330000D02*
D03*
Y240000D02*
D03*
Y150000D02*
D03*
Y60000D02*
D03*
Y-30000D02*
D03*
X1490000Y330000D02*
D03*
Y240000D02*
D03*
Y150000D02*
D03*
Y60000D02*
D03*
Y-30000D02*
D03*
X1400000Y330000D02*
D03*
Y240000D02*
D03*
Y150000D02*
D03*
Y-30000D02*
D03*
X1310000Y330000D02*
D03*
Y240000D02*
D03*
Y150000D02*
D03*
Y60000D02*
D03*
Y-30000D02*
D03*
X1220000Y330000D02*
D03*
Y240000D02*
D03*
Y150000D02*
D03*
Y60000D02*
D03*
Y-30000D02*
D03*
D60*
X-91868Y-684377D02*
D03*
X0Y-776245D02*
D03*
Y-837491D02*
D03*
X122491Y-715000D02*
D03*
X0Y-592509D02*
D03*
X-91868Y-745623D02*
D03*
X-122491Y-715000D02*
D03*
X30623Y-806868D02*
D03*
X-61245Y-715000D02*
D03*
X-30623Y-745623D02*
D03*
X-61245Y-776245D02*
D03*
X-30623Y-806868D02*
D03*
X-61245Y-653755D02*
D03*
X-30623Y-623132D02*
D03*
Y-684377D02*
D03*
X91868D02*
D03*
Y-745623D02*
D03*
X61245Y-653755D02*
D03*
Y-715000D02*
D03*
X30623Y-623132D02*
D03*
X0Y-653755D02*
D03*
X30623Y-684377D02*
D03*
X0Y-715000D02*
D03*
X30623Y-745623D02*
D03*
X61245Y-776245D02*
D03*
D61*
X-1564495Y-1128000D02*
D03*
X-1562000Y-1047488D02*
D03*
X-1558024Y-969000D02*
D03*
D62*
X1021000Y23000D02*
D03*
X790000Y22000D02*
D03*
%TF.MD5,836fb84ebdea323b8b6023f3924a5b11*%
M02*
